<?xml version="1.0" standalone="no"?><!DOCTYPE svg PUBLIC "-//W3C//DTD SVG 1.1//EN" "http://www.w3.org/Graphics/SVG/1.1/DTD/svg11.dtd"><svg t="1613447010096" class="icon" viewBox="0 0 1024 1024" version="1.1" xmlns="http://www.w3.org/2000/svg" p-id="98089" xmlns:xlink="http://www.w3.org/1999/xlink" width="200" height="200"><defs><style type="text/css"></style></defs><path d="M512 16.384C238.2848 16.384 16.384 238.2848 16.384 512c0 273.7664 221.9008 495.616 495.616 495.616s495.616-221.8496 495.616-495.616c0-273.7152-221.9008-495.616-495.616-495.616z m0 895.6416a94.1568 94.1568 0 1 1 0.1024-188.3136A94.1568 94.1568 0 0 1 512 912.0256z m94.1056-352.9728a94.1056 94.1056 0 0 1-188.2112 0V206.1312a94.1568 94.1568 0 0 1 188.2112 0v352.9216z" p-id="98090" fill="#1296db"></path></svg>