<?xml version="1.0" standalone="no"?><!DOCTYPE svg PUBLIC "-//W3C//DTD SVG 1.1//EN" "http://www.w3.org/Graphics/SVG/1.1/DTD/svg11.dtd"><svg t="1676944860382" class="icon" viewBox="0 0 1024 1024" version="1.1" xmlns="http://www.w3.org/2000/svg" p-id="10545" xmlns:xlink="http://www.w3.org/1999/xlink" width="200" height="200"><path d="M426.666667 256a42.666667 42.666667 0 0 0-42.666667 42.666667v170.666666H230.826667l34.133333-33.706666a42.666667 42.666667 0 0 0-60.586667-60.586667l-106.666666 106.666667a42.666667 42.666667 0 0 0-8.96 14.08 42.666667 42.666667 0 0 0 0 32.426666 42.666667 42.666667 0 0 0 8.96 14.08l106.666666 106.666667a42.666667 42.666667 0 0 0 60.586667 0 42.666667 42.666667 0 0 0 0-60.586667l-34.133333-33.706666H384v170.666666a42.666667 42.666667 0 0 0 85.333333 0V298.666667a42.666667 42.666667 0 0 0-42.666666-42.666667z m508.586666 239.786667a42.666667 42.666667 0 0 0-8.96-14.08l-106.666666-106.666667a42.666667 42.666667 0 0 0-60.586667 60.586667l34.133333 33.706666H640V298.666667a42.666667 42.666667 0 0 0-85.333333 0v426.666666a42.666667 42.666667 0 0 0 85.333333 0v-170.666666h153.173333l-34.133333 33.706666a42.666667 42.666667 0 0 0 0 60.586667 42.666667 42.666667 0 0 0 60.586667 0l106.666666-106.666667a42.666667 42.666667 0 0 0 8.96-14.08 42.666667 42.666667 0 0 0 0-32.426666z" p-id="10546" fill="#1296db"></path></svg>