<?xml version="1.0" standalone="no"?><!DOCTYPE svg PUBLIC "-//W3C//DTD SVG 1.1//EN" "http://www.w3.org/Graphics/SVG/1.1/DTD/svg11.dtd"><svg t="1633601280534" class="icon" viewBox="0 0 1024 1024" version="1.1" xmlns="http://www.w3.org/2000/svg" p-id="9906" xmlns:xlink="http://www.w3.org/1999/xlink" width="200" height="200"><defs><style type="text/css"></style></defs><path d="M50.45 238.609h210c27.613 0 50-22.386 50-50s-22.387-50-50-50H50.45c-27.615 0-50 22.386-50 50s22.385 50 50 50zM50.119 599.798h279.762c27.679 0 50.119-22.386 50.119-50s-22.44-50-50.119-50H50.119c-27.681 0-50.119 22.386-50.119 50s22.438 50 50.119 50zM489.063 399.33l175.911-178.718-0.001 485.361c0 27.853 22.386 50.433 50 50.433s50-22.58 50-50.433l0.001-484.69L938.878 399.33c19.694 19.694 51.49 19.832 71.017 0.306s19.389-51.322-0.306-71.017L757.844 70.875c-8.746-14.661-24.671-24.47-42.869-24.47-18.144 0-34.028 9.747-42.791 24.333L418.352 328.619c-19.694 19.695-19.832 51.49-0.306 71.017s51.323 19.388 71.017-0.306zM974.45 860.598H50.45c-27.615 0-50 22.386-50 50s22.385 50 50 50h924c27.613 0 50-22.386 50-50s-22.387-50-50-50z" fill="#1296db" p-id="9907"></path></svg>