<?xml version="1.0" standalone="no"?><!DOCTYPE svg PUBLIC "-//W3C//DTD SVG 1.1//EN" "http://www.w3.org/Graphics/SVG/1.1/DTD/svg11.dtd"><svg t="1633602510635" class="icon" viewBox="0 0 1024 1024" version="1.1" xmlns="http://www.w3.org/2000/svg" p-id="75873" xmlns:xlink="http://www.w3.org/1999/xlink" width="200" height="200"><defs><style type="text/css"></style></defs><path d="M352.4096 737.28c7.970133-7.9872 17.937067-11.946667 29.866667-11.946667 11.946667 0 22.203733 3.959467 30.737066 11.946667 7.953067 8.533333 11.9296 18.773333 11.9296 30.72s-3.976533 21.896533-11.9296 29.866667c-8.533333 8.533333-18.7904 12.8-30.737066 12.8-11.9296 0-21.896533-4.266667-29.866667-12.8-8.533333-7.970133-12.8-17.92-12.8-29.866667s4.266667-22.186667 12.8-30.72z m0-67.413333c-8.533333-7.970133-12.8-17.92-12.8-29.866667s4.266667-22.186667 12.8-30.72c7.970133-7.9872 17.937067-11.946667 29.866667-11.946667 11.946667 0 22.203733 3.959467 30.737066 11.946667 7.953067 8.533333 11.9296 18.773333 11.9296 30.72s-3.976533 21.896533-11.9296 29.866667c-8.533333 8.533333-18.773333 12.8-30.737066 12.8-11.9296 0-21.896533-4.266667-29.866667-12.8z m-128 0c-8.533333-7.970133-12.8-17.92-12.8-29.866667s4.266667-22.186667 12.8-30.72c7.970133-7.9872 17.937067-11.946667 29.866667-11.946667 11.946667 0 22.203733 3.959467 30.737066 11.946667 7.953067 8.533333 11.9296 18.773333 11.9296 30.72s-3.976533 21.896533-11.9296 29.866667c-8.533333 8.533333-18.773333 12.8-30.737066 12.8-11.9296 0-21.896533-4.266667-29.866667-12.8zM511.146667 853.333333c11.912533 0 22.186667 3.959467 30.72 11.946667 7.970133 8.533333 11.946667 18.773333 11.946666 30.72s-3.976533 21.896533-11.946666 29.866667c-8.533333 8.533333-18.807467 12.8-30.72 12.8-11.946667 0-21.9136-4.266667-29.866667-12.8-8.533333-7.970133-12.8-17.92-12.8-29.866667s4.266667-22.186667 12.8-30.72c7.953067-7.9872 17.92-11.946667 29.866667-11.946667z m-42.666667-85.333333c0-11.946667 4.266667-22.186667 12.8-30.72 7.953067-7.9872 17.92-11.946667 29.866667-11.946667 11.912533 0 22.186667 3.959467 30.72 11.946667 7.970133 8.533333 11.946667 18.773333 11.946666 30.72s-3.976533 21.896533-11.946666 29.866667c-8.533333 8.533333-18.807467 12.8-30.72 12.8-11.946667 0-21.9136-4.266667-29.866667-12.8-8.533333-7.970133-12.8-17.92-12.8-29.866667z m42.666667-85.333333c-11.946667 0-21.9136-4.266667-29.866667-12.8-8.533333-7.970133-12.8-17.92-12.8-29.866667s4.266667-22.186667 12.8-30.72c7.953067-7.9872 17.92-11.946667 29.866667-11.946667 11.912533 0 22.186667 3.959467 30.72 11.946667 7.970133 8.533333 11.946667 18.773333 11.946666 30.72s-3.976533 21.896533-11.946666 29.866667c-8.533333 8.533333-18.807467 12.8-30.72 12.8z m128 0c-11.946667 0-21.9136-4.266667-29.866667-12.8-8.533333-7.970133-12.8-17.92-12.8-29.866667s4.266667-22.186667 12.8-30.72c7.953067-7.9872 17.92-11.946667 29.866667-11.946667 11.912533 0 22.186667 3.959467 30.72 11.946667 7.970133 8.533333 11.946667 18.773333 11.946666 30.72s-3.976533 21.896533-11.946666 29.866667c-8.533333 8.533333-18.807467 12.8-30.72 12.8z m-29.866667 115.2c-8.533333-7.970133-12.8-17.92-12.8-29.866667s4.266667-22.186667 12.8-30.72c7.953067-7.9872 17.92-11.946667 29.866667-11.946667 11.912533 0 22.186667 3.959467 30.72 11.946667 7.970133 8.533333 11.946667 18.773333 11.946666 30.72s-3.976533 21.896533-11.946666 29.866667c-8.533333 8.533333-18.807467 12.8-30.72 12.8-11.946667 0-21.9136-4.266667-29.866667-12.8z m126.293333-128c-8.533333-7.970133-12.8-17.92-12.8-29.866667s4.266667-22.186667 12.8-30.72c7.970133-7.9872 17.937067-11.946667 29.866667-11.946667 11.946667 0 22.203733 3.959467 30.737067 11.946667 7.970133 8.533333 11.9296 18.773333 11.9296 30.72s-3.959467 21.896533-11.9296 29.866667c-8.5504 8.533333-18.7904 12.8-30.737067 12.8s-21.9136-4.266667-29.866667-12.8zM98.133333 481.28c7.970133-7.970133 17.92-11.946667 29.866667-11.946667s22.186667 3.976533 30.72 11.946667c7.970133 8.533333 11.946667 18.773333 11.946667 30.72s-3.976533 21.896533-11.946667 29.866667c-8.533333 8.533333-18.773333 12.8-30.72 12.8s-21.896533-4.266667-29.866667-12.8C89.6 533.896533 85.333333 523.946667 85.333333 512s4.266667-22.186667 12.8-30.72z m241.476267-97.28c0-11.946667 4.266667-22.186667 12.8-30.72 7.970133-7.970133 17.937067-11.946667 29.866667-11.946667 11.946667 0 22.203733 3.976533 30.737066 11.946667 7.953067 8.533333 11.9296 18.773333 11.9296 30.72s-3.976533 21.896533-11.9296 29.866667c-8.533333 8.533333-18.773333 12.8-30.737066 12.8-11.9296 0-21.896533-4.266667-29.866667-12.8-8.533333-7.970133-12.8-17.92-12.8-29.866667z m-128 128c0-11.946667 4.266667-22.186667 12.8-30.72 7.970133-7.970133 17.937067-11.946667 29.866667-11.946667 11.946667 0 22.203733 3.976533 30.737066 11.946667 7.953067 8.533333 11.9296 18.773333 11.9296 30.72s-3.976533 21.896533-11.9296 29.866667c-8.533333 8.533333-18.7904 12.8-30.737066 12.8-11.9296 0-21.896533-4.266667-29.866667-12.8-8.533333-7.970133-12.8-17.92-12.8-29.866667z m128 0c0-11.946667 4.266667-22.186667 12.8-30.72 7.970133-7.970133 17.937067-11.946667 29.866667-11.946667 11.946667 0 22.203733 3.976533 30.737066 11.946667 7.953067 8.533333 11.9296 18.773333 11.9296 30.72s-3.976533 21.896533-11.9296 29.866667c-8.533333 8.533333-18.7904 12.8-30.737066 12.8-11.9296 0-21.896533-4.266667-29.866667-12.8-8.533333-7.970133-12.8-17.92-12.8-29.866667z m128.8704 0c0-11.946667 4.266667-22.186667 12.8-30.72 7.953067-7.970133 17.92-11.946667 29.866667-11.946667 11.912533 0 22.186667 3.976533 30.72 11.946667 7.970133 8.533333 11.946667 18.773333 11.946666 30.72s-3.976533 21.896533-11.946666 29.866667c-8.533333 8.533333-18.807467 12.8-30.72 12.8-11.946667 0-21.9136-4.266667-29.866667-12.8-8.533333-7.970133-12.8-17.92-12.8-29.866667z m0-128c0-11.946667 4.266667-22.186667 12.8-30.72 7.953067-7.970133 17.92-11.946667 29.866667-11.946667 11.912533 0 22.186667 3.976533 30.72 11.946667 7.970133 8.533333 11.946667 18.773333 11.946666 30.72s-3.976533 21.896533-11.946666 29.866667c-8.533333 8.533333-18.807467 12.8-30.72 12.8-11.946667 0-21.9136-4.266667-29.866667-12.8-8.533333-7.970133-12.8-17.92-12.8-29.866667zM382.276267 85.333333c11.963733 0 22.203733 3.976533 30.737066 11.946667 7.953067 8.533333 11.9296 18.773333 11.9296 30.72s-3.976533 21.896533-11.9296 29.866667c-8.533333 8.533333-18.773333 12.8-30.737066 12.8-11.9296 0-21.896533-4.266667-29.866667-12.8-8.533333-7.970133-12.8-17.92-12.8-29.866667s4.266667-22.186667 12.8-30.72c7.970133-7.970133 17.937067-11.946667 29.866667-11.946667z m-42.666667 170.666667c0-11.946667 4.266667-22.186667 12.8-30.72 7.970133-7.970133 17.937067-11.946667 29.866667-11.946667 11.946667 0 22.203733 3.976533 30.737066 11.946667 7.953067 8.533333 11.9296 18.773333 11.9296 30.72s-3.976533 21.896533-11.9296 29.866667c-8.533333 8.533333-18.7904 12.8-30.737066 12.8-11.9296 0-21.896533-4.266667-29.866667-12.8-8.533333-7.970133-12.8-17.92-12.8-29.866667z m128.8704-128c0-11.946667 4.266667-22.186667 12.8-30.72 7.953067-7.970133 17.92-11.946667 29.866667-11.946667 11.912533 0 22.186667 3.976533 30.72 11.946667 7.970133 8.533333 11.946667 18.773333 11.946666 30.72s-3.976533 21.896533-11.946666 29.866667c-8.533333 8.533333-18.807467 12.8-30.72 12.8-11.946667 0-21.9136-4.266667-29.866667-12.8-8.533333-7.970133-12.8-17.92-12.8-29.866667z m12.8 97.28c7.953067-7.970133 17.92-11.946667 29.866667-11.946667 11.912533 0 22.186667 3.976533 30.72 11.946667 7.970133 8.533333 11.946667 18.773333 11.946666 30.72s-3.976533 21.896533-11.946666 29.866667c-8.533333 8.533333-18.807467 12.8-30.72 12.8-11.946667 0-21.9136-4.266667-29.866667-12.8-8.533333-7.970133-12.8-17.92-12.8-29.866667s4.266667-22.186667 12.8-30.72z m188.586667-128c7.970133 8.533333 11.946667 18.773333 11.946666 30.72s-3.976533 21.896533-11.946666 29.866667c-8.533333 8.533333-18.807467 12.8-30.72 12.8-11.946667 0-21.9136-4.266667-29.866667-12.8-8.533333-7.970133-12.8-17.92-12.8-29.866667s4.266667-22.186667 12.8-30.72c7.953067-7.970133 17.92-11.946667 29.866667-11.946667 11.912533 0 22.186667 3.976533 30.72 11.946667z m11.946666 158.72c0 11.946667-3.976533 21.896533-11.946666 29.866667-8.533333 8.533333-18.807467 12.8-30.72 12.8-11.946667 0-21.9136-4.266667-29.866667-12.8-8.533333-7.970133-12.8-17.92-12.8-29.866667s4.266667-22.186667 12.8-30.72c7.953067-7.970133 17.92-11.946667 29.866667-11.946667 11.912533 0 22.186667 3.976533 30.72 11.946667 7.970133 8.533333 11.946667 18.773333 11.946666 30.72z m-42.666666 170.666667c-11.946667 0-21.9136-4.266667-29.866667-12.8-8.533333-7.970133-12.8-17.92-12.8-29.866667s4.266667-22.186667 12.8-30.72c7.953067-7.970133 17.92-11.946667 29.866667-11.946667 11.912533 0 22.186667 3.976533 30.72 11.946667 7.970133 8.533333 11.946667 18.773333 11.946666 30.72s-3.976533 21.896533-11.946666 29.866667c-8.533333 8.533333-18.807467 12.8-30.72 12.8z m30.72 54.613333c7.970133 8.533333 11.946667 18.773333 11.946666 30.72s-3.976533 21.896533-11.946666 29.866667c-8.533333 8.533333-18.807467 12.8-30.72 12.8-11.946667 0-21.9136-4.266667-29.866667-12.8-8.533333-7.970133-12.8-17.92-12.8-29.866667s4.266667-22.186667 12.8-30.72c7.953067-7.970133 17.92-11.946667 29.866667-11.946667 11.912533 0 22.186667 3.976533 30.72 11.946667z m95.573333-11.946667c11.946667 0 22.203733 3.976533 30.737067 11.946667 7.970133 8.533333 11.9296 18.773333 11.9296 30.72s-3.959467 21.896533-11.9296 29.866667c-8.533333 8.533333-18.7904 12.8-30.737067 12.8-11.9296 0-21.896533-4.266667-29.866667-12.8-8.533333-7.970133-12.8-17.92-12.8-29.866667s4.266667-22.186667 12.8-30.72c7.953067-7.970133 17.885867-11.946667 29.866667-11.946667z m98.133333 72.533334c-8.533333-7.970133-12.8-17.92-12.8-29.866667s4.266667-22.186667 12.8-30.72c7.970133-7.970133 17.937067-11.946667 29.866667-11.946667 11.946667 0 22.203733 3.976533 30.737067 11.946667 7.970133 8.533333 11.9296 18.773333 11.9296 30.72s-3.959467 21.896533-11.9296 29.866667c-8.533333 8.533333-18.7904 12.8-30.737067 12.8s-21.9136-4.266667-29.866667-12.8z" p-id="75874" fill="#1296db"></path></svg>