<?xml version="1.0" encoding="utf-8" standalone="no"?>
<!DOCTYPE svg PUBLIC "-//W3C//DTD SVG 1.1//EN"
  "http://www.w3.org/Graphics/SVG/1.1/DTD/svg11.dtd">
<svg height="141.12pt" version="1.1" viewBox="0 0 141.12 141.12" width="141.12pt" xmlns="http://www.w3.org/2000/svg" xmlns:xlink="http://www.w3.org/1999/xlink">
 <metadata>
  <rdf:RDF xmlns:cc="http://creativecommons.org/ns#" xmlns:dc="http://purl.org/dc/elements/1.1/" xmlns:rdf="http://www.w3.org/1999/02/22-rdf-syntax-ns#">
   <cc:Work>
    <dc:type rdf:resource="http://purl.org/dc/dcmitype/StillImage"/>
    <dc:date>2021-10-11T10:54:11.869248</dc:date>
    <dc:format>image/svg+xml</dc:format>
    <dc:creator>
     <cc:Agent>
      <dc:title>Matplotlib v3.4.3, https://matplotlib.org/</dc:title>
     </cc:Agent>
    </dc:creator>
   </cc:Work>
  </rdf:RDF>
 </metadata>
 <defs>
  <style type="text/css">*{stroke-linecap:butt;stroke-linejoin:round;}</style>
 </defs>
 <g id="figure_1">
  <g id="patch_1">
   <path d="M 0 141.12 
L 141.12 141.12 
L 141.12 0 
L 0 0 
z
" style="fill:none;"/>
  </g>
  <g id="axes_1">
   <g id="patch_2">
    <path d="M 5.78592 133.92288 
L 133.07616 133.92288 
L 133.07616 6.63264 
L 5.78592 6.63264 
z
" style="fill:none;"/>
   </g>
   <g id="patch_3">
    <path clip-path="url(#pf51f321a65)" d="M 8.276615 19.849736 
L 66.347485 19.849736 
L 66.347485 30.258873 
L 8.276615 30.258873 
z
" style="fill:#1f77b4;stroke:#1f77b4;stroke-linejoin:miter;"/>
   </g>
   <g id="patch_4">
    <path clip-path="url(#pf51f321a65)" d="M 8.276615 45.872578 
L 95.38292 45.872578 
L 95.38292 56.281715 
L 8.276615 56.281715 
z
" style="fill:#1f77b4;stroke:#1f77b4;stroke-linejoin:miter;"/>
   </g>
   <g id="patch_5">
    <path clip-path="url(#pf51f321a65)" d="M 8.276615 71.89542 
L 37.31205 71.89542 
L 37.31205 82.304557 
L 8.276615 82.304557 
z
" style="fill:#1f77b4;stroke:#1f77b4;stroke-linejoin:miter;"/>
   </g>
   <g id="patch_6">
    <path clip-path="url(#pf51f321a65)" d="M 8.276615 97.918263 
L 95.38292 97.918263 
L 95.38292 108.3274 
L 8.276615 108.3274 
z
" style="fill:#1f77b4;stroke:#1f77b4;stroke-linejoin:miter;"/>
   </g>
   <g id="patch_7">
    <path clip-path="url(#pf51f321a65)" d="M 8.276615 30.258873 
L 37.31205 30.258873 
L 37.31205 40.66801 
L 8.276615 40.66801 
z
" style="fill:#ff7f0e;stroke:#ff7f0e;stroke-linejoin:miter;"/>
   </g>
   <g id="patch_8">
    <path clip-path="url(#pf51f321a65)" d="M 8.276615 56.281715 
L 66.347485 56.281715 
L 66.347485 66.690852 
L 8.276615 66.690852 
z
" style="fill:#ff7f0e;stroke:#ff7f0e;stroke-linejoin:miter;"/>
   </g>
   <g id="patch_9">
    <path clip-path="url(#pf51f321a65)" d="M 8.276615 82.304557 
L 124.418355 82.304557 
L 124.418355 92.713694 
L 8.276615 92.713694 
z
" style="fill:#ff7f0e;stroke:#ff7f0e;stroke-linejoin:miter;"/>
   </g>
   <g id="patch_10">
    <path clip-path="url(#pf51f321a65)" d="M 8.276615 108.3274 
L 37.31205 108.3274 
L 37.31205 118.736537 
L 8.276615 118.736537 
z
" style="fill:#ff7f0e;stroke:#ff7f0e;stroke-linejoin:miter;"/>
   </g>
   <g id="matplotlib.axis_1"/>
   <g id="matplotlib.axis_2"/>
   <g id="line2d_1">
    <path clip-path="url(#pf51f321a65)" d="M 8.276615 133.92288 
L 8.276615 6.63264 
" style="fill:none;stroke:#808080;stroke-linecap:square;stroke-width:0.8;"/>
   </g>
   <g id="patch_11">
    <path d="M 5.78592 133.92288 
L 5.78592 6.63264 
" style="fill:none;stroke:#1f77b4;stroke-linecap:square;stroke-linejoin:miter;stroke-width:6;"/>
   </g>
   <g id="patch_12">
    <path d="M 133.07616 133.92288 
L 133.07616 6.63264 
" style="fill:none;stroke:#1f77b4;stroke-linecap:square;stroke-linejoin:miter;stroke-width:6;"/>
   </g>
   <g id="patch_13">
    <path d="M 5.78592 133.92288 
L 133.07616 133.92288 
" style="fill:none;stroke:#1f77b4;stroke-linecap:square;stroke-linejoin:miter;stroke-width:6;"/>
   </g>
   <g id="patch_14">
    <path d="M 5.78592 6.63264 
L 133.07616 6.63264 
" style="fill:none;stroke:#1f77b4;stroke-linecap:square;stroke-linejoin:miter;stroke-width:6;"/>
   </g>
  </g>
 </g>
 <defs>
  <clipPath id="pf51f321a65">
   <rect height="127.29024" width="127.29024" x="5.78592" y="6.63264"/>
  </clipPath>
 </defs>
</svg>
