<?xml version="1.0" encoding="utf-8" standalone="no"?>
<!DOCTYPE svg PUBLIC "-//W3C//DTD SVG 1.1//EN"
  "http://www.w3.org/Graphics/SVG/1.1/DTD/svg11.dtd">
<svg height="141.12pt" version="1.1" viewBox="0 0 141.12 141.12" width="141.12pt" xmlns="http://www.w3.org/2000/svg" xmlns:xlink="http://www.w3.org/1999/xlink">
 <metadata>
  <rdf:RDF xmlns:cc="http://creativecommons.org/ns#" xmlns:dc="http://purl.org/dc/elements/1.1/" xmlns:rdf="http://www.w3.org/1999/02/22-rdf-syntax-ns#">
   <cc:Work>
    <dc:type rdf:resource="http://purl.org/dc/dcmitype/StillImage"/>
    <dc:date>2021-10-11T10:56:04.343812</dc:date>
    <dc:format>image/svg+xml</dc:format>
    <dc:creator>
     <cc:Agent>
      <dc:title>Matplotlib v3.4.3, https://matplotlib.org/</dc:title>
     </cc:Agent>
    </dc:creator>
   </cc:Work>
  </rdf:RDF>
 </metadata>
 <defs>
  <style type="text/css">*{stroke-linecap:butt;stroke-linejoin:round;}</style>
 </defs>
 <g id="figure_1">
  <g id="patch_1">
   <path d="M 0 141.12 
L 141.12 141.12 
L 141.12 0 
L 0 0 
z
" style="fill:none;"/>
  </g>
  <g id="axes_1">
   <g id="patch_2">
    <path d="M 6.49152 126.86688 
L 130.25376 126.86688 
L 130.25376 5.92704 
L 6.49152 5.92704 
z
" style="fill:none;"/>
   </g>
   <g id="patch_3">
    <path clip-path="url(#pcad212926f)" d="M 10.591659 21.659444 
L 55.279403 21.659444 
L 55.279403 32.046771 
L 10.591659 32.046771 
z
" style="fill:#1f77b4;"/>
   </g>
   <g id="patch_4">
    <path clip-path="url(#pcad212926f)" d="M 10.591659 47.627761 
L 77.623274 47.627761 
L 77.623274 58.015088 
L 10.591659 58.015088 
z
" style="fill:#1f77b4;"/>
   </g>
   <g id="patch_5">
    <path clip-path="url(#pcad212926f)" d="M 10.591659 73.596079 
L 32.935531 73.596079 
L 32.935531 83.983406 
L 10.591659 83.983406 
z
" style="fill:#1f77b4;"/>
   </g>
   <g id="patch_6">
    <path clip-path="url(#pcad212926f)" d="M 10.591659 99.564397 
L 77.623274 99.564397 
L 77.623274 109.951724 
L 10.591659 109.951724 
z
" style="fill:#1f77b4;"/>
   </g>
   <g id="patch_7">
    <path clip-path="url(#pcad212926f)" d="M 55.279403 21.659444 
L 77.623274 21.659444 
L 77.623274 32.046771 
L 55.279403 32.046771 
z
" style="fill:#ff7f0e;"/>
   </g>
   <g id="patch_8">
    <path clip-path="url(#pcad212926f)" d="M 77.623274 47.627761 
L 122.311018 47.627761 
L 122.311018 58.015088 
L 77.623274 58.015088 
z
" style="fill:#ff7f0e;"/>
   </g>
   <g id="patch_9">
    <path clip-path="url(#pcad212926f)" d="M 32.935531 73.596079 
L 122.311018 73.596079 
L 122.311018 83.983406 
L 32.935531 83.983406 
z
" style="fill:#ff7f0e;"/>
   </g>
   <g id="patch_10">
    <path clip-path="url(#pcad212926f)" d="M 77.623274 99.564397 
L 99.967146 99.564397 
L 99.967146 109.951724 
L 77.623274 109.951724 
z
" style="fill:#ff7f0e;"/>
   </g>
   <g id="matplotlib.axis_1"/>
   <g id="matplotlib.axis_2"/>
   <g id="line2d_1">
    <path clip-path="url(#pcad212926f)" d="M 10.591659 126.86688 
L 10.591659 5.92704 
" style="fill:none;stroke:#808080;stroke-linecap:square;stroke-width:0.8;"/>
   </g>
   <g id="patch_11">
    <path d="M 6.49152 126.86688 
L 6.49152 5.92704 
" style="fill:none;stroke:#1f77b4;stroke-linecap:square;stroke-linejoin:miter;stroke-width:6;"/>
   </g>
   <g id="patch_12">
    <path d="M 130.25376 126.86688 
L 130.25376 5.92704 
" style="fill:none;stroke:#1f77b4;stroke-linecap:square;stroke-linejoin:miter;stroke-width:6;"/>
   </g>
   <g id="patch_13">
    <path d="M 6.49152 126.86688 
L 130.25376 126.86688 
" style="fill:none;stroke:#1f77b4;stroke-linecap:square;stroke-linejoin:miter;stroke-width:6;"/>
   </g>
   <g id="patch_14">
    <path d="M 6.49152 5.92704 
L 130.25376 5.92704 
" style="fill:none;stroke:#1f77b4;stroke-linecap:square;stroke-linejoin:miter;stroke-width:6;"/>
   </g>
  </g>
 </g>
 <defs>
  <clipPath id="pcad212926f">
   <rect height="120.93984" width="123.76224" x="6.49152" y="5.92704"/>
  </clipPath>
 </defs>
</svg>
