<svg id="图层_1" data-name="图层 1" xmlns="http://www.w3.org/2000/svg" viewBox="0 0 1024 1024"><defs><style>.cls-1{fill:#0071bc;}.cls-2{fill:#f7931e;}.cls-3{fill:#29abe2;}</style></defs><path class="cls-1" d="M55.23,975.7,47.1,959.63c35.53-18,62.31-39.83,84.27-68.82C183.75,821.68,208,714.46,230.19,601.4L248,603.68,236.7,789.45c-.89,14.74-3.62,59.59,9.49,69.87a6.33,6.33,0,0,0,6,1.11c8.68-2.14,19.63-14.52,26.62-30.11,10.69-23.85,14.78-52.7,18.74-80.6l.09-.65c12.08-85.21,28-183.25,64.33-268.27l25.32-59.26-8.12,63.93a2755,2755,0,0,0-21.41,288c4.77-10.42,8.39-22,10.68-29.38,24.19-77.65,46.27-157.55,65.64-237.47,5.93-24.49,10.05-51.51,14.41-80.11,7.72-50.68,15.71-103.08,34.81-144l17.59-37.67-.43,41.57c-1.54,146.75-27,298.81-53.7,432.21C484.41,665.46,510.3,591,527.36,536.08A2101.18,2101.18,0,0,0,587,293.24q4.8-28.86,9.76-57.62l17.76,2.91q-4.49,28.95-9.79,57.81C586.69,405,570.34,514.57,556,623c-3.41,25.81-5.9,48.68-1.85,67.25,2.45,11.25,7.94,17.79,12,19.11.71.23,2.41.78,5.1-1A2997.64,2997.64,0,0,0,680.76,330.63l13.06-59.25,4.7,60.49c3.73,47.94-5.34,100.52-14.11,151.38-9.25,53.65-18,104.71-12.91,149.64,37.21-49.91,61.92-123.37,77.74-176.4,5.22-17.49,10.31-35.5,15.24-52.91,15.8-55.88,32.15-113.66,55.59-165.23l4-8.74,8.47,4.53c18.25,9.76,21.11,40.64,21.48,72.56l1.85,159.91c.14,11.83.29,25.23,3.83,34.07,3.44,8.61,9.7,11.88,18,14.14,33.19,9,77.87-11.78,95.31-68.05l17.2,5.33c-20.78,67-75.91,91.31-117.22,80.09-9.68-2.63-23.33-8.06-30-24.82-4.79-12-5-27.15-5.12-40.55L836,306.91c-.25-22.23-2.09-38.12-5.48-47.53-19.8,46.89-34.48,98.77-48.71,149.1C776.86,426,771.74,444,766.49,461.64,747,527.08,718.65,608.77,672.57,660l-11.71,13-3.77-17.11c-11.62-52.79-.84-115.29,9.58-175.74,2.45-14.19,4.92-28.51,7.12-42.8-24.48,95.28-53.45,188.93-86.48,279.53l-.78,2.12-1.69,1.51c-7.31,6.52-15.91,8.62-24.22,5.93-11.27-3.66-20.48-16.07-24-32.4-4.67-21.41-2-45.93,1.59-73.44q7-53.21,14.7-106.7-4.08,13.78-8.32,27.48c-20.8,67-54.57,162.44-107.38,217.11l-21.55,22.3,6.26-30.37c25.17-122.05,51-262.53,58.47-401-5.84,25.56-10,52.9-14.1,79.75-4.42,29-8.59,56.39-14.71,81.64-19.46,80.29-41.64,160.56-66,238.58-7.2,23.12-16.23,48.69-32.28,59.47l-14.19,9.51.17-17.08c.81-78.58,5.19-158.62,13.08-238.85-18.07,63.12-28.46,129.32-36.94,189.15l-.09.65c-4.13,29.13-8.4,59.26-20.14,85.44-9.53,21.26-24.37,36.67-38.72,40.22a24.16,24.16,0,0,1-21.39-4.42c-18.06-14.16-18.53-49.28-16.35-85.13L223,719.07c-18,71.06-41.12,134.94-77.23,182.61C122,932.93,93.29,956.45,55.23,975.7Z"/><path class="cls-2" d="M64.23,1000.89l-8.62-15.81c3-1.65,304-165.88,401.26-225,42.44-25.8,77.68-26.61,108.77-27.32,44.4-1,82.75-1.89,137.76-70.48,22.93-28.59,53.23-54.48,90.06-77,29.27-17.86,62.72-33.63,99.42-46.86,62.39-22.5,112-29.81,114-30.11l2.57,17.82c-.49.07-50.14,7.41-110.86,29.35-55.58,20.08-132.13,56.85-181.19,118-27.29,34-52.94,55.08-80.7,66.21-24.84,10-48.15,10.49-70.69,11-30.24.69-61.51,1.4-99.83,24.7C368.63,834.8,67.26,999.23,64.23,1000.89Z"/><path class="cls-3" d="M31,621.81V65.19H403v65.68H104V303.25H362.74v65.69H104V621.81Z"/></svg>