<?xml version="1.0" encoding="utf-8" standalone="no"?>
<!DOCTYPE svg PUBLIC "-//W3C//DTD SVG 1.1//EN"
  "http://www.w3.org/Graphics/SVG/1.1/DTD/svg11.dtd">
<svg xmlns:xlink="http://www.w3.org/1999/xlink" width="141.12pt" height="141.12pt" viewBox="0 0 141.12 141.12" xmlns="http://www.w3.org/2000/svg" version="1.1">
 <metadata>
  <rdf:RDF xmlns:dc="http://purl.org/dc/elements/1.1/" xmlns:cc="http://creativecommons.org/ns#" xmlns:rdf="http://www.w3.org/1999/02/22-rdf-syntax-ns#">
   <cc:Work>
    <dc:type rdf:resource="http://purl.org/dc/dcmitype/StillImage"/>
    <dc:date>2023-01-01T21:02:59.109554</dc:date>
    <dc:format>image/svg+xml</dc:format>
    <dc:creator>
     <cc:Agent>
      <dc:title>Matplotlib v3.6.2, https://matplotlib.org/</dc:title>
     </cc:Agent>
    </dc:creator>
   </cc:Work>
  </rdf:RDF>
 </metadata>
 <defs>
  <style type="text/css">*{stroke-linejoin: round; stroke-linecap: butt}</style>
 </defs>
 <g id="figure_1">
  <g id="patch_1">
   <path d="M 0 141.12 
L 141.12 141.12 
L 141.12 0 
L 0 0 
L 0 141.12 
z
" style="fill: none"/>
  </g>
  <g id="axes_1">
   <g id="patch_2">
    <path d="M 6.49152 134.20512 
L 134.48736 134.20512 
L 134.48736 6.63264 
L 6.49152 6.63264 
L 6.49152 134.20512 
z
" style="fill: none"/>
   </g>
   <g id="matplotlib.axis_1">
    <g id="xtick_1">
     <g id="line2d_1">
      <defs>
       <path id="m70bf39260c" d="M 0 0 
L 0 3.5 
" style="stroke: #000000; stroke-width: 1.5"/>
      </defs>
      <g>
       <use xlink:href="#m70bf39260c" x="26.618503" y="134.20512" style="stroke: #000000; stroke-width: 1.5"/>
      </g>
     </g>
     <g id="text_1">
      <text style="font: 10px 'Times New Roman'; text-anchor: middle" x="26.618503" y="148.14887" transform="rotate(-0 26.618503 148.14887)">newCol1</text>
     </g>
    </g>
    <g id="xtick_2">
     <g id="line2d_2">
      <g>
       <use xlink:href="#m70bf39260c" x="70.403463" y="134.20512" style="stroke: #000000; stroke-width: 1.5"/>
      </g>
     </g>
     <g id="text_2">
      <text style="font: 10px 'Times New Roman'; text-anchor: middle" x="70.403463" y="148.14887" transform="rotate(-0 70.403463 148.14887)">newCol2</text>
     </g>
    </g>
    <g id="xtick_3">
     <g id="line2d_3">
      <g>
       <use xlink:href="#m70bf39260c" x="114.188424" y="134.20512" style="stroke: #000000; stroke-width: 1.5"/>
      </g>
     </g>
     <g id="text_3">
      <text style="font: 10px 'Times New Roman'; text-anchor: middle" x="114.188424" y="148.14887" transform="rotate(-0 114.188424 148.14887)">newCol3</text>
     </g>
    </g>
   </g>
   <g id="matplotlib.axis_2"/>
   <g id="patch_3">
    <path d="M 20.050758 85.292287 
L 33.186247 85.292287 
L 33.186247 75.217727 
L 29.902375 68.599481 
L 33.186247 61.981235 
L 33.186247 55.484602 
L 20.050758 55.484602 
L 20.050758 61.981235 
L 23.33463 68.599481 
L 20.050758 75.217727 
L 20.050758 85.292287 
z
" clip-path="url(#p8f1f633f05)" style="fill: #a6cee3; stroke: #000000; stroke-linejoin: miter"/>
   </g>
   <g id="line2d_4">
    <path d="M 26.618503 85.292287 
L 26.618503 116.919716 
" clip-path="url(#p8f1f633f05)" style="fill: none; stroke: #000000; stroke-linecap: square"/>
   </g>
   <g id="line2d_5">
    <path d="M 26.618503 55.484602 
L 26.618503 21.01991 
" clip-path="url(#p8f1f633f05)" style="fill: none; stroke: #000000; stroke-linecap: square"/>
   </g>
   <g id="line2d_6">
    <path d="M 23.33463 116.919716 
L 29.902375 116.919716 
" clip-path="url(#p8f1f633f05)" style="fill: none; stroke: #000000; stroke-linecap: square"/>
   </g>
   <g id="line2d_7">
    <path d="M 23.33463 21.01991 
L 29.902375 21.01991 
" clip-path="url(#p8f1f633f05)" style="fill: none; stroke: #000000; stroke-linecap: square"/>
   </g>
   <g id="line2d_8">
    <defs>
     <path id="mc8a3b62e93" d="M 0 3 
C 0.795609 3 1.55874 2.683901 2.12132 2.12132 
C 2.683901 1.55874 3 0.795609 3 0 
C 3 -0.795609 2.683901 -1.55874 2.12132 -2.12132 
C 1.55874 -2.683901 0.795609 -3 0 -3 
C -0.795609 -3 -1.55874 -2.683901 -2.12132 -2.12132 
C -2.683901 -1.55874 -3 -0.795609 -3 0 
C -3 0.795609 -2.683901 1.55874 -2.12132 2.12132 
C -1.55874 2.683901 -0.795609 3 0 3 
z
" style="stroke: #000000"/>
    </defs>
    <g clip-path="url(#p8f1f633f05)"/>
   </g>
   <g id="patch_4">
    <path d="M 63.835719 85.507071 
L 76.971208 85.507071 
L 76.971208 72.584622 
L 73.687335 67.507706 
L 76.971208 62.430789 
L 76.971208 62.641327 
L 63.835719 62.641327 
L 63.835719 62.430789 
L 67.119591 67.507706 
L 63.835719 72.584622 
L 63.835719 85.507071 
z
" clip-path="url(#p8f1f633f05)" style="fill: #fdbf6f; stroke: #000000; stroke-linejoin: miter"/>
   </g>
   <g id="line2d_9">
    <path d="M 70.403463 85.507071 
L 70.403463 106.423434 
" clip-path="url(#p8f1f633f05)" style="fill: none; stroke: #000000; stroke-linecap: square"/>
   </g>
   <g id="line2d_10">
    <path d="M 70.403463 62.641327 
L 70.403463 28.680432 
" clip-path="url(#p8f1f633f05)" style="fill: none; stroke: #000000; stroke-linecap: square"/>
   </g>
   <g id="line2d_11">
    <path d="M 67.119591 106.423434 
L 73.687335 106.423434 
" clip-path="url(#p8f1f633f05)" style="fill: none; stroke: #000000; stroke-linecap: square"/>
   </g>
   <g id="line2d_12">
    <path d="M 67.119591 28.680432 
L 73.687335 28.680432 
" clip-path="url(#p8f1f633f05)" style="fill: none; stroke: #000000; stroke-linecap: square"/>
   </g>
   <g id="line2d_13">
    <g clip-path="url(#p8f1f633f05)">
     <use xlink:href="#mc8a3b62e93" x="70.403463" y="122.958358" style="fill-opacity: 0; stroke: #000000"/>
     <use xlink:href="#mc8a3b62e93" x="70.403463" y="21.602349" style="fill-opacity: 0; stroke: #000000"/>
     <use xlink:href="#mc8a3b62e93" x="70.403463" y="27.657631" style="fill-opacity: 0; stroke: #000000"/>
    </g>
   </g>
   <g id="patch_5">
    <path d="M 107.62068 76.561905 
L 120.756168 76.561905 
L 120.756168 67.646373 
L 117.472296 61.986895 
L 120.756168 56.327417 
L 120.756168 51.07238 
L 107.62068 51.07238 
L 107.62068 56.327417 
L 110.904552 61.986895 
L 107.62068 67.646373 
L 107.62068 76.561905 
z
" clip-path="url(#p8f1f633f05)" style="fill: #b15928; stroke: #000000; stroke-linejoin: miter"/>
   </g>
   <g id="line2d_14">
    <path d="M 114.188424 76.561905 
L 114.188424 114.457982 
" clip-path="url(#p8f1f633f05)" style="fill: none; stroke: #000000; stroke-linecap: square"/>
   </g>
   <g id="line2d_15">
    <path d="M 114.188424 51.07238 
L 114.188424 16.008984 
" clip-path="url(#p8f1f633f05)" style="fill: none; stroke: #000000; stroke-linecap: square"/>
   </g>
   <g id="line2d_16">
    <path d="M 110.904552 114.457982 
L 117.472296 114.457982 
" clip-path="url(#p8f1f633f05)" style="fill: none; stroke: #000000; stroke-linecap: square"/>
   </g>
   <g id="line2d_17">
    <path d="M 110.904552 16.008984 
L 117.472296 16.008984 
" clip-path="url(#p8f1f633f05)" style="fill: none; stroke: #000000; stroke-linecap: square"/>
   </g>
   <g id="line2d_18"/>
   <g id="line2d_19">
    <path d="M 23.33463 68.599481 
L 29.902375 68.599481 
" clip-path="url(#p8f1f633f05)" style="fill: none; stroke: #ff7f0e; stroke-linecap: square"/>
   </g>
   <g id="line2d_20">
    <path d="M 67.119591 67.507706 
L 73.687335 67.507706 
" clip-path="url(#p8f1f633f05)" style="fill: none; stroke: #ff7f0e; stroke-linecap: square"/>
   </g>
   <g id="line2d_21">
    <path d="M 110.904552 61.986895 
L 117.472296 61.986895 
" clip-path="url(#p8f1f633f05)" style="fill: none; stroke: #ff7f0e; stroke-linecap: square"/>
   </g>
   <g id="patch_6">
    <path d="M 6.49152 134.20512 
L 6.49152 6.63264 
" style="fill: none; stroke: #1f77b4; stroke-width: 5; stroke-linejoin: miter; stroke-linecap: square"/>
   </g>
   <g id="patch_7">
    <path d="M 134.48736 134.20512 
L 134.48736 6.63264 
" style="fill: none; stroke: #1f77b4; stroke-width: 5; stroke-linejoin: miter; stroke-linecap: square"/>
   </g>
   <g id="patch_8">
    <path d="M 6.49152 134.20512 
L 134.48736 134.20512 
" style="fill: none; stroke: #1f77b4; stroke-width: 5; stroke-linejoin: miter; stroke-linecap: square"/>
   </g>
   <g id="patch_9">
    <path d="M 6.49152 6.63264 
L 134.48736 6.63264 
" style="fill: none; stroke: #1f77b4; stroke-width: 5; stroke-linejoin: miter; stroke-linecap: square"/>
   </g>
  </g>
 </g>
 <defs>
  <clipPath id="p8f1f633f05">
   <rect x="6.49152" y="6.63264" width="127.99584" height="127.57248"/>
  </clipPath>
 </defs>
</svg>
