<?xml version="1.0" standalone="no"?><!DOCTYPE svg PUBLIC "-//W3C//DTD SVG 1.1//EN" "http://www.w3.org/Graphics/SVG/1.1/DTD/svg11.dtd"><svg t="1613446887894" class="icon" viewBox="0 0 1095 1024" version="1.1" xmlns="http://www.w3.org/2000/svg" p-id="89658" xmlns:xlink="http://www.w3.org/1999/xlink" width="213.8671875" height="200"><defs><style type="text/css"></style></defs><path d="M1061.970282 582.018178l-463.600922 208.46432a98.963968 98.963968 0 0 1-103.022427 0L31.746011 582.018178A109.812542 109.812542 0 0 1 0.527093 494.214973c31.218917 17.716736 74.457118 37.384653 72.818125 36.370039L546.858146 749.117433l473.512929-218.532421c0.780473 0 43.004059-21.463006 72.818125-36.370039a111.763724 111.763724 0 0 1-31.218918 87.803205z m0-218.532421l-463.600922 208.386273a98.963968 98.963968 0 0 1-103.022427 0L31.746011 363.485757a62.437835 62.437835 0 0 1 0-102.94438L495.346933 15.785065a91.939712 91.939712 0 0 1 103.022427 0l463.600922 244.756312a63.920733 63.920733 0 0 1 0 102.94438zM546.858146 57.540367L73.345218 312.208685 546.858146 511.775614l473.512929-199.566929z m0 0c2.497513 0.85852 3.434081 4.058459 0 0z m0 909.563156l473.512929-218.532421c0.780473 0 43.004059-21.463006 72.818125-36.370039a111.763724 111.763724 0 0 1-31.218918 87.803205l-463.600922 208.386273a98.573731 98.573731 0 0 1-103.022427 0L31.746011 800.004268A109.812542 109.812542 0 0 1 0.527093 712.201063c31.218917 17.716736 74.457118 37.384653 72.818125 36.370039z" p-id="89659" fill="#1296db"></path></svg>