<?xml version="1.0" standalone="no"?><!DOCTYPE svg PUBLIC "-//W3C//DTD SVG 1.1//EN" "http://www.w3.org/Graphics/SVG/1.1/DTD/svg11.dtd"><svg t="1644235876356" class="icon" viewBox="0 0 1024 1024" version="1.1" xmlns="http://www.w3.org/2000/svg" p-id="45088" xmlns:xlink="http://www.w3.org/1999/xlink" width="200" height="200"><defs><style type="text/css"></style></defs><path d="M512 917.333333c-4.266667 0-6.4 0-10.666667-2.133333l-277.333333-155.733333c-10.666667-6.4-14.933333-19.2-8.533333-29.866667 6.4-10.666667 19.2-14.933333 29.866666-8.533333l266.666667 149.333333 266.666667-149.333333c10.666667-6.4 23.466667-2.133333 29.866666 8.533333 6.4 10.666667 2.133333 23.466667-8.533333 29.866667l-277.333333 155.733333c-4.266667 2.133333-6.4 2.133333-10.666667 2.133333z m341.333333-256c-12.8 0-21.333333-8.533333-21.333333-21.333333V332.8L576 187.733333c-10.666667-6.4-14.933333-19.2-8.533333-29.866666 6.4-8.533333 19.2-12.8 29.866666-6.4l266.666667 149.333333c6.4 4.266667 10.666667 10.666667 10.666667 19.2v320c0 12.8-8.533333 21.333333-21.333334 21.333333zM170.666667 661.333333c-12.8 0-21.333333-8.533333-21.333334-21.333333V320c0-8.533333 4.266667-14.933333 10.666667-19.2l266.666667-149.333333c10.666667-6.4 23.466667-2.133333 29.866666 8.533333s2.133333 23.466667-8.533333 29.866667L192 332.8V640c0 12.8-8.533333 21.333333-21.333333 21.333333zM512 682.666667c-4.266667 0-6.4 0-10.666667-2.133334l-128-74.666666c-6.4-4.266667-10.666667-10.666667-10.666666-19.2v-149.333334c0-8.533333 4.266667-14.933333 10.666666-19.2l128-74.666666c6.4-4.266667 14.933333-4.266667 21.333334 0l128 74.666666c6.4 4.266667 10.666667 10.666667 10.666666 19.2v149.333334c0 8.533333-4.266667 14.933333-10.666666 19.2l-128 74.666666c-4.266667 2.133333-6.4 2.133333-10.666667 2.133334z m-106.666667-108.8l106.666667 61.866666 106.666667-61.866666V448l-106.666667-61.866667-106.666667 61.866667v125.866667z" p-id="45089" fill="#1296db"></path><path d="M512 384c-12.8 0-21.333333-8.533333-21.333333-21.333333v-149.333334c0-12.8 8.533333-21.333333 21.333333-21.333333s21.333333 8.533333 21.333333 21.333333v149.333334c0 12.8-8.533333 21.333333-21.333333 21.333333zM789.333333 682.666667c-4.266667 0-6.4 0-10.666666-2.133334l-149.333334-85.333333c-10.666667-6.4-12.8-19.2-8.533333-29.866667 6.4-10.666667 19.2-12.8 29.866667-8.533333l149.333333 85.333333c10.666667 6.4 12.8 19.2 8.533333 29.866667-4.266667 6.4-12.8 10.666667-19.2 10.666667zM234.666667 682.666667c-6.4 0-14.933333-4.266667-19.2-10.666667-6.4-10.666667-2.133333-23.466667 8.533333-29.866667l149.333333-85.333333c10.666667-6.4 23.466667-2.133333 29.866667 8.533333s2.133333 23.466667-8.533333 29.866667l-149.333334 85.333333c-4.266667 2.133333-6.4 2.133333-10.666666 2.133334z" p-id="45090" fill="#1296db"></path><path d="M512 234.666667c-46.933333 0-85.333333-38.4-85.333333-85.333334s38.4-85.333333 85.333333-85.333333 85.333333 38.4 85.333333 85.333333-38.4 85.333333-85.333333 85.333334z m0-128c-23.466667 0-42.666667 19.2-42.666667 42.666666s19.2 42.666667 42.666667 42.666667 42.666667-19.2 42.666667-42.666667-19.2-42.666667-42.666667-42.666666zM170.666667 789.333333c-46.933333 0-85.333333-38.4-85.333334-85.333333s38.4-85.333333 85.333334-85.333333 85.333333 38.4 85.333333 85.333333-38.4 85.333333-85.333333 85.333333z m0-128c-23.466667 0-42.666667 19.2-42.666667 42.666667s19.2 42.666667 42.666667 42.666667 42.666667-19.2 42.666666-42.666667-19.2-42.666667-42.666666-42.666667zM853.333333 789.333333c-46.933333 0-85.333333-38.4-85.333333-85.333333s38.4-85.333333 85.333333-85.333333 85.333333 38.4 85.333334 85.333333-38.4 85.333333-85.333334 85.333333z m0-128c-23.466667 0-42.666667 19.2-42.666666 42.666667s19.2 42.666667 42.666666 42.666667 42.666667-19.2 42.666667-42.666667-19.2-42.666667-42.666667-42.666667z" p-id="45091" fill="#1296db"></path></svg>