<?xml version="1.0" encoding="utf-8" standalone="no"?>
<!DOCTYPE svg PUBLIC "-//W3C//DTD SVG 1.1//EN"
  "http://www.w3.org/Graphics/SVG/1.1/DTD/svg11.dtd">
<svg xmlns:xlink="http://www.w3.org/1999/xlink" width="141.12pt" height="141.12pt" viewBox="0 0 141.12 141.12" xmlns="http://www.w3.org/2000/svg" version="1.1">
 <metadata>
  <rdf:RDF xmlns:dc="http://purl.org/dc/elements/1.1/" xmlns:cc="http://creativecommons.org/ns#" xmlns:rdf="http://www.w3.org/1999/02/22-rdf-syntax-ns#">
   <cc:Work>
    <dc:type rdf:resource="http://purl.org/dc/dcmitype/StillImage"/>
    <dc:date>2022-02-07T21:23:37.755075</dc:date>
    <dc:format>image/svg+xml</dc:format>
    <dc:creator>
     <cc:Agent>
      <dc:title>Matplotlib v3.5.0, https://matplotlib.org/</dc:title>
     </cc:Agent>
    </dc:creator>
   </cc:Work>
  </rdf:RDF>
 </metadata>
 <defs>
  <style type="text/css">*{stroke-linejoin: round; stroke-linecap: butt}</style>
 </defs>
 <g id="figure_1">
  <g id="patch_1">
   <path d="M 0 141.12 
L 141.12 141.12 
L 141.12 0 
L 0 0 
L 0 141.12 
z
" style="fill: none"/>
  </g>
  <g id="axes_1">
   <g id="patch_2">
    <path d="M 14.3 126.82 
L 130.32 126.82 
L 130.32 10.8 
L 14.3 10.8 
L 14.3 126.82 
z
" style="fill: none"/>
   </g>
   <g id="QuadMesh_1">
    <path d="M 14.3 126.82 
L 43.305 126.82 
L 43.305 103.616 
L 14.3 103.616 
L 14.3 126.82 
" clip-path="url(#pb60e5c7446)" style="fill: #2070b0"/>
    <path d="M 43.305 126.82 
L 72.31 126.82 
L 72.31 103.616 
L 43.305 103.616 
L 43.305 126.82 
" clip-path="url(#pb60e5c7446)" style="fill: #2168ad"/>
    <path d="M 72.31 126.82 
L 101.315 126.82 
L 101.315 103.616 
L 72.31 103.616 
L 72.31 126.82 
" clip-path="url(#pb60e5c7446)" style="fill: #2195c0"/>
    <path d="M 101.315 126.82 
L 130.32 126.82 
L 130.32 103.616 
L 101.315 103.616 
L 101.315 126.82 
" clip-path="url(#pb60e5c7446)" style="fill: #24419a"/>
    <path d="M 14.3 103.616 
L 43.305 103.616 
L 43.305 80.412 
L 14.3 80.412 
L 14.3 103.616 
" clip-path="url(#pb60e5c7446)" style="fill: #39adc3"/>
    <path d="M 43.305 103.616 
L 72.31 103.616 
L 72.31 80.412 
L 43.305 80.412 
L 43.305 103.616 
" clip-path="url(#pb60e5c7446)" style="fill: #243c98"/>
    <path d="M 72.31 103.616 
L 101.315 103.616 
L 101.315 80.412 
L 72.31 80.412 
L 72.31 103.616 
" clip-path="url(#pb60e5c7446)" style="fill: #36abc3"/>
    <path d="M 101.315 103.616 
L 130.32 103.616 
L 130.32 80.412 
L 101.315 80.412 
L 101.315 103.616 
" clip-path="url(#pb60e5c7446)" style="fill: #8cd2ba"/>
    <path d="M 14.3 80.412 
L 43.305 80.412 
L 43.305 57.208 
L 14.3 57.208 
L 14.3 80.412 
" clip-path="url(#pb60e5c7446)" style="fill: #225aa6"/>
    <path d="M 43.305 80.412 
L 72.31 80.412 
L 72.31 57.208 
L 43.305 57.208 
L 43.305 80.412 
" clip-path="url(#pb60e5c7446)" style="fill: #f8fcca"/>
    <path d="M 72.31 80.412 
L 101.315 80.412 
L 101.315 57.208 
L 72.31 57.208 
L 72.31 80.412 
" clip-path="url(#pb60e5c7446)" style="fill: #f5fbc2"/>
    <path d="M 101.315 80.412 
L 130.32 80.412 
L 130.32 57.208 
L 101.315 57.208 
L 101.315 80.412 
" clip-path="url(#pb60e5c7446)" style="fill: #e8f6b1"/>
    <path d="M 14.3 57.208 
L 43.305 57.208 
L 43.305 34.004 
L 14.3 34.004 
L 14.3 57.208 
" clip-path="url(#pb60e5c7446)" style="fill: #2070b0"/>
    <path d="M 43.305 57.208 
L 72.31 57.208 
L 72.31 34.004 
L 43.305 34.004 
L 43.305 57.208 
" clip-path="url(#pb60e5c7446)" style="fill: #ffffd9"/>
    <path d="M 72.31 57.208 
L 101.315 57.208 
L 101.315 34.004 
L 72.31 34.004 
L 72.31 57.208 
" clip-path="url(#pb60e5c7446)" style="fill: #2397c1"/>
    <path d="M 101.315 57.208 
L 130.32 57.208 
L 130.32 34.004 
L 101.315 34.004 
L 101.315 57.208 
" clip-path="url(#pb60e5c7446)" style="fill: #0e2265"/>
    <path d="M 14.3 34.004 
L 43.305 34.004 
L 43.305 10.8 
L 14.3 10.8 
L 14.3 34.004 
" clip-path="url(#pb60e5c7446)" style="fill: #fcfed3"/>
    <path d="M 43.305 34.004 
L 72.31 34.004 
L 72.31 10.8 
L 43.305 10.8 
L 43.305 34.004 
" clip-path="url(#pb60e5c7446)" style="fill: #081d58"/>
    <path d="M 72.31 34.004 
L 101.315 34.004 
L 101.315 10.8 
L 72.31 10.8 
L 72.31 34.004 
" clip-path="url(#pb60e5c7446)" style="fill: #2b9fc2"/>
    <path d="M 101.315 34.004 
L 130.32 34.004 
L 130.32 10.8 
L 101.315 10.8 
L 101.315 34.004 
" clip-path="url(#pb60e5c7446)" style="fill: #42b6c4"/>
   </g>
   <g id="matplotlib.axis_1"/>
   <g id="matplotlib.axis_2"/>
   <g id="patch_3">
    <path d="M 14.3 126.82 
L 14.3 10.8 
" style="fill: none; stroke: #000000; stroke-width: 0.8; stroke-linejoin: miter; stroke-linecap: square"/>
   </g>
   <g id="patch_4">
    <path d="M 130.32 126.82 
L 130.32 10.8 
" style="fill: none; stroke: #000000; stroke-width: 0.8; stroke-linejoin: miter; stroke-linecap: square"/>
   </g>
   <g id="patch_5">
    <path d="M 14.3 126.82 
L 130.32 126.82 
" style="fill: none; stroke: #000000; stroke-width: 0.8; stroke-linejoin: miter; stroke-linecap: square"/>
   </g>
   <g id="patch_6">
    <path d="M 14.3 10.8 
L 130.32 10.8 
" style="fill: none; stroke: #000000; stroke-width: 0.8; stroke-linejoin: miter; stroke-linecap: square"/>
   </g>
  </g>
 </g>
 <defs>
  <clipPath id="pb60e5c7446">
   <rect x="14.3" y="10.8" width="116.02" height="116.02"/>
  </clipPath>
 </defs>
</svg>
