<svg id="图层_1" data-name="图层 1" xmlns="http://www.w3.org/2000/svg" viewBox="0 0 1024 1024"><defs><style>.cls-1{fill:#f7931e;}.cls-1,.cls-2,.cls-3{stroke:#000;stroke-miterlimit:10;}.cls-2{fill:#0071bc;}.cls-3{fill:#662d91;}.cls-4{fill:none;}.cls-5{fill:#149a9b;}.cls-6{fill:#4ca8a8;}.cls-7{fill:#050000;}</style></defs><rect class="cls-1" x="4.65" y="42.24" width="225.14" height="87.46"/><rect class="cls-2" x="4.65" y="134.31" width="225.14" height="87.46"/><rect class="cls-1" x="236.98" y="42.24" width="225.14" height="87.46"/><rect class="cls-2" x="236.98" y="134.31" width="225.14" height="87.46"/><rect class="cls-2" x="4.65" y="226.37" width="225.14" height="87.46"/><rect class="cls-2" x="236.98" y="226.37" width="225.14" height="87.46"/><rect class="cls-2" x="4.65" y="318.44" width="225.14" height="87.46"/><rect class="cls-2" x="236.98" y="318.44" width="225.14" height="87.46"/><rect class="cls-1" x="123.91" y="677.77" width="189.19" height="73.49"/><rect class="cls-2" x="123.91" y="755.13" width="189.19" height="73.49"/><rect class="cls-1" x="319.14" y="677.77" width="189.19" height="73.49"/><rect class="cls-2" x="319.14" y="755.13" width="189.19" height="73.49"/><rect class="cls-2" x="123.91" y="832.5" width="189.19" height="73.49"/><rect class="cls-2" x="319.14" y="832.5" width="189.19" height="73.49"/><rect class="cls-2" x="123.91" y="909.86" width="189.19" height="73.49"/><rect class="cls-2" x="319.14" y="909.86" width="189.19" height="73.49"/><rect class="cls-3" x="563.63" y="40.65" width="224.28" height="87.13"/><rect class="cls-2" x="563.63" y="132.36" width="224.28" height="87.13"/><rect class="cls-3" x="795.07" y="40.65" width="224.28" height="87.13"/><rect class="cls-2" x="795.07" y="132.36" width="224.28" height="87.13"/><rect class="cls-2" x="563.63" y="224.07" width="224.28" height="87.13"/><rect class="cls-2" x="795.07" y="224.07" width="224.28" height="87.13"/><rect class="cls-2" x="563.63" y="315.78" width="224.28" height="87.13"/><rect class="cls-2" x="795.07" y="315.78" width="224.28" height="87.13"/><rect class="cls-3" x="512.58" y="677.77" width="189.19" height="73.49"/><rect class="cls-2" x="512.58" y="755.13" width="189.19" height="73.49"/><rect class="cls-3" x="707.8" y="677.77" width="189.19" height="73.49"/><rect class="cls-2" x="707.8" y="755.13" width="189.19" height="73.49"/><rect class="cls-2" x="512.58" y="832.5" width="189.19" height="73.49"/><rect class="cls-2" x="707.8" y="832.5" width="189.19" height="73.49"/><rect class="cls-2" x="512.58" y="909.86" width="189.19" height="73.49"/><rect class="cls-2" x="707.8" y="909.86" width="189.19" height="73.49"/><path class="cls-4" d="M267.75,425.9l-31.54-1.64-8.27-.44-5.11-.26-8.78-.46-31.27-1.63A403.81,403.81,0,0,0,187,504.63l31-4.81,8.69-1.35,5-.78,8.19-1.27,31.21-4.86A319.28,319.28,0,0,1,267.75,425.9Z"/><path class="cls-5" d="M226.57,501.13a366.21,366.21,0,0,1-3.83-84.58l-3.11-.22a368.52,368.52,0,0,0,3.88,85.3Z"/><path class="cls-5" d="M232.13,500.22l2.57-.41A358.1,358.1,0,0,1,231,417.14l-2.59-.19-.52,0a361,361,0,0,0,3.78,83.39Z"/><path class="cls-6" d="M227.09,501l4.53-.73a361,361,0,0,1-3.78-83.39l-4.58-.33-.52,0a366.21,366.21,0,0,0,3.83,84.58Z"/><polygon class="cls-7" points="213.29 428.43 213.58 422.18 213.97 415.93 236.62 417.54 236.25 423.41 235.98 429.29 213.29 428.43"/><path class="cls-5" d="M213.28,433.32c.06-2.05.09-4.11.2-6.17l22.69.93c-.1,1.93-.13,3.87-.19,5.8Z"/><path class="cls-7" d="M218.41,502.46l5.1-.83a368.52,368.52,0,0,1-3.88-85.3l-5.14-.37-.52,0a374.85,374.85,0,0,0,3.93,86.61Z"/><path class="cls-7" d="M240.31,498.89a351.15,351.15,0,0,1-3.69-81.35l-5.67-.4a358.1,358.1,0,0,0,3.75,82.67Z"/><path class="cls-4" d="M272.18,498l-31.11,5.48-8.16,1.43-5,.89-8.66,1.53-30.84,5.43c1.24,6.86,2.57,13.58,4.19,20.57s3.53,14.07,5.82,21.25a212.39,212.39,0,0,0,8.21,21.77,178.28,178.28,0,0,0,11.5,21.78l26.57-16.59,7.46-4.65,4.33-2.71,7-4.38L290.28,553a94.72,94.72,0,0,1-5.9-11.2,128.87,128.87,0,0,1-4.92-13.15q-2.23-7-4-14.72C274.24,508.83,273.15,503.34,272.18,498Z"/><path class="cls-7" d="M247.51,585.89l4.27-2.91c-8.34-12.23-14.25-25.76-18.64-39.51-2.19-6.89-4-13.85-5.59-20.83s-2.92-14-4.05-21l-5.09.83-.51.08c1.15,7.16,2.53,14.24,4.11,21.35s3.47,14.23,5.73,21.3c4.5,14.13,10.62,28.18,19.35,41Z"/><path class="cls-7" d="M265.84,573.39c-7.15-10.49-12.46-22.47-16.48-35.09-2-6.32-3.71-12.8-5.2-19.39s-2.78-13.31-3.85-20l-5.61.92A286.19,286.19,0,0,0,244,540c4.14,13,9.65,25.5,17.2,36.57Z"/><path class="cls-5" d="M254.34,581.23c-8.11-11.91-13.91-25.16-18.23-38.71a295.25,295.25,0,0,1-9.54-41.39l-3.07.5q1.69,10.56,4.05,21c1.57,7,3.4,13.94,5.59,20.83,4.39,13.75,10.3,27.28,18.64,39.51Z"/><path class="cls-5" d="M259,578.06l2.15-1.47C253.6,565.52,248.09,553,244,540a286.19,286.19,0,0,1-9.25-40.21l-2.57.41-.51.09A289.15,289.15,0,0,0,241,541c4.21,13.21,9.83,26,17.59,37.38Z"/><path class="cls-6" d="M254.78,580.94l3.79-2.59C250.81,567,245.19,554.18,241,541a289.15,289.15,0,0,1-9.36-40.66l-4.53.73-.52.09a295.25,295.25,0,0,0,9.54,41.39c4.32,13.55,10.12,26.8,18.23,38.71Z"/><path class="cls-4" d="M293.63,558l-25.31,18.9-6.64,5-4.09,3-7,5.26L225.45,608.9A145.41,145.41,0,0,0,243,628.43L248,632.8c.83.71,1.63,1.47,2.49,2.12l2.56,2,5.16,3.88,1.3,1,1.32.87,2.66,1.73A190.27,190.27,0,0,0,306.75,665l10-29.68,2.81-8.33,1.63-4.84,2.65-7.84L334,584.33A105.43,105.43,0,0,1,310,573.12l-1.27-.8-.64-.4-.56-.45c-.75-.59-1.51-1.16-2.28-1.73l-1.16-.85c-.39-.28-.69-.62-1-.92-.68-.63-1.37-1.24-2.07-1.84A60.56,60.56,0,0,1,293.63,558Z"/><path class="cls-7" d="M321.55,636.84l1.53-4.93A155.74,155.74,0,0,1,283.4,613.8c-3.16-1.89-6-4.25-9-6.45-1.51-1.07-2.83-2.39-4.24-3.6s-2.79-2.44-4.14-3.72a109.24,109.24,0,0,1-14.25-17l-4.26,2.9-.43.29a116.05,116.05,0,0,0,15,17.92c1.42,1.34,2.9,2.61,4.35,3.91s2.87,2.66,4.46,3.78a114.3,114.3,0,0,0,9.43,6.76,161.11,161.11,0,0,0,41.1,18.78Z"/><path class="cls-7" d="M328.14,615.66c-25.38-7.75-48.31-21.11-62.3-42.27l-4.69,3.2a97.81,97.81,0,0,0,12.79,15.31c1.21,1.14,2.48,2.22,3.72,3.34s2.43,2.27,3.8,3.23c2.69,2,5.26,4.12,8.15,5.84a144.35,144.35,0,0,0,36.84,16.77Z"/><path class="cls-5" d="M324,629a152.4,152.4,0,0,1-38.9-17.75,107.81,107.81,0,0,1-8.77-6.29,52.74,52.74,0,0,1-4.12-3.49c-1.34-1.21-2.72-2.38-4-3.62a107,107,0,0,1-13.85-16.57L251.77,583A109.24,109.24,0,0,0,266,600c1.35,1.28,2.76,2.48,4.14,3.72s2.73,2.53,4.24,3.6c3,2.2,5.84,4.56,9,6.45a155.74,155.74,0,0,0,39.68,18.11Z"/><path class="cls-5" d="M325.68,623.57l.77-2.49a144.35,144.35,0,0,1-36.84-16.77c-2.89-1.72-5.46-3.86-8.15-5.84-1.37-1-2.54-2.15-3.8-3.23s-2.51-2.2-3.72-3.34a97.81,97.81,0,0,1-12.79-15.31L259,578.06l-.43.29a101.83,101.83,0,0,0,13.19,15.79c1.25,1.18,2.56,2.29,3.83,3.44s2.52,2.35,3.93,3.33a103.08,103.08,0,0,0,8.38,6,147.9,147.9,0,0,0,37.62,17.14Z"/><path class="cls-6" d="M324.16,628.45l1.36-4.39a147.9,147.9,0,0,1-37.62-17.14,103.08,103.08,0,0,1-8.38-6c-1.41-1-2.62-2.21-3.93-3.33s-2.58-2.26-3.83-3.44a101.83,101.83,0,0,1-13.19-15.79l-3.79,2.59-.44.29a107,107,0,0,0,13.85,16.57c1.31,1.24,2.69,2.41,4,3.62a52.74,52.74,0,0,0,4.12,3.49,107.81,107.81,0,0,0,8.77,6.29A152.4,152.4,0,0,0,324,629Z"/><path class="cls-4" d="M326.89,638.43l-8.57,30.13a349.09,349.09,0,0,0,41.53,8.86c13.44,2.11,26.48,3.6,39.06,5l9.11-84.6c-12.16-1.31-23.84-2.67-35-4.42a267.68,267.68,0,0,1-31.44-6.65l-8.51,29.94Z"/><path class="cls-7" d="M366.93,646.31l.78-5.11a305.59,305.59,0,0,1-44.48-9.77l-1.53,4.92-.15.49a311.28,311.28,0,0,0,45.31,10Z"/><path class="cls-7" d="M370.27,624.37a289.28,289.28,0,0,1-42-9.2l-1.69,5.42a295.36,295.36,0,0,0,42.82,9.4Z"/><path class="cls-5" d="M368.18,638.12a303.71,303.71,0,0,1-44-9.67l-.93,3a305.59,305.59,0,0,0,44.48,9.77Z"/><path class="cls-5" d="M369,632.56l.39-2.57a295.36,295.36,0,0,1-42.82-9.4l-.77,2.48-.15.5A298.17,298.17,0,0,0,369,633.08Z"/><path class="cls-6" d="M368.26,637.61l.69-4.53a298.17,298.17,0,0,1-43.27-9.51L324.32,628l-.16.5a303.71,303.71,0,0,0,44,9.67Z"/><path class="cls-4" d="M318.32,668.56a349.09,349.09,0,0,0,41.53,8.86c13.44,2.11,26.48,3.6,39.06,5l9.11-84.6c-12.16-1.31-23.84-2.67-35-4.42a267.68,267.68,0,0,1-31.44-6.65Z"/><path class="cls-4" d="M402.67,640c-20.16,10.31-40.58,20.51-64,28.26"/><path class="cls-7" d="M350,626.57l4.55-22.09c10.9,11.86,23.65,23.17,36.79,34.19-15.34,7.7-31,15.12-48.21,21.24l4.58-22.24-2.31-.51-1.19,5.54-5.48,25.55c23.39-7.75,43.81-18,64-28.26-17.45-14.4-34.67-29.1-48.31-44.79l-5.43,25.33-1.19,5.55Z"/><path class="cls-5" d="M343.1,659.91c17.19-6.12,32.87-13.54,48.21-21.24-13.14-11-25.89-22.33-36.79-34.19L350,626.57l-.63,3c.31.08.61.13.92.19,1.5-2.74,4.28-4.4,7.1-3.86,3.55.69,5.94,4.49,5.24,8.71s-4.28,7.12-8,6.39a6.83,6.83,0,0,1-5.33-6.23l-.93-.19-.63,3.06Z"/><path class="cls-6" d="M354.57,641c3.75.73,7.35-2.23,8-6.39s-1.69-8-5.24-8.71c-2.82-.54-5.6,1.12-7.1,3.86a8.23,8.23,0,0,0-1,5A6.83,6.83,0,0,0,354.57,641Z"/><path class="cls-4" d="M844.39,421.47l-31.55,1.65-8.27.43-5.1.26-8.78.46-31.27,1.63a319.28,319.28,0,0,1-3.37,65.66L787,496.37l8.69,1.35,5.05.79,8.18,1.27,31.22,4.85A403.81,403.81,0,0,0,844.39,421.47Z"/><path class="cls-5" d="M794.76,500.18A360,360,0,0,0,798.53,417l-3.11.22a356.52,356.52,0,0,1-3.73,82.49Z"/><path class="cls-5" d="M800.32,501.08l2.56.42a367.46,367.46,0,0,0,3.86-85.11l-2.59.18-.52,0A364.6,364.6,0,0,1,799.8,501Z"/><path class="cls-6" d="M795.27,500.26l4.53.74a364.6,364.6,0,0,0,3.83-84.39l-4.58.33-.52,0a360,360,0,0,1-3.77,83.21Z"/><polygon class="cls-7" points="790.4 429.32 790.13 423.45 789.76 417.6 812.41 415.98 812.8 422.22 813.08 428.46 790.4 429.32"/><path class="cls-5" d="M790.66,433.89c-.06-1.93-.09-3.86-.19-5.78l22.69-.94c.11,2.06.14,4.11.2,6.17Z"/><path class="cls-7" d="M786.6,498.85l5.09.83a356.52,356.52,0,0,0,3.73-82.49l-5.14.37-.52,0a350.73,350.73,0,0,1-3.67,81.17Z"/><path class="cls-7" d="M808.49,502.41A373.8,373.8,0,0,0,812.41,416l-5.67.41a367.46,367.46,0,0,1-3.86,85.11Z"/><path class="cls-4" d="M838.79,512.73l-31.11-5.48-8.15-1.44-5-.89-8.65-1.52L755,498c-1,5.37-2.06,10.86-3.25,16s-2.54,10.06-4,14.72a128.87,128.87,0,0,1-4.92,13.15,94.72,94.72,0,0,1-5.9,11.2l26.56,16.58,7.46,4.66,4.34,2.7,7,4.39,26.8,16.73a178.28,178.28,0,0,0,11.5-21.78,212.39,212.39,0,0,0,8.21-21.77c2.29-7.18,4.21-14.29,5.82-21.25S837.55,519.59,838.79,512.73Z"/><path class="cls-7" d="M761.11,573.23l4.26,2.91c7.49-11,13-23.41,17.09-36.36a285.37,285.37,0,0,0,9.22-40.1l-5.08-.83-.52-.08c-1.07,6.69-2.38,13.38-3.84,20s-3.18,13-5.18,19.33c-4,12.57-9.28,24.48-16.37,34.88Z"/><path class="cls-7" d="M779.43,585.74C788.11,573,794.19,559,798.68,545c2.25-7,4.11-14.14,5.7-21.24s3-14.15,4.11-21.3l-5.61-.91c-1.12,7-2.48,14-4,21s-3.38,13.9-5.57,20.76c-4.37,13.7-10.25,27.16-18.53,39.31Z"/><path class="cls-5" d="M767.94,577.89c7.7-11.3,13.29-24,17.49-37.16a289.74,289.74,0,0,0,9.33-40.55l-3.08-.5a285.37,285.37,0,0,1-9.22,40.1c-4.12,13-9.6,25.38-17.09,36.36Z"/><path class="cls-5" d="M772.59,581.07l2.15,1.47c8.28-12.15,14.16-25.61,18.53-39.31,2.19-6.86,4-13.8,5.57-20.76s2.92-13.94,4-21l-2.56-.42-.52-.08a292.67,292.67,0,0,1-9.5,41.28c-4.3,13.49-10.08,26.67-18.14,38.5Z"/><path class="cls-6" d="M768.37,578.19l3.79,2.59c8.06-11.83,13.84-25,18.14-38.5A292.67,292.67,0,0,0,799.8,501l-4.53-.74-.51-.08a289.74,289.74,0,0,1-9.33,40.55c-4.2,13.15-9.79,25.86-17.49,37.16Z"/><path class="cls-4" d="M801.72,608.9,776.41,590l-6.64-5L765.68,582l-7-5.26L733.54,558a60.56,60.56,0,0,1-7.36,8.14c-.7.6-1.39,1.21-2.07,1.84-.35.3-.65.64-1,.92l-1.16.85c-.77.57-1.53,1.14-2.28,1.73l-.56.45-.64.4-1.27.8a105.43,105.43,0,0,1-23.95,11.21l10,29.68,2.82,8.33,1.63,4.84,2.65,7.85L720.42,665a190.27,190.27,0,0,0,43.31-20.63l2.66-1.73,1.32-.87,1.3-1,5.16-3.88,2.56-2c.86-.65,1.66-1.41,2.49-2.12l4.91-4.37A145.41,145.41,0,0,0,801.72,608.9Z"/><path class="cls-7" d="M699,615.4l1.54,4.93a143.31,143.31,0,0,0,36.63-16.69c2.87-1.71,5.42-3.83,8.09-5.79,1.37-1,2.52-2.14,3.78-3.21s2.49-2.18,3.68-3.31a97.39,97.39,0,0,0,12.69-15.19l-4.25-2.91-.43-.29c-13.87,21-36.6,34.24-61.88,42Z"/><path class="cls-7" d="M705.54,636.58a160.45,160.45,0,0,0,40.9-18.69,115.27,115.27,0,0,0,9.37-6.72c1.57-1.11,3-2.49,4.43-3.75s2.91-2.56,4.32-3.89a114.93,114.93,0,0,0,14.87-17.79l-4.69-3.2a109.28,109.28,0,0,1-14.15,16.92c-1.33,1.27-2.74,2.46-4.11,3.7a55,55,0,0,1-4.21,3.56,109.66,109.66,0,0,1-8.94,6.42,155.27,155.27,0,0,1-39.48,18Z"/><path class="cls-5" d="M701.41,623.29a146.87,146.87,0,0,0,37.42-17c2.94-1.76,5.57-3.94,8.32-6,1.4-1,2.6-2.2,3.89-3.31s2.57-2.24,3.81-3.41a100.85,100.85,0,0,0,13.09-15.67l-2.58-1.75a97.39,97.39,0,0,1-12.69,15.19c-1.19,1.13-2.46,2.2-3.68,3.31s-2.41,2.26-3.78,3.21c-2.67,2-5.22,4.08-8.09,5.79a143.31,143.31,0,0,1-36.63,16.69Z"/><path class="cls-5" d="M703.08,628.67l.77,2.49a155.27,155.27,0,0,0,39.48-18,109.66,109.66,0,0,0,8.94-6.42,55,55,0,0,0,4.21-3.56c1.37-1.24,2.78-2.43,4.11-3.7a109.28,109.28,0,0,0,14.15-16.92l-2.15-1.47-.43-.29a104.81,104.81,0,0,1-13.75,16.44c-1.29,1.23-2.66,2.4-4,3.59a50,50,0,0,1-4.09,3.47c-2.87,2.13-5.64,4.41-8.71,6.25a152.15,152.15,0,0,1-38.69,17.65Z"/><path class="cls-6" d="M701.56,623.79l1.37,4.39a152.15,152.15,0,0,0,38.69-17.65c3.07-1.84,5.84-4.12,8.71-6.25a50,50,0,0,0,4.09-3.47c1.33-1.19,2.7-2.36,4-3.59a104.81,104.81,0,0,0,13.75-16.44l-3.79-2.59-.43-.3a100.85,100.85,0,0,1-13.09,15.67c-1.24,1.17-2.54,2.27-3.81,3.41s-2.49,2.33-3.89,3.31c-2.75,2-5.38,4.21-8.32,6a146.87,146.87,0,0,1-37.42,17Z"/><path class="cls-4" d="M694.15,616.83l-8.57-30.12a267.68,267.68,0,0,1-31.44,6.65c-11.15,1.75-22.83,3.11-35,4.42l9.11,84.6c12.58-1.36,25.62-2.85,39.06-5a349.09,349.09,0,0,0,41.53-8.86l-8.51-29.95Z"/><path class="cls-7" d="M657,625.12l.78,5.1a297.28,297.28,0,0,0,42.84-9.41l-1.53-4.92-.15-.49a291.61,291.61,0,0,1-42,9.21Z"/><path class="cls-7" d="M660.35,647.05a313.32,313.32,0,0,0,45.34-10L704,631.65a307.5,307.5,0,0,1-44.5,9.78Z"/><path class="cls-5" d="M658.26,633.3a297.54,297.54,0,0,0,43.3-9.51l-.93-3a297.28,297.28,0,0,1-42.84,9.41Z"/><path class="cls-5" d="M659.1,638.86l.4,2.57a307.5,307.5,0,0,0,44.5-9.78l-.77-2.48-.15-.5A306.06,306.06,0,0,1,659,638.35Z"/><path class="cls-6" d="M658.34,633.82l.69,4.53a306.06,306.06,0,0,0,44.05-9.68l-1.36-4.38-.16-.5a297.54,297.54,0,0,1-43.3,9.51Z"/><path class="cls-4" d="M685.58,586.71a267.68,267.68,0,0,1-31.44,6.65c-11.15,1.75-22.83,3.11-35,4.42l9.11,84.6c12.58-1.36,25.62-2.85,39.06-5a349.09,349.09,0,0,0,41.53-8.86Z"/><path class="cls-4" d="M624.5,640c17.45-14.4,34.67-29.11,48.3-44.8"/><path class="cls-7" d="M679.53,637.88,684.09,660c-17.2-6.11-32.88-13.53-48.22-21.22,13.14-11,25.89-22.34,36.79-34.22l4.58,22.24,2.23-.49-1.19-5.54-5.48-25.55c-13.63,15.69-30.85,30.4-48.3,44.8,20.16,10.31,40.58,20.5,64,28.26L683,642.91l-1.19-5.54Z"/><path class="cls-5" d="M672.66,604.53c-10.9,11.88-23.65,23.19-36.79,34.22,15.34,7.69,31,15.11,48.22,21.22l-4.56-22.09-.62-3L678,635a6.85,6.85,0,0,1-5.34,6.23c-3.75.73-7.35-2.23-8-6.4s1.69-8,5.25-8.7c2.81-.54,5.59,1.12,7.1,3.86l.92-.18-.64-3.07Z"/><path class="cls-6" d="M669.86,626.16c-3.56.69-6,4.5-5.25,8.7s4.28,7.13,8,6.4A6.85,6.85,0,0,0,678,635a8.75,8.75,0,0,0-.11-2.59A8.9,8.9,0,0,0,677,630C675.45,627.28,672.67,625.62,669.86,626.16Z"/></svg>