<?xml version="1.0" encoding="utf-8" standalone="no"?>
<!DOCTYPE svg PUBLIC "-//W3C//DTD SVG 1.1//EN"
  "http://www.w3.org/Graphics/SVG/1.1/DTD/svg11.dtd">
<svg xmlns:xlink="http://www.w3.org/1999/xlink" width="141.732283pt" height="141.732283pt" viewBox="0 0 141.732283 141.732283" xmlns="http://www.w3.org/2000/svg" version="1.1">
 <metadata>
  <rdf:RDF xmlns:dc="http://purl.org/dc/elements/1.1/" xmlns:cc="http://creativecommons.org/ns#" xmlns:rdf="http://www.w3.org/1999/02/22-rdf-syntax-ns#">
   <cc:Work>
    <dc:type rdf:resource="http://purl.org/dc/dcmitype/StillImage"/>
    <dc:date>2022-03-20T22:15:36.480496</dc:date>
    <dc:format>image/svg+xml</dc:format>
    <dc:creator>
     <cc:Agent>
      <dc:title>Matplotlib v3.5.1, https://matplotlib.org/</dc:title>
     </cc:Agent>
    </dc:creator>
   </cc:Work>
  </rdf:RDF>
 </metadata>
 <defs>
  <style type="text/css">*{stroke-linejoin: round; stroke-linecap: butt}</style>
 </defs>
 <g id="figure_1">
  <g id="patch_1">
   <path d="M 0 141.732283 
L 141.732283 141.732283 
L 141.732283 0 
L 0 0 
z
" style="fill: #ffffff"/>
  </g>
  <g id="axes_1">
   <g id="patch_2">
    <path d="M 9.637795 132.094488 
L 133.653543 132.094488 
L 133.653543 7.370079 
L 9.637795 7.370079 
z
" style="fill: #ffffff"/>
   </g>
   <g id="matplotlib.axis_1"/>
   <g id="matplotlib.axis_2"/>
   <g id="PathCollection_1"/>
   <g id="PathCollection_2">
    <path d="M 34.890774 85.508027 
L 34.802163 85.833348 
L 34.608934 86.488604 
L 34.39878 87.143861 
L 34.292483 87.452669 
L 34.157813 87.799117 
L 33.884358 88.454374 
L 33.682056 88.905212 
L 33.576721 89.10963 
L 33.21693 89.764886 
L 33.071629 90.013336 
L 32.792824 90.420143 
L 32.461202 90.874919 
L 32.285922 91.075399 
L 31.850775 91.547107 
L 31.641589 91.730656 
L 31.240348 92.066937 
L 30.75015 92.385912 
L 30.629921 92.461186 
L 30.019494 92.745514 
L 29.409067 92.93563 
L 28.79864 93.040033 
L 28.771275 93.041168 
L 28.188212 93.064882 
L 27.891293 93.041168 
L 27.577785 93.015912 
L 26.967358 92.895718 
L 26.356931 92.706989 
L 25.746504 92.451162 
L 25.622099 92.385912 
L 25.136077 92.124777 
L 24.527203 91.730656 
L 24.52565 91.72962 
L 23.915223 91.25716 
L 23.708978 91.075399 
L 23.304796 90.705267 
L 23.026164 90.420143 
L 22.694369 90.065249 
L 22.439149 89.764886 
L 22.083942 89.325271 
L 21.923501 89.10963 
L 21.473514 88.469606 
L 21.463541 88.454374 
L 21.057338 87.799117 
L 20.863087 87.463957 
L 20.688451 87.143861 
L 20.355178 86.488604 
L 20.25266 86.27189 
L 20.055449 85.833348 
L 19.783923 85.178091 
L 19.642233 84.805365 
L 19.539202 84.522835 
L 19.320936 83.867579 
L 19.124465 83.212322 
L 19.031806 82.867466 
L 18.951038 82.557066 
L 18.799912 81.901809 
L 18.668595 81.246553 
L 18.556704 80.591297 
L 18.463919 79.93604 
L 18.421379 79.559766 
L 18.390491 79.280784 
L 18.336097 78.625527 
L 18.299898 77.970271 
L 18.281811 77.315015 
L 18.281813 76.659758 
L 18.299939 76.004502 
L 18.336287 75.349245 
L 18.391016 74.693989 
L 18.421379 74.421967 
L 18.465065 74.038733 
L 18.558829 73.383476 
L 18.672166 72.72822 
L 18.805514 72.072963 
L 18.959385 71.417707 
L 19.031806 71.144902 
L 19.136717 70.762451 
L 19.338009 70.107194 
L 19.562407 69.451938 
L 19.642233 69.239388 
L 19.815817 68.796681 
L 20.097378 68.141425 
L 20.25266 67.808954 
L 20.411645 67.486169 
L 20.761109 66.830912 
L 20.863087 66.6528 
L 21.154457 66.175656 
L 21.473514 65.689525 
L 21.593261 65.520399 
L 22.083942 64.871371 
L 22.08909 64.865143 
L 22.66311 64.209886 
L 22.694369 64.176122 
L 23.304796 63.58306 
L 23.337913 63.55463 
L 23.915223 63.082138 
L 24.174797 62.899374 
L 24.52565 62.662557 
L 25.136077 62.318851 
L 25.301389 62.244117 
L 25.746504 62.049749 
L 26.356931 61.850899 
L 26.967358 61.720933 
L 27.577785 61.660619 
L 28.188212 61.671399 
L 28.79864 61.755444 
L 29.409067 61.915735 
L 30.019494 62.156171 
L 30.185137 62.244117 
L 30.629921 62.486799 
L 31.221534 62.899374 
L 31.240348 62.912946 
L 31.850775 63.453205 
L 31.946697 63.55463 
L 32.11939 63.74551 
" clip-path="url(#pfb2265818d)" style="fill: none; stroke: #ff9f00; stroke-width: 2"/>
   </g>
   <g id="PathCollection_3">
    <path d="M 72.74939 119.514619 
L 72.180325 119.251425 
L 72.138963 119.217805 
L 71.594921 118.596168 
L 71.528536 118.174731 
L 71.499993 117.940912 
L 71.528536 117.872934 
L 71.805602 117.285655 
L 72.138963 116.969434 
L 72.545841 116.630399 
L 72.74939 116.523032 
L 73.359817 116.256147 
L 73.970244 116.042479 
L 74.248231 115.975143 
L 74.580671 115.917976 
L 75.191098 115.865648 
L 75.801526 115.870953 
L 76.411953 115.941952 
L 76.555394 115.975143 
L 77.02238 116.153849 
L 77.632807 116.533044 
L 77.745122 116.630399 
L 78.032728 117.285655 
L 77.925563 117.940912 
L 77.632807 118.391003 
L 77.477535 118.596168 
L 77.02238 118.952318 
L 76.562887 119.251425 
L 76.411953 119.322308 
L 75.801526 119.541231 
L 75.191098 119.693236 
L 74.580671 119.773394 
L 73.970244 119.775586 
L 73.359817 119.692341 
L 72.74939 119.514619 
" clip-path="url(#pfb2265818d)" style="fill: none; stroke: #84ff00; stroke-width: 2"/>
    <path d="M 9.925019 80.014031 
L 9.80916 77.315015 
L 9.918902 74.038733 
L 10.204483 71.417707 
L 10.678337 68.796681 
L 11.351375 66.175656 
L 12.317108 63.380674 
L 13.400188 60.933604 
L 14.758816 58.493388 
L 15.979671 56.701886 
L 17.346593 55.036297 
L 19.031806 53.374739 
L 20.25266 52.405222 
L 22.083942 51.273612 
L 23.915223 50.508786 
L 25.136077 50.1954 
L 26.356931 50.043813 
L 27.577785 50.058728 
L 28.79864 50.250254 
L 30.019494 50.632408 
L 31.240348 51.225676 
L 32.461202 52.056911 
L 33.682056 53.168586 
L 34.90291 54.618557 
L 36.123765 56.507794 
L 37.320968 58.967835 
L 38.054282 60.933604 
L 38.802776 63.55463 
L 39.344522 66.175656 
L 39.79178 69.451938 
L 40.06332 73.383476 
L 40.127635 77.970271 
L 39.950909 83.867579 
L 39.569454 89.764886 
L 39.089264 94.351681 
L 38.534165 97.627963 
L 37.955046 99.835078 
L 37.288521 101.559502 
L 36.56823 102.870014 
L 35.513338 104.198927 
L 34.292483 105.194206 
L 33.071629 105.824741 
L 31.850775 106.198946 
L 30.629921 106.378525 
L 29.409067 106.393944 
L 27.558584 106.146296 
L 25.746504 105.623082 
L 23.915223 104.816936 
L 22.083942 103.731203 
L 20.108816 102.214758 
L 18.421379 100.603377 
L 17.981994 100.125568 
L 17.981994 100.125568 
" clip-path="url(#pfb2265818d)" style="fill: none; stroke: #84ff00; stroke-width: 2"/>
   </g>
   <g id="PathCollection_4">
    <path d="M 22.880325 -1 
L 22.996008 -0.660498 
L 23.230618 -0.005241 
L 23.304796 0.17883 
L 23.456872 0.650015 
L 23.685137 1.305271 
L 23.915223 1.931717 
L 23.923745 1.960528 
L 24.146294 2.615784 
L 24.37967 3.271041 
L 24.52565 3.647146 
L 24.6134 3.926297 
L 24.841057 4.581553 
L 25.079636 5.23681 
L 25.136077 5.374838 
L 25.30833 5.892066 
L 25.541174 6.547323 
L 25.746504 7.091384 
L 25.78087 7.202579 
L 26.008532 7.857836 
L 26.246606 8.513092 
L 26.356931 8.789976 
L 26.48109 9.168348 
L 26.713943 9.823605 
L 26.957247 10.478861 
L 26.967358 10.502989 
L 27.186404 11.134118 
L 27.424429 11.789374 
L 27.577785 12.181618 
L 27.663414 12.44463 
L 27.896643 13.099887 
L 28.135078 13.742514 
" clip-path="url(#pfb2265818d)" style="fill: none; stroke: #00ff51; stroke-width: 2"/>
    <path d="M 34.34225 30.740216 
L 36.229903 36.033861 
L 39.070645 44.552194 
L 40.231367 48.483733 
L 41.402799 53.070528 
L 42.228036 57.089288 
L 42.838463 61.118887 
L 43.260173 65.520399 
L 43.471278 70.107194 
L 43.53023 77.315015 
L 43.631032 85.178091 
L 43.922333 89.764886 
L 44.332862 93.041168 
L 44.844288 95.662194 
L 45.594308 98.28322 
L 46.501025 100.483634 
L 47.504918 102.214758 
L 48.54257 103.525271 
L 49.553161 104.484009 
L 50.774015 105.325855 
L 51.994869 105.919132 
L 53.82615 106.469152 
L 55.657432 106.725877 
L 58.09914 106.770389 
L 61.151275 106.536068 
L 65.424265 105.934108 
L 73.359817 104.563668 
L 83.737078 102.743213 
L 86.178786 102.572653 
L 88.010067 102.652068 
L 89.841349 102.992087 
L 91.355206 103.525271 
L 92.893484 104.333728 
L 94.496866 105.49104 
L 95.94562 106.815883 
L 97.776901 108.868702 
L 99.667446 111.388348 
L 101.795181 114.66463 
L 104.491599 119.402748 
L 106.456584 123.182963 
L 109.285067 129.080271 
L 111.348034 133.667066 
L 114.677849 141.530142 
L 115.168021 142.732283 
L 115.168021 142.732283 
" clip-path="url(#pfb2265818d)" style="fill: none; stroke: #00ff51; stroke-width: 2"/>
   </g>
   <g id="PathCollection_5">
    <path d="M 46.9858 65.130027 
L 46.807586 80.591297 
L 47.091261 84.522835 
L 47.466808 87.143861 
L 48.056679 89.764886 
L 48.695922 91.730656 
L 49.575958 93.696425 
L 50.358119 95.006938 
L 51.384442 96.340041 
L 52.735855 97.627963 
L 53.82615 98.403515 
L 55.047004 99.060464 
L 56.878286 99.738615 
L 58.709567 100.14608 
L 61.151275 100.394821 
L 63.592984 100.40738 
L 66.645119 100.193847 
L 70.307682 99.690909 
L 73.995715 98.938476 
L 77.02238 98.1266 
L 80.684942 96.901765 
L 88.010067 94.290924 
L 89.841349 93.971972 
L 91.062203 93.94219 
L 92.283057 94.088907 
L 93.503911 94.425401 
L 94.838073 95.006938 
L 96.556047 96.031746 
L 98.997755 97.872687 
L 104.491599 102.281765 
L 106.933307 103.867027 
L 108.876213 104.835784 
L 110.701836 105.49104 
L 112.427151 105.874524 
L 114.258432 106.016565 
L 116.089714 105.891719 
L 117.92738 105.49104 
L 119.752276 104.819524 
L 121.583557 103.857036 
L 123.414839 102.578462 
L 125.285904 100.904245 
L 127.077401 98.888179 
L 128.467808 96.972707 
L 129.661018 95.006938 
L 130.964028 92.385912 
L 131.995049 89.764886 
L 132.799949 87.143861 
L 133.39918 84.522835 
L 133.808698 81.901809 
L 134.077945 78.625527 
L 134.077994 75.349245 
L 133.810092 72.072963 
L 133.273106 68.796681 
L 132.445087 65.520399 
L 131.55403 62.899374 
L 130.433301 60.278348 
L 129.045982 57.657322 
L 127.687828 55.532713 
L 126.331733 53.725784 
L 124.589435 51.760015 
L 122.804412 50.073719 
L 120.765218 48.483733 
L 118.702449 47.17322 
L 117.310568 46.434119 
L 114.868859 45.389786 
L 112.166933 44.552194 
L 109.985443 44.059945 
L 105.712453 43.379789 
L 102.660318 42.822769 
L 100.829036 42.279965 
L 98.997755 41.45113 
L 97.668199 40.620656 
L 95.94562 39.269497 
L 93.195056 36.689117 
L 89.230922 33.035991 
L 87.205683 31.447066 
L 84.957932 29.948494 
L 82.516224 28.626227 
L 80.074515 27.598649 
L 77.632807 26.840195 
L 75.191098 26.328638 
L 72.74939 26.050871 
L 70.307682 25.996306 
L 67.865973 26.162781 
L 65.424265 26.548105 
L 62.982557 27.168465 
L 60.540848 28.046551 
L 58.09914 29.223842 
L 56.267859 30.350415 
L 54.436577 31.747573 
L 52.70423 33.412835 
L 51.384442 35.006206 
L 50.163588 36.875317 
L 49.262066 38.654887 
L 48.504364 40.620656 
L 47.949118 42.586425 
L 47.455474 45.207451 
L 47.320658 46.271471 
L 47.320658 46.271471 
" clip-path="url(#pfb2265818d)" style="fill: none; stroke: #00d3ff; stroke-width: 2"/>
   </g>
   <g id="PathCollection_6">
    <path d="M 94.636795 78.30117 
L 94.858994 79.280784 
L 95.34163 80.591297 
L 96.29139 82.557066 
L 98.387328 85.889967 
L 100.326288 88.454374 
L 102.060413 90.420143 
L 104.125757 92.385912 
L 105.820151 93.696425 
L 107.543734 94.745377 
L 109.375016 95.539371 
L 111.206297 95.999436 
L 112.427151 96.11784 
L 113.648005 96.082124 
L 114.868859 95.887664 
L 116.089714 95.527257 
L 117.310568 94.990416 
L 118.531422 94.260131 
L 120.049897 93.041168 
L 121.300891 91.730656 
L 122.306054 90.420143 
L 123.496741 88.454374 
L 124.407587 86.488604 
L 125.100326 84.522835 
L 125.60845 82.557066 
L 126.033372 79.93604 
L 126.193049 77.315015 
L 126.097915 74.693989 
L 125.744844 72.072963 
L 125.117089 69.451938 
L 124.445271 67.486169 
L 123.414839 65.210442 
L 122.458861 63.55463 
L 121.547677 62.244117 
L 120.362703 60.831053 
L 119.120833 59.623092 
L 117.392739 58.312579 
L 116.089714 57.560256 
L 114.258432 56.807647 
L 112.427151 56.378904 
L 110.59587 56.258969 
L 108.764589 56.449601 
L 107.543734 56.757168 
L 106.32288 57.220541 
L 105.102026 57.854696 
L 103.519863 58.967835 
L 102.115826 60.278348 
L 100.855644 61.77125 
L 100.855644 61.77125 
" clip-path="url(#pfb2265818d)" style="fill: none; stroke: #0800ff; stroke-width: 2"/>
    <path d="M 85.025915 86.884169 
L 86.480639 85.178091 
L 88.275365 82.557066 
L 89.281895 80.591297 
L 89.767535 79.280784 
L 90.121858 77.315015 
L 90.06829 76.004502 
L 89.675708 74.038733 
L 88.517423 70.107194 
L 87.496163 66.175656 
L 87.010007 63.55463 
L 86.610727 60.278348 
L 85.715015 51.104758 
L 85.102439 48.483733 
L 84.347505 46.359967 
L 83.468253 44.552194 
L 82.516224 43.051338 
L 81.295369 41.544785 
L 80.074515 40.359894 
L 78.706886 39.310143 
L 77.02238 38.326002 
L 75.191098 37.563922 
L 73.359817 37.06937 
L 71.528536 36.809057 
L 69.697255 36.764911 
L 67.865973 36.929193 
L 65.884717 37.344374 
L 63.953029 37.99963 
L 62.37213 38.739862 
L 60.42105 39.965399 
L 58.709567 41.397105 
L 57.488713 42.699164 
L 56.125686 44.552194 
L 55.01922 46.517963 
L 54.17018 48.483733 
L 53.315327 51.104758 
L 52.605296 54.090049 
L 51.877146 58.312579 
L 51.014935 64.865143 
L 50.355873 71.417707 
L 50.126638 76.004502 
L 50.17053 79.280784 
L 50.388244 81.901809 
L 50.823068 84.522835 
L 51.384442 86.60332 
L 52.108186 88.454374 
L 52.798435 89.764886 
L 53.82615 91.238019 
L 55.047004 92.509273 
L 56.267859 93.438821 
L 57.488713 94.128601 
L 59.319994 94.838495 
L 61.151275 95.2642 
L 62.982557 95.480925 
L 65.424265 95.523097 
L 67.865973 95.338886 
L 70.307682 94.95542 
L 71.908217 94.593519 
L 71.908217 94.593519 
" clip-path="url(#pfb2265818d)" style="fill: none; stroke: #0800ff; stroke-width: 2"/>
   </g>
   <g id="PathCollection_7">
    <path d="M 77.141352 61.01533 
L 76.035134 57.002066 
L 75.191098 54.644553 
L 74.408569 53.070528 
L 73.359817 51.585317 
L 72.138963 50.466058 
L 71.528536 50.084589 
L 70.307682 49.57879 
L 69.086828 49.364262 
L 67.865973 49.399261 
L 66.645119 49.664347 
L 65.424265 50.160524 
L 63.927383 51.104758 
L 62.982557 51.899241 
L 61.761702 53.209478 
L 60.444075 55.036297 
L 59.308612 57.002066 
L 58.077829 59.623092 
L 56.824914 62.899374 
L 55.626816 66.830912 
L 54.874003 70.107194 
L 54.36365 73.383476 
L 54.169706 76.004502 
L 54.203719 78.625527 
L 54.436577 80.717296 
L 54.843404 82.557066 
L 55.27918 83.867579 
L 55.877322 85.178091 
L 56.878286 86.724249 
L 57.867439 87.799117 
L 58.709567 88.496657 
L 59.930421 89.245512 
L 61.151275 89.775963 
L 62.982557 90.261753 
L 64.813838 90.472961 
L 66.645119 90.459242 
L 68.4764 90.244364 
L 70.550813 89.764886 
L 72.380332 89.10963 
L 73.970244 88.324887 
L 75.736837 87.143861 
L 77.02238 85.983445 
L 77.741031 85.178091 
L 78.853661 83.541301 
L 79.464088 82.296671 
L 79.85165 81.246553 
L 80.295004 79.311515 
L 80.295004 79.311515 
" clip-path="url(#pfb2265818d)" style="fill: none; stroke: #dc00ff; stroke-width: 2"/>
    <path d="M 112.446407 85.681998 
L 113.037578 85.593233 
L 113.648005 85.416467 
L 114.200739 85.178091 
L 114.258432 85.151212 
L 114.868859 84.77418 
L 115.194196 84.522835 
L 115.479287 84.282221 
L 115.88948 83.867579 
L 116.089714 83.644029 
L 116.422844 83.212322 
L 116.700141 82.810356 
L 116.854285 82.557066 
L 117.206449 81.901809 
L 117.310568 81.679027 
L 117.492508 81.246553 
L 117.727087 80.591297 
L 117.920879 79.93604 
L 117.920995 79.935551 
L 118.062566 79.280784 
L 118.168188 78.625527 
L 118.238267 77.970271 
L 118.273183 77.315015 
L 118.273189 76.659758 
L 118.238418 76.004502 
L 118.168891 75.349245 
L 118.064524 74.693989 
L 117.925128 74.038733 
L 117.920995 74.02315 
L 117.735723 73.383476 
L 117.50722 72.72822 
L 117.310568 72.246005 
L 117.232298 72.072963 
L 116.89371 71.417707 
L 116.700141 71.085086 
L 116.48805 70.762451 
L 116.089714 70.216881 
L 115.99728 70.107194 
L 115.479287 69.546285 
L 115.375905 69.451938 
L 114.868859 69.0247 
L 114.535524 68.796681 
L 114.258432 68.619841 
L 113.648005 68.319767 
L 113.130911 68.141425 
L 113.037578 68.111036 
L 112.427151 67.996158 
L 111.816724 67.965311 
L 111.206297 68.018961 
L 110.668405 68.141425 
L 110.59587 68.159016 
L 109.985443 68.397815 
L 109.375016 68.730337 
L 109.279397 68.796681 
L 108.764589 69.181924 
L 108.468224 69.451938 
L 108.154161 69.763454 
L 107.85857 70.107194 
L 107.543734 70.510025 
L 107.37064 70.762451 
L 106.966777 71.417707 
L 106.933307 71.478639 
L 106.639862 72.072963 
L 106.588813 72.191549 
" clip-path="url(#pfb2265818d)" style="fill: none; stroke: #dc00ff; stroke-width: 2"/>
   </g>
   <g id="PathCollection_8">
    <path d="M 64.203411 82.648125 
L 64.813838 82.830489 
L 65.424265 82.939894 
L 66.034692 82.979279 
L 66.645119 82.950949 
L 67.255546 82.856635 
L 67.865973 82.697532 
L 68.250415 82.557066 
L 68.4764 82.462645 
L 69.086828 82.134938 
L 69.442412 81.901809 
L 69.697255 81.706702 
L 70.206343 81.246553 
L 70.307682 81.136939 
L 70.745996 80.591297 
L 70.918109 80.326532 
L 71.143062 79.93604 
L 71.435554 79.280784 
L 71.528536 78.993877 
L 71.636133 78.625527 
L 71.759604 77.970271 
L 71.8193 77.315015 
L 71.819469 76.659758 
L 71.764166 76.004502 
L 71.657255 75.349245 
L 71.528536 74.804245 
L 71.499641 74.693989 
L 71.279208 74.038733 
L 71.013182 73.383476 
L 70.918109 73.180436 
L 70.678664 72.72822 
L 70.307682 72.105194 
L 70.285519 72.072963 
L 69.791218 71.417707 
L 69.697255 71.302356 
L 69.173869 70.762451 
L 69.086828 70.678127 
L 68.4764 70.199884 
L 68.321259 70.107194 
L 67.865973 69.848487 
L 67.255546 69.610318 
L 66.645119 69.480126 
L 66.034692 69.45723 
L 65.424265 69.541922 
L 64.813838 69.735518 
L 64.203411 70.040429 
L 64.106284 70.107194 
L 63.592984 70.476502 
L 63.283574 70.762451 
L 62.982557 71.057847 
L 62.684545 71.417707 
L 62.37213 71.825063 
L 62.212942 72.072963 
L 61.83069 72.72822 
L 61.761702 72.861244 
L 61.529833 73.383476 
L 61.279433 74.038733 
L 61.151275 74.444823 
L 61.082726 74.693989 
L 60.943144 75.349245 
L 60.847344 76.004502 
L 60.798079 76.659758 
L 60.798203 77.315015 
L 60.850719 77.970271 
L 60.958822 78.625527 
L 61.125963 79.280784 
L 61.151275 79.353249 
L 61.385233 79.93604 
L 61.724763 80.591297 
L 61.761702 80.649166 
L 62.209354 81.246553 
L 62.37213 81.427658 
L 62.885442 81.901809 
L 62.982557 81.978406 
L 63.592984 82.365722 
L 63.987774 82.557066 
L 64.203411 82.648125 
z
" clip-path="url(#pfb2265818d)" style="fill: none; stroke: #ff0047; stroke-width: 2"/>
   </g>
   <g id="PathCollection_9"/>
   <g id="patch_3">
    <path d="M 9.637795 132.094488 
L 9.637795 7.370079 
" style="fill: none; stroke: #1f77b4; stroke-width: 2; stroke-linejoin: miter; stroke-linecap: square"/>
   </g>
   <g id="patch_4">
    <path d="M 133.653543 132.094488 
L 133.653543 7.370079 
" style="fill: none; stroke: #1f77b4; stroke-width: 2; stroke-linejoin: miter; stroke-linecap: square"/>
   </g>
   <g id="patch_5">
    <path d="M 9.637795 132.094488 
L 133.653543 132.094488 
" style="fill: none; stroke: #1f77b4; stroke-width: 2; stroke-linejoin: miter; stroke-linecap: square"/>
   </g>
   <g id="patch_6">
    <path d="M 9.637795 7.370079 
L 133.653543 7.370079 
" style="fill: none; stroke: #1f77b4; stroke-width: 2; stroke-linejoin: miter; stroke-linecap: square"/>
   </g>
   <g id="text_1">
    <g clip-path="url(#pfb2265818d)">
     <text style="fill: #ff9f00; font: 10px 'Times New Roman'" transform="translate(32.274232 66.543566)rotate(-278.136429)">-0.5</text>
    </g>
   </g>
   <g id="text_2">
    <g clip-path="url(#pfb2265818d)">
     <text style="fill: #84ff00; font: 10px 'Times New Roman'" transform="translate(5.531548 82.938115)rotate(-297.429909)">-0.25</text>
    </g>
   </g>
   <g id="text_3">
    <g clip-path="url(#pfb2265818d)">
     <text style="fill: #00ff51; font: 10px 'Times New Roman'" transform="translate(27.998358 21.010864)rotate(-295.378101)">0</text>
    </g>
   </g>
   <g id="text_4">
    <g clip-path="url(#pfb2265818d)">
     <text style="fill: #00d3ff; font: 10px 'Times New Roman'" transform="translate(49.33348 64.459691)rotate(-89.561297)">0.25</text>
    </g>
   </g>
   <g id="text_5">
    <g clip-path="url(#pfb2265818d)">
     <text style="fill: #0800ff; font: 10px 'Times New Roman'" transform="translate(95.848271 76.09786)rotate(-61.976621)">0.5</text>
    </g>
   </g>
   <g id="text_6">
    <g clip-path="url(#pfb2265818d)">
     <text style="fill: #0800ff; font: 10px 'Times New Roman'" transform="translate(74.129386 96.574385)rotate(-24.099855)">0.5</text>
    </g>
   </g>
   <g id="text_7">
    <g clip-path="url(#pfb2265818d)">
     <text style="fill: #dc00ff; font: 10px 'Times New Roman'" transform="translate(74.904713 62.151994)rotate(-284.811558)">0.75</text>
    </g>
   </g>
   <g id="text_8">
    <g clip-path="url(#pfb2265818d)">
     <text style="fill: #dc00ff; font: 10px 'Times New Roman'" transform="translate(100.06772 74.765354)rotate(-299.063589)">0.75</text>
    </g>
   </g>
  </g>
 </g>
 <defs>
  <clipPath id="pfb2265818d">
   <rect x="9.637795" y="7.370079" width="124.015748" height="124.724409"/>
  </clipPath>
 </defs>
</svg>
