<svg id="图层_1" data-name="图层 1" xmlns="http://www.w3.org/2000/svg" viewBox="0 0 1024 1024"><defs><style>.cls-1,.cls-3{fill:none;stroke-miterlimit:10;stroke-width:60px;}.cls-1{stroke:#0071bc;}.cls-2,.cls-4{fill:#29abe2;}.cls-3{stroke:#f7931e;}.cls-4{font-size:267.38px;font-family:FranklinGothic-Medium, Franklin Gothic Medium;font-weight:500;}</style></defs><rect class="cls-1" x="36.2" y="36.2" width="954.6" height="954.6"/><circle class="cls-2" cx="797.26" cy="225.35" r="10"/><circle class="cls-2" cx="817.26" cy="260.38" r="10"/><circle class="cls-2" cx="838.03" cy="291.14" r="10"/><circle class="cls-2" cx="797.26" cy="291.14" r="10"/><circle class="cls-2" cx="772.88" cy="266.76" r="10"/><circle class="cls-2" cx="829.3" cy="228.34" r="10"/><circle class="cls-2" cx="858.3" cy="257.34" r="10"/><circle class="cls-2" cx="858.3" cy="226.82" r="10"/><circle class="cls-2" cx="706.14" cy="278.36" r="10"/><circle class="cls-2" cx="726.14" cy="313.4" r="10"/><circle class="cls-2" cx="746.91" cy="344.16" r="10"/><circle class="cls-2" cx="706.14" cy="344.16" r="10"/><circle class="cls-2" cx="681.76" cy="319.78" r="10"/><circle class="cls-2" cx="738.18" cy="281.36" r="10"/><circle class="cls-2" cx="767.18" cy="310.36" r="10"/><circle class="cls-2" cx="767.18" cy="279.83" r="10"/><circle class="cls-2" cx="616.46" cy="333.67" r="10"/><circle class="cls-2" cx="636.46" cy="368.71" r="10"/><circle class="cls-2" cx="657.22" cy="399.47" r="10"/><circle class="cls-2" cx="616.46" cy="399.47" r="10"/><circle class="cls-2" cx="592.08" cy="375.09" r="10"/><circle class="cls-2" cx="648.5" cy="336.67" r="10"/><circle class="cls-2" cx="677.5" cy="365.67" r="10"/><circle class="cls-2" cx="677.5" cy="335.14" r="10"/><circle class="cls-2" cx="536.29" cy="401.82" r="10"/><circle class="cls-2" cx="556.29" cy="436.85" r="10"/><circle class="cls-2" cx="577.05" cy="467.61" r="10"/><circle class="cls-2" cx="536.29" cy="467.61" r="10"/><circle class="cls-2" cx="511.91" cy="443.23" r="10"/><circle class="cls-2" cx="568.33" cy="404.81" r="10"/><circle class="cls-2" cx="597.33" cy="433.81" r="10"/><circle class="cls-2" cx="597.33" cy="403.29" r="10"/><circle class="cls-2" cx="462.34" cy="476.95" r="10"/><circle class="cls-2" cx="482.34" cy="511.99" r="10"/><circle class="cls-2" cx="503.11" cy="542.75" r="10"/><circle class="cls-2" cx="462.34" cy="542.75" r="10"/><circle class="cls-2" cx="437.96" cy="518.37" r="10"/><circle class="cls-2" cx="494.38" cy="479.95" r="10"/><circle class="cls-2" cx="523.38" cy="508.95" r="10"/><circle class="cls-2" cx="523.38" cy="478.42" r="10"/><circle class="cls-2" cx="393.62" cy="556.88" r="10"/><circle class="cls-2" cx="413.62" cy="591.92" r="10"/><circle class="cls-2" cx="434.38" cy="622.68" r="10"/><circle class="cls-2" cx="393.62" cy="622.68" r="10"/><circle class="cls-2" cx="369.24" cy="598.3" r="10"/><circle class="cls-2" cx="425.66" cy="559.88" r="10"/><circle class="cls-2" cx="454.66" cy="588.88" r="10"/><circle class="cls-2" cx="454.66" cy="558.35" r="10"/><circle class="cls-2" cx="323.81" cy="635.84" r="10"/><circle class="cls-2" cx="343.81" cy="670.88" r="10"/><circle class="cls-2" cx="364.57" cy="701.64" r="10"/><circle class="cls-2" cx="323.81" cy="701.64" r="10"/><circle class="cls-2" cx="299.43" cy="677.26" r="10"/><circle class="cls-2" cx="355.85" cy="638.84" r="10"/><circle class="cls-2" cx="384.85" cy="667.84" r="10"/><circle class="cls-2" cx="384.85" cy="637.31" r="10"/><circle class="cls-2" cx="251.58" cy="712.6" r="10"/><circle class="cls-2" cx="271.58" cy="747.64" r="10"/><circle class="cls-2" cx="292.34" cy="778.4" r="10"/><circle class="cls-2" cx="251.58" cy="778.4" r="10"/><circle class="cls-2" cx="227.2" cy="754.02" r="10"/><circle class="cls-2" cx="283.62" cy="715.6" r="10"/><circle class="cls-2" cx="312.62" cy="744.6" r="10"/><circle class="cls-2" cx="312.62" cy="714.07" r="10"/><circle class="cls-2" cx="177.14" cy="787.25" r="10"/><circle class="cls-2" cx="197.14" cy="822.29" r="10"/><circle class="cls-2" cx="217.9" cy="853.05" r="10"/><circle class="cls-2" cx="177.14" cy="853.05" r="10"/><circle class="cls-2" cx="152.76" cy="828.67" r="10"/><circle class="cls-2" cx="209.18" cy="790.25" r="10"/><circle class="cls-2" cx="238.18" cy="819.25" r="10"/><circle class="cls-2" cx="238.18" cy="788.72" r="10"/><circle class="cls-2" cx="799.4" cy="243.49" r="10"/><circle class="cls-2" cx="819.4" cy="278.53" r="10"/><circle class="cls-2" cx="840.16" cy="309.29" r="10"/><circle class="cls-2" cx="799.4" cy="309.29" r="10"/><circle class="cls-2" cx="775.02" cy="284.91" r="10"/><circle class="cls-2" cx="831.44" cy="246.49" r="10"/><circle class="cls-2" cx="860.44" cy="275.49" r="10"/><circle class="cls-2" cx="860.44" cy="244.96" r="10"/><circle class="cls-2" cx="737.91" cy="329.1" r="10"/><circle class="cls-2" cx="757.91" cy="364.13" r="10"/><circle class="cls-2" cx="778.67" cy="394.89" r="10"/><circle class="cls-2" cx="737.91" cy="394.89" r="10"/><circle class="cls-2" cx="713.53" cy="370.51" r="10"/><circle class="cls-2" cx="769.95" cy="332.09" r="10"/><circle class="cls-2" cx="798.95" cy="361.09" r="10"/><circle class="cls-2" cx="798.95" cy="330.57" r="10"/><circle class="cls-2" cx="674.19" cy="413.08" r="10"/><circle class="cls-2" cx="694.19" cy="448.11" r="10"/><circle class="cls-2" cx="714.95" cy="478.87" r="10"/><circle class="cls-2" cx="674.19" cy="478.87" r="10"/><circle class="cls-2" cx="649.81" cy="454.49" r="10"/><circle class="cls-2" cx="706.23" cy="416.07" r="10"/><circle class="cls-2" cx="735.23" cy="445.07" r="10"/><circle class="cls-2" cx="735.23" cy="414.55" r="10"/><circle class="cls-2" cx="609.09" cy="496" r="10"/><circle class="cls-2" cx="629.09" cy="531.03" r="10"/><circle class="cls-2" cx="649.85" cy="561.79" r="10"/><circle class="cls-2" cx="609.09" cy="561.79" r="10"/><circle class="cls-2" cx="584.71" cy="537.41" r="10"/><circle class="cls-2" cx="641.13" cy="498.99" r="10"/><circle class="cls-2" cx="670.13" cy="527.99" r="10"/><circle class="cls-2" cx="670.13" cy="497.46" r="10"/><circle class="cls-2" cx="542.59" cy="577.78" r="10"/><circle class="cls-2" cx="562.59" cy="612.81" r="10"/><circle class="cls-2" cx="583.35" cy="643.57" r="10"/><circle class="cls-2" cx="542.59" cy="643.57" r="10"/><circle class="cls-2" cx="518.21" cy="619.19" r="10"/><circle class="cls-2" cx="574.63" cy="580.77" r="10"/><circle class="cls-2" cx="603.63" cy="609.77" r="10"/><circle class="cls-2" cx="603.63" cy="579.25" r="10"/><circle class="cls-2" cx="470.16" cy="654.22" r="10"/><circle class="cls-2" cx="490.16" cy="689.26" r="10"/><circle class="cls-2" cx="510.92" cy="720.02" r="10"/><circle class="cls-2" cx="470.16" cy="720.02" r="10"/><circle class="cls-2" cx="445.78" cy="695.64" r="10"/><circle class="cls-2" cx="502.2" cy="657.22" r="10"/><circle class="cls-2" cx="531.2" cy="686.22" r="10"/><circle class="cls-2" cx="531.2" cy="655.69" r="10"/><circle class="cls-2" cx="388.03" cy="719.94" r="10"/><circle class="cls-2" cx="408.03" cy="754.98" r="10"/><circle class="cls-2" cx="428.8" cy="785.74" r="10"/><circle class="cls-2" cx="388.03" cy="785.74" r="10"/><circle class="cls-2" cx="363.65" cy="761.36" r="10"/><circle class="cls-2" cx="420.07" cy="722.94" r="10"/><circle class="cls-2" cx="449.07" cy="751.94" r="10"/><circle class="cls-2" cx="449.07" cy="721.41" r="10"/><circle class="cls-2" cx="297.72" cy="774.09" r="10"/><circle class="cls-2" cx="317.72" cy="809.12" r="10"/><circle class="cls-2" cx="338.48" cy="839.88" r="10"/><circle class="cls-2" cx="297.72" cy="839.88" r="10"/><circle class="cls-2" cx="273.34" cy="815.5" r="10"/><circle class="cls-2" cx="329.76" cy="777.08" r="10"/><circle class="cls-2" cx="358.76" cy="806.08" r="10"/><circle class="cls-2" cx="358.76" cy="775.56" r="10"/><circle class="cls-2" cx="203.46" cy="821.26" r="10"/><circle class="cls-2" cx="223.46" cy="856.29" r="10"/><circle class="cls-2" cx="244.23" cy="887.06" r="10"/><circle class="cls-2" cx="203.46" cy="887.06" r="10"/><circle class="cls-2" cx="179.08" cy="862.67" r="10"/><circle class="cls-2" cx="235.5" cy="824.25" r="10"/><circle class="cls-2" cx="264.5" cy="853.25" r="10"/><circle class="cls-2" cx="264.5" cy="822.73" r="10"/><circle class="cls-2" cx="816.35" cy="184.21" r="10"/><circle class="cls-2" cx="836.35" cy="219.24" r="10"/><circle class="cls-2" cx="857.11" cy="250" r="10"/><circle class="cls-2" cx="816.35" cy="250" r="10"/><circle class="cls-2" cx="791.97" cy="225.62" r="10"/><circle class="cls-2" cx="848.39" cy="187.2" r="10"/><circle class="cls-2" cx="877.39" cy="216.2" r="10"/><circle class="cls-2" cx="877.39" cy="185.68" r="10"/><circle class="cls-2" cx="743.61" cy="260.52" r="10"/><circle class="cls-2" cx="763.61" cy="295.55" r="10"/><circle class="cls-2" cx="784.37" cy="326.31" r="10"/><circle class="cls-2" cx="743.61" cy="326.31" r="10"/><circle class="cls-2" cx="719.23" cy="301.93" r="10"/><circle class="cls-2" cx="775.65" cy="263.51" r="10"/><circle class="cls-2" cx="804.65" cy="292.51" r="10"/><circle class="cls-2" cx="804.65" cy="261.99" r="10"/><circle class="cls-2" cx="672.86" cy="338.63" r="10"/><circle class="cls-2" cx="692.86" cy="373.66" r="10"/><circle class="cls-2" cx="713.62" cy="404.42" r="10"/><circle class="cls-2" cx="672.86" cy="404.42" r="10"/><circle class="cls-2" cx="648.48" cy="380.04" r="10"/><circle class="cls-2" cx="704.9" cy="341.62" r="10"/><circle class="cls-2" cx="733.9" cy="370.62" r="10"/><circle class="cls-2" cx="733.9" cy="340.1" r="10"/><circle class="cls-2" cx="603.89" cy="418.36" r="10"/><circle class="cls-2" cx="623.89" cy="453.39" r="10"/><circle class="cls-2" cx="644.66" cy="484.16" r="10"/><circle class="cls-2" cx="603.89" cy="484.16" r="10"/><circle class="cls-2" cx="579.51" cy="459.78" r="10"/><circle class="cls-2" cx="635.93" cy="421.35" r="10"/><circle class="cls-2" cx="664.93" cy="450.35" r="10"/><circle class="cls-2" cx="664.93" cy="419.83" r="10"/><circle class="cls-2" cx="535.69" cy="498.74" r="10"/><circle class="cls-2" cx="555.69" cy="533.77" r="10"/><circle class="cls-2" cx="576.45" cy="564.53" r="10"/><circle class="cls-2" cx="535.69" cy="564.53" r="10"/><circle class="cls-2" cx="511.31" cy="540.15" r="10"/><circle class="cls-2" cx="567.73" cy="501.73" r="10"/><circle class="cls-2" cx="596.73" cy="530.73" r="10"/><circle class="cls-2" cx="596.73" cy="500.21" r="10"/><circle class="cls-2" cx="463.46" cy="575.35" r="10"/><circle class="cls-2" cx="483.46" cy="610.38" r="10"/><circle class="cls-2" cx="504.22" cy="641.14" r="10"/><circle class="cls-2" cx="463.46" cy="641.14" r="10"/><circle class="cls-2" cx="439.08" cy="616.76" r="10"/><circle class="cls-2" cx="495.5" cy="578.34" r="10"/><circle class="cls-2" cx="524.5" cy="607.34" r="10"/><circle class="cls-2" cx="524.5" cy="576.81" r="10"/><circle class="cls-2" cx="382.18" cy="642.32" r="10"/><circle class="cls-2" cx="402.18" cy="677.35" r="10"/><circle class="cls-2" cx="422.94" cy="708.11" r="10"/><circle class="cls-2" cx="382.18" cy="708.11" r="10"/><circle class="cls-2" cx="357.8" cy="683.73" r="10"/><circle class="cls-2" cx="414.22" cy="645.31" r="10"/><circle class="cls-2" cx="443.22" cy="674.31" r="10"/><circle class="cls-2" cx="443.22" cy="643.79" r="10"/><circle class="cls-2" cx="295.96" cy="702.95" r="10"/><circle class="cls-2" cx="315.96" cy="737.98" r="10"/><circle class="cls-2" cx="336.72" cy="768.74" r="10"/><circle class="cls-2" cx="295.96" cy="768.74" r="10"/><circle class="cls-2" cx="271.58" cy="744.36" r="10"/><circle class="cls-2" cx="328" cy="705.94" r="10"/><circle class="cls-2" cx="357" cy="734.94" r="10"/><circle class="cls-2" cx="357" cy="704.42" r="10"/><circle class="cls-2" cx="792.98" cy="139.86" r="10"/><circle class="cls-2" cx="812.98" cy="174.89" r="10"/><circle class="cls-2" cx="833.74" cy="205.66" r="10"/><circle class="cls-2" cx="792.98" cy="205.66" r="10"/><circle class="cls-2" cx="768.6" cy="181.27" r="10"/><circle class="cls-2" cx="825.02" cy="142.85" r="10"/><circle class="cls-2" cx="854.02" cy="171.85" r="10"/><circle class="cls-2" cx="854.02" cy="141.33" r="10"/><circle class="cls-2" cx="739.81" cy="230.82" r="10"/><circle class="cls-2" cx="759.81" cy="265.85" r="10"/><circle class="cls-2" cx="780.57" cy="296.61" r="10"/><circle class="cls-2" cx="739.81" cy="296.61" r="10"/><circle class="cls-2" cx="715.43" cy="272.23" r="10"/><circle class="cls-2" cx="771.85" cy="233.81" r="10"/><circle class="cls-2" cx="800.85" cy="262.81" r="10"/><circle class="cls-2" cx="800.85" cy="232.29" r="10"/><circle class="cls-2" cx="681.8" cy="318.81" r="10"/><circle class="cls-2" cx="701.8" cy="353.85" r="10"/><circle class="cls-2" cx="722.56" cy="384.61" r="10"/><circle class="cls-2" cx="681.8" cy="384.61" r="10"/><circle class="cls-2" cx="657.42" cy="360.23" r="10"/><circle class="cls-2" cx="713.84" cy="321.81" r="10"/><circle class="cls-2" cx="742.84" cy="350.81" r="10"/><circle class="cls-2" cx="742.84" cy="320.28" r="10"/><circle class="cls-2" cx="620.67" cy="404.7" r="10"/><circle class="cls-2" cx="640.67" cy="439.73" r="10"/><circle class="cls-2" cx="661.43" cy="470.49" r="10"/><circle class="cls-2" cx="620.67" cy="470.49" r="10"/><circle class="cls-2" cx="596.29" cy="446.11" r="10"/><circle class="cls-2" cx="652.71" cy="407.69" r="10"/><circle class="cls-2" cx="681.71" cy="436.69" r="10"/><circle class="cls-2" cx="681.71" cy="406.17" r="10"/><circle class="cls-2" cx="557.81" cy="489.32" r="10"/><circle class="cls-2" cx="577.81" cy="524.35" r="10"/><circle class="cls-2" cx="598.57" cy="555.12" r="10"/><circle class="cls-2" cx="557.81" cy="555.12" r="10"/><circle class="cls-2" cx="533.43" cy="530.74" r="10"/><circle class="cls-2" cx="589.85" cy="492.31" r="10"/><circle class="cls-2" cx="618.85" cy="521.31" r="10"/><circle class="cls-2" cx="618.85" cy="490.79" r="10"/><circle class="cls-2" cx="489.82" cy="569.7" r="10"/><circle class="cls-2" cx="509.82" cy="604.73" r="10"/><circle class="cls-2" cx="530.58" cy="635.49" r="10"/><circle class="cls-2" cx="489.82" cy="635.49" r="10"/><circle class="cls-2" cx="465.44" cy="611.11" r="10"/><circle class="cls-2" cx="521.86" cy="572.69" r="10"/><circle class="cls-2" cx="550.86" cy="601.69" r="10"/><circle class="cls-2" cx="550.86" cy="571.17" r="10"/><circle class="cls-2" cx="407.61" cy="634.94" r="10"/><circle class="cls-2" cx="427.61" cy="669.98" r="10"/><circle class="cls-2" cx="448.37" cy="700.74" r="10"/><circle class="cls-2" cx="407.61" cy="700.74" r="10"/><circle class="cls-2" cx="383.23" cy="676.36" r="10"/><circle class="cls-2" cx="439.65" cy="637.94" r="10"/><circle class="cls-2" cx="468.65" cy="666.94" r="10"/><circle class="cls-2" cx="468.65" cy="636.41" r="10"/><circle class="cls-2" cx="314.68" cy="684.64" r="10"/><circle class="cls-2" cx="334.68" cy="719.67" r="10"/><circle class="cls-2" cx="355.45" cy="750.43" r="10"/><circle class="cls-2" cx="314.68" cy="750.43" r="10"/><circle class="cls-2" cx="290.3" cy="726.05" r="10"/><circle class="cls-2" cx="346.72" cy="687.63" r="10"/><circle class="cls-2" cx="375.72" cy="716.63" r="10"/><circle class="cls-2" cx="375.72" cy="686.1" r="10"/><line class="cls-3" x1="113.75" y1="909.86" x2="906.89" y2="116.72"/><text class="cls-4" transform="translate(114.26 368.27)">Y=X</text></svg>