<?xml version="1.0" standalone="no"?><!DOCTYPE svg PUBLIC "-//W3C//DTD SVG 1.1//EN" "http://www.w3.org/Graphics/SVG/1.1/DTD/svg11.dtd"><svg t="1651220607485" class="icon" viewBox="0 0 1024 1024" version="1.1" xmlns="http://www.w3.org/2000/svg" p-id="21154" data-spm-anchor-id="a313x.7781069.0.i25" xmlns:xlink="http://www.w3.org/1999/xlink" width="200" height="200"><defs><style type="text/css"></style></defs><path d="M881.91 700.834l-16.226 28.132c21.688 20.836 17.008 47.992-14.594 65.876L579.372 948.42c-37.532 21.21-98.352 21.21-135.86 0l-271.72-153.578c-31.766-17.954-36.344-45.344-14.29-66.18l-16.046-27.828c-26.984 0.64-45.79-20.132-45.79-57.086V365.342c0-51.25 35.844-113.492 80.062-139.016l240.156-138.64c44.226-25.524 80.062-4.688 80.062 46.562v120.344h31.5V134.248c0-51.25 35.836-72.086 80.024-46.562l240.156 138.64c44.226 25.524 80.062 87.766 80.062 139.016v278.406c0.004 36.954-18.802 57.726-45.778 57.086z" fill="#bfbfbf" p-id="21155" data-spm-anchor-id="a313x.7781069.0.i31" class="selected"></path><path d="M175.73 332.858l240.156 138.64c44.226 25.524 80.062 87.774 80.062 139.024V888.92c0 51.25-35.836 72.124-80.062 46.602L175.73 796.88c-44.218-25.554-80.062-87.766-80.062-139.054V379.458c0-51.25 35.844-72.124 80.062-46.6z" fill="#1296db" p-id="21156" data-spm-anchor-id="a313x.7781069.0.i29" class=""></path><path d="M847.628 332.858l-240.156 138.64c-44.188 25.524-80.024 87.774-80.024 139.024V888.92c0 51.25 35.836 72.124 80.024 46.602l240.156-138.64c44.226-25.554 80.062-87.766 80.062-139.054V379.458c0.002-51.25-35.834-72.124-80.062-46.6z" fill="#1296db" p-id="21157" data-spm-anchor-id="a313x.7781069.0.i24" class=""></path><path d="M579.372 72.474l271.718 153.578c37.508 21.21 37.508 55.594 0 76.804l-271.718 153.578c-37.532 21.18-98.352 21.18-135.86 0l-271.72-153.576c-37.5-21.21-37.5-55.594 0-76.804l271.718-153.578c37.51-21.212 98.33-21.212 135.862-0.002z" fill="#1296db" p-id="21158" data-spm-anchor-id="a313x.7781069.0.i22" class=""></path><path d="M223.692 593.342c-17.688-10.18-32.008-39.946-32.008-66.454 0-26.5 14.32-39.742 32.008-29.524 17.68 10.18 32 39.946 32 66.454s-14.32 39.742-32 29.524z m127.984 208.016c-17.648-10.21-32.008-39.976-32.008-66.484s14.36-39.71 32.008-29.532c17.68 10.218 32 39.984 32 66.492s-14.32 39.71-32 29.524z m-127.984-224c-17.688-10.21-32.008-39.976-32.008-66.484s14.32-39.71 32.008-29.532c17.68 10.218 32 39.984 32 66.492s-14.32 39.71-32 29.524z m127.984 207.984c-17.648-10.18-32.008-39.946-32.008-66.454s14.36-39.742 32.008-29.532c17.68 10.188 32 39.954 32 66.454 0 26.548-14.32 39.742-32 29.532zM191.684 526.584V510.6l64.008 32.008v15.984l-64.008-32.008zM319.668 734.6v-16.016l64.008 32v16.024L319.668 734.6z" fill="#ECF0F1" p-id="21159"></path><path d="M223.692 577.358c-17.688-10.21-32.008-39.976-32.008-66.484s14.32-39.71 32.008-29.532c17.68 10.218 32 39.984 32 66.492s-14.32 39.71-32 29.524z m127.984 207.984c-17.648-10.18-32.008-39.946-32.008-66.454s14.36-39.742 32.008-29.532c17.68 10.188 32 39.954 32 66.454 0 26.548-14.32 39.742-32 29.532z" fill="#ffffff" p-id="21160" data-spm-anchor-id="a313x.7781069.0.i28" class=""></path><path d="M639.684 641.374c-17.68 10.18-32.008-3.024-32.008-29.532s14.328-56.274 32.008-66.484c17.68-10.218 32.008 3.016 32.008 29.524s-14.328 56.272-32.008 66.492z m96.016 47.984c-17.688 10.188-32.008-3.016-32.008-29.524s14.32-56.274 32.008-66.492c17.648-10.18 31.968 3.024 31.968 29.532s-14.32 56.272-31.968 66.484z m95.976 47.992c-17.68 10.218-32-3.024-32-29.524 0-26.508 14.32-56.274 32-66.454 17.688-10.218 32.008 2.984 32.008 29.492 0 26.54-14.32 56.266-32.008 66.486z m-191.992-112c-17.68 10.218-32.008-3.024-32.008-29.524 0-26.508 14.328-56.274 32.008-66.454 17.68-10.218 32.008 2.984 32.008 29.492 0 26.54-14.328 56.274-32.008 66.486z m96.016 47.992c-17.688 10.21-32.008-2.984-32.008-29.532 0-26.508 14.32-56.266 32.008-66.454 17.648-10.21 31.968 3.024 31.968 29.532s-14.32 56.274-31.968 66.454z m95.976 48.024c-17.68 10.18-32-3.024-32-29.532 0-26.5 14.32-56.266 32-66.484 17.688-10.21 32.008 3.024 32.008 29.532 0 26.498-14.32 56.264-32.008 66.484z m-224-114.782V590.6l64.016-32.008v15.984l-64.016 32.008z m96.016 48.024v-16.024l63.976-32v16.016l-63.976 32.008z m95.984 47.992v-16.024l64.008-31.968v15.984L799.676 702.6z" fill="#BDC3C7" p-id="21161"></path><path d="M639.684 625.35c-17.68 10.218-32.008-3.024-32.008-29.524 0-26.508 14.328-56.274 32.008-66.454 17.68-10.218 32.008 2.984 32.008 29.492 0 26.54-14.328 56.274-32.008 66.486z m96.016 47.992c-17.688 10.21-32.008-2.984-32.008-29.532 0-26.508 14.32-56.266 32.008-66.454 17.648-10.21 31.968 3.024 31.968 29.532s-14.32 56.274-31.968 66.454z m95.976 48.024c-17.68 10.18-32-3.024-32-29.532 0-26.5 14.32-56.266 32-66.484 17.688-10.21 32.008 3.024 32.008 29.532 0 26.498-14.32 56.264-32.008 66.484z" p-id="21162" data-spm-anchor-id="a313x.7781069.0.i26" class="" fill="#ffffff"></path><path d="M559.692 190.584c-26.508 0-47.992-10.718-47.992-23.992s21.484-24 47.992-24 47.984 10.726 47.984 24-21.476 23.992-47.984 23.992z m127.984 80c-26.508 0-47.992-10.726-47.992-24 0-13.234 21.484-23.992 47.992-23.992s48.024 10.758 48.024 23.992c0 13.274-21.516 24-48.024 24z m-239.984-15.992c-26.508 0-47.992-10.758-47.992-23.992 0-13.274 21.484-23.992 47.992-23.992 26.5 0 47.984 10.718 47.984 23.992 0 13.234-21.484 23.992-47.984 23.992z m127.984 80c-26.508 0-47.992-10.758-47.992-24 0-13.266 21.484-23.992 47.992-23.992s48.024 10.726 48.024 23.992c0 13.242-21.516 24-48.024 24z m-239.984-15.984c-26.508 0-47.992-10.758-47.992-24.032 0-13.234 21.484-23.992 47.992-23.992s47.984 10.758 47.984 23.992c0 13.274-21.476 24.032-47.984 24.032z m127.984 79.992c-26.508 0-47.992-10.758-47.992-23.992 0-13.274 21.484-24.032 47.992-24.032s48.024 10.758 48.024 24.032c0 13.234-21.516 23.992-48.024 23.992z m96.016-224c-26.508 0-47.992-10.758-47.992-23.992 0-13.274 21.484-24.032 47.992-24.032s47.984 10.758 47.984 24.032c0 13.234-21.476 23.992-47.984 23.992z m127.984 79.992c-26.508 0-47.992-10.758-47.992-23.992 0-13.274 21.484-23.992 47.992-23.992s48.024 10.718 48.024 23.992c0 13.234-21.516 23.992-48.024 23.992z m-239.984-16.016c-26.508 0-47.992-10.726-47.992-23.992 0-13.242 21.484-24 47.992-24 26.5 0 47.984 10.758 47.984 24 0 13.266-21.484 23.992-47.984 23.992z m127.984 80.032c-26.508 0-47.992-10.758-47.992-24.032 0-13.234 21.484-23.992 47.992-23.992s48.024 10.758 48.024 23.992c0 13.274-21.516 24.032-48.024 24.032z m-239.984-16.024c-26.508 0-47.992-10.726-47.992-23.992 0-13.274 21.484-24 47.992-24s47.984 10.726 47.984 24c0 13.266-21.476 23.992-47.984 23.992z m127.984 80c-26.508 0-47.992-10.726-47.992-24 0-13.234 21.484-23.992 47.992-23.992s48.024 10.758 48.024 23.992c0 13.274-21.516 24-48.024 24z m-175.976-88.008v-15.984h95.976v15.984H287.7z m127.984 80.032v-16.024h96.016v16.024h-96.016zM399.7 230.6v-16.016h95.976v16.016H399.7z m127.984 79.992v-16.016h96.016v16.016h-96.016z m-15.984-144v-15.984h95.976v15.984H511.7z m127.984 79.992V230.6h96.016v15.984h-96.016z" fill="#FFFFFF" p-id="21163" data-spm-anchor-id="a313x.7781069.0.i30" class=""></path><path d="M559.692 174.6c-26.508 0-47.992-10.758-47.992-23.992 0-13.274 21.484-24.032 47.992-24.032s47.984 10.758 47.984 24.032c0 13.234-21.476 23.992-47.984 23.992z m127.984 79.992c-26.508 0-47.992-10.758-47.992-23.992 0-13.274 21.484-23.992 47.992-23.992s48.024 10.718 48.024 23.992c0 13.234-21.516 23.992-48.024 23.992z m-239.984-16.016c-26.508 0-47.992-10.726-47.992-23.992 0-13.242 21.484-24 47.992-24 26.5 0 47.984 10.758 47.984 24 0 13.266-21.484 23.992-47.984 23.992z m127.984 80.032c-26.508 0-47.992-10.758-47.992-24.032 0-13.234 21.484-23.992 47.992-23.992s48.024 10.758 48.024 23.992c0 13.274-21.516 24.032-48.024 24.032z m-239.984-16.024c-26.508 0-47.992-10.726-47.992-23.992 0-13.274 21.484-24 47.992-24s47.984 10.726 47.984 24c0 13.266-21.476 23.992-47.984 23.992z m127.984 80c-26.508 0-47.992-10.726-47.992-24 0-13.234 21.484-23.992 47.992-23.992s48.024 10.758 48.024 23.992c0 13.274-21.516 24-48.024 24z" fill="#ffffff" p-id="21164" data-spm-anchor-id="a313x.7781069.0.i23" class=""></path></svg>