<?xml version="1.0" standalone="no"?><!DOCTYPE svg PUBLIC "-//W3C//DTD SVG 1.1//EN" "http://www.w3.org/Graphics/SVG/1.1/DTD/svg11.dtd"><svg t="1651219745981" class="icon" viewBox="0 0 1095 1024" version="1.1" xmlns="http://www.w3.org/2000/svg" p-id="3527" xmlns:xlink="http://www.w3.org/1999/xlink" width="213.8671875" height="200"><defs><style type="text/css"></style></defs><path d="M1004.150124 995.09522H31.022537V28.90478h973.127587v966.19044z m-963.492661-9.634926h953.857735V38.539706H40.657463v946.920588z" p-id="3528"></path><path d="M1033.054904 1024H2.117757V0h1030.937147v1024z m-963.492661-67.444486h896.048175V67.444486H69.562243v889.111028z" p-id="3529" data-spm-anchor-id="a313x.7781069.0.i1" class="selected" fill="#1296db"></path><path d="M40.657463 480.156568h929.529545v57.809559H40.657463z" p-id="3530" data-spm-anchor-id="a313x.7781069.0.i2" class="selected" fill="#1296db"></path><path d="M478.661227 28.90478h57.80956v974.71735h-57.80956z" p-id="3531"></path><path d="M286.444441 825.80956c-33.577719 0-60.218291-9.586752-78.042905-28.712082-33.047798-35.45653-31.409861-98.806172 4.721114-178.487015 35.504705-78.331953 100.203237-163.601054 182.148287-240.054197 81.945051-76.501317 171.453519-135.129846 252.04968-165.142642 81.945051-30.542717 145.294693-27.796763 178.390666 7.611592 33.047798 35.408355 31.409861 98.806172-4.721114 178.487016-35.504705 78.331953-100.203237 163.601054-182.148287 240.102371-81.945051 76.501317-171.453519 135.129846-252.04968 165.142642-37.768912 14.018818-71.635679 21.052315-100.347761 21.052315zM747.282981 201.707189c-87.292435 0-222.036884 68.745201-345.460294 183.882574-81.029733 75.634174-144.957471 159.795258-179.932254 237.019194-34.396688 75.875047-36.660896 135.515243-6.455401 167.936771 63.542341 68.070756 250.508092-2.794129 416.806925-158.012796 166.298833-155.218668 249.929996-336.837034 186.387655-404.907791-16.379375-17.583741-40.996613-25.917953-71.346631-25.917952z" fill="#EC6319" p-id="3532"></path><path d="M286.444441 849.896876c-40.370342 0-73.466315-12.573579-95.674821-36.323673-40.129469-43.019947-39.984945-115.763643 0.385397-204.83854 36.80542-81.174257 103.430937-169.141137 187.640196-247.762138 84.209259-78.621001 176.608205-139.031991 260.094843-170.104629 91.676327-34.155815 164.227324-29.242002 204.404968 13.729771 40.129469 43.019947 39.984945 115.763643-0.385397 204.838539-36.757245 81.174257-103.430937 169.141137-187.640195 247.762138-84.209259 78.572826-176.608205 139.031991-260.094844 170.104629-40.225819 14.982311-76.83854 22.593903-108.730147 22.593903zM747.282981 225.794505c-83.101242 0-215.292435 71.298457-329.032744 177.427174-78.765525 73.51449-140.718103 154.977795-174.440346 229.359428-29.675574 65.469326-33.625894 117.064358-10.791118 141.537071 11.321039 12.140008 29.868272 18.210011 53.811065 18.210012 74.718856 0 202.23711-59.110275 328.936395-177.427174 78.187429-72.984569 139.947309-153.821603 173.910425-227.625141 30.446368-66.143771 34.541212-118.365073 11.272864-143.271359-11.176515-12.091833-29.290177-18.210011-53.666541-18.210011z" fill="#FF9700" p-id="3533"></path><path d="M389.393632 507.182537m-6.503576 0a6.503575 6.503575 0 1 0 13.007151 0 6.503575 6.503575 0 1 0-13.007151 0Z" fill="#0071BC" p-id="3534"></path><path d="M395.945382 530.547234m-6.503575 0a6.503575 6.503575 0 1 0 13.00715 0 6.503575 6.503575 0 1 0-13.00715 0Z" fill="#0071BC" p-id="3535"></path><path d="M428.174212 566.48551m-6.503576 0a6.503575 6.503575 0 1 0 13.007151 0 6.503575 6.503575 0 1 0-13.007151 0Z" fill="#0071BC" p-id="3536"></path><path d="M434.677787 507.182537m-6.503575 0a6.503575 6.503575 0 1 0 13.00715 0 6.503575 6.503575 0 1 0-13.00715 0Z" fill="#0071BC" p-id="3537"></path><path d="M476.445194 507.182537m-6.503576 0a6.503575 6.503575 0 1 0 13.007151 0 6.503575 6.503575 0 1 0-13.007151 0Z" fill="#0071BC" p-id="3538"></path><path d="M428.174212 466.330448m-6.503576 0a6.503575 6.503575 0 1 0 13.007151 0 6.503575 6.503575 0 1 0-13.007151 0Z" fill="#0071BC" p-id="3539"></path><path d="M447.733113 479.385773m-6.503576 0a6.503575 6.503575 0 1 0 13.007151 0 6.503575 6.503575 0 1 0-13.007151 0Z" fill="#0071BC" p-id="3540"></path><path d="M441.229537 530.547234m-6.503575 0a6.503575 6.503575 0 1 0 13.007151 0 6.503575 6.503575 0 1 0-13.007151 0Z" fill="#0071BC" p-id="3541"></path><path d="M460.788438 554.827249m-6.503575 0a6.503575 6.503575 0 1 0 13.007151 0 6.503575 6.503575 0 1 0-13.007151 0Z" fill="#0071BC" p-id="3542"></path><path d="M476.445194 548.275499m-6.503576 0a6.503575 6.503575 0 1 0 13.007151 0 6.503575 6.503575 0 1 0-13.007151 0Z" fill="#0071BC" p-id="3543"></path><path d="M406.881024 479.385773m-6.503576 0a6.503575 6.503575 0 1 0 13.007151 0 6.503575 6.503575 0 1 0-13.007151 0Z" fill="#0071BC" p-id="3544"></path><path d="M413.432774 502.75047m-6.503576 0a6.503575 6.503575 0 1 0 13.007151 0 6.503575 6.503575 0 1 0-13.007151 0Z" fill="#0071BC" p-id="3545"></path><path d="M428.174212 530.547234m-6.503576 0a6.503575 6.503575 0 1 0 13.007151 0 6.503575 6.503575 0 1 0-13.007151 0Z" fill="#0071BC" p-id="3546"></path><path d="M413.432774 548.275499m-6.503576 0a6.503575 6.503575 0 1 0 13.007151 0 6.503575 6.503575 0 1 0-13.007151 0Z" fill="#0071BC" p-id="3547"></path><path d="M338.569394 607.24125m-6.503575 0a6.503575 6.503575 0 1 0 13.007151 0 6.503575 6.503575 0 1 0-13.007151 0Z" fill="#0071BC" p-id="3548"></path><path d="M345.121144 630.605947m-6.503575 0a6.503575 6.503575 0 1 0 13.007151 0 6.503575 6.503575 0 1 0-13.007151 0Z" fill="#0071BC" p-id="3549"></path><path d="M377.349974 666.592397m-6.503576 0a6.503575 6.503575 0 1 0 13.007151 0 6.503575 6.503575 0 1 0-13.007151 0Z" fill="#0071BC" p-id="3550"></path><path d="M383.853549 607.24125m-6.503575 0a6.503575 6.503575 0 1 0 13.007151 0 6.503575 6.503575 0 1 0-13.007151 0Z" fill="#0071BC" p-id="3551"></path><path d="M425.620956 607.24125m-6.503575 0a6.503575 6.503575 0 1 0 13.00715 0 6.503575 6.503575 0 1 0-13.00715 0Z" fill="#0071BC" p-id="3552"></path><path d="M377.349974 566.437335m-6.503576 0a6.503575 6.503575 0 1 0 13.007151 0 6.503575 6.503575 0 1 0-13.007151 0Z" fill="#0071BC" p-id="3553"></path><path d="M396.908875 579.444486m-6.503576 0a6.503575 6.503575 0 1 0 13.007151 0 6.503575 6.503575 0 1 0-13.007151 0Z" fill="#0071BC" p-id="3554"></path><path d="M390.405299 630.605947m-6.503575 0a6.503575 6.503575 0 1 0 13.007151 0 6.503575 6.503575 0 1 0-13.007151 0Z" fill="#0071BC" p-id="3555"></path><path d="M409.9642 654.885962m-6.503575 0a6.503575 6.503575 0 1 0 13.007151 0 6.503575 6.503575 0 1 0-13.007151 0Z" fill="#0071BC" p-id="3556"></path><path d="M425.620956 648.382386m-6.503575 0a6.503575 6.503575 0 1 0 13.00715 0 6.503575 6.503575 0 1 0-13.00715 0Z" fill="#0071BC" p-id="3557"></path><path d="M356.056786 579.444486m-6.503576 0a6.503575 6.503575 0 1 0 13.007151 0 6.503575 6.503575 0 1 0-13.007151 0Z" fill="#0071BC" p-id="3558"></path><path d="M362.608536 602.809183m-6.503576 0a6.503575 6.503575 0 1 0 13.007151 0 6.503575 6.503575 0 1 0-13.007151 0Z" fill="#0071BC" p-id="3559"></path><path d="M377.349974 630.605947m-6.503576 0a6.503575 6.503575 0 1 0 13.007151 0 6.503575 6.503575 0 1 0-13.007151 0Z" fill="#0071BC" p-id="3560"></path><path d="M362.608536 648.382386m-6.503576 0a6.503575 6.503575 0 1 0 13.007151 0 6.503575 6.503575 0 1 0-13.007151 0Z" fill="#0071BC" p-id="3561"></path><path d="M250.072593 675.167482m-6.503575 0a6.503575 6.503575 0 1 0 13.007151 0 6.503575 6.503575 0 1 0-13.007151 0Z" fill="#0071BC" p-id="3562"></path><path d="M256.624343 698.484005m-6.503575 0a6.503575 6.503575 0 1 0 13.007151 0 6.503575 6.503575 0 1 0-13.007151 0Z" fill="#0071BC" p-id="3563"></path><path d="M288.853173 734.470455m-6.503576 0a6.503575 6.503575 0 1 0 13.007151 0 6.503575 6.503575 0 1 0-13.007151 0Z" fill="#0071BC" p-id="3564"></path><path d="M295.356748 675.167482m-6.503575 0a6.503575 6.503575 0 1 0 13.007151 0 6.503575 6.503575 0 1 0-13.007151 0Z" fill="#0071BC" p-id="3565"></path><path d="M337.124155 675.167482m-6.503575 0a6.503575 6.503575 0 1 0 13.007151 0 6.503575 6.503575 0 1 0-13.007151 0Z" fill="#0071BC" p-id="3566"></path><path d="M288.853173 634.315393m-6.503576 0a6.503575 6.503575 0 1 0 13.007151 0 6.503575 6.503575 0 1 0-13.007151 0Z" fill="#0071BC" p-id="3567"></path><path d="M308.412074 647.370719m-6.503576 0a6.503575 6.503575 0 1 0 13.007151 0 6.503575 6.503575 0 1 0-13.007151 0Z" fill="#0071BC" p-id="3568"></path><path d="M301.908498 698.484005m-6.503575 0a6.503575 6.503575 0 1 0 13.007151 0 6.503575 6.503575 0 1 0-13.007151 0Z" fill="#0071BC" p-id="3569"></path><path d="M321.467399 722.812194m-6.503575 0a6.503575 6.503575 0 1 0 13.007151 0 6.503575 6.503575 0 1 0-13.007151 0Z" fill="#0071BC" p-id="3570"></path><path d="M337.124155 716.260444m-6.503575 0a6.503575 6.503575 0 1 0 13.007151 0 6.503575 6.503575 0 1 0-13.007151 0Z" fill="#0071BC" p-id="3571"></path><path d="M267.559985 647.370719m-6.503576 0a6.503575 6.503575 0 1 0 13.007151 0 6.503575 6.503575 0 1 0-13.007151 0Z" fill="#0071BC" p-id="3572"></path><path d="M274.111735 670.735416m-6.503575 0a6.503575 6.503575 0 1 0 13.007151 0 6.503575 6.503575 0 1 0-13.007151 0Z" fill="#0071BC" p-id="3573"></path><path d="M288.853173 698.484005m-6.503576 0a6.503575 6.503575 0 1 0 13.007151 0 6.503575 6.503575 0 1 0-13.007151 0Z" fill="#0071BC" p-id="3574"></path><path d="M274.111735 716.260444m-6.503575 0a6.503575 6.503575 0 1 0 13.007151 0 6.503575 6.503575 0 1 0-13.007151 0Z" fill="#0071BC" p-id="3575"></path><path d="M445.372556 517.829131m-6.503576 0a6.503575 6.503575 0 1 0 13.007151 0 6.503575 6.503575 0 1 0-13.007151 0Z" fill="#0071BC" p-id="3576"></path><path d="M451.876131 541.193828m-6.503575 0a6.503575 6.503575 0 1 0 13.00715 0 6.503575 6.503575 0 1 0-13.00715 0Z" fill="#0071BC" p-id="3577"></path><path d="M484.10496 577.132104m-6.503575 0a6.503575 6.503575 0 1 0 13.007151 0 6.503575 6.503575 0 1 0-13.007151 0Z" fill="#0071BC" p-id="3578"></path><path d="M490.656711 517.829131m-6.503576 0a6.503575 6.503575 0 1 0 13.007151 0 6.503575 6.503575 0 1 0-13.007151 0Z" fill="#0071BC" p-id="3579"></path><path d="M532.375943 517.829131m-6.503576 0a6.503575 6.503575 0 1 0 13.007151 0 6.503575 6.503575 0 1 0-13.007151 0Z" fill="#0071BC" p-id="3580"></path><path d="M484.10496 476.977042m-6.503575 0a6.503575 6.503575 0 1 0 13.007151 0 6.503575 6.503575 0 1 0-13.007151 0Z" fill="#0071BC" p-id="3581"></path><path d="M503.663861 490.032367m-6.503575 0a6.503575 6.503575 0 1 0 13.007151 0 6.503575 6.503575 0 1 0-13.007151 0Z" fill="#0071BC" p-id="3582"></path><path d="M497.160286 541.193828m-6.503575 0a6.503575 6.503575 0 1 0 13.00715 0 6.503575 6.503575 0 1 0-13.00715 0Z" fill="#0071BC" p-id="3583"></path><path d="M516.719187 565.473843m-6.503575 0a6.503575 6.503575 0 1 0 13.007151 0 6.503575 6.503575 0 1 0-13.007151 0Z" fill="#0071BC" p-id="3584"></path><path d="M532.375943 558.970267m-6.503576 0a6.503575 6.503575 0 1 0 13.007151 0 6.503575 6.503575 0 1 0-13.007151 0Z" fill="#0071BC" p-id="3585"></path><path d="M462.859947 490.032367m-6.503575 0a6.503575 6.503575 0 1 0 13.007151 0 6.503575 6.503575 0 1 0-13.007151 0Z" fill="#0071BC" p-id="3586"></path><path d="M469.363523 513.397064m-6.503576 0a6.503575 6.503575 0 1 0 13.007151 0 6.503575 6.503575 0 1 0-13.007151 0Z" fill="#0071BC" p-id="3587"></path><path d="M484.10496 541.193828m-6.503575 0a6.503575 6.503575 0 1 0 13.007151 0 6.503575 6.503575 0 1 0-13.007151 0Z" fill="#0071BC" p-id="3588"></path><path d="M469.363523 558.970267m-6.503576 0a6.503575 6.503575 0 1 0 13.007151 0 6.503575 6.503575 0 1 0-13.007151 0Z" fill="#0071BC" p-id="3589"></path><path d="M385.202439 613.744825m-6.503576 0a6.503575 6.503575 0 1 0 13.007151 0 6.503575 6.503575 0 1 0-13.007151 0Z" fill="#0071BC" p-id="3590"></path><path d="M391.706014 637.109522m-6.503575 0a6.503575 6.503575 0 1 0 13.007151 0 6.503575 6.503575 0 1 0-13.007151 0Z" fill="#0071BC" p-id="3591"></path><path d="M423.934844 673.047798m-6.503576 0a6.503575 6.503575 0 1 0 13.007151 0 6.503575 6.503575 0 1 0-13.007151 0Z" fill="#0071BC" p-id="3592"></path><path d="M430.486594 613.744825m-6.503576 0a6.503575 6.503575 0 1 0 13.007151 0 6.503575 6.503575 0 1 0-13.007151 0Z" fill="#0071BC" p-id="3593"></path><path d="M472.254001 613.744825m-6.503576 0a6.503575 6.503575 0 1 0 13.007151 0 6.503575 6.503575 0 1 0-13.007151 0Z" fill="#0071BC" p-id="3594"></path><path d="M423.934844 572.892736m-6.503576 0a6.503575 6.503575 0 1 0 13.007151 0 6.503575 6.503575 0 1 0-13.007151 0Z" fill="#0071BC" p-id="3595"></path><path d="M443.541919 585.948062m-6.503575 0a6.503575 6.503575 0 1 0 13.007151 0 6.503575 6.503575 0 1 0-13.007151 0Z" fill="#0071BC" p-id="3596"></path><path d="M436.990169 637.109522m-6.503575 0a6.503575 6.503575 0 1 0 13.007151 0 6.503575 6.503575 0 1 0-13.007151 0Z" fill="#0071BC" p-id="3597"></path><path d="M456.597245 661.389537m-6.503575 0a6.503575 6.503575 0 1 0 13.00715 0 6.503575 6.503575 0 1 0-13.00715 0Z" fill="#0071BC" p-id="3598"></path><path d="M472.254001 654.837787m-6.503576 0a6.503575 6.503575 0 1 0 13.007151 0 6.503575 6.503575 0 1 0-13.007151 0Z" fill="#0071BC" p-id="3599"></path><path d="M402.689831 585.948062m-6.503576 0a6.503575 6.503575 0 1 0 13.007151 0 6.503575 6.503575 0 1 0-13.007151 0Z" fill="#0071BC" p-id="3600"></path><path d="M409.193406 609.312759m-6.503575 0a6.503575 6.503575 0 1 0 13.007151 0 6.503575 6.503575 0 1 0-13.007151 0Z" fill="#0071BC" p-id="3601"></path><path d="M423.934844 637.109522m-6.503576 0a6.503575 6.503575 0 1 0 13.007151 0 6.503575 6.503575 0 1 0-13.007151 0Z" fill="#0071BC" p-id="3602"></path><path d="M409.193406 654.837787m-6.503575 0a6.503575 6.503575 0 1 0 13.007151 0 6.503575 6.503575 0 1 0-13.007151 0Z" fill="#0071BC" p-id="3603" data-spm-anchor-id="a313x.7781069.0.i4" class=""></path><path d="M414.926187 516.913813m-6.503575 0a6.503575 6.503575 0 1 0 13.007151 0 6.503575 6.503575 0 1 0-13.007151 0Z" fill="#0071BC" p-id="3604"></path><path d="M421.429763 540.27851m-6.503576 0a6.503575 6.503575 0 1 0 13.007151 0 6.503575 6.503575 0 1 0-13.007151 0Z" fill="#0071BC" p-id="3605"></path><path d="M453.706767 576.26496m-6.503575 0a6.503575 6.503575 0 1 0 13.00715 0 6.503575 6.503575 0 1 0-13.00715 0Z" fill="#0071BC" p-id="3606"></path><path d="M460.210342 516.913813m-6.503575 0a6.503575 6.503575 0 1 0 13.007151 0 6.503575 6.503575 0 1 0-13.007151 0Z" fill="#0071BC" p-id="3607"></path><path d="M501.977749 516.913813m-6.503575 0a6.503575 6.503575 0 1 0 13.007151 0 6.503575 6.503575 0 1 0-13.007151 0Z" fill="#0071BC" p-id="3608"></path><path d="M453.706767 476.109898m-6.503575 0a6.503575 6.503575 0 1 0 13.00715 0 6.503575 6.503575 0 1 0-13.00715 0Z" fill="#0071BC" p-id="3609"></path><path d="M473.265668 489.117049m-6.503575 0a6.503575 6.503575 0 1 0 13.007151 0 6.503575 6.503575 0 1 0-13.007151 0Z" fill="#0071BC" p-id="3610"></path><path d="M466.713918 540.27851m-6.503576 0a6.503575 6.503575 0 1 0 13.007151 0 6.503575 6.503575 0 1 0-13.007151 0Z" fill="#0071BC" p-id="3611"></path><path d="M486.320994 564.558525m-6.503576 0a6.503575 6.503575 0 1 0 13.007151 0 6.503575 6.503575 0 1 0-13.007151 0Z" fill="#0071BC" p-id="3612"></path><path d="M501.977749 558.054949m-6.503575 0a6.503575 6.503575 0 1 0 13.007151 0 6.503575 6.503575 0 1 0-13.007151 0Z" fill="#0071BC" p-id="3613"></path><path d="M432.413579 489.117049m-6.503575 0a6.503575 6.503575 0 1 0 13.007151 0 6.503575 6.503575 0 1 0-13.007151 0Z" fill="#0071BC" p-id="3614"></path><path d="M438.917155 512.481746m-6.503576 0a6.503575 6.503575 0 1 0 13.007151 0 6.503575 6.503575 0 1 0-13.007151 0Z" fill="#0071BC" p-id="3615"></path><path d="M453.706767 540.27851m-6.503575 0a6.503575 6.503575 0 1 0 13.00715 0 6.503575 6.503575 0 1 0-13.00715 0Z" fill="#0071BC" p-id="3616"></path><path d="M438.917155 558.054949m-6.503576 0a6.503575 6.503575 0 1 0 13.007151 0 6.503575 6.503575 0 1 0-13.007151 0Z" fill="#0071BC" p-id="3617"></path><path d="M324.502401 585.032744m-6.503575 0a6.503575 6.503575 0 1 0 13.007151 0 6.503575 6.503575 0 1 0-13.007151 0Z" fill="#0071BC" p-id="3618"></path><path d="M331.005977 608.349266m-6.503576 0a6.503575 6.503575 0 1 0 13.007151 0 6.503575 6.503575 0 1 0-13.007151 0Z" fill="#0071BC" p-id="3619"></path><path d="M363.234806 644.335717m-6.503575 0a6.503575 6.503575 0 1 0 13.007151 0 6.503575 6.503575 0 1 0-13.007151 0Z" fill="#0071BC" p-id="3620"></path><path d="M369.786556 585.032744m-6.503575 0a6.503575 6.503575 0 1 0 13.007151 0 6.503575 6.503575 0 1 0-13.007151 0Z" fill="#0071BC" p-id="3621"></path><path d="M411.505788 585.032744m-6.503575 0a6.503575 6.503575 0 1 0 13.007151 0 6.503575 6.503575 0 1 0-13.007151 0Z" fill="#0071BC" p-id="3622"></path><path d="M363.234806 544.180655m-6.503575 0a6.503575 6.503575 0 1 0 13.007151 0 6.503575 6.503575 0 1 0-13.007151 0Z" fill="#0071BC" p-id="3623"></path><path d="M382.841882 557.23598m-6.503576 0a6.503575 6.503575 0 1 0 13.007151 0 6.503575 6.503575 0 1 0-13.007151 0Z" fill="#0071BC" p-id="3624"></path><path d="M376.290132 608.349266m-6.503576 0a6.503575 6.503575 0 1 0 13.007151 0 6.503575 6.503575 0 1 0-13.007151 0Z" fill="#0071BC" p-id="3625"></path><path d="M395.849033 632.677456m-6.503576 0a6.503575 6.503575 0 1 0 13.007151 0 6.503575 6.503575 0 1 0-13.007151 0Z" fill="#0071BC" p-id="3626"></path><path d="M411.505788 626.125706m-6.503575 0a6.503575 6.503575 0 1 0 13.007151 0 6.503575 6.503575 0 1 0-13.007151 0Z" fill="#0071BC" p-id="3627"></path><path d="M341.989793 557.23598m-6.503575 0a6.503575 6.503575 0 1 0 13.00715 0 6.503575 6.503575 0 1 0-13.00715 0Z" fill="#0071BC" p-id="3628"></path><path d="M348.493368 580.600677m-6.503575 0a6.503575 6.503575 0 1 0 13.007151 0 6.503575 6.503575 0 1 0-13.007151 0Z" fill="#0071BC" p-id="3629"></path><path d="M363.234806 608.349266m-6.503575 0a6.503575 6.503575 0 1 0 13.007151 0 6.503575 6.503575 0 1 0-13.007151 0Z" fill="#0071BC" p-id="3630"></path><path d="M348.493368 626.125706m-6.503575 0a6.503575 6.503575 0 1 0 13.007151 0 6.503575 6.503575 0 1 0-13.007151 0Z" fill="#0071BC" p-id="3631"></path><path d="M404.809514 481.457283m-6.503575 0a6.503575 6.503575 0 1 0 13.007151 0 6.503575 6.503575 0 1 0-13.007151 0Z" fill="#0071BC" p-id="3632"></path><path d="M411.361265 504.82198m-6.503576 0a6.503575 6.503575 0 1 0 13.007151 0 6.503575 6.503575 0 1 0-13.007151 0Z" fill="#0071BC" p-id="3633"></path><path d="M443.590094 540.760256m-6.503575 0a6.503575 6.503575 0 1 0 13.007151 0 6.503575 6.503575 0 1 0-13.007151 0Z" fill="#0071BC" p-id="3634"></path><path d="M450.09367 481.457283m-6.503576 0a6.503575 6.503575 0 1 0 13.007151 0 6.503575 6.503575 0 1 0-13.007151 0Z" fill="#0071BC" p-id="3635"></path><path d="M491.861076 481.457283m-6.503575 0a6.503575 6.503575 0 1 0 13.007151 0 6.503575 6.503575 0 1 0-13.007151 0Z" fill="#0071BC" p-id="3636"></path><path d="M443.590094 440.605194m-6.503575 0a6.503575 6.503575 0 1 0 13.007151 0 6.503575 6.503575 0 1 0-13.007151 0Z" fill="#0071BC" p-id="3637"></path><path d="M463.148995 453.660519m-6.503575 0a6.503575 6.503575 0 1 0 13.007151 0 6.503575 6.503575 0 1 0-13.007151 0Z" fill="#0071BC" p-id="3638"></path><path d="M456.64542 504.82198m-6.503576 0a6.503575 6.503575 0 1 0 13.007151 0 6.503575 6.503575 0 1 0-13.007151 0Z" fill="#0071BC" p-id="3639"></path><path d="M476.204321 529.101995m-6.503576 0a6.503575 6.503575 0 1 0 13.007151 0 6.503575 6.503575 0 1 0-13.007151 0Z" fill="#0071BC" p-id="3640"></path><path d="M491.861076 522.550245m-6.503575 0a6.503575 6.503575 0 1 0 13.007151 0 6.503575 6.503575 0 1 0-13.007151 0Z" fill="#0071BC" p-id="3641"></path><path d="M422.296906 453.660519m-6.503575 0a6.503575 6.503575 0 1 0 13.007151 0 6.503575 6.503575 0 1 0-13.007151 0Z" fill="#0071BC" p-id="3642"></path><path d="M428.848656 477.025216m-6.503575 0a6.503575 6.503575 0 1 0 13.007151 0 6.503575 6.503575 0 1 0-13.007151 0Z" fill="#0071BC" p-id="3643"></path><path d="M443.590094 504.82198m-6.503575 0a6.503575 6.503575 0 1 0 13.007151 0 6.503575 6.503575 0 1 0-13.007151 0Z" fill="#0071BC" p-id="3644"></path><path d="M428.848656 522.550245m-6.503575 0a6.503575 6.503575 0 1 0 13.007151 0 6.503575 6.503575 0 1 0-13.007151 0Z" fill="#0071BC" p-id="3645"></path><path d="M317.806127 552.273993m-6.503575 0a6.503575 6.503575 0 1 0 13.007151 0 6.503575 6.503575 0 1 0-13.007151 0Z" fill="#0071BC" p-id="3646"></path><path d="M324.357877 575.63869m-6.503575 0a6.503575 6.503575 0 1 0 13.007151 0 6.503575 6.503575 0 1 0-13.007151 0Z" fill="#0071BC" p-id="3647"></path><path d="M356.586707 611.576967m-6.503576 0a6.503575 6.503575 0 1 0 13.007151 0 6.503575 6.503575 0 1 0-13.007151 0Z" fill="#0071BC" p-id="3648"></path><path d="M363.090282 552.273993m-6.503575 0a6.503575 6.503575 0 1 0 13.007151 0 6.503575 6.503575 0 1 0-13.007151 0Z" fill="#0071BC" p-id="3649"></path><path d="M404.857689 552.273993m-6.503575 0a6.503575 6.503575 0 1 0 13.007151 0 6.503575 6.503575 0 1 0-13.007151 0Z" fill="#0071BC" p-id="3650"></path><path d="M356.586707 511.421904m-6.503576 0a6.503575 6.503575 0 1 0 13.007151 0 6.503575 6.503575 0 1 0-13.007151 0Z" fill="#0071BC" p-id="3651"></path><path d="M376.145608 524.47723m-6.503576 0a6.503575 6.503575 0 1 0 13.007151 0 6.503575 6.503575 0 1 0-13.007151 0Z" fill="#0071BC" p-id="3652"></path><path d="M369.642032 575.63869m-6.503575 0a6.503575 6.503575 0 1 0 13.007151 0 6.503575 6.503575 0 1 0-13.007151 0Z" fill="#0071BC" p-id="3653"></path><path d="M389.200933 599.918705m-6.503575 0a6.503575 6.503575 0 1 0 13.007151 0 6.503575 6.503575 0 1 0-13.007151 0Z" fill="#0071BC" p-id="3654"></path><path d="M404.857689 593.366955m-6.503575 0a6.503575 6.503575 0 1 0 13.007151 0 6.503575 6.503575 0 1 0-13.007151 0Z" fill="#0071BC" p-id="3655"></path><path d="M335.293519 524.47723m-6.503575 0a6.503575 6.503575 0 1 0 13.00715 0 6.503575 6.503575 0 1 0-13.00715 0Z" fill="#0071BC" p-id="3656"></path><path d="M341.845269 547.841927m-6.503575 0a6.503575 6.503575 0 1 0 13.007151 0 6.503575 6.503575 0 1 0-13.007151 0Z" fill="#0071BC" p-id="3657"></path><path d="M356.586707 575.63869m-6.503576 0a6.503575 6.503575 0 1 0 13.007151 0 6.503575 6.503575 0 1 0-13.007151 0Z" fill="#0071BC" p-id="3658"></path><path d="M341.845269 593.366955m-6.503575 0a6.503575 6.503575 0 1 0 13.007151 0 6.503575 6.503575 0 1 0-13.007151 0Z" fill="#0071BC" p-id="3659"></path><path d="M532.424117 402.017313m-6.503575 0a6.503575 6.503575 0 1 0 13.007151 0 6.503575 6.503575 0 1 0-13.007151 0Z" fill="#0071BC" p-id="3660"></path><path d="M538.927693 425.38201m-6.503576 0a6.503575 6.503575 0 1 0 13.007151 0 6.503575 6.503575 0 1 0-13.007151 0Z" fill="#0071BC" p-id="3661"></path><path d="M571.204697 461.320286m-6.503575 0a6.503575 6.503575 0 1 0 13.00715 0 6.503575 6.503575 0 1 0-13.00715 0Z" fill="#0071BC" p-id="3662"></path><path d="M577.708272 402.017313m-6.503575 0a6.503575 6.503575 0 1 0 13.007151 0 6.503575 6.503575 0 1 0-13.007151 0Z" fill="#0071BC" p-id="3663"></path><path d="M619.475679 402.017313m-6.503575 0a6.503575 6.503575 0 1 0 13.007151 0 6.503575 6.503575 0 1 0-13.007151 0Z" fill="#0071BC" p-id="3664"></path><path d="M571.204697 361.165224m-6.503575 0a6.503575 6.503575 0 1 0 13.00715 0 6.503575 6.503575 0 1 0-13.00715 0Z" fill="#0071BC" p-id="3665"></path><path d="M590.763598 374.220549m-6.503575 0a6.503575 6.503575 0 1 0 13.007151 0 6.503575 6.503575 0 1 0-13.007151 0Z" fill="#0071BC" p-id="3666"></path><path d="M584.211848 425.38201m-6.503576 0a6.503575 6.503575 0 1 0 13.007151 0 6.503575 6.503575 0 1 0-13.007151 0Z" fill="#0071BC" p-id="3667"></path><path d="M603.818924 449.662025m-6.503576 0a6.503575 6.503575 0 1 0 13.007151 0 6.503575 6.503575 0 1 0-13.007151 0Z" fill="#0071BC" p-id="3668"></path><path d="M619.475679 443.110275m-6.503575 0a6.503575 6.503575 0 1 0 13.007151 0 6.503575 6.503575 0 1 0-13.007151 0Z" fill="#0071BC" p-id="3669"></path><path d="M549.911509 374.220549m-6.503575 0a6.503575 6.503575 0 1 0 13.007151 0 6.503575 6.503575 0 1 0-13.007151 0Z" fill="#0071BC" p-id="3670"></path><path d="M556.415085 397.585247m-6.503576 0a6.503575 6.503575 0 1 0 13.007151 0 6.503575 6.503575 0 1 0-13.007151 0Z" fill="#0071BC" p-id="3671"></path><path d="M571.204697 425.38201m-6.503575 0a6.503575 6.503575 0 1 0 13.00715 0 6.503575 6.503575 0 1 0-13.00715 0Z" fill="#0071BC" p-id="3672"></path><path d="M556.415085 443.110275m-6.503576 0a6.503575 6.503575 0 1 0 13.007151 0 6.503575 6.503575 0 1 0-13.007151 0Z" fill="#0071BC" p-id="3673"></path><path d="M436.797471 462.380128m-6.503576 0a6.503575 6.503575 0 1 0 13.007151 0 6.503575 6.503575 0 1 0-13.007151 0Z" fill="#0071BC" p-id="3674"></path><path d="M443.301046 485.744825m-6.503575 0a6.503575 6.503575 0 1 0 13.007151 0 6.503575 6.503575 0 1 0-13.007151 0Z" fill="#0071BC" p-id="3675"></path><path d="M475.529876 521.683101m-6.503576 0a6.503575 6.503575 0 1 0 13.007151 0 6.503575 6.503575 0 1 0-13.007151 0Z" fill="#0071BC" p-id="3676"></path><path d="M482.081626 462.380128m-6.503576 0a6.503575 6.503575 0 1 0 13.007151 0 6.503575 6.503575 0 1 0-13.007151 0Z" fill="#0071BC" p-id="3677"></path><path d="M523.800858 462.380128m-6.503575 0a6.503575 6.503575 0 1 0 13.007151 0 6.503575 6.503575 0 1 0-13.007151 0Z" fill="#0071BC" p-id="3678"></path><path d="M475.529876 421.528039m-6.503576 0a6.503575 6.503575 0 1 0 13.007151 0 6.503575 6.503575 0 1 0-13.007151 0Z" fill="#0071BC" p-id="3679"></path><path d="M495.088777 434.583365m-6.503576 0a6.503575 6.503575 0 1 0 13.007151 0 6.503575 6.503575 0 1 0-13.007151 0Z" fill="#0071BC" p-id="3680"></path><path d="M488.585201 485.744825m-6.503575 0a6.503575 6.503575 0 1 0 13.007151 0 6.503575 6.503575 0 1 0-13.007151 0Z" fill="#0071BC" p-id="3681"></path><path d="M508.144102 510.02484m-6.503575 0a6.503575 6.503575 0 1 0 13.007151 0 6.503575 6.503575 0 1 0-13.007151 0Z" fill="#0071BC" p-id="3682"></path><path d="M523.800858 503.47309m-6.503575 0a6.503575 6.503575 0 1 0 13.007151 0 6.503575 6.503575 0 1 0-13.007151 0Z" fill="#0071BC" p-id="3683"></path><path d="M454.284863 434.583365m-6.503576 0a6.503575 6.503575 0 1 0 13.007151 0 6.503575 6.503575 0 1 0-13.007151 0Z" fill="#0071BC" p-id="3684"></path><path d="M460.788438 457.948062m-6.503575 0a6.503575 6.503575 0 1 0 13.007151 0 6.503575 6.503575 0 1 0-13.007151 0Z" fill="#0071BC" p-id="3685"></path><path d="M475.529876 485.744825m-6.503576 0a6.503575 6.503575 0 1 0 13.007151 0 6.503575 6.503575 0 1 0-13.007151 0Z" fill="#0071BC" p-id="3686"></path><path d="M460.788438 503.47309m-6.503575 0a6.503575 6.503575 0 1 0 13.007151 0 6.503575 6.503575 0 1 0-13.007151 0Z" fill="#0071BC" p-id="3687"></path><path d="M560.558103 402.547234m-6.503575 0a6.503575 6.503575 0 1 0 13.007151 0 6.503575 6.503575 0 1 0-13.007151 0Z" fill="#0071BC" p-id="3688"></path><path d="M567.061679 425.863756m-6.503576 0a6.503575 6.503575 0 1 0 13.007151 0 6.503575 6.503575 0 1 0-13.007151 0Z" fill="#0071BC" p-id="3689"></path><path d="M599.290508 461.850207m-6.503575 0a6.503575 6.503575 0 1 0 13.007151 0 6.503575 6.503575 0 1 0-13.007151 0Z" fill="#0071BC" p-id="3690"></path><path d="M605.842258 402.547234m-6.503575 0a6.503575 6.503575 0 1 0 13.007151 0 6.503575 6.503575 0 1 0-13.007151 0Z" fill="#0071BC" p-id="3691"></path><path d="M647.609665 402.547234m-6.503575 0a6.503575 6.503575 0 1 0 13.00715 0 6.503575 6.503575 0 1 0-13.00715 0Z" fill="#0071BC" p-id="3692"></path><path d="M599.290508 361.695145m-6.503575 0a6.503575 6.503575 0 1 0 13.007151 0 6.503575 6.503575 0 1 0-13.007151 0Z" fill="#0071BC" p-id="3693"></path><path d="M618.897584 374.75047m-6.503576 0a6.503575 6.503575 0 1 0 13.007151 0 6.503575 6.503575 0 1 0-13.007151 0Z" fill="#0071BC" p-id="3694"></path><path d="M612.345834 425.863756m-6.503576 0a6.503575 6.503575 0 1 0 13.007151 0 6.503575 6.503575 0 1 0-13.007151 0Z" fill="#0071BC" p-id="3695"></path><path d="M631.952909 450.191946m-6.503575 0a6.503575 6.503575 0 1 0 13.007151 0 6.503575 6.503575 0 1 0-13.007151 0Z" fill="#0071BC" p-id="3696"></path><path d="M647.609665 443.640196m-6.503575 0a6.503575 6.503575 0 1 0 13.00715 0 6.503575 6.503575 0 1 0-13.00715 0Z" fill="#0071BC" p-id="3697"></path><path d="M578.045495 374.75047m-6.503576 0a6.503575 6.503575 0 1 0 13.007151 0 6.503575 6.503575 0 1 0-13.007151 0Z" fill="#0071BC" p-id="3698"></path><path d="M584.54907 398.115167m-6.503575 0a6.503575 6.503575 0 1 0 13.007151 0 6.503575 6.503575 0 1 0-13.007151 0Z" fill="#0071BC" p-id="3699"></path><path d="M599.290508 425.863756m-6.503575 0a6.503575 6.503575 0 1 0 13.007151 0 6.503575 6.503575 0 1 0-13.007151 0Z" fill="#0071BC" p-id="3700"></path><path d="M584.54907 443.640196m-6.503575 0a6.503575 6.503575 0 1 0 13.007151 0 6.503575 6.503575 0 1 0-13.007151 0Z" fill="#0071BC" p-id="3701"></path><path d="M471.09781 471.147911m-6.503576 0a6.503575 6.503575 0 1 0 13.007151 0 6.503575 6.503575 0 1 0-13.007151 0Z" fill="#0071BC" p-id="3702"></path><path d="M477.64956 494.512608m-6.503576 0a6.503575 6.503575 0 1 0 13.007151 0 6.503575 6.503575 0 1 0-13.007151 0Z" fill="#0071BC" p-id="3703"></path><path d="M509.878389 530.499059m-6.503575 0a6.503575 6.503575 0 1 0 13.007151 0 6.503575 6.503575 0 1 0-13.007151 0Z" fill="#0071BC" p-id="3704"></path><path d="M516.381965 471.147911m-6.503576 0a6.503575 6.503575 0 1 0 13.007151 0 6.503575 6.503575 0 1 0-13.007151 0Z" fill="#0071BC" p-id="3705"></path><path d="M558.149371 471.147911m-6.503575 0a6.503575 6.503575 0 1 0 13.007151 0 6.503575 6.503575 0 1 0-13.007151 0Z" fill="#0071BC" p-id="3706"></path><path d="M509.878389 430.343997m-6.503575 0a6.503575 6.503575 0 1 0 13.007151 0 6.503575 6.503575 0 1 0-13.007151 0Z" fill="#0071BC" p-id="3707"></path><path d="M529.43729 443.351148m-6.503575 0a6.503575 6.503575 0 1 0 13.007151 0 6.503575 6.503575 0 1 0-13.007151 0Z" fill="#0071BC" p-id="3708"></path><path d="M522.933715 494.512608m-6.503576 0a6.503575 6.503575 0 1 0 13.007151 0 6.503575 6.503575 0 1 0-13.007151 0Z" fill="#0071BC" p-id="3709"></path><path d="M542.492616 518.792623m-6.503576 0a6.503575 6.503575 0 1 0 13.007151 0 6.503575 6.503575 0 1 0-13.007151 0Z" fill="#0071BC" p-id="3710"></path><path d="M558.149371 512.289048m-6.503575 0a6.503575 6.503575 0 1 0 13.007151 0 6.503575 6.503575 0 1 0-13.007151 0Z" fill="#0071BC" p-id="3711"></path><path d="M488.585201 443.351148m-6.503575 0a6.503575 6.503575 0 1 0 13.007151 0 6.503575 6.503575 0 1 0-13.007151 0Z" fill="#0071BC" p-id="3712"></path><path d="M495.136951 466.715845m-6.503575 0a6.503575 6.503575 0 1 0 13.007151 0 6.503575 6.503575 0 1 0-13.007151 0Z" fill="#0071BC" p-id="3713"></path><path d="M509.878389 494.512608m-6.503575 0a6.503575 6.503575 0 1 0 13.007151 0 6.503575 6.503575 0 1 0-13.007151 0Z" fill="#0071BC" p-id="3714"></path><path d="M495.136951 512.289048m-6.503575 0a6.503575 6.503575 0 1 0 13.007151 0 6.503575 6.503575 0 1 0-13.007151 0Z" fill="#0071BC" p-id="3715"></path><path d="M633.157275 497.258562m-6.503575 0a6.503575 6.503575 0 1 0 13.007151 0 6.503575 6.503575 0 1 0-13.007151 0Z" fill="#0071BC" p-id="3716"></path><path d="M639.709025 520.623259m-6.503575 0a6.503575 6.503575 0 1 0 13.007151 0 6.503575 6.503575 0 1 0-13.007151 0Z" fill="#0071BC" p-id="3717"></path><path d="M671.937855 556.60971m-6.503576 0a6.503575 6.503575 0 1 0 13.007151 0 6.503575 6.503575 0 1 0-13.007151 0Z" fill="#0071BC" p-id="3718"></path><path d="M678.44143 497.258562m-6.503575 0a6.503575 6.503575 0 1 0 13.007151 0 6.503575 6.503575 0 1 0-13.007151 0Z" fill="#0071BC" p-id="3719"></path><path d="M720.208837 497.258562m-6.503575 0a6.503575 6.503575 0 1 0 13.00715 0 6.503575 6.503575 0 1 0-13.00715 0Z" fill="#0071BC" p-id="3720"></path><path d="M671.937855 456.454648m-6.503576 0a6.503575 6.503575 0 1 0 13.007151 0 6.503575 6.503575 0 1 0-13.007151 0Z" fill="#0071BC" p-id="3721"></path><path d="M691.496756 469.461799m-6.503576 0a6.503575 6.503575 0 1 0 13.007151 0 6.503575 6.503575 0 1 0-13.007151 0Z" fill="#0071BC" p-id="3722"></path><path d="M684.99318 520.623259m-6.503575 0a6.503575 6.503575 0 1 0 13.007151 0 6.503575 6.503575 0 1 0-13.007151 0Z" fill="#0071BC" p-id="3723"></path><path d="M704.552081 544.903274m-6.503575 0a6.503575 6.503575 0 1 0 13.007151 0 6.503575 6.503575 0 1 0-13.007151 0Z" fill="#0071BC" p-id="3724"></path><path d="M720.208837 538.399699m-6.503575 0a6.503575 6.503575 0 1 0 13.00715 0 6.503575 6.503575 0 1 0-13.00715 0Z" fill="#0071BC" p-id="3725"></path><path d="M650.644667 469.461799m-6.503576 0a6.503575 6.503575 0 1 0 13.007151 0 6.503575 6.503575 0 1 0-13.007151 0Z" fill="#0071BC" p-id="3726"></path><path d="M657.196417 492.826496m-6.503575 0a6.503575 6.503575 0 1 0 13.00715 0 6.503575 6.503575 0 1 0-13.00715 0Z" fill="#0071BC" p-id="3727"></path><path d="M671.937855 520.623259m-6.503576 0a6.503575 6.503575 0 1 0 13.007151 0 6.503575 6.503575 0 1 0-13.007151 0Z" fill="#0071BC" p-id="3728"></path><path d="M657.196417 538.399699m-6.503575 0a6.503575 6.503575 0 1 0 13.00715 0 6.503575 6.503575 0 1 0-13.00715 0Z" fill="#0071BC" p-id="3729"></path><path d="M521.873873 492.826496m-6.503576 0a6.503575 6.503575 0 1 0 13.007151 0 6.503575 6.503575 0 1 0-13.007151 0Z" fill="#0071BC" p-id="3730"></path><path d="M528.425623 516.143018m-6.503576 0a6.503575 6.503575 0 1 0 13.007151 0 6.503575 6.503575 0 1 0-13.007151 0Z" fill="#0071BC" p-id="3731"></path><path d="M560.654452 552.129469m-6.503575 0a6.503575 6.503575 0 1 0 13.007151 0 6.503575 6.503575 0 1 0-13.007151 0Z" fill="#0071BC" p-id="3732"></path><path d="M567.158028 492.826496m-6.503576 0a6.503575 6.503575 0 1 0 13.007151 0 6.503575 6.503575 0 1 0-13.007151 0Z" fill="#0071BC" p-id="3733"></path><path d="M608.925435 492.826496m-6.503576 0a6.503575 6.503575 0 1 0 13.007151 0 6.503575 6.503575 0 1 0-13.007151 0Z" fill="#0071BC" p-id="3734"></path><path d="M560.654452 451.974407m-6.503575 0a6.503575 6.503575 0 1 0 13.007151 0 6.503575 6.503575 0 1 0-13.007151 0Z" fill="#0071BC" p-id="3735"></path><path d="M580.213353 465.029733m-6.503575 0a6.503575 6.503575 0 1 0 13.007151 0 6.503575 6.503575 0 1 0-13.007151 0Z" fill="#0071BC" p-id="3736"></path><path d="M573.709778 516.143018m-6.503576 0a6.503575 6.503575 0 1 0 13.007151 0 6.503575 6.503575 0 1 0-13.007151 0Z" fill="#0071BC" p-id="3737"></path><path d="M593.268679 540.471208m-6.503575 0a6.503575 6.503575 0 1 0 13.00715 0 6.503575 6.503575 0 1 0-13.00715 0Z" fill="#0071BC" p-id="3738"></path><path d="M608.925435 533.919458m-6.503576 0a6.503575 6.503575 0 1 0 13.007151 0 6.503575 6.503575 0 1 0-13.007151 0Z" fill="#0071BC" p-id="3739"></path><path d="M539.361265 465.029733m-6.503576 0a6.503575 6.503575 0 1 0 13.007151 0 6.503575 6.503575 0 1 0-13.007151 0Z" fill="#0071BC" p-id="3740"></path><path d="M545.913015 488.346255m-6.503576 0a6.503575 6.503575 0 1 0 13.007151 0 6.503575 6.503575 0 1 0-13.007151 0Z" fill="#0071BC" p-id="3741"></path><path d="M560.654452 516.143018m-6.503575 0a6.503575 6.503575 0 1 0 13.007151 0 6.503575 6.503575 0 1 0-13.007151 0Z" fill="#0071BC" p-id="3742"></path><path d="M545.913015 533.919458m-6.503576 0a6.503575 6.503575 0 1 0 13.007151 0 6.503575 6.503575 0 1 0-13.007151 0Z" fill="#0071BC" p-id="3743"></path><path d="M565.471916 452.793376m-6.503576 0a6.503575 6.503575 0 1 0 13.007151 0 6.503575 6.503575 0 1 0-13.007151 0Z" fill="#0071BC" p-id="3744"></path><path d="M571.975491 476.109898m-6.503575 0a6.503575 6.503575 0 1 0 13.007151 0 6.503575 6.503575 0 1 0-13.007151 0Z" fill="#0071BC" p-id="3745"></path><path d="M604.204321 512.096349m-6.503576 0a6.503575 6.503575 0 1 0 13.007151 0 6.503575 6.503575 0 1 0-13.007151 0Z" fill="#0071BC" p-id="3746"></path><path d="M610.756071 452.793376m-6.503576 0a6.503575 6.503575 0 1 0 13.007151 0 6.503575 6.503575 0 1 0-13.007151 0Z" fill="#0071BC" p-id="3747"></path><path d="M652.475303 452.793376m-6.503575 0a6.503575 6.503575 0 1 0 13.00715 0 6.503575 6.503575 0 1 0-13.00715 0Z" fill="#0071BC" p-id="3748"></path><path d="M604.204321 411.941287m-6.503576 0a6.503575 6.503575 0 1 0 13.007151 0 6.503575 6.503575 0 1 0-13.007151 0Z" fill="#0071BC" p-id="3749"></path><path d="M623.811396 424.996613m-6.503575 0a6.503575 6.503575 0 1 0 13.007151 0 6.503575 6.503575 0 1 0-13.007151 0Z" fill="#0071BC" p-id="3750"></path><path d="M617.259646 476.109898m-6.503575 0a6.503575 6.503575 0 1 0 13.007151 0 6.503575 6.503575 0 1 0-13.007151 0Z" fill="#0071BC" p-id="3751"></path><path d="M636.866722 500.438088m-6.503576 0a6.503575 6.503575 0 1 0 13.007151 0 6.503575 6.503575 0 1 0-13.007151 0Z" fill="#0071BC" p-id="3752"></path><path d="M652.475303 493.886338m-6.503575 0a6.503575 6.503575 0 1 0 13.00715 0 6.503575 6.503575 0 1 0-13.00715 0Z" fill="#0071BC" p-id="3753"></path><path d="M582.959307 424.996613m-6.503575 0a6.503575 6.503575 0 1 0 13.007151 0 6.503575 6.503575 0 1 0-13.007151 0Z" fill="#0071BC" p-id="3754"></path><path d="M589.462883 448.313135m-6.503576 0a6.503575 6.503575 0 1 0 13.007151 0 6.503575 6.503575 0 1 0-13.007151 0Z" fill="#0071BC" p-id="3755"></path><path d="M604.204321 476.109898m-6.503576 0a6.503575 6.503575 0 1 0 13.007151 0 6.503575 6.503575 0 1 0-13.007151 0Z" fill="#0071BC" p-id="3756"></path><path d="M589.462883 493.886338m-6.503576 0a6.503575 6.503575 0 1 0 13.007151 0 6.503575 6.503575 0 1 0-13.007151 0Z" fill="#0071BC" p-id="3757"></path><path d="M493.35449 540.037636m-6.503575 0a6.503575 6.503575 0 1 0 13.00715 0 6.503575 6.503575 0 1 0-13.00715 0Z" fill="#0071BC" p-id="3758"></path><path d="M499.858065 563.354159m-6.503575 0a6.503575 6.503575 0 1 0 13.007151 0 6.503575 6.503575 0 1 0-13.007151 0Z" fill="#0071BC" p-id="3759"></path><path d="M532.086895 599.34061m-6.503575 0a6.503575 6.503575 0 1 0 13.00715 0 6.503575 6.503575 0 1 0-13.00715 0Z" fill="#0071BC" p-id="3760"></path><path d="M538.638645 540.037636m-6.503575 0a6.503575 6.503575 0 1 0 13.007151 0 6.503575 6.503575 0 1 0-13.007151 0Z" fill="#0071BC" p-id="3761"></path><path d="M580.357877 540.037636m-6.503575 0a6.503575 6.503575 0 1 0 13.007151 0 6.503575 6.503575 0 1 0-13.007151 0Z" fill="#0071BC" p-id="3762"></path><path d="M532.086895 499.185548m-6.503575 0a6.503575 6.503575 0 1 0 13.00715 0 6.503575 6.503575 0 1 0-13.00715 0Z" fill="#0071BC" p-id="3763"></path><path d="M551.645796 512.240873m-6.503575 0a6.503575 6.503575 0 1 0 13.00715 0 6.503575 6.503575 0 1 0-13.00715 0Z" fill="#0071BC" p-id="3764"></path><path d="M545.142221 563.354159m-6.503576 0a6.503575 6.503575 0 1 0 13.007151 0 6.503575 6.503575 0 1 0-13.007151 0Z" fill="#0071BC" p-id="3765"></path><path d="M564.701122 587.682349m-6.503576 0a6.503575 6.503575 0 1 0 13.007151 0 6.503575 6.503575 0 1 0-13.007151 0Z" fill="#0071BC" p-id="3766"></path><path d="M580.357877 581.130598m-6.503575 0a6.503575 6.503575 0 1 0 13.007151 0 6.503575 6.503575 0 1 0-13.007151 0Z" fill="#0071BC" p-id="3767"></path><path d="M510.841882 512.240873m-6.503576 0a6.503575 6.503575 0 1 0 13.007151 0 6.503575 6.503575 0 1 0-13.007151 0Z" fill="#0071BC" p-id="3768"></path><path d="M517.345457 535.60557m-6.503575 0a6.503575 6.503575 0 1 0 13.007151 0 6.503575 6.503575 0 1 0-13.007151 0Z" fill="#0071BC" p-id="3769"></path><path d="M532.086895 563.354159m-6.503575 0a6.503575 6.503575 0 1 0 13.00715 0 6.503575 6.503575 0 1 0-13.00715 0Z" fill="#0071BC" p-id="3770"></path><path d="M517.345457 581.130598m-6.503575 0a6.503575 6.503575 0 1 0 13.007151 0 6.503575 6.503575 0 1 0-13.007151 0Z" fill="#0071BC" p-id="3771"></path><path d="M544.997697 492.152051m-6.503576 0a6.503575 6.503575 0 1 0 13.007151 0 6.503575 6.503575 0 1 0-13.007151 0Z" fill="#0071BC" p-id="3772"></path><path d="M551.549447 515.516748m-6.503576 0a6.503575 6.503575 0 1 0 13.007151 0 6.503575 6.503575 0 1 0-13.007151 0Z" fill="#0071BC" p-id="3773"></path><path d="M583.778276 551.455024m-6.503575 0a6.503575 6.503575 0 1 0 13.007151 0 6.503575 6.503575 0 1 0-13.007151 0Z" fill="#0071BC" p-id="3774"></path><path d="M590.281852 492.152051m-6.503576 0a6.503575 6.503575 0 1 0 13.007151 0 6.503575 6.503575 0 1 0-13.007151 0Z" fill="#0071BC" p-id="3775"></path><path d="M632.049259 492.152051m-6.503576 0a6.503575 6.503575 0 1 0 13.007151 0 6.503575 6.503575 0 1 0-13.007151 0Z" fill="#0071BC" p-id="3776"></path><path d="M583.778276 451.299962m-6.503575 0a6.503575 6.503575 0 1 0 13.007151 0 6.503575 6.503575 0 1 0-13.007151 0Z" fill="#0071BC" p-id="3777"></path><path d="M603.337177 464.355288m-6.503575 0a6.503575 6.503575 0 1 0 13.007151 0 6.503575 6.503575 0 1 0-13.007151 0Z" fill="#0071BC" p-id="3778"></path><path d="M596.833602 515.516748m-6.503576 0a6.503575 6.503575 0 1 0 13.007151 0 6.503575 6.503575 0 1 0-13.007151 0Z" fill="#0071BC" p-id="3779"></path><path d="M616.392503 539.796763m-6.503576 0a6.503575 6.503575 0 1 0 13.007151 0 6.503575 6.503575 0 1 0-13.007151 0Z" fill="#0071BC" p-id="3780"></path><path d="M632.049259 533.245013m-6.503576 0a6.503575 6.503575 0 1 0 13.007151 0 6.503575 6.503575 0 1 0-13.007151 0Z" fill="#0071BC" p-id="3781"></path><path d="M562.485088 464.355288m-6.503575 0a6.503575 6.503575 0 1 0 13.007151 0 6.503575 6.503575 0 1 0-13.007151 0Z" fill="#0071BC" p-id="3782"></path><path d="M569.036839 487.719985m-6.503576 0a6.503575 6.503575 0 1 0 13.007151 0 6.503575 6.503575 0 1 0-13.007151 0Z" fill="#0071BC" p-id="3783"></path><path d="M583.778276 515.516748m-6.503575 0a6.503575 6.503575 0 1 0 13.007151 0 6.503575 6.503575 0 1 0-13.007151 0Z" fill="#0071BC" p-id="3784"></path><path d="M569.036839 533.245013m-6.503576 0a6.503575 6.503575 0 1 0 13.007151 0 6.503575 6.503575 0 1 0-13.007151 0Z" fill="#0071BC" p-id="3785"></path><path d="M472.446699 579.010915m-6.503575 0a6.503575 6.503575 0 1 0 13.007151 0 6.503575 6.503575 0 1 0-13.007151 0Z" fill="#0071BC" p-id="3786"></path><path d="M478.950275 602.375612m-6.503576 0a6.503575 6.503575 0 1 0 13.007151 0 6.503575 6.503575 0 1 0-13.007151 0Z" fill="#0071BC" p-id="3787"></path><path d="M511.179104 638.313888m-6.503575 0a6.503575 6.503575 0 1 0 13.007151 0 6.503575 6.503575 0 1 0-13.007151 0Z" fill="#0071BC" p-id="3788"></path><path d="M517.730854 579.010915m-6.503575 0a6.503575 6.503575 0 1 0 13.007151 0 6.503575 6.503575 0 1 0-13.007151 0Z" fill="#0071BC" p-id="3789"></path><path d="M559.450087 579.010915m-6.503576 0a6.503575 6.503575 0 1 0 13.007151 0 6.503575 6.503575 0 1 0-13.007151 0Z" fill="#0071BC" p-id="3790"></path><path d="M511.179104 538.158826m-6.503575 0a6.503575 6.503575 0 1 0 13.007151 0 6.503575 6.503575 0 1 0-13.007151 0Z" fill="#0071BC" p-id="3791"></path><path d="M530.738005 551.214151m-6.503575 0a6.503575 6.503575 0 1 0 13.007151 0 6.503575 6.503575 0 1 0-13.007151 0Z" fill="#0071BC" p-id="3792"></path><path d="M524.23443 602.375612m-6.503576 0a6.503575 6.503575 0 1 0 13.007151 0 6.503575 6.503575 0 1 0-13.007151 0Z" fill="#0071BC" p-id="3793"></path><path d="M543.793331 626.655627m-6.503576 0a6.503575 6.503575 0 1 0 13.007151 0 6.503575 6.503575 0 1 0-13.007151 0Z" fill="#0071BC" p-id="3794"></path><path d="M559.450087 620.152051m-6.503576 0a6.503575 6.503575 0 1 0 13.007151 0 6.503575 6.503575 0 1 0-13.007151 0Z" fill="#0071BC" p-id="3795"></path><path d="M489.934091 551.214151m-6.503575 0a6.503575 6.503575 0 1 0 13.007151 0 6.503575 6.503575 0 1 0-13.007151 0Z" fill="#0071BC" p-id="3796"></path><path d="M496.437667 574.578848m-6.503576 0a6.503575 6.503575 0 1 0 13.007151 0 6.503575 6.503575 0 1 0-13.007151 0Z" fill="#0071BC" p-id="3797"></path><path d="M511.179104 602.375612m-6.503575 0a6.503575 6.503575 0 1 0 13.007151 0 6.503575 6.503575 0 1 0-13.007151 0Z" fill="#0071BC" p-id="3798"></path><path d="M496.437667 620.152051m-6.503576 0a6.503575 6.503575 0 1 0 13.007151 0 6.503575 6.503575 0 1 0-13.007151 0Z" fill="#0071BC" p-id="3799"></path><path d="M448.359383 535.461046m-6.503576 0a6.503575 6.503575 0 1 0 13.007151 0 6.503575 6.503575 0 1 0-13.007151 0Z" fill="#0071BC" p-id="3800"></path><path d="M454.862958 558.825743m-6.503575 0a6.503575 6.503575 0 1 0 13.007151 0 6.503575 6.503575 0 1 0-13.007151 0Z" fill="#0071BC" p-id="3801"></path><path d="M487.091788 594.76402m-6.503576 0a6.503575 6.503575 0 1 0 13.007151 0 6.503575 6.503575 0 1 0-13.007151 0Z" fill="#0071BC" p-id="3802"></path><path d="M493.643538 535.461046m-6.503576 0a6.503575 6.503575 0 1 0 13.007151 0 6.503575 6.503575 0 1 0-13.007151 0Z" fill="#0071BC" p-id="3803"></path><path d="M535.36277 535.461046m-6.503575 0a6.503575 6.503575 0 1 0 13.007151 0 6.503575 6.503575 0 1 0-13.007151 0Z" fill="#0071BC" p-id="3804"></path><path d="M487.091788 494.608957m-6.503576 0a6.503575 6.503575 0 1 0 13.007151 0 6.503575 6.503575 0 1 0-13.007151 0Z" fill="#0071BC" p-id="3805"></path><path d="M506.698863 507.664283m-6.503575 0a6.503575 6.503575 0 1 0 13.007151 0 6.503575 6.503575 0 1 0-13.007151 0Z" fill="#0071BC" p-id="3806"></path><path d="M500.147113 558.825743m-6.503575 0a6.503575 6.503575 0 1 0 13.007151 0 6.503575 6.503575 0 1 0-13.007151 0Z" fill="#0071BC" p-id="3807"></path><path d="M519.706014 583.105758m-6.503575 0a6.503575 6.503575 0 1 0 13.007151 0 6.503575 6.503575 0 1 0-13.007151 0Z" fill="#0071BC" p-id="3808"></path><path d="M535.36277 576.602183m-6.503575 0a6.503575 6.503575 0 1 0 13.007151 0 6.503575 6.503575 0 1 0-13.007151 0Z" fill="#0071BC" p-id="3809"></path><path d="M465.846775 507.664283m-6.503576 0a6.503575 6.503575 0 1 0 13.007151 0 6.503575 6.503575 0 1 0-13.007151 0Z" fill="#0071BC" p-id="3810"></path><path d="M472.35035 531.02898m-6.503575 0a6.503575 6.503575 0 1 0 13.00715 0 6.503575 6.503575 0 1 0-13.00715 0Z" fill="#0071BC" p-id="3811"></path><path d="M487.091788 558.825743m-6.503576 0a6.503575 6.503575 0 1 0 13.007151 0 6.503575 6.503575 0 1 0-13.007151 0Z" fill="#0071BC" p-id="3812"></path><path d="M472.35035 576.602183m-6.503575 0a6.503575 6.503575 0 1 0 13.00715 0 6.503575 6.503575 0 1 0-13.00715 0Z" fill="#0071BC" p-id="3813"></path><path d="M386.021408 629.979676m-6.503576 0a6.503575 6.503575 0 1 0 13.007151 0 6.503575 6.503575 0 1 0-13.007151 0Z" fill="#0071BC" p-id="3814"></path><path d="M392.524983 653.296199m-6.503575 0a6.503575 6.503575 0 1 0 13.007151 0 6.503575 6.503575 0 1 0-13.007151 0Z" fill="#0071BC" p-id="3815"></path><path d="M424.753813 689.28265m-6.503576 0a6.503575 6.503575 0 1 0 13.007151 0 6.503575 6.503575 0 1 0-13.007151 0Z" fill="#0071BC" p-id="3816"></path><path d="M431.305563 629.979676m-6.503576 0a6.503575 6.503575 0 1 0 13.007151 0 6.503575 6.503575 0 1 0-13.007151 0Z" fill="#0071BC" p-id="3817"></path><path d="M473.024795 629.979676m-6.503576 0a6.503575 6.503575 0 1 0 13.007151 0 6.503575 6.503575 0 1 0-13.007151 0Z" fill="#0071BC" p-id="3818"></path><path d="M424.753813 589.127588m-6.503576 0a6.503575 6.503575 0 1 0 13.007151 0 6.503575 6.503575 0 1 0-13.007151 0Z" fill="#0071BC" p-id="3819"></path><path d="M444.360888 602.182913m-6.503575 0a6.503575 6.503575 0 1 0 13.007151 0 6.503575 6.503575 0 1 0-13.007151 0Z" fill="#0071BC" p-id="3820"></path><path d="M437.809138 653.296199m-6.503575 0a6.503575 6.503575 0 1 0 13.007151 0 6.503575 6.503575 0 1 0-13.007151 0Z" fill="#0071BC" p-id="3821"></path><path d="M457.368039 677.576214m-6.503575 0a6.503575 6.503575 0 1 0 13.007151 0 6.503575 6.503575 0 1 0-13.007151 0Z" fill="#0071BC" p-id="3822"></path><path d="M473.024795 671.072638m-6.503576 0a6.503575 6.503575 0 1 0 13.007151 0 6.503575 6.503575 0 1 0-13.007151 0Z" fill="#0071BC" p-id="3823"></path><path d="M403.508799 602.182913m-6.503575 0a6.503575 6.503575 0 1 0 13.007151 0 6.503575 6.503575 0 1 0-13.007151 0Z" fill="#0071BC" p-id="3824"></path><path d="M410.012375 625.499435m-6.503576 0a6.503575 6.503575 0 1 0 13.007151 0 6.503575 6.503575 0 1 0-13.007151 0Z" fill="#0071BC" p-id="3825"></path><path d="M424.753813 653.296199m-6.503576 0a6.503575 6.503575 0 1 0 13.007151 0 6.503575 6.503575 0 1 0-13.007151 0Z" fill="#0071BC" p-id="3826"></path><path d="M410.012375 671.072638m-6.503576 0a6.503575 6.503575 0 1 0 13.007151 0 6.503575 6.503575 0 1 0-13.007151 0Z" fill="#0071BC" p-id="3827"></path><path d="M511.853549 436.751223m-6.503575 0a6.503575 6.503575 0 1 0 13.007151 0 6.503575 6.503575 0 1 0-13.007151 0Z" fill="#0071BC" p-id="3828"></path><path d="M518.405299 460.11592m-6.503575 0a6.503575 6.503575 0 1 0 13.007151 0 6.503575 6.503575 0 1 0-13.007151 0Z" fill="#0071BC" p-id="3829"></path><path d="M550.634129 496.054196m-6.503576 0a6.503575 6.503575 0 1 0 13.007151 0 6.503575 6.503575 0 1 0-13.007151 0Z" fill="#0071BC" p-id="3830"></path><path d="M557.137704 436.751223m-6.503575 0a6.503575 6.503575 0 1 0 13.007151 0 6.503575 6.503575 0 1 0-13.007151 0Z" fill="#0071BC" p-id="3831"></path><path d="M598.905111 436.751223m-6.503575 0a6.503575 6.503575 0 1 0 13.00715 0 6.503575 6.503575 0 1 0-13.00715 0Z" fill="#0071BC" p-id="3832"></path><path d="M550.634129 395.899134m-6.503576 0a6.503575 6.503575 0 1 0 13.007151 0 6.503575 6.503575 0 1 0-13.007151 0Z" fill="#0071BC" p-id="3833"></path><path d="M570.19303 408.95446m-6.503576 0a6.503575 6.503575 0 1 0 13.007151 0 6.503575 6.503575 0 1 0-13.007151 0Z" fill="#0071BC" p-id="3834"></path><path d="M563.689454 460.11592m-6.503575 0a6.503575 6.503575 0 1 0 13.007151 0 6.503575 6.503575 0 1 0-13.007151 0Z" fill="#0071BC" p-id="3835"></path><path d="M583.248355 484.395935m-6.503575 0a6.503575 6.503575 0 1 0 13.007151 0 6.503575 6.503575 0 1 0-13.007151 0Z" fill="#0071BC" p-id="3836"></path><path d="M598.905111 477.89236m-6.503575 0a6.503575 6.503575 0 1 0 13.00715 0 6.503575 6.503575 0 1 0-13.00715 0Z" fill="#0071BC" p-id="3837"></path><path d="M529.340941 408.95446m-6.503576 0a6.503575 6.503575 0 1 0 13.007151 0 6.503575 6.503575 0 1 0-13.007151 0Z" fill="#0071BC" p-id="3838"></path><path d="M535.892691 432.319157m-6.503575 0a6.503575 6.503575 0 1 0 13.00715 0 6.503575 6.503575 0 1 0-13.00715 0Z" fill="#0071BC" p-id="3839"></path><path d="M550.634129 460.11592m-6.503576 0a6.503575 6.503575 0 1 0 13.007151 0 6.503575 6.503575 0 1 0-13.007151 0Z" fill="#0071BC" p-id="3840"></path><path d="M535.892691 477.89236m-6.503575 0a6.503575 6.503575 0 1 0 13.00715 0 6.503575 6.503575 0 1 0-13.00715 0Z" fill="#0071BC" p-id="3841"></path><path d="M440.362394 524.47723m-6.503576 0a6.503575 6.503575 0 1 0 13.007151 0 6.503575 6.503575 0 1 0-13.007151 0Z" fill="#0071BC" p-id="3842"></path><path d="M446.865969 547.793752m-6.503575 0a6.503575 6.503575 0 1 0 13.007151 0 6.503575 6.503575 0 1 0-13.007151 0Z" fill="#0071BC" p-id="3843"></path><path d="M479.094799 583.780203m-6.503576 0a6.503575 6.503575 0 1 0 13.007151 0 6.503575 6.503575 0 1 0-13.007151 0Z" fill="#0071BC" p-id="3844"></path><path d="M485.598374 524.47723m-6.503575 0a6.503575 6.503575 0 1 0 13.007151 0 6.503575 6.503575 0 1 0-13.007151 0Z" fill="#0071BC" p-id="3845"></path><path d="M527.365781 524.47723m-6.503576 0a6.503575 6.503575 0 1 0 13.007151 0 6.503575 6.503575 0 1 0-13.007151 0Z" fill="#0071BC" p-id="3846"></path><path d="M479.094799 483.625141m-6.503576 0a6.503575 6.503575 0 1 0 13.007151 0 6.503575 6.503575 0 1 0-13.007151 0Z" fill="#0071BC" p-id="3847"></path><path d="M498.6537 496.680467m-6.503576 0a6.503575 6.503575 0 1 0 13.007151 0 6.503575 6.503575 0 1 0-13.007151 0Z" fill="#0071BC" p-id="3848"></path><path d="M492.150124 547.793752m-6.503575 0a6.503575 6.503575 0 1 0 13.007151 0 6.503575 6.503575 0 1 0-13.007151 0Z" fill="#0071BC" p-id="3849"></path><path d="M511.709025 572.073767m-6.503575 0a6.503575 6.503575 0 1 0 13.007151 0 6.503575 6.503575 0 1 0-13.007151 0Z" fill="#0071BC" p-id="3850"></path><path d="M527.365781 565.570192m-6.503576 0a6.503575 6.503575 0 1 0 13.007151 0 6.503575 6.503575 0 1 0-13.007151 0Z" fill="#0071BC" p-id="3851"></path><path d="M457.849785 496.680467m-6.503575 0a6.503575 6.503575 0 1 0 13.007151 0 6.503575 6.503575 0 1 0-13.007151 0Z" fill="#0071BC" p-id="3852"></path><path d="M464.353361 519.996989m-6.503576 0a6.503575 6.503575 0 1 0 13.007151 0 6.503575 6.503575 0 1 0-13.007151 0Z" fill="#0071BC" p-id="3853"></path><path d="M479.094799 547.793752m-6.503576 0a6.503575 6.503575 0 1 0 13.007151 0 6.503575 6.503575 0 1 0-13.007151 0Z" fill="#0071BC" p-id="3854"></path><path d="M464.353361 565.570192m-6.503576 0a6.503575 6.503575 0 1 0 13.007151 0 6.503575 6.503575 0 1 0-13.007151 0Z" fill="#0071BC" p-id="3855"></path><path d="M367.522349 611.143395m-6.503576 0a6.503575 6.503575 0 1 0 13.007151 0 6.503575 6.503575 0 1 0-13.007151 0Z" fill="#0071BC" p-id="3856"></path><path d="M374.025924 634.459917m-6.503575 0a6.503575 6.503575 0 1 0 13.00715 0 6.503575 6.503575 0 1 0-13.00715 0Z" fill="#0071BC" p-id="3857"></path><path d="M406.254753 670.446368m-6.503575 0a6.503575 6.503575 0 1 0 13.007151 0 6.503575 6.503575 0 1 0-13.007151 0Z" fill="#0071BC" p-id="3858"></path><path d="M412.806504 611.143395m-6.503576 0a6.503575 6.503575 0 1 0 13.007151 0 6.503575 6.503575 0 1 0-13.007151 0Z" fill="#0071BC" p-id="3859"></path><path d="M454.525736 611.143395m-6.503576 0a6.503575 6.503575 0 1 0 13.007151 0 6.503575 6.503575 0 1 0-13.007151 0Z" fill="#0071BC" p-id="3860"></path><path d="M406.254753 570.291306m-6.503575 0a6.503575 6.503575 0 1 0 13.007151 0 6.503575 6.503575 0 1 0-13.007151 0Z" fill="#0071BC" p-id="3861"></path><path d="M425.861829 583.346632m-6.503575 0a6.503575 6.503575 0 1 0 13.007151 0 6.503575 6.503575 0 1 0-13.007151 0Z" fill="#0071BC" p-id="3862"></path><path d="M419.310079 634.459917m-6.503575 0a6.503575 6.503575 0 1 0 13.00715 0 6.503575 6.503575 0 1 0-13.00715 0Z" fill="#0071BC" p-id="3863"></path><path d="M438.917155 658.788107m-6.503576 0a6.503575 6.503575 0 1 0 13.007151 0 6.503575 6.503575 0 1 0-13.007151 0Z" fill="#0071BC" p-id="3864"></path><path d="M454.525736 652.236357m-6.503576 0a6.503575 6.503575 0 1 0 13.007151 0 6.503575 6.503575 0 1 0-13.007151 0Z" fill="#0071BC" p-id="3865"></path><path d="M385.00974 583.346632m-6.503575 0a6.503575 6.503575 0 1 0 13.007151 0 6.503575 6.503575 0 1 0-13.007151 0Z" fill="#0071BC" p-id="3866"></path><path d="M391.513316 606.663154m-6.503576 0a6.503575 6.503575 0 1 0 13.007151 0 6.503575 6.503575 0 1 0-13.007151 0Z" fill="#0071BC" p-id="3867"></path><path d="M406.254753 634.459917m-6.503575 0a6.503575 6.503575 0 1 0 13.007151 0 6.503575 6.503575 0 1 0-13.007151 0Z" fill="#0071BC" p-id="3868"></path><path d="M391.513316 652.236357m-6.503576 0a6.503575 6.503575 0 1 0 13.007151 0 6.503575 6.503575 0 1 0-13.007151 0Z" fill="#0071BC" p-id="3869"></path><path d="M579.827956 325.612345m-6.503575 0a6.503575 6.503575 0 1 0 13.007151 0 6.503575 6.503575 0 1 0-13.007151 0Z" fill="#0071BC" p-id="3870"></path><path d="M586.331532 348.928867m-6.503576 0a6.503575 6.503575 0 1 0 13.007151 0 6.503575 6.503575 0 1 0-13.007151 0Z" fill="#0071BC" p-id="3871"></path><path d="M618.560361 384.915318m-6.503575 0a6.503575 6.503575 0 1 0 13.007151 0 6.503575 6.503575 0 1 0-13.007151 0Z" fill="#0071BC" p-id="3872"></path><path d="M625.112111 325.612345m-6.503575 0a6.503575 6.503575 0 1 0 13.007151 0 6.503575 6.503575 0 1 0-13.007151 0Z" fill="#0071BC" p-id="3873"></path><path d="M666.831344 325.612345m-6.503576 0a6.503575 6.503575 0 1 0 13.007151 0 6.503575 6.503575 0 1 0-13.007151 0Z" fill="#0071BC" p-id="3874"></path><path d="M618.560361 284.760256m-6.503575 0a6.503575 6.503575 0 1 0 13.007151 0 6.503575 6.503575 0 1 0-13.007151 0Z" fill="#0071BC" p-id="3875"></path><path d="M638.167437 297.815581m-6.503576 0a6.503575 6.503575 0 1 0 13.007151 0 6.503575 6.503575 0 1 0-13.007151 0Z" fill="#0071BC" p-id="3876"></path><path d="M631.615687 348.928867m-6.503576 0a6.503575 6.503575 0 1 0 13.007151 0 6.503575 6.503575 0 1 0-13.007151 0Z" fill="#0071BC" p-id="3877"></path><path d="M651.174588 373.257057m-6.503576 0a6.503575 6.503575 0 1 0 13.007151 0 6.503575 6.503575 0 1 0-13.007151 0Z" fill="#0071BC" p-id="3878"></path><path d="M666.831344 366.705307m-6.503576 0a6.503575 6.503575 0 1 0 13.007151 0 6.503575 6.503575 0 1 0-13.007151 0Z" fill="#0071BC" p-id="3879"></path><path d="M597.315348 297.815581m-6.503575 0a6.503575 6.503575 0 1 0 13.007151 0 6.503575 6.503575 0 1 0-13.007151 0Z" fill="#0071BC" p-id="3880"></path><path d="M603.818924 321.132104m-6.503576 0a6.503575 6.503575 0 1 0 13.007151 0 6.503575 6.503575 0 1 0-13.007151 0Z" fill="#0071BC" p-id="3881"></path><path d="M618.560361 348.928867m-6.503575 0a6.503575 6.503575 0 1 0 13.007151 0 6.503575 6.503575 0 1 0-13.007151 0Z" fill="#0071BC" p-id="3882"></path><path d="M603.818924 366.705307m-6.503576 0a6.503575 6.503575 0 1 0 13.007151 0 6.503575 6.503575 0 1 0-13.007151 0Z" fill="#0071BC" p-id="3883"></path><path d="M505.83172 411.266842m-6.503575 0a6.503575 6.503575 0 1 0 13.00715 0 6.503575 6.503575 0 1 0-13.00715 0Z" fill="#0071BC" p-id="3884"></path><path d="M512.38347 434.631539m-6.503575 0a6.503575 6.503575 0 1 0 13.007151 0 6.503575 6.503575 0 1 0-13.007151 0Z" fill="#0071BC" p-id="3885"></path><path d="M544.6123 470.61799m-6.503576 0a6.503575 6.503575 0 1 0 13.007151 0 6.503575 6.503575 0 1 0-13.007151 0Z" fill="#0071BC" p-id="3886"></path><path d="M551.115875 411.266842m-6.503575 0a6.503575 6.503575 0 1 0 13.007151 0 6.503575 6.503575 0 1 0-13.007151 0Z" fill="#0071BC" p-id="3887"></path><path d="M592.883282 411.266842m-6.503576 0a6.503575 6.503575 0 1 0 13.007151 0 6.503575 6.503575 0 1 0-13.007151 0Z" fill="#0071BC" p-id="3888"></path><path d="M544.6123 370.462928m-6.503576 0a6.503575 6.503575 0 1 0 13.007151 0 6.503575 6.503575 0 1 0-13.007151 0Z" fill="#0071BC" p-id="3889"></path><path d="M564.171201 383.470079m-6.503576 0a6.503575 6.503575 0 1 0 13.007151 0 6.503575 6.503575 0 1 0-13.007151 0Z" fill="#0071BC" p-id="3890"></path><path d="M557.619451 434.631539m-6.503576 0a6.503575 6.503575 0 1 0 13.007151 0 6.503575 6.503575 0 1 0-13.007151 0Z" fill="#0071BC" p-id="3891"></path><path d="M577.226526 458.911554m-6.503575 0a6.503575 6.503575 0 1 0 13.007151 0 6.503575 6.503575 0 1 0-13.007151 0Z" fill="#0071BC" p-id="3892"></path><path d="M592.883282 452.407979m-6.503576 0a6.503575 6.503575 0 1 0 13.007151 0 6.503575 6.503575 0 1 0-13.007151 0Z" fill="#0071BC" p-id="3893"></path><path d="M523.319112 383.470079m-6.503576 0a6.503575 6.503575 0 1 0 13.007151 0 6.503575 6.503575 0 1 0-13.007151 0Z" fill="#0071BC" p-id="3894"></path><path d="M529.870862 406.834776m-6.503576 0a6.503575 6.503575 0 1 0 13.007151 0 6.503575 6.503575 0 1 0-13.007151 0Z" fill="#0071BC" p-id="3895"></path><path d="M544.6123 434.631539m-6.503576 0a6.503575 6.503575 0 1 0 13.007151 0 6.503575 6.503575 0 1 0-13.007151 0Z" fill="#0071BC" p-id="3896"></path><path d="M529.870862 452.407979m-6.503576 0a6.503575 6.503575 0 1 0 13.007151 0 6.503575 6.503575 0 1 0-13.007151 0Z" fill="#0071BC" p-id="3897"></path><path d="M562.340565 360.587128m-6.503576 0a6.503575 6.503575 0 1 0 13.007151 0 6.503575 6.503575 0 1 0-13.007151 0Z" fill="#0071BC" p-id="3898"></path><path d="M568.84414 383.903651m-6.503575 0a6.503575 6.503575 0 1 0 13.00715 0 6.503575 6.503575 0 1 0-13.00715 0Z" fill="#0071BC" p-id="3899"></path><path d="M601.07297 419.890102m-6.503576 0a6.503575 6.503575 0 1 0 13.007151 0 6.503575 6.503575 0 1 0-13.007151 0Z" fill="#0071BC" p-id="3900"></path><path d="M607.62472 360.587128m-6.503576 0a6.503575 6.503575 0 1 0 13.007151 0 6.503575 6.503575 0 1 0-13.007151 0Z" fill="#0071BC" p-id="3901"></path><path d="M649.392126 360.587128m-6.503575 0a6.503575 6.503575 0 1 0 13.007151 0 6.503575 6.503575 0 1 0-13.007151 0Z" fill="#0071BC" p-id="3902"></path><path d="M601.07297 319.73504m-6.503576 0a6.503575 6.503575 0 1 0 13.007151 0 6.503575 6.503575 0 1 0-13.007151 0Z" fill="#0071BC" p-id="3903"></path><path d="M620.680045 332.790365m-6.503575 0a6.503575 6.503575 0 1 0 13.007151 0 6.503575 6.503575 0 1 0-13.007151 0Z" fill="#0071BC" p-id="3904"></path><path d="M614.128295 383.903651m-6.503575 0a6.503575 6.503575 0 1 0 13.007151 0 6.503575 6.503575 0 1 0-13.007151 0Z" fill="#0071BC" p-id="3905"></path><path d="M633.735371 408.23184m-6.503576 0a6.503575 6.503575 0 1 0 13.007151 0 6.503575 6.503575 0 1 0-13.007151 0Z" fill="#0071BC" p-id="3906"></path><path d="M649.392126 401.68009m-6.503575 0a6.503575 6.503575 0 1 0 13.007151 0 6.503575 6.503575 0 1 0-13.007151 0Z" fill="#0071BC" p-id="3907"></path><path d="M579.827956 332.790365m-6.503575 0a6.503575 6.503575 0 1 0 13.007151 0 6.503575 6.503575 0 1 0-13.007151 0Z" fill="#0071BC" p-id="3908"></path><path d="M586.331532 356.106887m-6.503576 0a6.503575 6.503575 0 1 0 13.007151 0 6.503575 6.503575 0 1 0-13.007151 0Z" fill="#0071BC" p-id="3909"></path><path d="M601.07297 383.903651m-6.503576 0a6.503575 6.503575 0 1 0 13.007151 0 6.503575 6.503575 0 1 0-13.007151 0Z" fill="#0071BC" p-id="3910"></path><path d="M586.331532 401.68009m-6.503576 0a6.503575 6.503575 0 1 0 13.007151 0 6.503575 6.503575 0 1 0-13.007151 0Z" fill="#0071BC" p-id="3911"></path><path d="M619.138457 417.914942m-6.503576 0a6.503575 6.503575 0 1 0 13.007151 0 6.503575 6.503575 0 1 0-13.007151 0Z" fill="#0071BC" p-id="3912"></path><path d="M625.642032 441.279639m-6.503575 0a6.503575 6.503575 0 1 0 13.007151 0 6.503575 6.503575 0 1 0-13.007151 0Z" fill="#0071BC" p-id="3913"></path><path d="M657.870862 477.217915m-6.503576 0a6.503575 6.503575 0 1 0 13.007151 0 6.503575 6.503575 0 1 0-13.007151 0Z" fill="#0071BC" p-id="3914"></path><path d="M664.422612 417.914942m-6.503575 0a6.503575 6.503575 0 1 0 13.00715 0 6.503575 6.503575 0 1 0-13.00715 0Z" fill="#0071BC" p-id="3915"></path><path d="M706.141844 417.914942m-6.503575 0a6.503575 6.503575 0 1 0 13.007151 0 6.503575 6.503575 0 1 0-13.007151 0Z" fill="#0071BC" p-id="3916"></path><path d="M657.870862 377.062853m-6.503576 0a6.503575 6.503575 0 1 0 13.007151 0 6.503575 6.503575 0 1 0-13.007151 0Z" fill="#0071BC" p-id="3917"></path><path d="M677.477938 390.118178m-6.503576 0a6.503575 6.503575 0 1 0 13.007151 0 6.503575 6.503575 0 1 0-13.007151 0Z" fill="#0071BC" p-id="3918"></path><path d="M670.926187 441.279639m-6.503575 0a6.503575 6.503575 0 1 0 13.007151 0 6.503575 6.503575 0 1 0-13.007151 0Z" fill="#0071BC" p-id="3919"></path><path d="M690.533263 465.559654m-6.503575 0a6.503575 6.503575 0 1 0 13.007151 0 6.503575 6.503575 0 1 0-13.007151 0Z" fill="#0071BC" p-id="3920"></path><path d="M706.141844 459.007904m-6.503575 0a6.503575 6.503575 0 1 0 13.007151 0 6.503575 6.503575 0 1 0-13.007151 0Z" fill="#0071BC" p-id="3921"></path><path d="M636.625849 390.118178m-6.503576 0a6.503575 6.503575 0 1 0 13.007151 0 6.503575 6.503575 0 1 0-13.007151 0Z" fill="#0071BC" p-id="3922"></path><path d="M643.129424 413.482875m-6.503575 0a6.503575 6.503575 0 1 0 13.007151 0 6.503575 6.503575 0 1 0-13.007151 0Z" fill="#0071BC" p-id="3923"></path><path d="M657.870862 441.279639m-6.503576 0a6.503575 6.503575 0 1 0 13.007151 0 6.503575 6.503575 0 1 0-13.007151 0Z" fill="#0071BC" p-id="3924"></path><path d="M643.129424 459.007904m-6.503575 0a6.503575 6.503575 0 1 0 13.007151 0 6.503575 6.503575 0 1 0-13.007151 0Z" fill="#0071BC" p-id="3925"></path><path d="M733.505036 354.083553m-6.503576 0a6.503575 6.503575 0 1 0 13.007151 0 6.503575 6.503575 0 1 0-13.007151 0Z" fill="#0071BC" p-id="3926"></path><path d="M740.008611 377.400075m-6.503575 0a6.503575 6.503575 0 1 0 13.007151 0 6.503575 6.503575 0 1 0-13.007151 0Z" fill="#0071BC" p-id="3927"></path><path d="M772.237441 413.386526m-6.503576 0a6.503575 6.503575 0 1 0 13.007151 0 6.503575 6.503575 0 1 0-13.007151 0Z" fill="#0071BC" p-id="3928"></path><path d="M778.789191 354.083553m-6.503576 0a6.503575 6.503575 0 1 0 13.007151 0 6.503575 6.503575 0 1 0-13.007151 0Z" fill="#0071BC" p-id="3929"></path><path d="M820.508423 354.083553m-6.503575 0a6.503575 6.503575 0 1 0 13.00715 0 6.503575 6.503575 0 1 0-13.00715 0Z" fill="#0071BC" p-id="3930"></path><path d="M772.237441 313.231464m-6.503576 0a6.503575 6.503575 0 1 0 13.007151 0 6.503575 6.503575 0 1 0-13.007151 0Z" fill="#0071BC" p-id="3931"></path><path d="M791.844516 326.28679m-6.503575 0a6.503575 6.503575 0 1 0 13.007151 0 6.503575 6.503575 0 1 0-13.007151 0Z" fill="#0071BC" p-id="3932"></path><path d="M785.292766 377.400075m-6.503575 0a6.503575 6.503575 0 1 0 13.007151 0 6.503575 6.503575 0 1 0-13.007151 0Z" fill="#0071BC" p-id="3933"></path><path d="M804.851667 401.728265m-6.503575 0a6.503575 6.503575 0 1 0 13.007151 0 6.503575 6.503575 0 1 0-13.007151 0Z" fill="#0071BC" p-id="3934"></path><path d="M820.508423 395.176515m-6.503575 0a6.503575 6.503575 0 1 0 13.00715 0 6.503575 6.503575 0 1 0-13.00715 0Z" fill="#0071BC" p-id="3935"></path><path d="M750.992428 326.28679m-6.503576 0a6.503575 6.503575 0 1 0 13.007151 0 6.503575 6.503575 0 1 0-13.007151 0Z" fill="#0071BC" p-id="3936"></path><path d="M757.496003 349.603312m-6.503575 0a6.503575 6.503575 0 1 0 13.00715 0 6.503575 6.503575 0 1 0-13.00715 0Z" fill="#0071BC" p-id="3937"></path><path d="M772.237441 377.400075m-6.503576 0a6.503575 6.503575 0 1 0 13.007151 0 6.503575 6.503575 0 1 0-13.007151 0Z" fill="#0071BC" p-id="3938"></path><path d="M757.496003 395.176515m-6.503575 0a6.503575 6.503575 0 1 0 13.00715 0 6.503575 6.503575 0 1 0-13.00715 0Z" fill="#0071BC" p-id="3939"></path><path d="M654.20959 431.018442m-6.503576 0a6.503575 6.503575 0 1 0 13.007151 0 6.503575 6.503575 0 1 0-13.007151 0Z" fill="#0071BC" p-id="3940"></path><path d="M660.713165 454.334964m-6.503575 0a6.503575 6.503575 0 1 0 13.007151 0 6.503575 6.503575 0 1 0-13.007151 0Z" fill="#0071BC" p-id="3941"></path><path d="M692.941995 490.321415m-6.503576 0a6.503575 6.503575 0 1 0 13.007151 0 6.503575 6.503575 0 1 0-13.007151 0Z" fill="#0071BC" p-id="3942"></path><path d="M699.493745 431.018442m-6.503576 0a6.503575 6.503575 0 1 0 13.007151 0 6.503575 6.503575 0 1 0-13.007151 0Z" fill="#0071BC" p-id="3943"></path><path d="M741.212977 431.018442m-6.503575 0a6.503575 6.503575 0 1 0 13.007151 0 6.503575 6.503575 0 1 0-13.007151 0Z" fill="#0071BC" p-id="3944"></path><path d="M692.941995 390.166353m-6.503576 0a6.503575 6.503575 0 1 0 13.007151 0 6.503575 6.503575 0 1 0-13.007151 0Z" fill="#0071BC" p-id="3945"></path><path d="M712.54907 403.221679m-6.503575 0a6.503575 6.503575 0 1 0 13.007151 0 6.503575 6.503575 0 1 0-13.007151 0Z" fill="#0071BC" p-id="3946"></path><path d="M705.99732 454.334964m-6.503575 0a6.503575 6.503575 0 1 0 13.007151 0 6.503575 6.503575 0 1 0-13.007151 0Z" fill="#0071BC" p-id="3947"></path><path d="M725.556221 478.663154m-6.503575 0a6.503575 6.503575 0 1 0 13.007151 0 6.503575 6.503575 0 1 0-13.007151 0Z" fill="#0071BC" p-id="3948"></path><path d="M741.212977 472.111404m-6.503575 0a6.503575 6.503575 0 1 0 13.007151 0 6.503575 6.503575 0 1 0-13.007151 0Z" fill="#0071BC" p-id="3949"></path><path d="M671.696982 403.221679m-6.503576 0a6.503575 6.503575 0 1 0 13.007151 0 6.503575 6.503575 0 1 0-13.007151 0Z" fill="#0071BC" p-id="3950"></path><path d="M678.200557 426.538201m-6.503575 0a6.503575 6.503575 0 1 0 13.00715 0 6.503575 6.503575 0 1 0-13.00715 0Z" fill="#0071BC" p-id="3951"></path><path d="M692.941995 454.334964m-6.503576 0a6.503575 6.503575 0 1 0 13.007151 0 6.503575 6.503575 0 1 0-13.007151 0Z" fill="#0071BC" p-id="3952"></path><path d="M678.200557 472.111404m-6.503575 0a6.503575 6.503575 0 1 0 13.00715 0 6.503575 6.503575 0 1 0-13.00715 0Z" fill="#0071BC" p-id="3953"></path><path d="M654.257764 345.604817m-6.503575 0a6.503575 6.503575 0 1 0 13.007151 0 6.503575 6.503575 0 1 0-13.007151 0Z" fill="#0071BC" p-id="3954"></path><path d="M660.809514 368.969514m-6.503575 0a6.503575 6.503575 0 1 0 13.007151 0 6.503575 6.503575 0 1 0-13.007151 0Z" fill="#0071BC" p-id="3955"></path><path d="M693.038344 404.955965m-6.503575 0a6.503575 6.503575 0 1 0 13.00715 0 6.503575 6.503575 0 1 0-13.00715 0Z" fill="#0071BC" p-id="3956"></path><path d="M699.541919 345.604817m-6.503575 0a6.503575 6.503575 0 1 0 13.007151 0 6.503575 6.503575 0 1 0-13.007151 0Z" fill="#0071BC" p-id="3957"></path><path d="M741.309326 345.604817m-6.503575 0a6.503575 6.503575 0 1 0 13.007151 0 6.503575 6.503575 0 1 0-13.007151 0Z" fill="#0071BC" p-id="3958"></path><path d="M693.038344 304.800903m-6.503575 0a6.503575 6.503575 0 1 0 13.00715 0 6.503575 6.503575 0 1 0-13.00715 0Z" fill="#0071BC" p-id="3959"></path><path d="M712.597245 317.856229m-6.503575 0a6.503575 6.503575 0 1 0 13.00715 0 6.503575 6.503575 0 1 0-13.00715 0Z" fill="#0071BC" p-id="3960"></path><path d="M706.09367 368.969514m-6.503576 0a6.503575 6.503575 0 1 0 13.007151 0 6.503575 6.503575 0 1 0-13.007151 0Z" fill="#0071BC" p-id="3961"></path><path d="M725.652571 393.24953m-6.503576 0a6.503575 6.503575 0 1 0 13.007151 0 6.503575 6.503575 0 1 0-13.007151 0Z" fill="#0071BC" p-id="3962"></path><path d="M741.309326 386.745954m-6.503575 0a6.503575 6.503575 0 1 0 13.007151 0 6.503575 6.503575 0 1 0-13.007151 0Z" fill="#0071BC" p-id="3963"></path><path d="M671.745156 317.856229m-6.503575 0a6.503575 6.503575 0 1 0 13.007151 0 6.503575 6.503575 0 1 0-13.007151 0Z" fill="#0071BC" p-id="3964"></path><path d="M678.296906 341.172751m-6.503575 0a6.503575 6.503575 0 1 0 13.007151 0 6.503575 6.503575 0 1 0-13.007151 0Z" fill="#0071BC" p-id="3965"></path><path d="M693.038344 368.969514m-6.503575 0a6.503575 6.503575 0 1 0 13.00715 0 6.503575 6.503575 0 1 0-13.00715 0Z" fill="#0071BC" p-id="3966"></path><path d="M678.296906 386.745954m-6.503575 0a6.503575 6.503575 0 1 0 13.007151 0 6.503575 6.503575 0 1 0-13.007151 0Z" fill="#0071BC" p-id="3967"></path><path d="M547.261904 414.831765m-6.503575 0a6.503575 6.503575 0 1 0 13.007151 0 6.503575 6.503575 0 1 0-13.007151 0Z" fill="#0071BC" p-id="3968"></path><path d="M553.813654 438.196462m-6.503575 0a6.503575 6.503575 0 1 0 13.007151 0 6.503575 6.503575 0 1 0-13.007151 0Z" fill="#0071BC" p-id="3969"></path><path d="M586.042484 474.134738m-6.503575 0a6.503575 6.503575 0 1 0 13.00715 0 6.503575 6.503575 0 1 0-13.00715 0Z" fill="#0071BC" p-id="3970"></path><path d="M592.546059 414.831765m-6.503575 0a6.503575 6.503575 0 1 0 13.007151 0 6.503575 6.503575 0 1 0-13.007151 0Z" fill="#0071BC" p-id="3971"></path><path d="M634.313466 414.831765m-6.503575 0a6.503575 6.503575 0 1 0 13.007151 0 6.503575 6.503575 0 1 0-13.007151 0Z" fill="#0071BC" p-id="3972"></path><path d="M586.042484 373.979676m-6.503575 0a6.503575 6.503575 0 1 0 13.00715 0 6.503575 6.503575 0 1 0-13.00715 0Z" fill="#0071BC" p-id="3973"></path><path d="M605.601385 387.035002m-6.503575 0a6.503575 6.503575 0 1 0 13.00715 0 6.503575 6.503575 0 1 0-13.00715 0Z" fill="#0071BC" p-id="3974"></path><path d="M599.09781 438.196462m-6.503576 0a6.503575 6.503575 0 1 0 13.007151 0 6.503575 6.503575 0 1 0-13.007151 0Z" fill="#0071BC" p-id="3975"></path><path d="M618.656711 462.476477m-6.503576 0a6.503575 6.503575 0 1 0 13.007151 0 6.503575 6.503575 0 1 0-13.007151 0Z" fill="#0071BC" p-id="3976"></path><path d="M634.313466 455.924727m-6.503575 0a6.503575 6.503575 0 1 0 13.007151 0 6.503575 6.503575 0 1 0-13.007151 0Z" fill="#0071BC" p-id="3977"></path><path d="M564.749296 387.035002m-6.503575 0a6.503575 6.503575 0 1 0 13.007151 0 6.503575 6.503575 0 1 0-13.007151 0Z" fill="#0071BC" p-id="3978"></path><path d="M571.301046 410.399699m-6.503575 0a6.503575 6.503575 0 1 0 13.007151 0 6.503575 6.503575 0 1 0-13.007151 0Z" fill="#0071BC" p-id="3979"></path><path d="M586.042484 438.196462m-6.503575 0a6.503575 6.503575 0 1 0 13.00715 0 6.503575 6.503575 0 1 0-13.00715 0Z" fill="#0071BC" p-id="3980"></path><path d="M571.301046 455.924727m-6.503575 0a6.503575 6.503575 0 1 0 13.007151 0 6.503575 6.503575 0 1 0-13.007151 0Z" fill="#0071BC" p-id="3981"></path><path d="M634.987911 343.24426m-6.503575 0a6.503575 6.503575 0 1 0 13.007151 0 6.503575 6.503575 0 1 0-13.007151 0Z" fill="#0071BC" p-id="3982"></path><path d="M641.491487 366.560783m-6.503576 0a6.503575 6.503575 0 1 0 13.007151 0 6.503575 6.503575 0 1 0-13.007151 0Z" fill="#0071BC" p-id="3983"></path><path d="M673.720316 402.547234m-6.503575 0a6.503575 6.503575 0 1 0 13.007151 0 6.503575 6.503575 0 1 0-13.007151 0Z" fill="#0071BC" p-id="3984"></path><path d="M680.272066 343.24426m-6.503575 0a6.503575 6.503575 0 1 0 13.007151 0 6.503575 6.503575 0 1 0-13.007151 0Z" fill="#0071BC" p-id="3985"></path><path d="M721.991298 343.24426m-6.503575 0a6.503575 6.503575 0 1 0 13.007151 0 6.503575 6.503575 0 1 0-13.007151 0Z" fill="#0071BC" p-id="3986"></path><path d="M673.720316 302.392172m-6.503575 0a6.503575 6.503575 0 1 0 13.007151 0 6.503575 6.503575 0 1 0-13.007151 0Z" fill="#0071BC" p-id="3987"></path><path d="M693.279217 315.447497m-6.503575 0a6.503575 6.503575 0 1 0 13.007151 0 6.503575 6.503575 0 1 0-13.007151 0Z" fill="#0071BC" p-id="3988"></path><path d="M686.775642 366.560783m-6.503576 0a6.503575 6.503575 0 1 0 13.007151 0 6.503575 6.503575 0 1 0-13.007151 0Z" fill="#0071BC" p-id="3989"></path><path d="M706.334543 390.888973m-6.503576 0a6.503575 6.503575 0 1 0 13.007151 0 6.503575 6.503575 0 1 0-13.007151 0Z" fill="#0071BC" p-id="3990"></path><path d="M721.991298 384.337222m-6.503575 0a6.503575 6.503575 0 1 0 13.007151 0 6.503575 6.503575 0 1 0-13.007151 0Z" fill="#0071BC" p-id="3991"></path><path d="M652.475303 315.447497m-6.503575 0a6.503575 6.503575 0 1 0 13.00715 0 6.503575 6.503575 0 1 0-13.00715 0Z" fill="#0071BC" p-id="3992"></path><path d="M658.978878 338.812194m-6.503575 0a6.503575 6.503575 0 1 0 13.007151 0 6.503575 6.503575 0 1 0-13.007151 0Z" fill="#0071BC" p-id="3993"></path><path d="M673.720316 366.560783m-6.503575 0a6.503575 6.503575 0 1 0 13.007151 0 6.503575 6.503575 0 1 0-13.007151 0Z" fill="#0071BC" p-id="3994"></path><path d="M658.978878 384.337222m-6.503575 0a6.503575 6.503575 0 1 0 13.007151 0 6.503575 6.503575 0 1 0-13.007151 0Z" fill="#0071BC" p-id="3995"></path><path d="M516.189266 450.384644m-6.503575 0a6.503575 6.503575 0 1 0 13.007151 0 6.503575 6.503575 0 1 0-13.007151 0Z" fill="#0071BC" p-id="3996"></path><path d="M522.741016 473.749341m-6.503575 0a6.503575 6.503575 0 1 0 13.007151 0 6.503575 6.503575 0 1 0-13.007151 0Z" fill="#0071BC" p-id="3997"></path><path d="M554.969846 509.687618m-6.503576 0a6.503575 6.503575 0 1 0 13.007151 0 6.503575 6.503575 0 1 0-13.007151 0Z" fill="#0071BC" p-id="3998"></path><path d="M561.473421 450.384644m-6.503575 0a6.503575 6.503575 0 1 0 13.007151 0 6.503575 6.503575 0 1 0-13.007151 0Z" fill="#0071BC" p-id="3999"></path><path d="M603.240828 450.384644m-6.503575 0a6.503575 6.503575 0 1 0 13.00715 0 6.503575 6.503575 0 1 0-13.00715 0Z" fill="#0071BC" p-id="4000"></path><path d="M554.969846 409.532556m-6.503576 0a6.503575 6.503575 0 1 0 13.007151 0 6.503575 6.503575 0 1 0-13.007151 0Z" fill="#0071BC" p-id="4001"></path><path d="M574.528747 422.587881m-6.503576 0a6.503575 6.503575 0 1 0 13.007151 0 6.503575 6.503575 0 1 0-13.007151 0Z" fill="#0071BC" p-id="4002"></path><path d="M568.025171 473.749341m-6.503575 0a6.503575 6.503575 0 1 0 13.007151 0 6.503575 6.503575 0 1 0-13.007151 0Z" fill="#0071BC" p-id="4003"></path><path d="M587.584072 498.029356m-6.503575 0a6.503575 6.503575 0 1 0 13.007151 0 6.503575 6.503575 0 1 0-13.007151 0Z" fill="#0071BC" p-id="4004"></path><path d="M603.240828 491.525781m-6.503575 0a6.503575 6.503575 0 1 0 13.00715 0 6.503575 6.503575 0 1 0-13.00715 0Z" fill="#0071BC" p-id="4005"></path><path d="M533.676658 422.587881m-6.503576 0a6.503575 6.503575 0 1 0 13.007151 0 6.503575 6.503575 0 1 0-13.007151 0Z" fill="#0071BC" p-id="4006"></path><path d="M540.228408 445.952578m-6.503575 0a6.503575 6.503575 0 1 0 13.00715 0 6.503575 6.503575 0 1 0-13.00715 0Z" fill="#0071BC" p-id="4007"></path><path d="M554.969846 473.749341m-6.503576 0a6.503575 6.503575 0 1 0 13.007151 0 6.503575 6.503575 0 1 0-13.007151 0Z" fill="#0071BC" p-id="4008"></path><path d="M540.228408 491.525781m-6.503575 0a6.503575 6.503575 0 1 0 13.00715 0 6.503575 6.503575 0 1 0-13.00715 0Z" fill="#0071BC" p-id="4009"></path><path d="M589.414708 364.152051m-6.503575 0a6.503575 6.503575 0 1 0 13.007151 0 6.503575 6.503575 0 1 0-13.007151 0Z" fill="#0071BC" p-id="4010"></path><path d="M595.966458 387.468574m-6.503575 0a6.503575 6.503575 0 1 0 13.007151 0 6.503575 6.503575 0 1 0-13.007151 0Z" fill="#0071BC" p-id="4011"></path><path d="M628.195288 423.455024m-6.503576 0a6.503575 6.503575 0 1 0 13.007151 0 6.503575 6.503575 0 1 0-13.007151 0Z" fill="#0071BC" p-id="4012"></path><path d="M634.698863 364.152051m-6.503575 0a6.503575 6.503575 0 1 0 13.007151 0 6.503575 6.503575 0 1 0-13.007151 0Z" fill="#0071BC" p-id="4013"></path><path d="M676.46627 364.152051m-6.503575 0a6.503575 6.503575 0 1 0 13.007151 0 6.503575 6.503575 0 1 0-13.007151 0Z" fill="#0071BC" p-id="4014"></path><path d="M628.195288 323.299962m-6.503576 0a6.503575 6.503575 0 1 0 13.007151 0 6.503575 6.503575 0 1 0-13.007151 0Z" fill="#0071BC" p-id="4015"></path><path d="M647.754189 336.355288m-6.503576 0a6.503575 6.503575 0 1 0 13.007151 0 6.503575 6.503575 0 1 0-13.007151 0Z" fill="#0071BC" p-id="4016"></path><path d="M641.250613 387.468574m-6.503575 0a6.503575 6.503575 0 1 0 13.007151 0 6.503575 6.503575 0 1 0-13.007151 0Z" fill="#0071BC" p-id="4017"></path><path d="M660.809514 411.796763m-6.503575 0a6.503575 6.503575 0 1 0 13.007151 0 6.503575 6.503575 0 1 0-13.007151 0Z" fill="#0071BC" p-id="4018"></path><path d="M676.46627 405.245013m-6.503575 0a6.503575 6.503575 0 1 0 13.007151 0 6.503575 6.503575 0 1 0-13.007151 0Z" fill="#0071BC" p-id="4019"></path><path d="M606.950275 336.355288m-6.503576 0a6.503575 6.503575 0 1 0 13.007151 0 6.503575 6.503575 0 1 0-13.007151 0Z" fill="#0071BC" p-id="4020"></path><path d="M613.45385 359.67181m-6.503575 0a6.503575 6.503575 0 1 0 13.007151 0 6.503575 6.503575 0 1 0-13.007151 0Z" fill="#0071BC" p-id="4021"></path><path d="M628.195288 387.468574m-6.503576 0a6.503575 6.503575 0 1 0 13.007151 0 6.503575 6.503575 0 1 0-13.007151 0Z" fill="#0071BC" p-id="4022"></path><path d="M613.45385 405.245013m-6.503575 0a6.503575 6.503575 0 1 0 13.007151 0 6.503575 6.503575 0 1 0-13.007151 0Z" fill="#0071BC" p-id="4023"></path><path d="M379.517832 603.772676m-6.503575 0a6.503575 6.503575 0 1 0 13.007151 0 6.503575 6.503575 0 1 0-13.007151 0Z" fill="#0071BC" p-id="4024"></path><path d="M386.069582 627.137373m-6.503575 0a6.503575 6.503575 0 1 0 13.007151 0 6.503575 6.503575 0 1 0-13.007151 0Z" fill="#0071BC" p-id="4025"></path><path d="M418.298412 663.075649m-6.503576 0a6.503575 6.503575 0 1 0 13.007151 0 6.503575 6.503575 0 1 0-13.007151 0Z" fill="#0071BC" p-id="4026"></path><path d="M424.801987 603.772676m-6.503575 0a6.503575 6.503575 0 1 0 13.007151 0 6.503575 6.503575 0 1 0-13.007151 0Z" fill="#0071BC" p-id="4027"></path><path d="M466.569394 603.772676m-6.503575 0a6.503575 6.503575 0 1 0 13.007151 0 6.503575 6.503575 0 1 0-13.007151 0Z" fill="#0071BC" p-id="4028"></path><path d="M418.298412 562.920587m-6.503576 0a6.503575 6.503575 0 1 0 13.007151 0 6.503575 6.503575 0 1 0-13.007151 0Z" fill="#0071BC" p-id="4029"></path><path d="M437.857313 575.975913m-6.503576 0a6.503575 6.503575 0 1 0 13.007151 0 6.503575 6.503575 0 1 0-13.007151 0Z" fill="#0071BC" p-id="4030"></path><path d="M431.353737 627.137373m-6.503575 0a6.503575 6.503575 0 1 0 13.007151 0 6.503575 6.503575 0 1 0-13.007151 0Z" fill="#0071BC" p-id="4031"></path><path d="M450.912638 651.417388m-6.503575 0a6.503575 6.503575 0 1 0 13.007151 0 6.503575 6.503575 0 1 0-13.007151 0Z" fill="#0071BC" p-id="4032"></path><path d="M466.569394 644.865638m-6.503575 0a6.503575 6.503575 0 1 0 13.007151 0 6.503575 6.503575 0 1 0-13.007151 0Z" fill="#0071BC" p-id="4033"></path><path d="M397.005224 575.975913m-6.503576 0a6.503575 6.503575 0 1 0 13.007151 0 6.503575 6.503575 0 1 0-13.007151 0Z" fill="#0071BC" p-id="4034"></path><path d="M403.556974 599.34061m-6.503575 0a6.503575 6.503575 0 1 0 13.00715 0 6.503575 6.503575 0 1 0-13.00715 0Z" fill="#0071BC" p-id="4035"></path><path d="M418.298412 627.137373m-6.503576 0a6.503575 6.503575 0 1 0 13.007151 0 6.503575 6.503575 0 1 0-13.007151 0Z" fill="#0071BC" p-id="4036"></path><path d="M403.556974 644.865638m-6.503575 0a6.503575 6.503575 0 1 0 13.00715 0 6.503575 6.503575 0 1 0-13.00715 0Z" fill="#0071BC" p-id="4037"></path><path d="M439.350726 507.664283m-6.503575 0a6.503575 6.503575 0 1 0 13.007151 0 6.503575 6.503575 0 1 0-13.007151 0Z" fill="#0071BC" p-id="4038"></path><path d="M445.854302 530.980805m-6.503576 0a6.503575 6.503575 0 1 0 13.007151 0 6.503575 6.503575 0 1 0-13.007151 0Z" fill="#0071BC" p-id="4039"></path><path d="M478.083131 566.967256m-6.503575 0a6.503575 6.503575 0 1 0 13.007151 0 6.503575 6.503575 0 1 0-13.007151 0Z" fill="#0071BC" p-id="4040"></path><path d="M484.634881 507.664283m-6.503575 0a6.503575 6.503575 0 1 0 13.007151 0 6.503575 6.503575 0 1 0-13.007151 0Z" fill="#0071BC" p-id="4041"></path><path d="M526.354114 507.664283m-6.503576 0a6.503575 6.503575 0 1 0 13.007151 0 6.503575 6.503575 0 1 0-13.007151 0Z" fill="#0071BC" p-id="4042"></path><path d="M478.083131 466.812194m-6.503575 0a6.503575 6.503575 0 1 0 13.007151 0 6.503575 6.503575 0 1 0-13.007151 0Z" fill="#0071BC" p-id="4043"></path><path d="M497.642032 479.86752m-6.503575 0a6.503575 6.503575 0 1 0 13.007151 0 6.503575 6.503575 0 1 0-13.007151 0Z" fill="#0071BC" p-id="4044"></path><path d="M491.138457 530.980805m-6.503576 0a6.503575 6.503575 0 1 0 13.007151 0 6.503575 6.503575 0 1 0-13.007151 0Z" fill="#0071BC" p-id="4045"></path><path d="M510.697358 555.308995m-6.503576 0a6.503575 6.503575 0 1 0 13.007151 0 6.503575 6.503575 0 1 0-13.007151 0Z" fill="#0071BC" p-id="4046"></path><path d="M526.354114 548.757245m-6.503576 0a6.503575 6.503575 0 1 0 13.007151 0 6.503575 6.503575 0 1 0-13.007151 0Z" fill="#0071BC" p-id="4047"></path><path d="M456.838118 479.86752m-6.503575 0a6.503575 6.503575 0 1 0 13.007151 0 6.503575 6.503575 0 1 0-13.007151 0Z" fill="#0071BC" p-id="4048"></path><path d="M463.341694 503.232217m-6.503576 0a6.503575 6.503575 0 1 0 13.007151 0 6.503575 6.503575 0 1 0-13.007151 0Z" fill="#0071BC" p-id="4049"></path><path d="M478.083131 530.980805m-6.503575 0a6.503575 6.503575 0 1 0 13.007151 0 6.503575 6.503575 0 1 0-13.007151 0Z" fill="#0071BC" p-id="4050"></path><path d="M463.341694 548.757245m-6.503576 0a6.503575 6.503575 0 1 0 13.007151 0 6.503575 6.503575 0 1 0-13.007151 0Z" fill="#0071BC" p-id="4051"></path><path d="M339.629236 610.083553m-6.503575 0a6.503575 6.503575 0 1 0 13.00715 0 6.503575 6.503575 0 1 0-13.00715 0Z" fill="#0071BC" p-id="4052"></path><path d="M346.180986 633.400075m-6.503575 0a6.503575 6.503575 0 1 0 13.007151 0 6.503575 6.503575 0 1 0-13.007151 0Z" fill="#0071BC" p-id="4053"></path><path d="M378.409816 669.386526m-6.503576 0a6.503575 6.503575 0 1 0 13.007151 0 6.503575 6.503575 0 1 0-13.007151 0Z" fill="#0071BC" p-id="4054"></path><path d="M384.913391 610.083553m-6.503575 0a6.503575 6.503575 0 1 0 13.007151 0 6.503575 6.503575 0 1 0-13.007151 0Z" fill="#0071BC" p-id="4055"></path><path d="M426.680798 610.083553m-6.503576 0a6.503575 6.503575 0 1 0 13.007151 0 6.503575 6.503575 0 1 0-13.007151 0Z" fill="#0071BC" p-id="4056"></path><path d="M378.409816 569.231464m-6.503576 0a6.503575 6.503575 0 1 0 13.007151 0 6.503575 6.503575 0 1 0-13.007151 0Z" fill="#0071BC" p-id="4057"></path><path d="M397.968717 582.28679m-6.503576 0a6.503575 6.503575 0 1 0 13.007151 0 6.503575 6.503575 0 1 0-13.007151 0Z" fill="#0071BC" p-id="4058"></path><path d="M391.416967 633.400075m-6.503576 0a6.503575 6.503575 0 1 0 13.007151 0 6.503575 6.503575 0 1 0-13.007151 0Z" fill="#0071BC" p-id="4059"></path><path d="M411.024042 657.68009m-6.503575 0a6.503575 6.503575 0 1 0 13.007151 0 6.503575 6.503575 0 1 0-13.007151 0Z" fill="#0071BC" p-id="4060"></path><path d="M426.680798 651.176515m-6.503576 0a6.503575 6.503575 0 1 0 13.007151 0 6.503575 6.503575 0 1 0-13.007151 0Z" fill="#0071BC" p-id="4061"></path><path d="M357.116628 582.28679m-6.503576 0a6.503575 6.503575 0 1 0 13.007151 0 6.503575 6.503575 0 1 0-13.007151 0Z" fill="#0071BC" p-id="4062"></path><path d="M363.668378 605.603312m-6.503576 0a6.503575 6.503575 0 1 0 13.007151 0 6.503575 6.503575 0 1 0-13.007151 0Z" fill="#0071BC" p-id="4063"></path><path d="M378.409816 633.400075m-6.503576 0a6.503575 6.503575 0 1 0 13.007151 0 6.503575 6.503575 0 1 0-13.007151 0Z" fill="#0071BC" p-id="4064"></path><path d="M363.668378 651.176515m-6.503576 0a6.503575 6.503575 0 1 0 13.007151 0 6.503575 6.503575 0 1 0-13.007151 0Z" fill="#0071BC" p-id="4065"></path><path d="M413.625472 524.380881m-6.503575 0a6.503575 6.503575 0 1 0 13.007151 0 6.503575 6.503575 0 1 0-13.007151 0Z" fill="#0071BC" p-id="4066"></path><path d="M420.177222 547.745578m-6.503575 0a6.503575 6.503575 0 1 0 13.007151 0 6.503575 6.503575 0 1 0-13.007151 0Z" fill="#0071BC" p-id="4067"></path><path d="M452.406052 583.732029m-6.503576 0a6.503575 6.503575 0 1 0 13.007151 0 6.503575 6.503575 0 1 0-13.007151 0Z" fill="#0071BC" p-id="4068"></path><path d="M458.909627 524.380881m-6.503575 0a6.503575 6.503575 0 1 0 13.007151 0 6.503575 6.503575 0 1 0-13.007151 0Z" fill="#0071BC" p-id="4069"></path><path d="M500.677034 524.380881m-6.503575 0a6.503575 6.503575 0 1 0 13.007151 0 6.503575 6.503575 0 1 0-13.007151 0Z" fill="#0071BC" p-id="4070"></path><path d="M452.406052 483.576967m-6.503576 0a6.503575 6.503575 0 1 0 13.007151 0 6.503575 6.503575 0 1 0-13.007151 0Z" fill="#0071BC" p-id="4071"></path><path d="M471.964953 496.632292m-6.503576 0a6.503575 6.503575 0 1 0 13.007151 0 6.503575 6.503575 0 1 0-13.007151 0Z" fill="#0071BC" p-id="4072"></path><path d="M465.461377 547.745578m-6.503575 0a6.503575 6.503575 0 1 0 13.007151 0 6.503575 6.503575 0 1 0-13.007151 0Z" fill="#0071BC" p-id="4073"></path><path d="M485.020279 572.025593m-6.503576 0a6.503575 6.503575 0 1 0 13.007151 0 6.503575 6.503575 0 1 0-13.007151 0Z" fill="#0071BC" p-id="4074"></path><path d="M500.677034 565.522017m-6.503575 0a6.503575 6.503575 0 1 0 13.007151 0 6.503575 6.503575 0 1 0-13.007151 0Z" fill="#0071BC" p-id="4075"></path><path d="M431.112864 496.632292m-6.503575 0a6.503575 6.503575 0 1 0 13.007151 0 6.503575 6.503575 0 1 0-13.007151 0Z" fill="#0071BC" p-id="4076"></path><path d="M437.664614 519.948814m-6.503575 0a6.503575 6.503575 0 1 0 13.007151 0 6.503575 6.503575 0 1 0-13.007151 0Z" fill="#0071BC" p-id="4077"></path><path d="M452.406052 547.745578m-6.503576 0a6.503575 6.503575 0 1 0 13.007151 0 6.503575 6.503575 0 1 0-13.007151 0Z" fill="#0071BC" p-id="4078"></path><path d="M437.664614 565.522017m-6.503575 0a6.503575 6.503575 0 1 0 13.007151 0 6.503575 6.503575 0 1 0-13.007151 0Z" fill="#0071BC" p-id="4079"></path><path d="M306.774136 650.839292m-6.503575 0a6.503575 6.503575 0 1 0 13.007151 0 6.503575 6.503575 0 1 0-13.007151 0Z" fill="#0071BC" p-id="4080"></path><path d="M313.277712 674.155815m-6.503576 0a6.503575 6.503575 0 1 0 13.007151 0 6.503575 6.503575 0 1 0-13.007151 0Z" fill="#0071BC" p-id="4081"></path><path d="M345.506541 710.142266m-6.503575 0a6.503575 6.503575 0 1 0 13.007151 0 6.503575 6.503575 0 1 0-13.007151 0Z" fill="#0071BC" p-id="4082"></path><path d="M352.058291 650.839292m-6.503575 0a6.503575 6.503575 0 1 0 13.007151 0 6.503575 6.503575 0 1 0-13.007151 0Z" fill="#1296db" p-id="4083" data-spm-anchor-id="a313x.7781069.0.i3" class="selected"></path><path d="M393.777524 650.839292m-6.503576 0a6.503575 6.503575 0 1 0 13.007151 0 6.503575 6.503575 0 1 0-13.007151 0Z" fill="#0071BC" p-id="4084"></path><path d="M345.506541 609.987204m-6.503575 0a6.503575 6.503575 0 1 0 13.007151 0 6.503575 6.503575 0 1 0-13.007151 0Z" fill="#0071BC" p-id="4085"></path><path d="M365.065442 623.042529m-6.503575 0a6.503575 6.503575 0 1 0 13.007151 0 6.503575 6.503575 0 1 0-13.007151 0Z" fill="#0071BC" p-id="4086"></path><path d="M358.561867 674.155815m-6.503576 0a6.503575 6.503575 0 1 0 13.007151 0 6.503575 6.503575 0 1 0-13.007151 0Z" fill="#0071BC" p-id="4087"></path><path d="M378.120768 698.484005m-6.503576 0a6.503575 6.503575 0 1 0 13.007151 0 6.503575 6.503575 0 1 0-13.007151 0Z" fill="#0071BC" p-id="4088"></path><path d="M393.777524 691.932254m-6.503576 0a6.503575 6.503575 0 1 0 13.007151 0 6.503575 6.503575 0 1 0-13.007151 0Z" fill="#0071BC" p-id="4089"></path><path d="M324.261528 623.042529m-6.503575 0a6.503575 6.503575 0 1 0 13.007151 0 6.503575 6.503575 0 1 0-13.007151 0Z" fill="#0071BC" p-id="4090"></path><path d="M330.765104 646.407226m-6.503576 0a6.503575 6.503575 0 1 0 13.007151 0 6.503575 6.503575 0 1 0-13.007151 0Z" fill="#0071BC" p-id="4091"></path><path d="M345.506541 674.155815m-6.503575 0a6.503575 6.503575 0 1 0 13.007151 0 6.503575 6.503575 0 1 0-13.007151 0Z" fill="#0071BC" p-id="4092"></path><path d="M330.765104 691.932254m-6.503576 0a6.503575 6.503575 0 1 0 13.007151 0 6.503575 6.503575 0 1 0-13.007151 0Z" fill="#0071BC" p-id="4093"></path><path d="M355.526865 550.05796m-6.503576 0a6.503575 6.503575 0 1 0 13.007151 0 6.503575 6.503575 0 1 0-13.007151 0Z" fill="#0071BC" p-id="4094"></path><path d="M362.03044 573.374482m-6.503575 0a6.503575 6.503575 0 1 0 13.007151 0 6.503575 6.503575 0 1 0-13.007151 0Z" fill="#0071BC" p-id="4095"></path><path d="M394.25927 609.360933m-6.503576 0a6.503575 6.503575 0 1 0 13.007151 0 6.503575 6.503575 0 1 0-13.007151 0Z" fill="#0071BC" p-id="4096"></path><path d="M400.81102 550.05796m-6.503576 0a6.503575 6.503575 0 1 0 13.007151 0 6.503575 6.503575 0 1 0-13.007151 0Z" fill="#0071BC" p-id="4097"></path><path d="M442.578427 550.05796m-6.503576 0a6.503575 6.503575 0 1 0 13.007151 0 6.503575 6.503575 0 1 0-13.007151 0Z" fill="#0071BC" p-id="4098"></path><path d="M394.25927 509.205871m-6.503576 0a6.503575 6.503575 0 1 0 13.007151 0 6.503575 6.503575 0 1 0-13.007151 0Z" fill="#0071BC" p-id="4099"></path><path d="M413.866346 522.261197m-6.503576 0a6.503575 6.503575 0 1 0 13.007151 0 6.503575 6.503575 0 1 0-13.007151 0Z" fill="#0071BC" p-id="4100"></path><path d="M407.314595 573.374482m-6.503575 0a6.503575 6.503575 0 1 0 13.007151 0 6.503575 6.503575 0 1 0-13.007151 0Z" fill="#0071BC" p-id="4101"></path><path d="M426.921671 597.702672m-6.503575 0a6.503575 6.503575 0 1 0 13.007151 0 6.503575 6.503575 0 1 0-13.007151 0Z" fill="#0071BC" p-id="4102"></path><path d="M442.578427 591.150922m-6.503576 0a6.503575 6.503575 0 1 0 13.007151 0 6.503575 6.503575 0 1 0-13.007151 0Z" fill="#0071BC" p-id="4103"></path><path d="M373.014257 522.261197m-6.503576 0a6.503575 6.503575 0 1 0 13.007151 0 6.503575 6.503575 0 1 0-13.007151 0Z" fill="#0071BC" p-id="4104"></path><path d="M379.517832 545.577719m-6.503575 0a6.503575 6.503575 0 1 0 13.007151 0 6.503575 6.503575 0 1 0-13.007151 0Z" fill="#0071BC" p-id="4105"></path><path d="M394.25927 573.374482m-6.503576 0a6.503575 6.503575 0 1 0 13.007151 0 6.503575 6.503575 0 1 0-13.007151 0Z" fill="#0071BC" p-id="4106"></path><path d="M379.517832 591.150922m-6.503575 0a6.503575 6.503575 0 1 0 13.007151 0 6.503575 6.503575 0 1 0-13.007151 0Z" fill="#0071BC" p-id="4107"></path><path d="M320.359383 576.843056m-6.503576 0a6.503575 6.503575 0 1 0 13.007151 0 6.503575 6.503575 0 1 0-13.007151 0Z" fill="#0071BC" p-id="4108"></path><path d="M326.862958 600.207753m-6.503575 0a6.503575 6.503575 0 1 0 13.007151 0 6.503575 6.503575 0 1 0-13.007151 0Z" fill="#0071BC" p-id="4109"></path><path d="M359.091788 636.194204m-6.503576 0a6.503575 6.503575 0 1 0 13.007151 0 6.503575 6.503575 0 1 0-13.007151 0Z" fill="#0071BC" p-id="4110"></path><path d="M365.643538 576.843056m-6.503576 0a6.503575 6.503575 0 1 0 13.007151 0 6.503575 6.503575 0 1 0-13.007151 0Z" fill="#0071BC" p-id="4111"></path><path d="M407.410945 576.843056m-6.503576 0a6.503575 6.503575 0 1 0 13.007151 0 6.503575 6.503575 0 1 0-13.007151 0Z" fill="#0071BC" p-id="4112"></path><path d="M359.091788 536.039142m-6.503576 0a6.503575 6.503575 0 1 0 13.007151 0 6.503575 6.503575 0 1 0-13.007151 0Z" fill="#0071BC" p-id="4113"></path><path d="M378.698863 549.046293m-6.503575 0a6.503575 6.503575 0 1 0 13.007151 0 6.503575 6.503575 0 1 0-13.007151 0Z" fill="#0071BC" p-id="4114"></path><path d="M372.147113 600.207753m-6.503575 0a6.503575 6.503575 0 1 0 13.007151 0 6.503575 6.503575 0 1 0-13.007151 0Z" fill="#0071BC" p-id="4115"></path><path d="M391.754189 624.487768m-6.503576 0a6.503575 6.503575 0 1 0 13.007151 0 6.503575 6.503575 0 1 0-13.007151 0Z" fill="#0071BC" p-id="4116"></path><path d="M407.410945 617.984193m-6.503576 0a6.503575 6.503575 0 1 0 13.007151 0 6.503575 6.503575 0 1 0-13.007151 0Z" fill="#0071BC" p-id="4117"></path><path d="M337.846775 549.046293m-6.503576 0a6.503575 6.503575 0 1 0 13.007151 0 6.503575 6.503575 0 1 0-13.007151 0Z" fill="#0071BC" p-id="4118"></path><path d="M344.35035 572.41099m-6.503575 0a6.503575 6.503575 0 1 0 13.00715 0 6.503575 6.503575 0 1 0-13.00715 0Z" fill="#0071BC" p-id="4119"></path><path d="M359.091788 600.207753m-6.503576 0a6.503575 6.503575 0 1 0 13.007151 0 6.503575 6.503575 0 1 0-13.0071" fill="#0071BC" p-id="4120"></path></svg>