<?xml version="1.0" standalone="no"?><!DOCTYPE svg PUBLIC "-//W3C//DTD SVG 1.1//EN" "http://www.w3.org/Graphics/SVG/1.1/DTD/svg11.dtd"><svg t="1686795070818" class="icon" viewBox="0 0 1024 1024" version="1.1" xmlns="http://www.w3.org/2000/svg" p-id="22636" xmlns:xlink="http://www.w3.org/1999/xlink" width="200" height="200"><path d="M832 160l0.032 418.272A225.92 225.92 0 0 0 800 576h-0.032L800 400h-175.712v192h92.448c-20.032 8-38.624 18.848-55.296 32h-37.152v37.056a223.808 223.808 0 0 0-32 54.88l0.032-91.936h-192v175.68H576a228.032 228.032 0 0 0 2.272 32.352L160 832V160h672zM368.288 624H192V800h176.288v-176z m0-224H192.576v192h175.712v-192z m224.032 0h-192v192h192v-192zM368.288 192H192v176h176.288V192z m224.032 0.288h-192V368h192V192.288zM800 192h-175.712v176H800V192z" fill="#1296db" p-id="22637"></path><path d="M800 656a144 144 0 1 1 0 288 144 144 0 0 1 0-288z m0 32a112 112 0 1 0 0 224 112 112 0 0 0 0-224z m16 48v48H864v32h-48V864h-32v-48H736v-32h48V736h32z" fill="#1296db" p-id="22638"></path></svg>