<?xml version="1.0" standalone="no"?><!DOCTYPE svg PUBLIC "-//W3C//DTD SVG 1.1//EN" "http://www.w3.org/Graphics/SVG/1.1/DTD/svg11.dtd"><svg t="1613447522268" class="icon" viewBox="0 0 1024 1024" version="1.1" xmlns="http://www.w3.org/2000/svg" p-id="117936" xmlns:xlink="http://www.w3.org/1999/xlink" width="200" height="200"><defs><style type="text/css"></style></defs><path d="M128 0h597.3l227.6 227.9v739.2c0 31.4-25.5 56.9-56.9 56.9H128c-31.4 0-56.9-25.5-56.9-56.9V56.9C71.1 25.5 96.6 0 128 0z" fill="#1296db" p-id="117937" data-spm-anchor-id="a313x.7781069.0.i44" class=""></path><path d="M725.3 0l227.6 227.6H782.2c-31.4 0-56.9-25.5-56.9-56.9V0z" fill="#1296db" p-id="117938"></path><path d="M438.7 616.7c-9 4.4-22.8 7.2-36.4 7.2-42 0-66.3-27.1-66.3-69.4 0-45.3 26.9-71.2 67.3-71.2 14.3 0 26.4 3.1 34.8 7.2l5.4-18.2c-5.9-3.1-19.5-7.7-41-7.7-53.5 0-90.1 36.6-90.1 90.6 0 56.6 36.6 87.3 85.2 87.3 21 0 37.4-4.1 45.6-8.2l-4.5-17.6z m23.8 14.9c9.2 6.1 27.4 11 44 11 40.7 0 60.4-23 60.4-49.7 0-25.3-14.8-39.4-44-50.7-23.8-9.2-34.3-17.2-34.3-33.3 0-11.8 9-25.9 32.5-25.9 15.6 0 27.1 5.1 32.8 8.2L560 473c-7.7-4.4-20.5-8.4-38.1-8.4-33.5 0-55.8 20-55.8 46.8 0 24.3 17.4 38.9 45.6 48.9 23.3 9 32.5 18.2 32.5 34.3 0 17.4-13.3 29.4-36.1 29.4-15.4 0-30-5.1-39.9-11.3l-5.7 18.9z m197.3 8.4l61.7-172.5h-23.8l-29.2 85.2c-7.7 22.5-14.8 44.3-19.7 64.3h-0.5c-4.6-20.2-11-41.2-18.4-64.5l-26.9-85h-24.1L635.3 640h24.5z" fill="#ffffff" p-id="117939" data-spm-anchor-id="a313x.7781069.0.i45" class="selected"></path></svg>