<?xml version="1.0" standalone="no"?><!DOCTYPE svg PUBLIC "-//W3C//DTD SVG 1.1//EN" "http://www.w3.org/Graphics/SVG/1.1/DTD/svg11.dtd"><svg t="1686794596406" class="icon" viewBox="0 0 1024 1024" version="1.1" xmlns="http://www.w3.org/2000/svg" p-id="11638" data-spm-anchor-id="a313x.7781069.0.i14" xmlns:xlink="http://www.w3.org/1999/xlink" width="200" height="200"><path d="M96 96m48 0l736 0q48 0 48 48l0 736q0 48-48 48l-736 0q-48 0-48-48l0-736q0-48 48-48Z" fill="#ffffff" p-id="11639" data-spm-anchor-id="a313x.7781069.0.i10" class=""></path><path d="M440.576 449.728l0.448-3.68 2.016 0.256a310.432 310.432 0 0 0 30.08-53.728c57.344-130.848 157.568-229.248 299.904-294.816l13.408 29.088C651.008 189.216 556.544 281.92 502.4 405.44a344.704 344.704 0 0 1-30.816 55.904c-10.4 115.968 44.32 177.536 169.12 190.048 144.096 14.432 240.192 95.104 286.08 239.776l-30.496 9.664c-42.112-132.672-127.616-204.48-258.784-217.6-125.888-12.64-193.28-74.304-198.784-181.248-68.864 72.256-172.48 112.896-309.664 121.984L126.944 592c148.16-9.792 252.16-57.248 313.632-142.304z" fill="#1296db" p-id="11640" data-spm-anchor-id="a313x.7781069.0.i16" class=""></path><path d="M320 288m-96 0a96 96 0 1 0 192 0 96 96 0 1 0-192 0Z" fill="#ea9518" p-id="11641" data-spm-anchor-id="a313x.7781069.0.i19" class=""></path><path d="M704 608c35.36 0 64-31.36 64-70.016C768 499.328 739.36 384 704 384s-64 115.328-64 154.016C640 576.64 668.64 608 704 608z" fill="#d4237a" p-id="11642" data-spm-anchor-id="a313x.7781069.0.i18" class=""></path><path d="M408 768H224l112-128 92 105.152L464 704l112 128H352z" fill="#2aa515" p-id="11643" data-spm-anchor-id="a313x.7781069.0.i17" class="selected"></path><path d="M128 96h768a32 32 0 0 1 32 32v768a32 32 0 0 1-32 32H128a32 32 0 0 1-32-32V128a32 32 0 0 1 32-32z m0 32v768h768V128H128z" fill="#1296db" p-id="11644" data-spm-anchor-id="a313x.7781069.0.i13" class=""></path></svg>