<?xml version="1.0" standalone="no"?><!DOCTYPE svg PUBLIC "-//W3C//DTD SVG 1.1//EN" "http://www.w3.org/Graphics/SVG/1.1/DTD/svg11.dtd"><svg t="1613445400968" class="icon" viewBox="0 0 1024 1024" version="1.1" xmlns="http://www.w3.org/2000/svg" p-id="15583" xmlns:xlink="http://www.w3.org/1999/xlink" width="200" height="200"><defs><style type="text/css"></style></defs><path d="M118.153846 0C53.326769 0 0 53.326769 0 118.153846v787.692308c0 64.827077 53.326769 118.153846 118.153846 118.153846h787.692308c64.827077 0 118.153846-53.326769 118.153846-118.153846v-787.692308c0-64.827077-53.326769-118.153846-118.153846-118.153846h-787.692308z m0 78.769231H315.076923v236.307692H78.769231V118.153846c0-22.134154 17.250462-39.384615 39.384615-39.384615zM393.846154 78.769231h236.307692v236.307692H393.846154V78.769231z m315.076923 0h196.923077c22.134154 0 39.384615 17.250462 39.384615 39.384615V315.076923H708.923077V78.769231zM157.538462 157.538462v78.76923h78.76923V157.538462H157.538462z m315.076923 0v78.76923h78.76923V157.538462H472.615385z m315.076923 0v78.76923h78.76923V157.538462h-78.76923zM78.769231 393.846154h236.307692v236.307692H78.769231V393.846154z m315.076923 0h236.307692v236.307692H393.846154V393.846154z m315.076923 0h236.307692v236.307692H708.923077V393.846154zM157.538462 472.615385v78.76923h78.76923V472.615385H157.538462zM78.769231 708.923077h236.307692v236.307692H118.153846a38.833231 38.833231 0 0 1-39.384615-39.384615V708.923077z m315.076923 0h236.307692v236.307692H393.846154V708.923077z m315.076923 0h236.307692v196.923077c0 22.134154-17.250462 39.384615-39.384615 39.384615H708.923077V708.923077z m-551.384615 78.769231v78.76923h78.76923v-78.76923H157.538462z" fill="#1296db" p-id="15584"></path></svg>