<?xml version="1.0" standalone="no"?><!DOCTYPE svg PUBLIC "-//W3C//DTD SVG 1.1//EN" "http://www.w3.org/Graphics/SVG/1.1/DTD/svg11.dtd"><svg t="1633601747049" class="icon" viewBox="0 0 1024 1024" version="1.1" xmlns="http://www.w3.org/2000/svg" p-id="15513" xmlns:xlink="http://www.w3.org/1999/xlink" width="200" height="200"><defs><style type="text/css"></style></defs><path d="M565.546667 640a297.472 297.472 0 0 0-41.173334 85.333333H213.333333A213.333333 213.333333 0 0 1 213.333333 298.666667h597.333334a213.333333 213.333333 0 0 1 199.296 289.578666 299.093333 299.093333 0 0 0-74.24-48.896A128 128 0 0 0 810.666667 384H213.333333a128 128 0 0 0 0 256h352.213334zM810.666667 597.333333a213.333333 213.333333 0 1 1 0 426.666667 213.333333 213.333333 0 0 1 0-426.666667z m-106.666667 253.354667h213.333333a39.978667 39.978667 0 1 0 0-80h-213.333333a39.978667 39.978667 0 1 0 0 80z" p-id="15514" fill="#1296db"></path></svg>