<?xml version="1.0" standalone="no"?><!DOCTYPE svg PUBLIC "-//W3C//DTD SVG 1.1//EN" "http://www.w3.org/Graphics/SVG/1.1/DTD/svg11.dtd"><svg t="1613447424973" class="icon" viewBox="0 0 1024 1024" version="1.1" xmlns="http://www.w3.org/2000/svg" p-id="111359" xmlns:xlink="http://www.w3.org/1999/xlink" width="200" height="200"><defs><style type="text/css"></style></defs><path d="M428.117333 841.984a40.106667 40.106667 0 0 0 10.752-27.392v-426.666667a40.277333 40.277333 0 0 0-10.752-27.477333 35.413333 35.413333 0 0 0-51.712 0 40.362667 40.362667 0 0 0-10.752 27.477333v426.666667c0 10.24 3.925333 20.138667 10.752 27.306667 6.826667 7.338667 16.128 11.434667 25.856 11.434666a35.413333 35.413333 0 0 0 25.856-11.349333z m219.392 0a40.106667 40.106667 0 0 0 10.752-27.392v-426.666667a39.424 39.424 0 0 0-18.261333-33.621333 34.645333 34.645333 0 0 0-36.608 0 39.424 39.424 0 0 0-18.261333 33.621333v426.666667c0 10.24 3.84 20.138667 10.666666 27.306667a35.328 35.328 0 0 0 51.712 0z m339.882667-648.021333H804.437333v-77.568C804.437333 52.309333 755.797333 0 695.637333 0H329.130667c-60.586667 0.085333-109.653333 52.138667-109.738667 116.394667v77.568H36.522667c-20.138667 0-36.522667 17.408-36.522667 38.826666 0 21.333333 16.384 38.741333 36.522667 38.741334h950.869333c20.224 0 36.608-17.322667 36.608-38.741334 0-21.504-16.384-38.826667-36.693333-38.826666z m-256 0H292.522667v-77.568c0-21.333333 16.469333-38.741333 36.608-38.741334h366.506666c20.053333 0 35.754667 17.066667 35.754667 38.741334v77.568z" fill="#1296db" p-id="111360"></path><path d="M812.970667 348.416a40.362667 40.362667 0 0 0-17.408 34.986667v523.264a41.130667 41.130667 0 0 1-10.325334 27.648 33.962667 33.962667 0 0 1-25.088 11.434666H263.936c-19.626667 0-35.498667-17.408-35.498667-39.082666v-524.8a40.362667 40.362667 0 0 0-17.322666-34.986667 32.682667 32.682667 0 0 0-36.181334 0 40.192 40.192 0 0 0-17.408 34.986667v524.8c0.170667 64.853333 47.701333 117.333333 106.410667 117.333333h496.213333c58.709333 0 106.325333-52.565333 106.325334-117.333333V383.402667a40.106667 40.106667 0 0 0-17.408-34.986667 32.768 32.768 0 0 0-36.096 0z" fill="#1296db" p-id="111361"></path></svg>