<?xml version="1.0" standalone="no"?><!DOCTYPE svg PUBLIC "-//W3C//DTD SVG 1.1//EN" "http://www.w3.org/Graphics/SVG/1.1/DTD/svg11.dtd"><svg t="1651215223435" class="icon" viewBox="0 0 1024 1024" version="1.1" xmlns="http://www.w3.org/2000/svg" p-id="39374" xmlns:xlink="http://www.w3.org/1999/xlink" width="200" height="200"><defs><style type="text/css"></style></defs><path d="M351.744 560.548571a237.403429 237.403429 0 0 1 40.722286 42.24l16-107.702857 54.436571 470.857143c3.419429 28.178286 43.776 27.794286 46.043429 0l50.249143-561.481143 49.883428 561.115429c2.285714 28.562286 42.624 28.562286 46.061714 0l54.436572-470.491429 46.811428 305.664c3.053714 23.222857 40.356571 23.222857 45.677715 0l52.918857-245.540571 11.428571 46.08c3.419429 12.544 12.178286 17.115429 22.454857 17.115428h108.105143c15.232 0 27.026286-11.794286 27.026286-26.642285a26.88 26.88 0 0 0-27.026286-27.026286h-91.355428L875.154286 446.72c-6.838857-25.508571-39.954286-25.508571-45.293715 0l-47.213714 222.317714-53.650286-350.592c-4.205714-27.794286-42.642286-27.026286-46.08 0.365715L634.953143 734.902857 582.418286 141.056c-2.651429-28.562286-44.16-28.562286-46.811429 0L483.072 734.902857l-47.963429-416.073143c-3.437714-28.178286-41.874286-28.178286-46.08-0.384zM288.548571 446.72c-5.321143-23.588571-39.204571-23.588571-45.677714 0l-14.08 54.436571c27.392 3.821714 52.900571 12.178286 76.123429 23.990858z m-95.158857 490.313143c106.203429 0 193.371429-86.802286 193.371429-193.389714 0-106.203429-87.168-193.371429-193.371429-193.371429C87.533714 550.272 0 637.44 0 743.643429c0 106.605714 87.552 193.389714 193.371429 193.389714z m-97.828571-170.166857c-12.580571 0-23.222857-11.044571-23.222857-23.222857 0-12.562286 10.642286-23.222857 23.222857-23.222858h195.657143c12.946286 0 23.588571 10.660571 23.588571 23.222858 0 12.178286-10.642286 23.222857-23.588571 23.222857z" p-id="39375" fill="#1296db"></path></svg>