<?xml version="1.0" standalone="no"?><!DOCTYPE svg PUBLIC "-//W3C//DTD SVG 1.1//EN" "http://www.w3.org/Graphics/SVG/1.1/DTD/svg11.dtd"><svg t="1644235718417" class="icon" viewBox="0 0 1024 1024" version="1.1" xmlns="http://www.w3.org/2000/svg" p-id="40580" xmlns:xlink="http://www.w3.org/1999/xlink" width="200" height="200"><defs><style type="text/css"></style></defs><path d="M422.5 837.5c-7.7 0-15.4-2.9-21.2-8.8L196.2 623.6c-11.7-11.7-11.7-30.7 0-42.4s30.7-11.7 42.4 0l205.1 205.1c11.7 11.7 11.7 30.7 0 42.4-5.9 5.8-13.6 8.8-21.2 8.8zM825 435c-7.7 0-15.4-2.9-21.2-8.8L598.7 221.1c-11.7-11.7-11.7-30.7 0-42.4s30.7-11.7 42.4 0l205.1 205.1c11.7 11.7 11.7 30.7 0 42.4-5.9 5.8-13.6 8.8-21.2 8.8z" fill="#1296db" p-id="40581"></path><path d="M127.8 925.4c-7.9 0-15.6-3.1-21.3-8.9-6.9-7-10-17-8.2-26.6 0.1-0.6 12-63.9 26.9-129.5 8.9-38.9 17.1-71.1 24.5-95.8 13.8-46.2 22.7-59.6 30.2-67.1L650.3 127c38.4-38.4 100.5-38.9 138.4-1l110.1 110.1c18.4 18.4 28.3 43 28.1 69.3-0.3 26.1-10.6 50.6-29.1 69.1L427.4 844.9c-7.6 7.6-21 16.5-67.6 30-24.8 7.2-57.3 15.3-96.4 23.9-66.1 14.6-129.7 26-130.4 26.1-1.7 0.4-3.4 0.5-5.2 0.5zM223 639.2c-2.2 3.4-14.9 26.2-40.5 139.5-6.5 28.9-12.4 57.1-16.8 79 22.2-4.3 50.6-10 79.8-16.4 113.6-24.8 136.7-37.3 140.2-39.6L855.4 332l21.2 21.2-21.2-21.2c15-15 15.5-39.1 1-53.5L746.3 168.4c-14.5-14.5-38.5-14-53.5 1L223 639.2z m163.1 162.3zM223.3 638.8z" fill="#1296db" p-id="40582"></path></svg>