<?xml version="1.0" standalone="no"?><!DOCTYPE svg PUBLIC "-//W3C//DTD SVG 1.1//EN" "http://www.w3.org/Graphics/SVG/1.1/DTD/svg11.dtd"><svg t="1633601266299" class="icon" viewBox="0 0 1024 1024" version="1.1" xmlns="http://www.w3.org/2000/svg" p-id="9499" xmlns:xlink="http://www.w3.org/1999/xlink" width="200" height="200"><defs><style type="text/css"></style></defs><path d="M50.12 247.108h279.762c27.679 0 50.119-22.386 50.119-50s-22.44-50-50.119-50H50.12c-27.681 0-50.119 22.386-50.119 50s22.438 50 50.119 50zM50.452 608.297h210c27.613 0 50-22.386 50-50s-22.387-50-50-50h-210c-27.615 0-50 22.386-50 50s22.384 50 50 50zM672.185 740.572c8.762 14.586 24.646 24.332 42.791 24.332 18.197 0 34.123-9.809 42.869-24.47l251.744-257.744c19.695-19.695 19.832-51.49 0.307-71.017-19.527-19.526-51.322-19.389-71.018 0.306L764.976 590.027l-0.002-484.69c0-27.853-22.385-50.433-50-50.433-27.613 0-50 22.58-50 50.433l0.002 485.36-175.912-178.718c-19.694-19.694-51.49-19.832-71.017-0.306s-19.389 51.322 0.306 71.017l253.832 257.882zM974.451 869.097H50.452c-27.615 0-50 22.386-50 50s22.385 50 50 50h923.999c27.613 0 50-22.386 50-50s-22.387-50-50-50z" fill="#1296db" p-id="9500"></path></svg>