<?xml version="1.0" standalone="no"?><!DOCTYPE svg PUBLIC "-//W3C//DTD SVG 1.1//EN" "http://www.w3.org/Graphics/SVG/1.1/DTD/svg11.dtd"><svg t="1644235525696" class="icon" viewBox="0 0 1024 1024" version="1.1" xmlns="http://www.w3.org/2000/svg" p-id="35778" xmlns:xlink="http://www.w3.org/1999/xlink" width="200" height="200"><defs><style type="text/css"></style></defs><path d="M860 128H172a40 40 0 0 0-40 40v688a40 40 0 0 0 40 40h688a40 40 0 0 0 40-40V168a40 40 0 0 0-40-40zM736 751.7H296a4 4 0 0 1-4-4v-56a4 4 0 0 1 4-4h440a4 4 0 0 1 4 4v56a4 4 0 0 1-4 4z m32.8-363.3L547.1 611a16.2 16.2 0 0 1-22.7 0L412.2 498.3a4 4 0 0 0-5.8 0.2l-86.9 96.9a4.1 4.1 0 0 1-5.7 0.3l-41.6-37.4a4 4 0 0 1-0.4-5.6l132.1-147.4a4.1 4.1 0 0 1 5.9-0.1l123.1 123.6a4 4 0 0 0 5.7 0l184.9-185.6a4.2 4.2 0 0 1 5.7 0l39.6 39.6a3.9 3.9 0 0 1 0 5.6z" p-id="35779" fill="#1296db"></path></svg>