<?xml version="1.0" standalone="no"?><!DOCTYPE svg PUBLIC "-//W3C//DTD SVG 1.1//EN" "http://www.w3.org/Graphics/SVG/1.1/DTD/svg11.dtd"><svg t="1644224116447" class="icon" viewBox="0 0 1028 1024" version="1.1" xmlns="http://www.w3.org/2000/svg" p-id="24084" xmlns:xlink="http://www.w3.org/1999/xlink" width="200.78125" height="200"><defs><style type="text/css"></style></defs><path d="M896 64v448h-64V128H64v704h448v64H0V64h896z" p-id="24085" fill="#1296db"></path><path d="M416 480h-64v64h64v-64z m-128 0h-64v64h64v-64z m-128 0h-64v64h64v-64zM448 384H384v64h64V384z m0-128H384v64h64V256z m0-128H384v64h64V128zM854.4 576l174.528 174.592-124.8 124.8-141.312 143.104-13.312 5.504h-124.16l-13.12-5.44L512 919.04l179.712-179.712-0.384-0.32L854.4 576z m-136.384 189.632l-153.28 153.28 68.352 67.84h108.48l98.176-99.392-121.728-121.728z" p-id="24086" fill="#1296db"></path></svg>