<?xml version="1.0" standalone="no"?><!DOCTYPE svg PUBLIC "-//W3C//DTD SVG 1.1//EN" "http://www.w3.org/Graphics/SVG/1.1/DTD/svg11.dtd"><svg t="1613447595267" class="icon" viewBox="0 0 1024 1024" version="1.1" xmlns="http://www.w3.org/2000/svg" p-id="119384" xmlns:xlink="http://www.w3.org/1999/xlink" width="200" height="200"><defs><style type="text/css"></style></defs><path d="M1024 132.608H622.677333v67.072h309.930667v42.752H622.677333v69.973333h309.930667v42.666667H622.677333v68.522667h309.930667v42.752H622.677333v69.973333h309.930667v42.666667H622.677333v67.072h309.930667v42.752H622.677333v69.973333h309.930667v42.666667H622.677333v89.941333H1024V132.608zM0 108.373333L575.573333 1.109333V1024L0 911.786667V108.373333z m214.613333 376.064l-133.973333 245.76h101.205333l50.773334-105.557333c11.776-24.32 22.613333-49.493333 34.901333-78.421333h2.56c14.250667 29.013333 25.088 54.101333 37.376 78.506666l53.418667 105.472h105.728L332.629333 488.96 458.24 254.293333H357.717333l-45.056 97.792c-10.24 22.528-20.053333 45.653333-31.573333 75.264h-3.328c-14.08-29.610667-24.405333-52.736-35.413333-75.264l-47.701334-97.877333H89.002667l125.610666 230.4z" fill="#429CF6" p-id="119385"></path></svg>