<?xml version="1.0" standalone="no"?><!DOCTYPE svg PUBLIC "-//W3C//DTD SVG 1.1//EN" "http://www.w3.org/Graphics/SVG/1.1/DTD/svg11.dtd"><svg t="1616857932492" class="icon" viewBox="0 0 1032 1024" version="1.1" xmlns="http://www.w3.org/2000/svg" p-id="6961" xmlns:xlink="http://www.w3.org/1999/xlink" width="201.5625" height="200"><defs><style type="text/css"></style></defs><path d="M441.182774 75.122383c0-40.92514 34.301821-74.878366 76.063592-74.878366 40.681123 0 74.982945 33.953226 74.982945 74.878366V435.744681a75.3664 75.3664 0 0 1-74.982945 74.913225c-41.76177 0-76.063591-33.465191-76.063592-74.913225V75.122383z m334.129022 180.572596a73.274826 73.274826 0 0 1 0-105.69423 76.098451 76.098451 0 0 1 106.042825 0 610.635166 610.635166 0 0 1 63.165549 75.924153c18.196698 26.632715 34.301821 55.845038 47.095285 87.706689 12.898043 30.746145 23.565072 63.688443 30.014094 96.630741a467.501753 467.501753 0 0 1 0 203.440477 498.701072 498.701072 0 0 1-30.014094 97.188493 482.52623 482.52623 0 0 1-47.095285 87.114077 580.02846 580.02846 0 0 1-63.165549 76.481906c-23.565072 22.275268-48.175932 43.574468-76.586485 62.642655-26.737294 17.604085-56.193634 32.977157-87.288374 46.258656-31.582774 13.246638-64.176477 23.390774-98.478298 30.25811-33.744068 6.902196-68.533923 10.63217-101.755098 10.632171-34.789855 0-68.533923-3.729974-102.800885-10.632171a520.802043 520.802043 0 0 1-99.070911-30.25811 582.956664 582.956664 0 0 1-87.218655-46.258656 548.550264 548.550264 0 0 1-76.063592-62.642655 553.709481 553.709481 0 0 1-64.246195-76.481906 523.521089 523.521089 0 0 1-46.049498-87.114077c-13.94383-30.815864-24.087966-63.758162-31.059881-97.188493-6.414162-33.465191-10.66703-67.97617-10.66703-101.476222 0-33.953226 4.252868-67.941311 10.66703-101.964255 6.971915-32.942298 17.116051-65.884596 31.059881-96.630741 12.898043-31.861651 28.410553-61.073974 46.049498-87.706689a581.318264 581.318264 0 0 1 64.246195-75.924153 76.098451 76.098451 0 0 1 106.042826 0 74.250894 74.250894 0 0 1 0 105.69423c-16.070264 17.499506-31.617634 35.103591-45.003711 53.614025a386.383523 386.383523 0 0 0-33.186315 61.631728 325.867302 325.867302 0 0 0-21.438638 69.091677 381.015149 381.015149 0 0 0-6.414162 72.194178c0 25.552068 2.126434 49.95377 6.414162 72.263898 4.845481 23.913668 11.782536 46.71183 21.438638 69.091677 8.575455 20.148834 19.765379 41.378315 33.186315 60.516221 13.386077 19.103047 28.933447 37.6832 45.003711 54.171779a351.035915 351.035915 0 0 0 54.624953 44.585395 348.003132 348.003132 0 0 0 62.050043 32.977158 289.822502 289.822502 0 0 0 69.091676 21.194621c23.042179 5.333515 46.607251 7.459949 73.344545 7.459949 25.761226 0 50.372085-2.126434 72.786791-7.459949a335.244528 335.244528 0 0 0 69.64943-21.194621 379.132732 379.132732 0 0 0 61.004256-32.977158 379.132732 379.132732 0 0 0 54.624953-44.585395 390.078638 390.078638 0 0 0 43.923064-54.171779c13.94383-19.137906 25.168613-40.367387 33.709208-60.516221 10.248715-22.379847 16.593157-45.178009 21.996392-69.091677a379.620766 379.620766 0 0 0 0-144.458076c-5.403234-24.436562-11.747677-47.269583-21.996392-69.091677a350.059847 350.059847 0 0 0-33.709208-61.631728 509.054366 509.054366 0 0 0-43.923064-53.614025z" p-id="6962" fill="#1296db"></path></svg>