<?xml version="1.0" standalone="no"?><!DOCTYPE svg PUBLIC "-//W3C//DTD SVG 1.1//EN" "http://www.w3.org/Graphics/SVG/1.1/DTD/svg11.dtd"><svg t="1613637528324" class="icon" viewBox="0 0 1025 1024" version="1.1" xmlns="http://www.w3.org/2000/svg" p-id="5599" xmlns:xlink="http://www.w3.org/1999/xlink" width="200.1953125" height="200"><defs><style type="text/css"></style></defs><path d="M1024 43.008a39.377455 39.377455 0 0 1-14.708364 29.975273l-460.427636 391.912727a58.926545 58.926545 0 0 1-73.821091 0L14.708364 72.983273A39.191273 39.191273 0 0 1 0 43.008C0 31.650909 5.306182 20.852364 14.708364 12.939636L15.173818 12.567273A59.112727 59.112727 0 0 1 88.436364 13.032727L512 373.480727 935.563636 13.032727a58.833455 58.833455 0 0 1 73.728 0c9.309091 7.819636 14.708364 18.618182 14.708364 29.975273z m0 477.835636a39.377455 39.377455 0 0 1-14.708364 29.975273l-460.427636 391.912727a58.926545 58.926545 0 0 1-73.821091 0L14.708364 550.818909A39.191273 39.191273 0 0 1 0 520.936727c0-11.357091 5.306182-22.155636 14.708364-29.975272l0.465454-0.372364a59.112727 59.112727 0 0 1 73.355637 0.372364L512 851.316364l423.563636-360.448a58.833455 58.833455 0 0 1 73.728 0c9.309091 7.819636 14.708364 18.618182 14.708364 29.975272z" p-id="5600" fill="#1296db"></path></svg>