<?xml version="1.0" standalone="no"?><!DOCTYPE svg PUBLIC "-//W3C//DTD SVG 1.1//EN" "http://www.w3.org/Graphics/SVG/1.1/DTD/svg11.dtd"><svg t="1613446401448" class="icon" viewBox="0 0 1024 1024" version="1.1" xmlns="http://www.w3.org/2000/svg" p-id="41836" data-spm-anchor-id="a313x.7781069.0.i20" xmlns:xlink="http://www.w3.org/1999/xlink" width="200" height="200"><defs><style type="text/css"></style></defs><path d="M896 64a64 64 0 0 1 64 64v768a64 64 0 0 1-64 64H128a64 64 0 0 1-64-64V128a64 64 0 0 1 64-64h768z m-96 128a32 32 0 0 0-32 32v576a32 32 0 1 0 64 0v-576a32 32 0 0 0-32-32zM498.176 304.384a32 32 0 0 0-40.832 3.712l-3.648 4.416a32 32 0 0 0 3.648 40.832l126.656 126.592L224 480a32 32 0 0 0 0 64h359.488l-126.08 126.08-3.712 4.48a32 32 0 0 0 48.96 40.832l180.992-181.056 3.712-4.48a32 32 0 0 0-3.712-40.768L502.656 308.096z" p-id="41837" fill="#1296db" data-spm-anchor-id="a313x.7781069.0.i22" class="selected"></path></svg>