<?xml version="1.0" standalone="no"?><!DOCTYPE svg PUBLIC "-//W3C//DTD SVG 1.1//EN" "http://www.w3.org/Graphics/SVG/1.1/DTD/svg11.dtd"><svg t="1616851414619" class="icon" viewBox="0 0 1024 1024" version="1.1" xmlns="http://www.w3.org/2000/svg" p-id="13751" xmlns:xlink="http://www.w3.org/1999/xlink" width="200" height="200"><defs><style type="text/css"></style></defs><path d="M459.6 515.7c0-33.2-26.9-60.1-60.1-60.1s-60.2 26.9-60.2 60.1 26.9 60.1 60.2 60.1c33.1 0.1 60.1-26.8 60.1-60.1zM585.2 776.1c15.7-98.2 94.8-175.1 194-187.5l-10-32.5-50.8 16.9-44.1-83L532 695.4l-76.2-49.2-119.5 129.9h248.9z" p-id="13752" fill="#1296db"></path><path d="M259.7 829V398c0-7.7 6.2-13.9 13.9-13.9h607.1c7.7 0 13.9 6.2 13.9 13.9v206.4c23.5 9.9 44.9 23.6 63.6 40.4V351.9c0-17.4-14.1-31.4-31.4-31.4h-134l-79.3-206.2c-6.2-16.2-24.4-24.3-40.6-18.1L20.2 347.1C4 353.4-4.1 371.6 2.1 387.8l194 504.5v0.3h401.2c-7.7-20-12.6-41.3-14.3-63.6H259.7z m400.7-660c2.1-0.3 5.5-0.2 7.3 3.8l56.8 147.6H266.6L660.4 169zM196.1 715.1L77.9 407.9c-2.7-7.1 0.8-15.2 8-17.9l110.2-42.4v367.5z" p-id="13753" fill="#1296db"></path><path d="M1022.5 800L871 678.5c-2.3-1.7-5.5-0.1-5.5 2.8v75.1H670c-5.3 0-9.7 4.3-9.7 9.6v75.7c0 5.3 4.3 9.7 9.7 9.7h195.5v75.1c0 2.8 3.3 4.5 5.5 2.8l151.5-121.5c2.6-2 2.6-5.9 0-7.8z" p-id="13754" fill="#1296db"></path></svg>