<?xml version="1.0" standalone="no"?><!DOCTYPE svg PUBLIC "-//W3C//DTD SVG 1.1//EN" "http://www.w3.org/Graphics/SVG/1.1/DTD/svg11.dtd"><svg t="1613636827205" class="icon" viewBox="0 0 1024 1024" version="1.1" xmlns="http://www.w3.org/2000/svg" p-id="21230" xmlns:xlink="http://www.w3.org/1999/xlink" width="200" height="200"><defs><style type="text/css"></style></defs><path d="M158.08 362.176c19.2-45.632 47.04-87.04 82.048-121.984A380.16 380.16 0 0 1 362.176 158.08a389.76 389.76 0 0 1 294.208-1.92 119.488 119.488 0 0 0 119.616 115.84A119.68 119.68 0 0 0 896 152 119.68 119.68 0 0 0 776 32c-33.088 0-62.976 13.248-84.608 34.816a486.592 486.592 0 0 0-366.464 2.816A479.04 479.04 0 0 0 32 512H128c0-52.096 10.112-102.528 30.08-149.824z m707.84 299.712a381.12 381.12 0 0 1-82.112 121.92 380.8 380.8 0 0 1-121.984 82.112 389.76 389.76 0 0 1-294.272 1.92 119.424 119.424 0 0 0-119.552-115.84A119.68 119.68 0 0 0 128 872 119.68 119.68 0 0 0 248 992c33.088 0 62.976-13.248 84.608-34.816A478.72 478.72 0 0 0 512 992 479.168 479.168 0 0 0 992 512H896c0.128 51.456-10.112 102.4-30.08 149.824z" p-id="21231" fill="#1296db"></path><path d="M512 294.144A218.112 218.112 0 0 0 294.208 512 218.112 218.112 0 0 0 512 729.792 218.112 218.112 0 0 0 729.792 512 218.112 218.112 0 0 0 512 294.144z" p-id="21232" fill="#1296db"></path></svg>