<?xml version="1.0" standalone="no"?><!DOCTYPE svg PUBLIC "-//W3C//DTD SVG 1.1//EN" "http://www.w3.org/Graphics/SVG/1.1/DTD/svg11.dtd"><svg t="1616120997131" class="icon" viewBox="0 0 1025 1024" version="1.1" xmlns="http://www.w3.org/2000/svg" p-id="8048" xmlns:xlink="http://www.w3.org/1999/xlink" width="200.1953125" height="200"><defs><style type="text/css"></style></defs><path d="M938.977859 1024c-100.292785 0-198.718416 0-298.210992 0 0-113.362855 0-226.458974 0-340.355301-85.889034 0-170.17765 0-255.799948 0 0 112.829383 0 225.658765 0 339.821829-100.292785 0-199.251889 0-299.277937 0 0-4.534514 0-8.802292 0-13.07007 0-176.579318 0-352.891899 0.266736-529.471216 0-5.868195 3.46757-13.870279 8.002084-17.604585 138.436051-111.228966 277.138838-222.191196 416.108362-333.153425 0.533472-0.533472 1.600417-0.800208 3.200834-1.333681 45.345142 36.276114 91.223756 72.818963 136.835634 109.361813 91.490492 73.352436 182.980985 146.704871 275.004949 219.523834 10.402709 8.26882 14.403751 16.53764 14.403751 29.874446-0.533472 173.911956-0.266736 347.557176-0.266736 521.469133C938.977859 1013.864027 938.977859 1018.932014 938.977859 1024z" p-id="8049" fill="#1296db"></path><path d="M85.422245 85.889034c57.348268 0 113.096119 0 169.910914 0 0 38.410003 0 76.820005 0 119.497786 87.222714-69.61813 171.511331-137.10237 256.866892-205.386819 22.939307 18.404793 46.14535 36.809586 69.351394 55.214379 144.570982 115.76348 289.141964 231.52696 433.979682 347.023704 6.668403 5.334723 9.602501 10.135973 9.335765 18.671529-0.800208 13.603543-0.266736 27.207085-0.266736 44.011461C852.288617 327.285231 682.644439 191.516541 512.200052 55.214379 342.022402 191.516541 172.111487 327.285231 0.066684 464.921073c0-19.205001-0.266736-35.475905 0.266736-51.480073 0-3.200834 3.734306-6.668403 6.401667-9.069028 22.672571-18.404793 45.611878-36.809586 68.817921-54.680906 7.468612-5.868195 10.135973-12.003126 9.869237-21.33889C85.422245 252.599114 85.422245 177.11279 85.422245 101.626465 85.422245 96.825215 85.422245 92.023965 85.422245 85.889034z" p-id="8050" fill="#1296db"></path></svg>