<?xml version="1.0" encoding="utf-8"?>
<!-- Generator: Adobe Illustrator 24.0.0, SVG Export Plug-In . SVG Version: 6.00 Build 0)  -->
<svg version="1.1" id="图层_1" xmlns="http://www.w3.org/2000/svg" xmlns:xlink="http://www.w3.org/1999/xlink" x="0px" y="0px"
	 viewBox="0 0 200 200" style="enable-background:new 0 0 200 200;" xml:space="preserve">
<style type="text/css">
	.st0{fill:#1296DB;}
</style>
<path class="st0" d="M108.4,108.4v62.3l14.5-14.5c2.9-3.1,7.8-3.2,10.9-0.2c3.1,2.9,3.2,7.8,0.2,10.9c-0.1,0.1-0.2,0.2-0.2,0.2
	l-27.3,27.3l-0.2,0.2c-1.5,1.6-3.4,2.5-5.6,2.5c-1.9,0-3.6-0.6-5-1.9c-0.3-0.2-0.6-0.5-0.9-0.8l-27.3-27.3c-3-3-3-7.9,0-10.9
	s7.9-3,10.9,0L93,170.8v-62.4H30.6l14.5,14.5c3,3,3,7.9,0,10.9s-7.9,3-10.9,0L6.8,106.5l-0.2-0.2c-1.6-1.5-2.5-3.5-2.5-5.6
	c0-1.9,0.6-3.6,1.9-5c0.2-0.3,0.5-0.6,0.8-0.9l27.3-27.3c3-3,7.9-3,10.9,0c3,3,3,7.9,0,10.9L30.4,92.9h62.5V30.4L78.4,45
	c-3,3-7.9,3-10.9,0s-3-7.9,0-10.9L94.7,6.8C95,6.5,95.3,6.2,95.6,6c1.4-1.1,3.1-1.9,5-1.9c2.2,0,4.2,0.9,5.6,2.5l0.2,0.2l27.3,27.3
	c3,3,3,7.9,0,10.9c-3,3-7.9,3-10.9,0l-14.5-14.5v62.4h62.4l-14.6-14.6c-3-3-3-7.9,0-10.9c3-3,7.9-3,10.9,0l0,0l27.3,27.3
	c0.3,0.3,0.6,0.6,0.8,0.9c1.1,1.4,1.9,3.1,1.9,5c0,2.2-0.9,4.3-2.5,5.6l-0.2,0.2l-27.2,27.3c-3,3-7.9,3-10.9,0c-3-3-3-7.9,0-10.9
	l0,0l14.5-14.5L108.4,108.4L108.4,108.4z"/>
</svg>
