<?xml version="1.0" standalone="no"?><!DOCTYPE svg PUBLIC "-//W3C//DTD SVG 1.1//EN" "http://www.w3.org/Graphics/SVG/1.1/DTD/svg11.dtd"><svg t="1616124030522" class="icon" viewBox="0 0 1024 1024" version="1.1" xmlns="http://www.w3.org/2000/svg" p-id="37951" xmlns:xlink="http://www.w3.org/1999/xlink" width="200" height="200"><defs><style type="text/css"></style></defs><path d="M152.365633 555.145394a154.587346 154.587346 0 0 0 39.497121 66.761107C221.21131 651.245914 260.251289 667.428762 301.759838 667.428762c41.508549 0 80.548528-16.164563 109.897084-45.531404A154.660489 154.660489 0 0 0 450.40433 557.714536H978.330904c25.206844 0 45.714261-20.470846 45.714262-45.714262 0-25.197701-20.470846-45.714261-45.714262-45.714261H450.395187a154.669631 154.669631 0 0 0-38.729122-64.182823A154.413632 154.413632 0 0 0 301.759838 356.571786c-41.508549 0-80.548528 16.164563-109.897084 45.531404a154.587346 154.587346 0 0 0-39.497121 66.761107A45.48569 45.48569 0 0 0 137.234212 466.286013H45.714261a45.723404 45.723404 0 0 0 0 91.428523h91.519951c5.302854 0 10.395423-0.905142 15.131421-2.569142z m719.359614 270.280998a154.596489 154.596489 0 0 0-39.497121-66.761107A154.413632 154.413632 0 0 0 722.331042 713.143024c-41.508549 0-80.548528 16.164563-109.897084 45.531404A154.660489 154.660489 0 0 0 573.68655 822.857251H45.759976c-25.206844 0-45.714261 20.470846-45.714262 45.714261 0 25.197701 20.470846 45.714261 45.714262 45.714261h527.935717a154.660489 154.660489 0 0 0 38.729122 64.182823C641.782513 1007.84458 680.822492 1024 722.331042 1024c41.508549 0 80.548528-16.164563 109.897084-45.531404a154.587346 154.587346 0 0 0 39.497121-66.761107 45.48569 45.48569 0 0 0 15.131421 2.578284h91.519951a45.723404 45.723404 0 0 0 0-91.428522h-91.519951c-5.302854 0-10.395423 0.905142-15.131421 2.569141z m0-713.142475a154.596489 154.596489 0 0 0-39.497121-66.761107A154.413632 154.413632 0 0 0 722.331042 0.000549c-41.508549 0-80.548528 16.164563-109.897084 45.531404A154.660489 154.660489 0 0 0 573.68655 109.714776H45.759976c-25.206844 0-45.714261 20.470846-45.714262 45.714261 0 25.197701 20.470846 45.714261 45.714262 45.714261h527.935717a154.660489 154.660489 0 0 0 38.729122 64.182823C641.782513 294.702105 680.822492 310.857525 722.331042 310.857525c41.508549 0 80.548528-16.164563 109.897084-45.531404a154.587346 154.587346 0 0 0 39.497121-66.761107 45.48569 45.48569 0 0 0 15.131421 2.578284h91.519951a45.723404 45.723404 0 0 0 0-91.428522h-91.519951c-5.302854 0-10.395423 0.905142-15.131421 2.569141zM347.016957 557.257393A63.579395 63.579395 0 0 1 301.759838 576.00024a63.579395 63.579395 0 0 1-45.257118-18.742847A63.579395 63.579395 0 0 1 237.759873 512.000274c0-17.097134 6.655996-33.170268 18.742847-45.257118A63.579395 63.579395 0 0 1 301.759838 448.000309c17.097134 0 33.170268 6.655996 45.257119 18.742847A63.579395 63.579395 0 0 1 365.759804 512.000274c0 17.097134-6.655996 33.170268-18.742847 45.257119z m420.571203 356.571237A63.579395 63.579395 0 0 1 722.331042 932.571478a63.579395 63.579395 0 0 1-45.257119-18.742848A63.579395 63.579395 0 0 1 658.331076 868.571512c0-17.097134 6.655996-33.170268 18.742847-45.257119A63.579395 63.579395 0 0 1 722.331042 804.571546c17.097134 0 33.170268 6.655996 45.257118 18.742847A63.579395 63.579395 0 0 1 786.331007 868.571512c0 17.097134-6.655996 33.170268-18.742847 45.257118z m0-713.142475A63.579395 63.579395 0 0 1 722.331042 219.429002a63.579395 63.579395 0 0 1-45.257119-18.742847A63.579395 63.579395 0 0 1 658.331076 155.429037c0-17.097134 6.655996-33.170268 18.742847-45.257119A63.579395 63.579395 0 0 1 722.331042 91.429071c17.097134 0 33.170268 6.655996 45.257118 18.742847A63.579395 63.579395 0 0 1 786.331007 155.429037c0 17.097134-6.655996 33.170268-18.742847 45.257118z" fill="#1296db" p-id="37952"></path></svg>