<?xml version="1.0" standalone="no"?><!DOCTYPE svg PUBLIC "-//W3C//DTD SVG 1.1//EN" "http://www.w3.org/Graphics/SVG/1.1/DTD/svg11.dtd"><svg t="1613447653972" class="icon" viewBox="0 0 1107 1024" version="1.1" xmlns="http://www.w3.org/2000/svg" p-id="125131" xmlns:xlink="http://www.w3.org/1999/xlink" width="216.2109375" height="200"><defs><style type="text/css"></style></defs><path d="M123.27786594 952.73424776c-20.91839063-13.13480303-39.89088369-34.05319365-48.16094589-54.97158429-6.81063838-15.56717432-7.78358672-56.43100635-7.78358672-300.64105107 0-277.77676464 0-282.64150635 10.21595801-304.0463707 5.83769004-12.16185469 18.48601934-28.70197734 28.21550361-36.97203868 35.51261572-29.18845195 23.35076104-28.70197734 500.09547041-28.70197734h434.4214544v325.93770967c0 359.50442872 0.97294834 345.39667734-30.64787403 378.47692178-30.64787403 32.10729697-1.45942295 30.16140029-456.79926797 30.16140029-396.96294199 0-415.44896133-0.48647461-429.55671182-9.24300966z m834.30324054-244.69651934c32.10729697-16.54012266 45.2421-38.43146162 42.32325497-71.51170605-2.43237128-35.51261572-22.3778127-53.99863506-72.48465439-68.59286192-51.56626465-15.08069971-67.13343896-22.86428731-67.13343896-33.56671904 0-12.16185469 10.21595801-19.94544229 30.16140029-22.86428731 21.40486435-3.40531963 41.83678037 4.8647417 47.67447041 19.94544228 4.37826797 11.18890635 7.29711299 12.16185469 31.62082324 12.16185469 26.75608067 0 26.75608067 0 23.83723477-13.13480302-9.72948428-42.32325498-42.32325498-64.70106768-92.91657041-64.70106768-55.45805801 0-89.02477705 24.81018398-89.02477794 66.16049062 0 43.78267705 19.45896768 61.78222266 85.13298458 79.78176739 43.78267705 11.67538096 51.07979004 16.05364805 51.07979003 31.62082236 0 37.94498701-73.45760273 41.35030664-91.45714833 3.89179336-7.78358672-16.54012266-9.24300967-17.02659638-29.18845196-14.59422509-11.67538096 0.97294834-22.3778127 3.40531963-23.83723564 5.35121542-6.32416465 5.83769004 8.75653506 41.35030664 23.83723564 55.94453262 18.97249395 18.48601934 35.51261572 23.83723565 76.86292237 24.32370938 24.32370937 0.48647461 37.45851328-2.43237128 53.51216133-10.21595801z m-788.08819219-47.67447042v-53.51216132h92.43009667v107.02432178h53.51216045V470.63832207H261.92301096v97.29483838H169.49291429V470.63832207H115.98075297v243.23709639h53.51216132v-53.51216046z m334.20777011 47.18799669c21.40486435-8.27006133 37.94498701-23.83723565 51.07979005-48.16094591 9.24300967-17.51307099 10.70243262-28.70197734 10.70243261-67.13343808 0-51.07979004-7.29711299-72.97112901-34.53966738-98.2677876-20.91839063-19.94544229-35.99909033-23.35076104-106.53784893-23.35076103H359.21784935v243.23709639l64.70106767-0.48647374c35.99909033 0 71.02523231-2.91884502 79.78176738-5.83769003z m152.26642266-44.75562627v-51.07979004h102.15958096v-38.91793535h-102.15958096V509.55625742h121.61854864v-38.91793535h-175.13070997v243.23709639h53.51216133v-51.07979004z" fill="#1296db" p-id="125132"></path><path d="M412.73001067 591.77039609V508.09683535l35.02614199 2.43237041c31.13434863 2.43237128 36.48556406 4.37826797 48.16094502 17.51307099 15.08069971 17.02659638 22.3778127 54.9715834 16.54012266 89.51125167-7.78358672 44.75562539-23.83723565 57.40395469-73.45760362 57.40395468h-26.26960605v-83.18708701zM568.40175208 195.29392871c0-6.32416465 58.86337763-92.91657129 71.51170693-105.07842509 28.70197734-27.2425544 35.026142-28.21550362 217.45396406-28.21550362 145.94225801 0 168.80654531 0.97294834 175.1307091 7.78358672 6.32416465 5.83769004 7.78358672 19.45896768 7.78358759 68.1063873v60.32279971h-235.93998341c-129.88860997 0-235.93998339-1.45942295-235.93998427-2.91884502z" fill="#1296db" p-id="125133"></path></svg>