<?xml version="1.0" standalone="no"?><!DOCTYPE svg PUBLIC "-//W3C//DTD SVG 1.1//EN" "http://www.w3.org/Graphics/SVG/1.1/DTD/svg11.dtd"><svg t="1633661361246" class="icon" viewBox="0 0 1024 1024" version="1.1" xmlns="http://www.w3.org/2000/svg" p-id="9547" xmlns:xlink="http://www.w3.org/1999/xlink" width="200" height="200"><defs><style type="text/css"></style></defs><path d="M512 149.333333c200.298667 0 362.666667 162.368 362.666667 362.666667s-162.368 362.666667-362.666667 362.666667S149.333333 712.298667 149.333333 512 311.701333 149.333333 512 149.333333z m39.658667 490.666667h-59.968v64h59.968v-64z m-3.541334-316.757333c-38.741333-7.850667-80.704-2.730667-110.485333 29.162666C411.050667 380.949333 405.333333 403.541333 405.333333 453.376h59.733334v-14.506667c0.277333-25.578667 4.586667-51.946667 41.962666-59.306666a60.373333 60.373333 0 0 1 52.821334 13.568c13.312 12.821333 13.610667 41.856-7.893334 56.32l-33.664 22.4-3.776 2.496c-16.789333 11.669333-22.826667 24.832-22.826666 43.648V597.333333h59.968v-57.514666l0.106666-2.816c0.853333-11.306667 6.997333-21.909333 21.525334-31.189334 15.722667-10.048 59.605333-30.378667 59.605333-84.117333 0-53.717333-46.058667-90.645333-84.778667-98.453333z" p-id="9548" fill="#1296db"></path></svg>