<?xml version="1.0" standalone="no"?><!DOCTYPE svg PUBLIC "-//W3C//DTD SVG 1.1//EN" "http://www.w3.org/Graphics/SVG/1.1/DTD/svg11.dtd"><svg t="1613447156473" class="icon" viewBox="0 0 1024 1024" version="1.1" xmlns="http://www.w3.org/2000/svg" p-id="98960" xmlns:xlink="http://www.w3.org/1999/xlink" width="200" height="200"><defs><style type="text/css"></style></defs><path d="M560.63 138.65c-13.14-6.18-28.65-4.14-39.81 5.13l-215.19 179.1-171.66-0.69c-9.87 0-19.38 3.9-26.37 10.89a37.252 37.252 0 0 0-11.04 26.46l-0.78 299.31c0 9.96 3.9 19.5 10.92 26.52 6.99 7.08 16.53 11.01 26.49 11.01h173.55l214.11 178.44c6.84 5.7 15.39 8.64 23.94 8.64 5.4 0 10.8-1.17 15.87-3.54a37.393 37.393 0 0 0 21.54-33.87V172.52c0-14.49-8.4-27.69-21.57-33.87z m145.08 187.08c-18.45-8.73-40.38-0.78-49.35 17.58-8.94 18.42-1.2 40.71 17.1 49.92 2.37 1.23 58.41 30.36 58.41 113.31 0 88.62-52.41 117.99-54.15 118.95-18.48 9.24-25.98 31.74-16.74 50.22 6.6 13.14 19.77 20.7 33.54 20.7 5.61 0 11.34-1.26 16.68-3.93 3.9-1.98 95.49-49.38 95.49-185.94 0-131.76-96.87-178.86-100.98-180.81zM822.2 215.84c-17.25-11.07-40.14-6.03-51.42 11.19-11.22 17.22-6.3 40.38 10.86 51.72 4.05 2.67 99.9 67.98 99.9 230.55 0 162.93-91.95 228.3-95.61 230.79-17.22 11.49-21.84 34.68-10.38 51.9 7.2 10.8 19.08 16.65 31.17 16.65 7.11 0 14.34-2.07 20.73-6.3 5.25-3.48 128.91-88.26 128.91-293.07 0-205.2-128.67-289.92-134.16-293.43z m0 0z" fill="#1296db" p-id="98961"></path></svg>