<?xml version="1.0" standalone="no"?><!DOCTYPE svg PUBLIC "-//W3C//DTD SVG 1.1//EN" "http://www.w3.org/Graphics/SVG/1.1/DTD/svg11.dtd"><svg t="1633601679776" class="icon" viewBox="0 0 1024 1024" version="1.1" xmlns="http://www.w3.org/2000/svg" p-id="14471" xmlns:xlink="http://www.w3.org/1999/xlink" width="200" height="200"><defs><style type="text/css"></style></defs><path d="M853.333333 128a42.666667 42.666667 0 0 1 42.666667 42.666667v682.666666a42.666667 42.666667 0 0 1-42.666667 42.666667h-256a42.666667 42.666667 0 0 1-42.666666-42.666667V170.666667a42.666667 42.666667 0 0 1 42.666666-42.666667h256z m-42.666666 85.333333h-170.666667v597.333334h170.666667V213.333333zM256 298.666667a213.333333 213.333333 0 1 1-0.042667 426.709333A213.333333 213.333333 0 0 1 256 298.666667z m42.666667 85.333333H213.333333v85.290667L128 469.333333v85.333334l85.333333-0.042667V640h85.333334v-85.376L384 554.666667v-85.333334l-85.333333-0.042666V384z" p-id="14472" fill="#1296db"></path></svg>