<?xml version="1.0" encoding="utf-8" standalone="no"?>
<!DOCTYPE svg PUBLIC "-//W3C//DTD SVG 1.1//EN"
  "http://www.w3.org/Graphics/SVG/1.1/DTD/svg11.dtd">
<svg xmlns:xlink="http://www.w3.org/1999/xlink" width="141.732283pt" height="141.732283pt" viewBox="0 0 141.732283 141.732283" xmlns="http://www.w3.org/2000/svg" version="1.1">
 <metadata>
  <rdf:RDF xmlns:dc="http://purl.org/dc/elements/1.1/" xmlns:cc="http://creativecommons.org/ns#" xmlns:rdf="http://www.w3.org/1999/02/22-rdf-syntax-ns#">
   <cc:Work>
    <dc:type rdf:resource="http://purl.org/dc/dcmitype/StillImage"/>
    <dc:date>2022-04-09T10:39:25.337390</dc:date>
    <dc:format>image/svg+xml</dc:format>
    <dc:creator>
     <cc:Agent>
      <dc:title>Matplotlib v3.5.1, https://matplotlib.org/</dc:title>
     </cc:Agent>
    </dc:creator>
   </cc:Work>
  </rdf:RDF>
 </metadata>
 <defs>
  <style type="text/css">*{stroke-linejoin: round; stroke-linecap: butt}</style>
 </defs>
 <g id="figure_1">
  <g id="patch_1">
   <path d="M 0 141.732283 
L 141.732283 141.732283 
L 141.732283 0 
L 0 0 
z
" style="fill: #ffffff"/>
  </g>
  <g id="axes_1">
   <g id="patch_2">
    <path d="M 2.834646 140.314961 
L 138.897638 140.314961 
L 138.897638 1.417323 
L 2.834646 1.417323 
z
" style="fill: #ffffff"/>
   </g>
   <g id="PolyCollection_1">
    <defs>
     <path id="m1bf38ceb6f" d="M 9.019327 -1.505363 
L 9.019327 -1.417323 
L 9.5809 -1.417323 
L 10.142473 -1.417323 
L 10.704045 -1.417323 
L 11.265618 -1.417323 
L 11.827191 -1.417323 
L 12.388763 -1.417323 
L 12.950336 -1.417323 
L 13.511909 -1.417323 
L 14.073481 -1.417323 
L 14.635054 -1.417323 
L 15.196627 -1.417323 
L 15.7582 -1.417323 
L 16.319772 -1.417323 
L 16.881345 -1.417323 
L 17.442918 -1.417323 
L 18.00449 -1.417323 
L 18.566063 -1.417323 
L 19.127636 -1.417323 
L 19.689208 -1.417323 
L 20.250781 -1.417323 
L 20.812354 -1.417323 
L 21.373926 -1.417323 
L 21.935499 -1.417323 
L 22.497072 -1.417323 
L 23.058645 -1.417323 
L 23.620217 -1.417323 
L 24.18179 -1.417323 
L 24.743363 -1.417323 
L 25.304935 -1.417323 
L 25.866508 -1.417323 
L 26.428081 -1.417323 
L 26.989653 -1.417323 
L 27.551226 -1.417323 
L 28.112799 -1.417323 
L 28.674372 -1.417323 
L 29.235944 -1.417323 
L 29.797517 -1.417323 
L 30.35909 -1.417323 
L 30.920662 -1.417323 
L 31.482235 -1.417323 
L 32.043808 -1.417323 
L 32.60538 -1.417323 
L 33.166953 -1.417323 
L 33.728526 -1.417323 
L 34.290099 -1.417323 
L 34.851671 -1.417323 
L 35.413244 -1.417323 
L 35.974817 -1.417323 
L 36.536389 -1.417323 
L 37.097962 -1.417323 
L 37.659535 -1.417323 
L 38.221107 -1.417323 
L 38.78268 -1.417323 
L 39.344253 -1.417323 
L 39.905826 -1.417323 
L 40.467398 -1.417323 
L 41.028971 -1.417323 
L 41.590544 -1.417323 
L 42.152116 -1.417323 
L 42.713689 -1.417323 
L 43.275262 -1.417323 
L 43.836834 -1.417323 
L 44.398407 -1.417323 
L 44.95998 -1.417323 
L 45.521553 -1.417323 
L 46.083125 -1.417323 
L 46.644698 -1.417323 
L 47.206271 -1.417323 
L 47.767843 -1.417323 
L 48.329416 -1.417323 
L 48.890989 -1.417323 
L 49.452561 -1.417323 
L 50.014134 -1.417323 
L 50.575707 -1.417323 
L 51.137279 -1.417323 
L 51.698852 -1.417323 
L 52.260425 -1.417323 
L 52.821998 -1.417323 
L 53.38357 -1.417323 
L 53.945143 -1.417323 
L 54.506716 -1.417323 
L 55.068288 -1.417323 
L 55.629861 -1.417323 
L 56.191434 -1.417323 
L 56.753006 -1.417323 
L 57.314579 -1.417323 
L 57.876152 -1.417323 
L 58.437725 -1.417323 
L 58.999297 -1.417323 
L 59.56087 -1.417323 
L 60.122443 -1.417323 
L 60.684015 -1.417323 
L 61.245588 -1.417323 
L 61.807161 -1.417323 
L 62.368733 -1.417323 
L 62.930306 -1.417323 
L 63.491879 -1.417323 
L 64.053452 -1.417323 
L 64.615024 -1.417323 
L 65.176597 -1.417323 
L 65.73817 -1.417323 
L 66.299742 -1.417323 
L 66.861315 -1.417323 
L 67.422888 -1.417323 
L 67.98446 -1.417323 
L 68.546033 -1.417323 
L 69.107606 -1.417323 
L 69.669179 -1.417323 
L 70.230751 -1.417323 
L 70.792324 -1.417323 
L 71.353897 -1.417323 
L 71.915469 -1.417323 
L 72.477042 -1.417323 
L 73.038615 -1.417323 
L 73.600187 -1.417323 
L 74.16176 -1.417323 
L 74.723333 -1.417323 
L 75.284906 -1.417323 
L 75.846478 -1.417323 
L 76.408051 -1.417323 
L 76.969624 -1.417323 
L 77.531196 -1.417323 
L 78.092769 -1.417323 
L 78.654342 -1.417323 
L 79.215914 -1.417323 
L 79.777487 -1.417323 
L 80.33906 -1.417323 
L 80.900632 -1.417323 
L 81.462205 -1.417323 
L 82.023778 -1.417323 
L 82.585351 -1.417323 
L 83.146923 -1.417323 
L 83.708496 -1.417323 
L 84.270069 -1.417323 
L 84.831641 -1.417323 
L 85.393214 -1.417323 
L 85.954787 -1.417323 
L 86.516359 -1.417323 
L 87.077932 -1.417323 
L 87.639505 -1.417323 
L 88.201078 -1.417323 
L 88.76265 -1.417323 
L 89.324223 -1.417323 
L 89.885796 -1.417323 
L 90.447368 -1.417323 
L 91.008941 -1.417323 
L 91.570514 -1.417323 
L 92.132086 -1.417323 
L 92.693659 -1.417323 
L 93.255232 -1.417323 
L 93.816805 -1.417323 
L 94.378377 -1.417323 
L 94.93995 -1.417323 
L 95.501523 -1.417323 
L 96.063095 -1.417323 
L 96.624668 -1.417323 
L 97.186241 -1.417323 
L 97.747813 -1.417323 
L 98.309386 -1.417323 
L 98.870959 -1.417323 
L 99.432532 -1.417323 
L 99.994104 -1.417323 
L 100.555677 -1.417323 
L 101.11725 -1.417323 
L 101.678822 -1.417323 
L 102.240395 -1.417323 
L 102.801968 -1.417323 
L 103.36354 -1.417323 
L 103.925113 -1.417323 
L 104.486686 -1.417323 
L 105.048258 -1.417323 
L 105.609831 -1.417323 
L 106.171404 -1.417323 
L 106.732977 -1.417323 
L 107.294549 -1.417323 
L 107.856122 -1.417323 
L 108.417695 -1.417323 
L 108.979267 -1.417323 
L 109.54084 -1.417323 
L 110.102413 -1.417323 
L 110.663985 -1.417323 
L 111.225558 -1.417323 
L 111.787131 -1.417323 
L 112.348704 -1.417323 
L 112.910276 -1.417323 
L 113.471849 -1.417323 
L 114.033422 -1.417323 
L 114.594994 -1.417323 
L 115.156567 -1.417323 
L 115.71814 -1.417323 
L 116.279712 -1.417323 
L 116.841285 -1.417323 
L 117.402858 -1.417323 
L 117.964431 -1.417323 
L 118.526003 -1.417323 
L 119.087576 -1.417323 
L 119.649149 -1.417323 
L 120.210721 -1.417323 
L 120.772294 -1.417323 
L 120.772294 -1.529578 
L 120.772294 -1.529578 
L 120.210721 -1.556885 
L 119.649149 -1.590028 
L 119.087576 -1.630055 
L 118.526003 -1.678148 
L 117.964431 -1.735643 
L 117.402858 -1.804029 
L 116.841285 -1.884957 
L 116.279712 -1.980244 
L 115.71814 -2.091867 
L 115.156567 -2.221965 
L 114.594994 -2.372827 
L 114.033422 -2.546877 
L 113.471849 -2.74666 
L 112.910276 -2.974816 
L 112.348704 -3.234048 
L 111.787131 -3.527093 
L 111.225558 -3.856674 
L 110.663985 -4.22546 
L 110.102413 -4.636014 
L 109.54084 -5.090739 
L 108.979267 -5.591824 
L 108.417695 -6.141183 
L 107.856122 -6.740403 
L 107.294549 -7.390682 
L 106.732977 -8.092787 
L 106.171404 -8.846996 
L 105.609831 -9.653068 
L 105.048258 -10.510207 
L 104.486686 -11.417045 
L 103.925113 -12.37163 
L 103.36354 -13.371431 
L 102.801968 -14.413355 
L 102.240395 -15.493775 
L 101.678822 -16.608577 
L 101.11725 -17.753215 
L 100.555677 -18.922778 
L 99.994104 -20.11207 
L 99.432532 -21.315698 
L 98.870959 -22.528167 
L 98.309386 -23.743975 
L 97.747813 -24.957721 
L 97.186241 -26.164196 
L 96.624668 -27.358487 
L 96.063095 -28.536064 
L 95.501523 -29.692866 
L 94.93995 -30.825369 
L 94.378377 -31.930654 
L 93.816805 -33.006445 
L 93.255232 -34.051152 
L 92.693659 -35.063881 
L 92.132086 -36.044438 
L 91.570514 -36.993321 
L 91.008941 -37.911685 
L 90.447368 -38.801307 
L 89.885796 -39.664529 
L 89.324223 -40.504193 
L 88.76265 -41.323569 
L 88.201078 -42.126273 
L 87.639505 -42.916177 
L 87.077932 -43.697324 
L 86.516359 -44.47383 
L 85.954787 -45.249797 
L 85.393214 -46.029223 
L 84.831641 -46.815919 
L 84.270069 -47.61343 
L 83.708496 -48.424968 
L 83.146923 -49.253347 
L 82.585351 -50.100937 
L 82.023778 -50.969622 
L 81.462205 -51.860773 
L 80.900632 -52.775229 
L 80.33906 -53.713295 
L 79.777487 -54.674744 
L 79.215914 -55.658836 
L 78.654342 -56.664334 
L 78.092769 -57.689544 
L 77.531196 -58.732341 
L 76.969624 -59.79022 
L 76.408051 -60.860327 
L 75.846478 -61.939511 
L 75.284906 -63.024361 
L 74.723333 -64.111245 
L 74.16176 -65.19635 
L 73.600187 -66.275709 
L 73.038615 -67.345233 
L 72.477042 -68.400733 
L 71.915469 -69.43794 
L 71.353897 -70.452521 
L 70.792324 -71.440094 
L 70.230751 -72.396243 
L 69.669179 -73.316527 
L 69.107606 -74.196503 
L 68.546033 -75.031738 
L 67.98446 -75.817837 
L 67.422888 -76.550466 
L 66.861315 -77.225389 
L 66.299742 -77.838505 
L 65.73817 -78.385894 
L 65.176597 -78.863864 
L 64.615024 -79.269005 
L 64.053452 -79.598249 
L 63.491879 -79.84892 
L 62.930306 -80.018798 
L 62.368733 -80.106169 
L 61.807161 -80.109877 
L 61.245588 -80.029369 
L 60.684015 -79.864729 
L 60.122443 -79.616706 
L 59.56087 -79.286733 
L 58.999297 -78.876926 
L 58.437725 -78.39008 
L 57.876152 -77.829643 
L 57.314579 -77.199686 
L 56.753006 -76.504848 
L 56.191434 -75.750277 
L 55.629861 -74.941556 
L 55.068288 -74.084616 
L 54.506716 -73.185643 
L 53.945143 -72.250968 
L 53.38357 -71.286962 
L 52.821998 -70.299918 
L 52.260425 -69.295936 
L 51.698852 -68.280804 
L 51.137279 -67.259884 
L 50.575707 -66.238008 
L 50.014134 -65.219375 
L 49.452561 -64.20747 
L 48.890989 -63.204984 
L 48.329416 -62.213766 
L 47.767843 -61.234783 
L 47.206271 -60.268103 
L 46.644698 -59.312905 
L 46.083125 -58.367509 
L 45.521553 -57.429424 
L 44.95998 -56.495429 
L 44.398407 -55.561663 
L 43.836834 -54.623744 
L 43.275262 -53.676899 
L 42.713689 -52.716107 
L 42.152116 -51.736254 
L 41.590544 -50.732287 
L 41.028971 -49.699379 
L 40.467398 -48.633079 
L 39.905826 -47.529458 
L 39.344253 -46.385248 
L 38.78268 -45.197949 
L 38.221107 -43.965935 
L 37.659535 -42.688522 
L 37.097962 -41.366017 
L 36.536389 -39.999742 
L 35.974817 -38.592026 
L 35.413244 -37.146179 
L 34.851671 -35.66643 
L 34.290099 -34.157853 
L 33.728526 -32.626261 
L 33.166953 -31.078095 
L 32.60538 -29.520288 
L 32.043808 -27.960128 
L 31.482235 -26.405108 
L 30.920662 -24.862785 
L 30.35909 -23.340629 
L 29.797517 -21.845888 
L 29.235944 -20.385461 
L 28.674372 -18.965782 
L 28.112799 -17.592719 
L 27.551226 -16.271497 
L 26.989653 -15.006629 
L 26.428081 -13.801873 
L 25.866508 -12.660206 
L 25.304935 -11.583821 
L 24.743363 -10.57413 
L 24.18179 -9.631794 
L 23.620217 -8.756762 
L 23.058645 -7.948321 
L 22.497072 -7.205162 
L 21.935499 -6.52544 
L 21.373926 -5.906852 
L 20.812354 -5.346714 
L 20.250781 -4.842031 
L 19.689208 -4.389575 
L 19.127636 -3.985955 
L 18.566063 -3.627685 
L 18.00449 -3.311244 
L 17.442918 -3.033127 
L 16.881345 -2.789899 
L 16.319772 -2.57823 
L 15.7582 -2.394931 
L 15.196627 -2.236979 
L 14.635054 -2.101537 
L 14.073481 -1.985965 
L 13.511909 -1.887832 
L 12.950336 -1.804912 
L 12.388763 -1.73519 
L 11.827191 -1.676851 
L 11.265618 -1.628274 
L 10.704045 -1.588024 
L 10.142473 -1.554834 
L 9.5809 -1.527601 
L 9.019327 -1.505363 
z
" style="stroke: #ff7f0e; stroke-opacity: 0.521569"/>
    </defs>
    <g clip-path="url(#p7238ff34f2)">
     <use xlink:href="#m1bf38ceb6f" x="0" y="141.732283" style="fill: #ff7f0e; fill-opacity: 0.521569; stroke: #ff7f0e; stroke-opacity: 0.521569"/>
    </g>
   </g>
   <g id="PolyCollection_2">
    <defs>
     <path id="m544b64a5c6" d="M 20.232233 -1.508456 
L 20.232233 -1.417323 
L 20.797463 -1.417323 
L 21.362693 -1.417323 
L 21.927923 -1.417323 
L 22.493153 -1.417323 
L 23.058382 -1.417323 
L 23.623612 -1.417323 
L 24.188842 -1.417323 
L 24.754072 -1.417323 
L 25.319301 -1.417323 
L 25.884531 -1.417323 
L 26.449761 -1.417323 
L 27.014991 -1.417323 
L 27.58022 -1.417323 
L 28.14545 -1.417323 
L 28.71068 -1.417323 
L 29.27591 -1.417323 
L 29.841139 -1.417323 
L 30.406369 -1.417323 
L 30.971599 -1.417323 
L 31.536829 -1.417323 
L 32.102059 -1.417323 
L 32.667288 -1.417323 
L 33.232518 -1.417323 
L 33.797748 -1.417323 
L 34.362978 -1.417323 
L 34.928207 -1.417323 
L 35.493437 -1.417323 
L 36.058667 -1.417323 
L 36.623897 -1.417323 
L 37.189126 -1.417323 
L 37.754356 -1.417323 
L 38.319586 -1.417323 
L 38.884816 -1.417323 
L 39.450045 -1.417323 
L 40.015275 -1.417323 
L 40.580505 -1.417323 
L 41.145735 -1.417323 
L 41.710964 -1.417323 
L 42.276194 -1.417323 
L 42.841424 -1.417323 
L 43.406654 -1.417323 
L 43.971884 -1.417323 
L 44.537113 -1.417323 
L 45.102343 -1.417323 
L 45.667573 -1.417323 
L 46.232803 -1.417323 
L 46.798032 -1.417323 
L 47.363262 -1.417323 
L 47.928492 -1.417323 
L 48.493722 -1.417323 
L 49.058951 -1.417323 
L 49.624181 -1.417323 
L 50.189411 -1.417323 
L 50.754641 -1.417323 
L 51.31987 -1.417323 
L 51.8851 -1.417323 
L 52.45033 -1.417323 
L 53.01556 -1.417323 
L 53.58079 -1.417323 
L 54.146019 -1.417323 
L 54.711249 -1.417323 
L 55.276479 -1.417323 
L 55.841709 -1.417323 
L 56.406938 -1.417323 
L 56.972168 -1.417323 
L 57.537398 -1.417323 
L 58.102628 -1.417323 
L 58.667857 -1.417323 
L 59.233087 -1.417323 
L 59.798317 -1.417323 
L 60.363547 -1.417323 
L 60.928776 -1.417323 
L 61.494006 -1.417323 
L 62.059236 -1.417323 
L 62.624466 -1.417323 
L 63.189695 -1.417323 
L 63.754925 -1.417323 
L 64.320155 -1.417323 
L 64.885385 -1.417323 
L 65.450615 -1.417323 
L 66.015844 -1.417323 
L 66.581074 -1.417323 
L 67.146304 -1.417323 
L 67.711534 -1.417323 
L 68.276763 -1.417323 
L 68.841993 -1.417323 
L 69.407223 -1.417323 
L 69.972453 -1.417323 
L 70.537682 -1.417323 
L 71.102912 -1.417323 
L 71.668142 -1.417323 
L 72.233372 -1.417323 
L 72.798601 -1.417323 
L 73.363831 -1.417323 
L 73.929061 -1.417323 
L 74.494291 -1.417323 
L 75.059521 -1.417323 
L 75.62475 -1.417323 
L 76.18998 -1.417323 
L 76.75521 -1.417323 
L 77.32044 -1.417323 
L 77.885669 -1.417323 
L 78.450899 -1.417323 
L 79.016129 -1.417323 
L 79.581359 -1.417323 
L 80.146588 -1.417323 
L 80.711818 -1.417323 
L 81.277048 -1.417323 
L 81.842278 -1.417323 
L 82.407507 -1.417323 
L 82.972737 -1.417323 
L 83.537967 -1.417323 
L 84.103197 -1.417323 
L 84.668426 -1.417323 
L 85.233656 -1.417323 
L 85.798886 -1.417323 
L 86.364116 -1.417323 
L 86.929346 -1.417323 
L 87.494575 -1.417323 
L 88.059805 -1.417323 
L 88.625035 -1.417323 
L 89.190265 -1.417323 
L 89.755494 -1.417323 
L 90.320724 -1.417323 
L 90.885954 -1.417323 
L 91.451184 -1.417323 
L 92.016413 -1.417323 
L 92.581643 -1.417323 
L 93.146873 -1.417323 
L 93.712103 -1.417323 
L 94.277332 -1.417323 
L 94.842562 -1.417323 
L 95.407792 -1.417323 
L 95.973022 -1.417323 
L 96.538252 -1.417323 
L 97.103481 -1.417323 
L 97.668711 -1.417323 
L 98.233941 -1.417323 
L 98.799171 -1.417323 
L 99.3644 -1.417323 
L 99.92963 -1.417323 
L 100.49486 -1.417323 
L 101.06009 -1.417323 
L 101.625319 -1.417323 
L 102.190549 -1.417323 
L 102.755779 -1.417323 
L 103.321009 -1.417323 
L 103.886238 -1.417323 
L 104.451468 -1.417323 
L 105.016698 -1.417323 
L 105.581928 -1.417323 
L 106.147157 -1.417323 
L 106.712387 -1.417323 
L 107.277617 -1.417323 
L 107.842847 -1.417323 
L 108.408077 -1.417323 
L 108.973306 -1.417323 
L 109.538536 -1.417323 
L 110.103766 -1.417323 
L 110.668996 -1.417323 
L 111.234225 -1.417323 
L 111.799455 -1.417323 
L 112.364685 -1.417323 
L 112.929915 -1.417323 
L 113.495144 -1.417323 
L 114.060374 -1.417323 
L 114.625604 -1.417323 
L 115.190834 -1.417323 
L 115.756063 -1.417323 
L 116.321293 -1.417323 
L 116.886523 -1.417323 
L 117.451753 -1.417323 
L 118.016982 -1.417323 
L 118.582212 -1.417323 
L 119.147442 -1.417323 
L 119.712672 -1.417323 
L 120.277902 -1.417323 
L 120.843131 -1.417323 
L 121.408361 -1.417323 
L 121.973591 -1.417323 
L 122.538821 -1.417323 
L 123.10405 -1.417323 
L 123.66928 -1.417323 
L 124.23451 -1.417323 
L 124.79974 -1.417323 
L 125.364969 -1.417323 
L 125.930199 -1.417323 
L 126.495429 -1.417323 
L 127.060659 -1.417323 
L 127.625888 -1.417323 
L 128.191118 -1.417323 
L 128.756348 -1.417323 
L 129.321578 -1.417323 
L 129.886808 -1.417323 
L 130.452037 -1.417323 
L 131.017267 -1.417323 
L 131.582497 -1.417323 
L 132.147727 -1.417323 
L 132.712956 -1.417323 
L 132.712956 -1.476675 
L 132.712956 -1.476675 
L 132.147727 -1.49597 
L 131.582497 -1.520595 
L 131.017267 -1.551704 
L 130.452037 -1.5906 
L 129.886808 -1.638733 
L 129.321578 -1.697677 
L 128.756348 -1.7691 
L 128.191118 -1.854724 
L 127.625888 -1.956268 
L 127.060659 -2.075377 
L 126.495429 -2.213538 
L 125.930199 -2.371988 
L 125.364969 -2.551613 
L 124.79974 -2.752839 
L 124.23451 -2.975533 
L 123.66928 -3.218909 
L 123.10405 -3.481448 
L 122.538821 -3.760845 
L 121.973591 -4.053983 
L 121.408361 -4.356943 
L 120.843131 -4.665057 
L 120.277902 -4.972995 
L 119.712672 -5.274903 
L 119.147442 -5.564574 
L 118.582212 -5.835648 
L 118.016982 -6.081844 
L 117.451753 -6.297196 
L 116.886523 -6.476292 
L 116.321293 -6.614502 
L 115.756063 -6.708171 
L 115.190834 -6.754788 
L 114.625604 -6.753091 
L 114.060374 -6.703126 
L 113.495144 -6.606247 
L 112.929915 -6.465054 
L 112.364685 -6.283275 
L 111.799455 -6.065607 
L 111.234225 -5.817514 
L 110.668996 -5.545002 
L 110.103766 -5.254379 
L 109.538536 -4.95202 
L 108.973306 -4.644144 
L 108.408077 -4.336614 
L 107.842847 -4.034777 
L 107.277617 -3.743337 
L 106.712387 -3.466275 
L 106.147157 -3.206817 
L 105.581928 -2.967436 
L 105.016698 -2.749904 
L 104.451468 -2.55537 
L 103.886238 -2.38447 
L 103.321009 -2.237459 
L 102.755779 -2.114357 
L 102.190549 -2.015103 
L 101.625319 -1.93972 
L 101.06009 -1.888468 
L 100.49486 -1.862003 
L 99.92963 -1.861524 
L 99.3644 -1.888907 
L 98.799171 -1.94683 
L 98.233941 -2.038877 
L 97.668711 -2.169627 
L 97.103481 -2.344717 
L 96.538252 -2.570879 
L 95.973022 -2.855949 
L 95.407792 -3.208839 
L 94.842562 -3.639474 
L 94.277332 -4.158691 
L 93.712103 -4.778099 
L 93.146873 -5.509901 
L 92.581643 -6.366678 
L 92.016413 -7.361151 
L 91.451184 -8.50592 
L 90.885954 -9.813186 
L 90.320724 -11.294486 
L 89.755494 -12.960424 
L 89.190265 -14.820443 
L 88.625035 -16.882609 
L 88.059805 -19.15345 
L 87.494575 -21.637828 
L 86.929346 -24.338849 
L 86.364116 -27.257813 
L 85.798886 -30.394179 
L 85.233656 -33.745546 
L 84.668426 -37.307624 
L 84.103197 -41.074186 
L 83.537967 -45.036981 
L 82.972737 -49.185608 
L 82.407507 -53.507338 
L 81.842278 -57.986899 
L 81.277048 -62.606228 
L 80.711818 -67.34422 
L 80.146588 -72.176495 
L 79.581359 -77.075232 
L 79.016129 -82.009085 
L 78.450899 -86.943243 
L 77.885669 -91.839642 
L 77.32044 -96.657369 
L 76.75521 -101.353249 
L 76.18998 -105.882637 
L 75.62475 -110.200372 
L 75.059521 -114.261877 
L 74.494291 -118.024339 
L 73.929061 -121.447941 
L 73.363831 -124.497054 
L 72.798601 -127.14134 
L 72.233372 -129.356711 
L 71.668142 -131.126074 
L 71.102912 -132.439833 
L 70.537682 -133.29613 
L 69.972453 -133.700787 
L 69.407223 -133.666993 
L 68.841993 -133.21472 
L 68.276763 -132.369929 
L 67.711534 -131.163599 
L 67.146304 -129.630625 
L 66.581074 -127.80865 
L 66.015844 -125.736869 
L 65.450615 -123.454863 
L 64.885385 -121.001512 
L 64.320155 -118.414001 
L 63.754925 -115.726974 
L 63.189695 -112.971841 
L 62.624466 -110.176249 
L 62.059236 -107.363736 
L 61.494006 -104.553546 
L 60.928776 -101.76062 
L 60.363547 -98.99574 
L 59.798317 -96.265805 
L 59.233087 -93.574231 
L 58.667857 -90.921452 
L 58.102628 -88.305485 
L 57.537398 -85.722548 
L 56.972168 -83.167697 
L 56.406938 -80.635456 
L 55.841709 -78.120415 
L 55.276479 -75.617772 
L 54.711249 -73.123799 
L 54.146019 -70.636215 
L 53.58079 -68.154449 
L 53.01556 -65.679795 
L 52.45033 -63.21544 
L 51.8851 -60.766387 
L 51.31987 -58.339263 
L 50.754641 -55.942032 
L 50.189411 -53.583635 
L 49.624181 -51.27356 
L 49.058951 -49.021383 
L 48.493722 -46.836289 
L 47.928492 -44.726613 
L 47.363262 -42.699405 
L 46.798032 -40.760063 
L 46.232803 -38.912046 
L 45.667573 -37.156674 
L 45.102343 -35.493042 
L 44.537113 -33.918052 
L 43.971884 -32.426549 
L 43.406654 -31.011571 
L 42.841424 -29.664693 
L 42.276194 -28.376446 
L 41.710964 -27.136791 
L 41.145735 -25.935613 
L 40.580505 -24.763227 
L 40.015275 -23.610832 
L 39.450045 -22.470929 
L 38.884816 -21.337649 
L 38.319586 -20.206979 
L 37.754356 -19.076896 
L 37.189126 -17.947373 
L 36.623897 -16.820288 
L 36.058667 -15.699228 
L 35.493437 -14.589217 
L 34.928207 -13.496374 
L 34.362978 -12.427541 
L 33.797748 -11.389889 
L 33.232518 -10.390536 
L 32.667288 -9.436195 
L 32.102059 -8.532867 
L 31.536829 -7.685596 
L 30.971599 -6.898291 
L 30.406369 -6.173621 
L 29.841139 -5.51298 
L 29.27591 -4.916516 
L 28.71068 -4.38321 
L 28.14545 -3.911009 
L 27.58022 -3.496981 
L 27.014991 -3.137494 
L 26.449761 -2.828401 
L 25.884531 -2.565221 
L 25.319301 -2.34331 
L 24.754072 -2.158008 
L 24.188842 -2.004773 
L 23.623612 -1.879277 
L 23.058382 -1.777487 
L 22.493153 -1.695719 
L 21.927923 -1.630664 
L 21.362693 -1.579399 
L 20.797463 -1.539388 
L 20.232233 -1.508456 
z
" style="stroke: #1f77b4; stroke-opacity: 0.721569"/>
    </defs>
    <g clip-path="url(#p7238ff34f2)">
     <use xlink:href="#m544b64a5c6" x="0" y="141.732283" style="fill: #1f77b4; fill-opacity: 0.721569; stroke: #1f77b4; stroke-opacity: 0.721569"/>
    </g>
   </g>
   <g id="matplotlib.axis_1"/>
   <g id="matplotlib.axis_2"/>
   <g id="patch_3">
    <path d="M 2.834646 140.314961 
L 2.834646 1.417323 
" style="fill: none; stroke: #1f77b4; stroke-width: 5; stroke-linejoin: miter; stroke-linecap: square"/>
   </g>
   <g id="patch_4">
    <path d="M 138.897638 140.314961 
L 138.897638 1.417323 
" style="fill: none; stroke: #1f77b4; stroke-width: 5; stroke-linejoin: miter; stroke-linecap: square"/>
   </g>
   <g id="patch_5">
    <path d="M 2.834646 140.314961 
L 138.897638 140.314961 
" style="fill: none; stroke: #1f77b4; stroke-width: 5; stroke-linejoin: miter; stroke-linecap: square"/>
   </g>
   <g id="patch_6">
    <path d="M 2.834646 1.417323 
L 138.897638 1.417323 
" style="fill: none; stroke: #1f77b4; stroke-width: 5; stroke-linejoin: miter; stroke-linecap: square"/>
   </g>
  </g>
 </g>
 <defs>
  <clipPath id="p7238ff34f2">
   <rect x="2.834646" y="1.417323" width="136.062992" height="138.897638"/>
  </clipPath>
 </defs>
</svg>
