<?xml version="1.0" encoding="utf-8" standalone="no"?>
<!DOCTYPE svg PUBLIC "-//W3C//DTD SVG 1.1//EN"
  "http://www.w3.org/Graphics/SVG/1.1/DTD/svg11.dtd">
<svg height="141.12pt" version="1.1" viewBox="0 0 141.12 141.12" width="141.12pt" xmlns="http://www.w3.org/2000/svg" xmlns:xlink="http://www.w3.org/1999/xlink">
 <metadata>
  <rdf:RDF xmlns:cc="http://creativecommons.org/ns#" xmlns:dc="http://purl.org/dc/elements/1.1/" xmlns:rdf="http://www.w3.org/1999/02/22-rdf-syntax-ns#">
   <cc:Work>
    <dc:type rdf:resource="http://purl.org/dc/dcmitype/StillImage"/>
    <dc:date>2021-10-11T10:47:41.341856</dc:date>
    <dc:format>image/svg+xml</dc:format>
    <dc:creator>
     <cc:Agent>
      <dc:title>Matplotlib v3.4.3, https://matplotlib.org/</dc:title>
     </cc:Agent>
    </dc:creator>
   </cc:Work>
  </rdf:RDF>
 </metadata>
 <defs>
  <style type="text/css">*{stroke-linecap:butt;stroke-linejoin:round;}</style>
 </defs>
 <g id="figure_1">
  <g id="patch_1">
   <path d="M 0 141.12 
L 141.12 141.12 
L 141.12 0 
L 0 0 
z
" style="fill:none;"/>
  </g>
  <g id="axes_1">
   <g id="patch_2">
    <path d="M 7.90272 126.86688 
L 130.25376 126.86688 
L 130.25376 7.33824 
L 7.90272 7.33824 
z
" style="fill:none;"/>
   </g>
   <g id="PolyCollection_1">
    <path clip-path="url(#p02378091d1)" d="M 19.328005 88.705576 
L 19.328005 100.828969 
L 21.365708 119.258775 
L 23.403412 111.863202 
L 25.441115 91.670676 
L 27.478819 97.453923 
L 29.516522 92.361348 
L 31.554226 96.281357 
L 33.591929 102.41999 
L 35.629633 117.314286 
L 37.667336 93.35664 
L 39.70504 95.287816 
L 41.742743 95.100007 
L 43.780447 89.761785 
L 45.81815 86.815691 
L 47.855853 92.784951 
L 49.893557 77.687036 
L 51.93126 83.723719 
L 53.968964 87.404465 
L 56.006667 76.717978 
L 58.044371 86.165051 
L 60.082074 78.586658 
L 62.119778 80.552407 
L 64.157481 77.160116 
L 66.195185 72.409448 
L 68.232888 84.66841 
L 70.270592 78.320812 
L 72.308295 67.075049 
L 74.345998 83.24386 
L 76.383702 69.26777 
L 78.421405 69.952469 
L 80.459109 66.543357 
L 82.496812 61.625093 
L 84.534516 62.595353 
L 86.572219 68.32126 
L 88.609923 65.720743 
L 90.647626 55.303911 
L 92.68533 62.87463 
L 94.723033 56.849089 
L 96.760737 64.673743 
L 98.79844 58.409291 
L 100.836143 78.580897 
L 102.873847 52.894193 
L 104.91155 57.376541 
L 106.949254 53.453081 
L 108.986957 45.340151 
L 111.024661 47.831012 
L 113.062364 50.62693 
L 115.100068 49.76392 
L 117.137771 67.564383 
L 119.175475 41.240388 
L 119.175475 36.322615 
L 119.175475 36.322615 
L 117.137771 12.283753 
L 115.100068 32.369349 
L 113.062364 33.791473 
L 111.024661 38.872525 
L 108.986957 43.648519 
L 106.949254 37.820723 
L 104.91155 36.182396 
L 102.873847 42.949877 
L 100.836143 19.548308 
L 98.79844 42.005046 
L 96.760737 38.025728 
L 94.723033 48.135515 
L 92.68533 44.395108 
L 90.647626 54.25096 
L 88.609923 46.119263 
L 86.572219 45.803878 
L 84.534516 53.81492 
L 82.496812 57.070312 
L 80.459109 54.437182 
L 78.421405 53.313204 
L 76.383702 56.283036 
L 74.345998 44.59208 
L 72.308295 63.046025 
L 70.270592 54.085395 
L 68.232888 50.02293 
L 66.195185 64.567026 
L 64.157481 62.101491 
L 62.119778 60.994333 
L 60.082074 65.245216 
L 58.044371 59.951957 
L 56.006667 71.684164 
L 53.968964 63.28281 
L 51.93126 69.248689 
L 49.893557 77.570506 
L 47.855853 64.757725 
L 45.81815 73.012118 
L 43.780447 72.351158 
L 41.742743 69.298069 
L 39.70504 71.395393 
L 37.667336 75.611703 
L 35.629633 53.939191 
L 33.591929 71.11862 
L 31.554226 79.542387 
L 29.516522 85.747529 
L 27.478819 82.940087 
L 25.441115 91.008468 
L 23.403412 73.101075 
L 21.365708 67.990636 
L 19.328005 88.705576 
z
" style="fill:#ff7f0e;fill-opacity:0.341176;"/>
   </g>
   <g id="matplotlib.axis_1"/>
   <g id="matplotlib.axis_2"/>
   <g id="line2d_1">
    <path clip-path="url(#p02378091d1)" d="M 19.328005 94.767272 
L 21.365708 93.624706 
L 23.403412 92.482139 
L 25.441115 91.339572 
L 27.478819 90.197005 
L 29.516522 89.054438 
L 31.554226 87.911872 
L 33.591929 86.769305 
L 35.629633 85.626738 
L 37.667336 84.484171 
L 39.70504 83.341605 
L 41.742743 82.199038 
L 43.780447 81.056471 
L 45.81815 79.913904 
L 47.855853 78.771338 
L 49.893557 77.628771 
L 51.93126 76.486204 
L 53.968964 75.343637 
L 56.006667 74.201071 
L 58.044371 73.058504 
L 60.082074 71.915937 
L 62.119778 70.77337 
L 64.157481 69.630804 
L 66.195185 68.488237 
L 68.232888 67.34567 
L 70.270592 66.203103 
L 72.308295 65.060537 
L 74.345998 63.91797 
L 76.383702 62.775403 
L 78.421405 61.632836 
L 80.459109 60.49027 
L 82.496812 59.347703 
L 84.534516 58.205136 
L 86.572219 57.062569 
L 88.609923 55.920003 
L 90.647626 54.777436 
L 92.68533 53.634869 
L 94.723033 52.492302 
L 96.760737 51.349736 
L 98.79844 50.207169 
L 100.836143 49.064602 
L 102.873847 47.922035 
L 104.91155 46.779469 
L 106.949254 45.636902 
L 108.986957 44.494335 
L 111.024661 43.351768 
L 113.062364 42.209202 
L 115.100068 41.066635 
L 117.137771 39.924068 
L 119.175475 38.781501 
" style="fill:none;stroke:#1f77b4;stroke-linecap:square;stroke-opacity:0.690196;stroke-width:6;"/>
   </g>
   <g id="patch_3">
    <path d="M 7.90272 126.86688 
L 7.90272 7.33824 
" style="fill:none;stroke:#1f77b4;stroke-linecap:square;stroke-linejoin:miter;stroke-width:6;"/>
   </g>
   <g id="patch_4">
    <path d="M 130.25376 126.86688 
L 130.25376 7.33824 
" style="fill:none;stroke:#1f77b4;stroke-linecap:square;stroke-linejoin:miter;stroke-width:6;"/>
   </g>
   <g id="patch_5">
    <path d="M 7.90272 126.86688 
L 130.25376 126.86688 
" style="fill:none;stroke:#1f77b4;stroke-linecap:square;stroke-linejoin:miter;stroke-width:6;"/>
   </g>
   <g id="patch_6">
    <path d="M 7.90272 7.33824 
L 130.25376 7.33824 
" style="fill:none;stroke:#1f77b4;stroke-linecap:square;stroke-linejoin:miter;stroke-width:6;"/>
   </g>
  </g>
 </g>
 <defs>
  <clipPath id="p02378091d1">
   <rect height="119.52864" width="122.35104" x="7.90272" y="7.33824"/>
  </clipPath>
 </defs>
</svg>
