<?xml version="1.0" encoding="utf-8"?>
<!-- Generator: Adobe Illustrator 24.0.0, SVG Export Plug-In . SVG Version: 6.00 Build 0)  -->
<svg version="1.1" id="图层_1" xmlns="http://www.w3.org/2000/svg" xmlns:xlink="http://www.w3.org/1999/xlink" x="0px" y="0px"
	 viewBox="0 0 200 200" style="enable-background:new 0 0 200 200;" xml:space="preserve">
<style type="text/css">
	.st0{fill:#1296DB;}
</style>
<path class="st0" d="M7.7,187.6c-4.2,0-7.6-3.3-7.7-7.5c0,0,0,0,0,0V7.5C0,3.4,3.4,0,7.7,0s7.7,3.4,7.7,7.5v165.1h168
	c4.2,0,7.7,3.4,7.7,7.5c0,4.2-3.4,7.5-7.7,7.5L7.7,187.6L7.7,187.6z"/>
<path class="st0" d="M62.2,138.8L28.8,86.5c-2.3-3.4-1.4-8,2-10.3c0.1,0,0.1-0.1,0.2-0.1c3.5-2.3,8.3-1.3,10.6,2.2l24,38.1l9.7-37.1
	c0.6-2.2,2.1-4,4.1-4.9L118.2,56c3.5-1.7,7.7-0.5,9.9,2.8l19.5,31L176,5.4c1.4-4,5.7-6.1,9.7-4.8c4,1.3,6.2,5.6,4.9,9.5l-33.7,99.8
	c-1.4,4-5.8,6.1-9.8,4.7c-1.7-0.6-3.1-1.7-4-3.2l-24.5-39L89.2,86.4l-13.2,50.2c-0.9,3.4-4,5.7-7.4,5.6
	C66.1,142.3,63.7,141,62.2,138.8L62.2,138.8z"/>
<path class="st0" d="M143.3,130.3c9.7,0,18,7,18,16.3c0,9.3-8.3,16.3-18,16.3c-10.4,0-18-7.7-18-16.3
	C125.3,137.3,133.6,130.3,143.3,130.3z M144.5,158.4c4.1,0,12.2-4.4,12.2-11.6c0-7.1-4.2-11.9-13.3-11.9c-9.2,0-13.3,5.9-13.3,11.9
	C130,152.7,136.7,158.4,144.5,158.4z"/>
<path class="st0" d="M142.9,118.3c-23.1,0-52.6,19.4-52.6,28c0.9,5.3,28.6,28.6,52.6,28.6c20.6,0,50-21.3,53.4-28.3
	C194.6,142.1,166.9,118.3,142.9,118.3z M143,169.7c-19.6,0-42.2-19-42.9-23.4c0-7,24-22.9,42.9-22.9c19.6,0,42.2,19.4,43.6,23.1
	C183.8,152.3,159.8,169.7,143,169.7z"/>
</svg>
