<?xml version="1.0" encoding="utf-8" standalone="no"?>
<!DOCTYPE svg PUBLIC "-//W3C//DTD SVG 1.1//EN"
  "http://www.w3.org/Graphics/SVG/1.1/DTD/svg11.dtd">
<svg height="141.12pt" version="1.1" viewBox="0 0 141.12 141.12" width="141.12pt" xmlns="http://www.w3.org/2000/svg" xmlns:xlink="http://www.w3.org/1999/xlink">
 <metadata>
  <rdf:RDF xmlns:cc="http://creativecommons.org/ns#" xmlns:dc="http://purl.org/dc/elements/1.1/" xmlns:rdf="http://www.w3.org/1999/02/22-rdf-syntax-ns#">
   <cc:Work>
    <dc:type rdf:resource="http://purl.org/dc/dcmitype/StillImage"/>
    <dc:date>2021-10-08T12:02:29.873297</dc:date>
    <dc:format>image/svg+xml</dc:format>
    <dc:creator>
     <cc:Agent>
      <dc:title>Matplotlib v3.4.3, https://matplotlib.org/</dc:title>
     </cc:Agent>
    </dc:creator>
   </cc:Work>
  </rdf:RDF>
 </metadata>
 <defs>
  <style type="text/css">*{stroke-linecap:butt;stroke-linejoin:round;}</style>
 </defs>
 <g id="figure_1">
  <g id="patch_1">
   <path d="M 0 141.12 
L 141.12 141.12 
L 141.12 0 
L 0 0 
z
" style="fill:none;"/>
  </g>
  <g id="axes_1">
   <g id="patch_2">
    <path d="M 14.3 126.82 
L 130.32 126.82 
L 130.32 10.8 
L 14.3 10.8 
z
" style="fill:none;"/>
   </g>
   <g id="matplotlib.axis_1"/>
   <g id="matplotlib.axis_2"/>
   <g id="line2d_1">
    <path clip-path="url(#p7d3882b0d4)" d="M 25.902 78.478333 
L 37.504 88.146667 
L 49.106 97.815 
L 60.708 49.473333 
L 72.31 107.483333 
L 83.912 88.146667 
L 95.514 68.81 
L 107.116 39.805 
L 118.718 59.141667 
" style="fill:none;stroke:#1296db;stroke-linecap:square;stroke-width:6;"/>
    <defs>
     <path d="M 0 8 
C 2.121625 8 4.156639 7.15707 5.656854 5.656854 
C 7.15707 4.156639 8 2.121625 8 0 
C 8 -2.121625 7.15707 -4.156639 5.656854 -5.656854 
C 4.156639 -7.15707 2.121625 -8 0 -8 
C -2.121625 -8 -4.156639 -7.15707 -5.656854 -5.656854 
C -7.15707 -4.156639 -8 -2.121625 -8 0 
C -8 2.121625 -7.15707 4.156639 -5.656854 5.656854 
C -4.156639 7.15707 -2.121625 8 0 8 
z
" id="m3c2f5a8fe7" style="stroke:#1296db;"/>
    </defs>
    <g clip-path="url(#p7d3882b0d4)">
     <use style="fill:#1296db;stroke:#1296db;" x="25.902" xlink:href="#m3c2f5a8fe7" y="78.478333"/>
     <use style="fill:#1296db;stroke:#1296db;" x="37.504" xlink:href="#m3c2f5a8fe7" y="88.146667"/>
     <use style="fill:#1296db;stroke:#1296db;" x="49.106" xlink:href="#m3c2f5a8fe7" y="97.815"/>
     <use style="fill:#1296db;stroke:#1296db;" x="60.708" xlink:href="#m3c2f5a8fe7" y="49.473333"/>
     <use style="fill:#1296db;stroke:#1296db;" x="72.31" xlink:href="#m3c2f5a8fe7" y="107.483333"/>
     <use style="fill:#1296db;stroke:#1296db;" x="83.912" xlink:href="#m3c2f5a8fe7" y="88.146667"/>
     <use style="fill:#1296db;stroke:#1296db;" x="95.514" xlink:href="#m3c2f5a8fe7" y="68.81"/>
     <use style="fill:#1296db;stroke:#1296db;" x="107.116" xlink:href="#m3c2f5a8fe7" y="39.805"/>
     <use style="fill:#1296db;stroke:#1296db;" x="118.718" xlink:href="#m3c2f5a8fe7" y="59.141667"/>
    </g>
   </g>
   <g id="patch_3">
    <path d="M 14.3 126.82 
L 14.3 10.8 
" style="fill:none;stroke:#1296db;stroke-linecap:square;stroke-linejoin:miter;stroke-width:6;"/>
   </g>
   <g id="patch_4">
    <path d="M 130.32 126.82 
L 130.32 10.8 
" style="fill:none;stroke:#1296db;stroke-linecap:square;stroke-linejoin:miter;stroke-width:6;"/>
   </g>
   <g id="patch_5">
    <path d="M 14.3 126.82 
L 130.32 126.82 
" style="fill:none;stroke:#1296db;stroke-linecap:square;stroke-linejoin:miter;stroke-width:6;"/>
   </g>
   <g id="patch_6">
    <path d="M 14.3 10.8 
L 130.32 10.8 
" style="fill:none;stroke:#1296db;stroke-linecap:square;stroke-linejoin:miter;stroke-width:6;"/>
   </g>
  </g>
 </g>
 <defs>
  <clipPath id="p7d3882b0d4">
   <rect height="116.02" width="116.02" x="14.3" y="10.8"/>
  </clipPath>
 </defs>
</svg>
