<?xml version="1.0" encoding="utf-8" standalone="no"?>
<!DOCTYPE svg PUBLIC "-//W3C//DTD SVG 1.1//EN"
  "http://www.w3.org/Graphics/SVG/1.1/DTD/svg11.dtd">
<svg xmlns:xlink="http://www.w3.org/1999/xlink" width="141.732283pt" height="141.732283pt" viewBox="0 0 141.732283 141.732283" xmlns="http://www.w3.org/2000/svg" version="1.1">
 <metadata>
  <rdf:RDF xmlns:dc="http://purl.org/dc/elements/1.1/" xmlns:cc="http://creativecommons.org/ns#" xmlns:rdf="http://www.w3.org/1999/02/22-rdf-syntax-ns#">
   <cc:Work>
    <dc:type rdf:resource="http://purl.org/dc/dcmitype/StillImage"/>
    <dc:date>2022-03-20T21:10:21.113843</dc:date>
    <dc:format>image/svg+xml</dc:format>
    <dc:creator>
     <cc:Agent>
      <dc:title>Matplotlib v3.5.1, https://matplotlib.org/</dc:title>
     </cc:Agent>
    </dc:creator>
   </cc:Work>
  </rdf:RDF>
 </metadata>
 <defs>
  <style type="text/css">*{stroke-linejoin: round; stroke-linecap: butt}</style>
 </defs>
 <g id="figure_1">
  <g id="patch_1">
   <path d="M 0 141.732283 
L 141.732283 141.732283 
L 141.732283 0 
L 0 0 
z
" style="fill: #ffffff"/>
  </g>
  <g id="axes_1">
   <g id="patch_2">
    <path d="M 0 137.76378 
L 137.19685 137.76378 
L 137.19685 5.385827 
L 0 5.385827 
z
" style="fill: #ffffff"/>
   </g>
   <g id="matplotlib.axis_1"/>
   <g id="matplotlib.axis_2">
    <g id="ytick_1">
     <g id="line2d_1">
      <defs>
       <path id="m392b3fdc72" d="M 0 0 
L -3.5 0 
" style="stroke: #000000; stroke-width: 1.5"/>
      </defs>
      <g>
       <use xlink:href="#m392b3fdc72" x="0" y="112.504264" style="stroke: #000000; stroke-width: 1.5"/>
      </g>
     </g>
     <g id="text_1">
      <text style="font: 10px 'Times New Roman'; text-anchor: end" x="-7" y="115.976139" transform="rotate(-0, -7, 115.976139)">1</text>
     </g>
    </g>
    <g id="ytick_2">
     <g id="line2d_2">
      <g>
       <use xlink:href="#m392b3fdc72" x="0" y="68.028132" style="stroke: #000000; stroke-width: 1.5"/>
      </g>
     </g>
     <g id="text_2">
      <text style="font: 10px 'Times New Roman'; text-anchor: end" x="-7" y="71.500007" transform="rotate(-0, -7, 71.500007)">2</text>
     </g>
    </g>
    <g id="ytick_3">
     <g id="line2d_3">
      <g>
       <use xlink:href="#m392b3fdc72" x="0" y="36.723919" style="stroke: #000000; stroke-width: 1.5"/>
      </g>
     </g>
     <g id="text_3">
      <text style="font: 10px 'Times New Roman'; text-anchor: end" x="-7" y="40.195794" transform="rotate(-0, -7, 40.195794)">3</text>
     </g>
    </g>
   </g>
   <g id="line2d_4">
    <path d="M 0 103.244316 
L 2.799936 110.839504 
L 5.599871 109.478494 
L 8.399807 118.283335 
L 11.199743 116.422691 
L 13.999679 111.818019 
L 16.799614 116.2865 
L 19.59955 112.51297 
L 22.399486 114.738622 
L 25.199422 104.850793 
L 27.999357 113.766929 
L 30.799293 111.431315 
L 33.599229 115.612465 
L 36.399164 107.504541 
L 39.1991 117.839695 
L 41.999036 111.913067 
L 44.798972 119.634677 
L 47.598907 105.30873 
L 50.398843 117.802412 
L 53.198779 111.834407 
L 55.998714 106.399045 
L 58.79865 108.854478 
L 61.598586 106.12606 
L 64.398522 111.311447 
L 67.198457 107.358039 
L 69.998393 107.196351 
L 72.798329 112.356272 
L 75.598265 120.328855 
L 78.3982 109.122228 
L 81.198136 120.729733 
L 83.998072 116.589965 
L 86.798007 109.051872 
L 89.597943 121.992981 
L 92.397879 111.510118 
L 95.197815 114.442061 
L 97.99775 111.403639 
L 100.797686 117.351242 
L 103.597622 119.631134 
L 106.397557 115.225 
L 109.197493 122.779095 
L 111.997429 131.7466 
L 114.797365 108.221577 
L 117.5973 91.632069 
L 120.397236 105.209029 
L 123.197172 104.134239 
L 125.997108 118.786534 
L 128.797043 104.464015 
L 131.596979 102.332927 
L 134.396915 113.055044 
L 137.19685 124.748064 
" clip-path="url(#pce863945ca)" style="fill: none; stroke: #1f77b4; stroke-width: 2; stroke-linecap: square"/>
   </g>
   <g id="line2d_5">
    <path d="M 0 69.140881 
L 2.799936 75.341012 
L 5.599871 71.634667 
L 8.399807 91.632069 
L 11.199743 58.093734 
L 13.999679 74.311921 
L 16.799614 72.628778 
L 19.59955 75.189684 
L 22.399486 66.90757 
L 25.199422 78.838847 
L 27.999357 64.900338 
L 30.799293 68.144972 
L 33.599229 55.511818 
L 36.399164 61.05807 
L 39.1991 58.77336 
L 41.999036 81.99792 
L 44.798972 78.536621 
L 47.598907 66.021746 
L 50.398843 52.900366 
L 53.198779 66.821684 
L 55.998714 66.99119 
L 58.79865 70.341295 
L 61.598586 58.763511 
L 64.398522 65.548717 
L 67.198457 58.988925 
L 69.998393 66.220851 
L 72.798329 69.363483 
L 75.598265 67.214999 
L 78.3982 80.162416 
L 81.198136 68.480842 
L 83.998072 51.517538 
L 86.798007 68.308747 
L 89.597943 65.743394 
L 92.397879 72.234962 
L 95.197815 60.91787 
L 97.99775 68.314676 
L 100.797686 60.616465 
L 103.597622 67.114301 
L 106.397557 73.500993 
L 109.197493 69.63775 
L 111.997429 65.019239 
L 114.797365 66.5217 
L 117.5973 66.63054 
L 120.397236 66.72447 
L 123.197172 70.24045 
L 125.997108 68.871878 
L 128.797043 69.809871 
L 131.596979 69.41798 
L 134.396915 59.028902 
L 137.19685 80.772574 
" clip-path="url(#pce863945ca)" style="fill: none; stroke: #ff7f0e; stroke-width: 2; stroke-linecap: square"/>
   </g>
   <g id="line2d_6">
    <path d="M 0 24.233147 
L 2.799936 47.321273 
L 5.599871 31.456449 
L 8.399807 46.712841 
L 11.199743 44.155702 
L 13.999679 11.403006 
L 16.799614 51.517538 
L 19.59955 31.289297 
L 22.399486 23.687719 
L 25.199422 39.060923 
L 27.999357 32.710612 
L 30.799293 29.372942 
L 33.599229 29.56968 
L 36.399164 39.874375 
L 39.1991 40.283528 
L 41.999036 45.941184 
L 44.798972 33.980618 
L 47.598907 32.219601 
L 50.398843 43.101936 
L 53.198779 25.715572 
L 55.998714 37.938845 
L 58.79865 34.85095 
L 61.598586 50.42822 
L 64.398522 40.976851 
L 67.198457 31.036733 
L 69.998393 47.399596 
L 72.798329 39.852119 
L 75.598265 17.733082 
L 78.3982 34.772726 
L 81.198136 35.424501 
L 83.998072 44.28232 
L 86.798007 34.823758 
L 89.597943 42.918451 
L 92.397879 33.644337 
L 95.197815 45.094141 
L 97.99775 40.989474 
L 100.797686 36.207006 
L 103.597622 46.992404 
L 106.397557 51.182491 
L 109.197493 43.507904 
L 111.997429 41.757828 
L 114.797365 34.009962 
L 117.5973 38.568079 
L 120.397236 34.339071 
L 123.197172 31.43907 
L 125.997108 28.281419 
L 128.797043 31.35756 
L 131.596979 24.298619 
L 134.396915 45.860021 
L 137.19685 32.620465 
" clip-path="url(#pce863945ca)" style="fill: none; stroke: #2ca02c; stroke-width: 2; stroke-linecap: square"/>
   </g>
   <g id="patch_3">
    <path d="M 0 137.76378 
L 0 5.385827 
" style="fill: none; stroke: #1f77b4; stroke-width: 2; stroke-linejoin: miter; stroke-linecap: square"/>
   </g>
   <g id="patch_4">
    <path d="M 137.19685 137.76378 
L 137.19685 5.385827 
" style="fill: none; stroke: #1f77b4; stroke-width: 2; stroke-linejoin: miter; stroke-linecap: square"/>
   </g>
   <g id="patch_5">
    <path d="M 0 137.76378 
L 137.19685 137.76378 
" style="fill: none; stroke: #1f77b4; stroke-width: 2; stroke-linejoin: miter; stroke-linecap: square"/>
   </g>
   <g id="patch_6">
    <path d="M 0 5.385827 
L 137.19685 5.385827 
" style="fill: none; stroke: #1f77b4; stroke-width: 2; stroke-linejoin: miter; stroke-linecap: square"/>
   </g>
  </g>
 </g>
 <defs>
  <clipPath id="pce863945ca">
   <rect x="0" y="5.385827" width="137.19685" height="132.377953"/>
  </clipPath>
 </defs>
</svg>
