<svg id="图层_1" data-name="图层 1" xmlns="http://www.w3.org/2000/svg" viewBox="0 0 1024 1024"><defs><style>.cls-1{fill:#f7931e;}.cls-1,.cls-2,.cls-3{stroke:#000;}.cls-1,.cls-2,.cls-3,.cls-5{stroke-miterlimit:10;}.cls-2{fill:#0071bc;}.cls-3{fill:#662d91;}.cls-4{fill:#40b4e5;}.cls-5{fill:none;stroke:#29abe2;stroke-width:10px;}.cls-6{fill:#29abe2;}</style></defs><rect class="cls-1" x="6.31" y="317.59" width="225.14" height="87.46"/><rect class="cls-2" x="6.31" y="409.65" width="225.14" height="87.46"/><rect class="cls-1" x="238.64" y="317.59" width="225.14" height="87.46"/><rect class="cls-2" x="238.64" y="409.65" width="225.14" height="87.46"/><rect class="cls-2" x="6.31" y="501.71" width="225.14" height="87.46"/><rect class="cls-2" x="238.64" y="501.71" width="225.14" height="87.46"/><rect class="cls-2" x="6.31" y="593.78" width="225.14" height="87.46"/><rect class="cls-2" x="238.64" y="593.78" width="225.14" height="87.46"/><rect class="cls-3" x="561.7" y="320.48" width="224.28" height="87.13"/><rect class="cls-2" x="561.7" y="412.19" width="224.28" height="87.13"/><rect class="cls-3" x="793.14" y="320.48" width="224.28" height="87.13"/><rect class="cls-2" x="793.14" y="412.19" width="224.28" height="87.13"/><rect class="cls-2" x="561.7" y="503.91" width="224.28" height="87.13"/><rect class="cls-2" x="793.14" y="503.91" width="224.28" height="87.13"/><rect class="cls-2" x="561.7" y="595.62" width="224.28" height="87.13"/><rect class="cls-2" x="793.14" y="595.62" width="224.28" height="87.13"/><rect class="cls-2" x="6.31" y="684.62" width="225.14" height="87.46"/><rect class="cls-2" x="238.64" y="684.62" width="225.14" height="87.46"/><rect class="cls-2" x="561.7" y="686.46" width="224.28" height="87.13"/><rect class="cls-2" x="793.14" y="686.46" width="224.28" height="87.13"/><rect class="cls-2" x="6.31" y="775.11" width="225.14" height="87.46"/><rect class="cls-2" x="238.64" y="775.11" width="225.14" height="87.46"/><rect class="cls-2" x="561.7" y="776.95" width="224.28" height="87.13"/><rect class="cls-2" x="793.14" y="776.95" width="224.28" height="87.13"/><path class="cls-4" d="M185.29,285.83s-70-94-155.53-119.25c0,0-10.38-1.23,0-3.19C115.29,138.12,185.29,44.16,185.29,44.16v69.43l80.58.27,196.68.3V215.85l-196.69.28-80.58.25Z"/><path class="cls-4" d="M840.51,285.83s70-94,155.52-119.25c0,0,10.38-1.23,0-3.19C910.52,138.12,840.53,44.16,840.53,44.16v69.43l-76.61.26-205.59.31v52.48l0-3.29v52.5l205.63.29,76.59.24Z"/><polyline class="cls-5" points="231.45 921.39 231.45 962.95 785.98 962.95 785.98 956.95 785.98 921.39"/><path class="cls-6" d="M231.45,873.11c-8.43,22.72-22.82,50.91-38,68.38l38-13.76,38,13.76C254.25,924,239.87,895.83,231.45,873.11Z"/><path class="cls-6" d="M786,873.11c8.43,22.72,22.81,50.91,38,68.38l-38-13.76-38,13.76C763.17,924,777.56,895.83,786,873.11Z"/></svg>