<?xml version="1.0" standalone="no"?><!DOCTYPE svg PUBLIC "-//W3C//DTD SVG 1.1//EN" "http://www.w3.org/Graphics/SVG/1.1/DTD/svg11.dtd"><svg t="1613446508130" class="icon" viewBox="0 0 1024 1024" version="1.1" xmlns="http://www.w3.org/2000/svg" p-id="47321" xmlns:xlink="http://www.w3.org/1999/xlink" width="200" height="200"><defs><style type="text/css"></style></defs><path d="M864 128h-256a32 32 0 0 0-32 32v326.4L704 384v96h128a32 32 0 0 1 0 64h-128V640L576 537.6v326.4a32 32 0 0 0 32 32h256a32 32 0 0 0 32-32v-704a32 32 0 0 0-32-32zM320 640V544H192a32 32 0 0 1 0-64h128V384l128 102.4V160a32 32 0 0 0-32-32h-256a32 32 0 0 0-32 32v704a32 32 0 0 0 32 32h256a32 32 0 0 0 32-32V537.6z" p-id="47322" fill="#1296db"></path></svg>