<?xml version="1.0" encoding="utf-8"?>
<!-- Generator: Adobe Illustrator 25.2.1, SVG Export Plug-In . SVG Version: 6.00 Build 0)  -->
<svg version="1.1" id="图层_1" xmlns="http://www.w3.org/2000/svg" xmlns:xlink="http://www.w3.org/1999/xlink" x="0px" y="0px"
	 viewBox="0 0 1024 1024" style="enable-background:new 0 0 1024 1024;" xml:space="preserve">
<style type="text/css">
	.st0{fill:none;stroke:#000000;stroke-miterlimit:10;}
	.st1{fill:#036EB8;stroke:#000000;stroke-miterlimit:10;}
	.st2{fill:url(#SVGID_1_);}
	.st3{fill:url(#SVGID_2_);}
</style>
<path class="st0" d="M-2543.71,741.55l117.78-68c0,0-289.74-368.5-19.25-758.68C-2445.19-85.14-2887.69,225.77-2543.71,741.55z"/>
<path class="st0" d="M-1911.75,805.45v-136c0,0-464,66.67-666.67-362.67C-2578.42,306.79-2530.42,845.45-1911.75,805.45z"/>
<path class="st0" d="M-1529.16,278.01l-117.78-68c0,0-174.27,435.17-647.41,396.02C-2294.35,606.03-1803.85,833.79-1529.16,278.01z"
	/>
<path class="st0" d="M-1762.44-366.3l-117.78,68c0,0,289.73,368.5,19.25,758.68C-1860.96,460.38-1418.46,149.48-1762.44-366.3z"/>
<circle class="st0" cx="3740.73" cy="1830.66" r="484.6"/>
<circle class="st0" cx="4718.01" cy="1132.7" r="186.71"/>
<g>
	<path class="st1" d="M252.18,96.81v88.69c0,0,719.06-86.33,380.4,357.22C632.57,542.72,1088.6,104.63,252.18,96.81z"/>
	<path class="st1" d="M81.79,283.73l44.34,76.8c0,0,579.56-434.29,508.04,119.16C634.18,479.7,810.07-127.7,81.79,283.73z"/>
	<path class="st1" d="M27.7,530.81l76.8,44.34c0,0,284.77-665.89,499.56-150.82C604.07,424.33,452.69-189.65,27.7,530.81z"/>
	<path class="st1" d="M104.39,771.82h88.69c0,0-86.33-719.06,357.22-380.4C550.3,391.43,112.22-64.6,104.39,771.82z"/>
	<path class="st1" d="M291.32,942.21l76.8-44.34c0,0-434.29-579.56,119.16-508.04C487.28,389.82-120.12,213.93,291.32,942.21z"/>
	<path class="st1" d="M538.39,996.3l44.34-76.8c0,0-665.89-284.77-150.82-499.56C431.91,419.93-182.06,571.31,538.39,996.3z"/>
	<path class="st1" d="M779.41,919.61v-88.69c0,0-719.06,86.33-380.4-357.22C399.01,473.7-57.02,911.78,779.41,919.61z"/>
	<path class="st1" d="M949.79,732.68l-44.34-76.8c0,0-579.56,434.29-508.04-119.16C397.4,536.72,221.51,1144.12,949.79,732.68z"/>
	<path class="st1" d="M1003.88,485.61l-76.8-44.34c0,0-284.77,665.89-499.56,150.82C427.52,592.09,578.89,1206.06,1003.88,485.61z"
		/>
	<path class="st1" d="M927.19,244.59h-88.69c0,0,86.33,719.06-357.22,380.4C481.28,624.99,919.37,1081.02,927.19,244.59z"/>
	<path class="st1" d="M740.27,74.21l-76.8,44.34c0,0,434.3,579.56-119.16,508.04C544.3,626.6,1151.7,802.49,740.27,74.21z"/>
	<path class="st1" d="M493.19,20.12l-44.34,76.8c0,0,665.89,284.77,150.82,499.56C599.67,596.48,1213.65,445.11,493.19,20.12z"/>
</g>
<radialGradient id="SVGID_1_" cx="515.7916" cy="508.2084" r="324.5534" gradientUnits="userSpaceOnUse">
	<stop  offset="0.518" style="stop-color:#FFFFFF"/>
	<stop  offset="0.5608" style="stop-color:#E6F2FB"/>
	<stop  offset="0.6342" style="stop-color:#BCDBF3"/>
	<stop  offset="0.7082" style="stop-color:#95C8EC"/>
	<stop  offset="0.7815" style="stop-color:#71B9E7"/>
	<stop  offset="0.8542" style="stop-color:#52AFE3"/>
	<stop  offset="0.9257" style="stop-color:#39A9E1"/>
	<stop  offset="0.9948" style="stop-color:#2EA7E0"/>
</radialGradient>
<path class="st2" d="M515.79,183.65c-179.25,0-324.55,145.31-324.55,324.55s145.31,324.55,324.55,324.55
	s324.55-145.31,324.55-324.55S695.04,183.65,515.79,183.65z M515.79,692.89c-102,0-184.68-82.68-184.68-184.68
	s82.68-184.68,184.68-184.68s184.68,82.68,184.68,184.68S617.79,692.89,515.79,692.89z"/>
<radialGradient id="SVGID_2_" cx="515.7916" cy="508.2084" r="48" gradientUnits="userSpaceOnUse">
	<stop  offset="0" style="stop-color:#7E318E"/>
	<stop  offset="0.0923" style="stop-color:#833A91"/>
	<stop  offset="0.2494" style="stop-color:#91529D"/>
	<stop  offset="0.4522" style="stop-color:#A878B2"/>
	<stop  offset="0.6929" style="stop-color:#CAB0D4"/>
	<stop  offset="0.9628" style="stop-color:#F9F6FB"/>
	<stop  offset="1" style="stop-color:#FFFFFF"/>
</radialGradient>
<circle class="st3" cx="515.79" cy="508.21" r="48"/>
</svg>
