<?xml version="1.0" standalone="no"?><!DOCTYPE svg PUBLIC "-//W3C//DTD SVG 1.1//EN" "http://www.w3.org/Graphics/SVG/1.1/DTD/svg11.dtd"><svg t="1613445817224" class="icon" viewBox="0 0 1026 1024" version="1.1" xmlns="http://www.w3.org/2000/svg" p-id="21059" xmlns:xlink="http://www.w3.org/1999/xlink" width="200.390625" height="200"><defs><style type="text/css"></style></defs><path d="M1024.805607 911.947361v-579.304821a112.199113 112.199113 0 0 0-112.199113-112.125876H332.789014a112.199113 112.199113 0 0 0-112.199113 112.125876v579.304821a112.199113 112.199113 0 0 0 112.199113 112.125876h579.81748a112.199113 112.199113 0 0 0 112.199113-112.125876z m-459.708768-60.274067v-172.106994H393.356029v-114.24975h171.74081V393.722214h114.396224v171.594336h172.326705V679.639537H679.493063v172.106994H565.096839zM139.736232 729.147761a64.37534 64.37534 0 0 1-64.375339-64.228865V139.150336a64.302103 64.302103 0 0 1 64.375339-64.228866H666.456873a64.228866 64.228866 0 0 1 64.302103 64.228866v8.202546h73.896152v-34.128451A112.125876 112.125876 0 0 0 692.456015 1.098555H112.565298A112.125876 112.125876 0 0 0 0 113.077957v579.304821a112.125876 112.125876 0 0 0 112.199113 112.052639H146.474038V729.147761h-6.957517z m0 0" fill="#1296db" p-id="21060"></path></svg>