<?xml version="1.0" standalone="no"?><!DOCTYPE svg PUBLIC "-//W3C//DTD SVG 1.1//EN" "http://www.w3.org/Graphics/SVG/1.1/DTD/svg11.dtd"><svg t="1651218442081" class="icon" viewBox="0 0 1024 1024" version="1.1" xmlns="http://www.w3.org/2000/svg" p-id="892" xmlns:xlink="http://www.w3.org/1999/xlink" width="200" height="200"><defs><style type="text/css"></style></defs><path d="M40.33 29.95h194.56v194.56H40.33z" fill="#0071BC" p-id="893"></path><path d="M265.33 29.95h194.56v194.56H265.33zM40.33 287.9h194.56v194.56H40.33z" fill="#F7931E" p-id="894"></path><path d="M265.33 287.9h194.56v194.56H265.33zM681.77 378.97h232.9v232.9h-232.9zM40.33 543.9h194.56v194.56H40.33z" fill="#0071BC" p-id="895"></path><path d="M265.33 543.9h194.56v194.56H265.33zM40.33 794.9h194.56v194.56H40.33z" fill="#F7931E" p-id="896"></path><path d="M265.33 794.9h194.56v194.56H265.33z" fill="#0071BC" p-id="897"></path><path d="M796.46 345.56c-20.2 0-35.24-5.53-45.1-16.6-9.87-11.07-14.8-27.86-14.8-50.39 0-11.98 1.52-22.33 4.56-31.05 3.04-8.72 7.29-15.93 12.77-21.63 5.47-5.7 12.04-9.91 19.71-12.65 7.67-2.73 16.04-4.1 25.11-4.1 20.48 0 35.72 5.5 45.73 16.5 10.01 11 15.01 27.64 15.01 49.9 0 23.05-5.35 40.48-16.06 52.29-10.72 11.82-26.36 17.73-46.93 17.73z m-32.55-69.92c0 21.23 2.83 36.8 8.49 46.73s14.42 14.89 26.3 14.89c11.31 0 19.71-4.67 25.18-14.01 5.47-9.34 8.21-23.81 8.21-43.41 0-14.97-1.4-27.1-4.21-36.38s-6.71-15.93-11.71-19.97c-5-4.04-11.06-6.05-18.17-6.05-6.45 0-11.85 1.33-16.2 4s-7.86 6.51-10.52 11.52c-2.67 5.01-4.56 11.12-5.68 18.31-1.13 7.2-1.69 15.32-1.69 24.37zM827.5 775.08c0 4.28 0.5 7.51 1.51 9.69 1.01 2.18 2.79 3.95 5.35 5.32 2.56 1.37 6.24 2.44 11.06 3.21 4.81 0.78 10.86 1.37 18.16 1.77 7.29 0.41 16.91 0.68 28.86 0.83v8.08H720.43v-8.08c17.22-0.37 29.52-0.87 36.89-1.5 7.37-0.63 12.99-1.57 16.88-2.82 3.88-1.25 6.71-3.03 8.5-5.32 1.78-2.29 2.68-6.02 2.68-11.18v-89.81c0-2.95-1.09-5.11-3.26-6.48s-5.35-2.05-9.54-2.05c-4.97 0-12.03 1.22-21.18 3.65-9.16 2.44-20.48 5.8-33.98 10.08l-10.24-8.53 108.93-30.9h12.8c-0.93 7.09-1.4 16.91-1.4 29.46v94.58z" fill="#F7931E" p-id="898"></path><path d="M717.18 181.46c12.3 0.2 25.02 3.94 37.04 10.33 11.43-7.43 22.1-17.48 30.52-30.59l-14.1 4.23-0.79-2.65-0.48-1.31-0.24-0.65-1.02-2.76-0.6-1.58c-0.22-0.52-0.46-1.03-0.69-1.55-3.57-8.28-8.41-16.06-14.11-22.89-5.7-6.85-12.2-12.75-19.04-17.77-6.85-5.03-14.02-9.2-21.3-12.74-7.28-3.54-14.67-6.46-22.08-8.9-14.82-4.87-29.72-8.11-44.51-10.32-7.4-1.11-14.79-1.98-22.16-2.67-7.37-0.66-14.71-1.14-22.04-1.46-14.66-0.66-29.24-0.64-43.75-0.21-14.51 0.44-28.95 1.34-43.33 2.6-7.19 0.63-14.36 1.36-21.51 2.16l-10.68 1.26-5.24 0.64-2.46 0.29-0.99 0.11-0.3 0.03 0.44-0.03c0.18-0.01 0.37-0.01 0.55 0v41.35l1.22-0.04 1.11-0.07 1.01-0.09 1.63-0.18 2.78-0.33 5.24-0.64 10.29-1.21c6.84-0.77 13.67-1.46 20.51-2.06 13.67-1.19 27.34-2.05 40.97-2.46 13.63-0.4 27.22-0.41 40.69 0.19 6.73 0.3 13.43 0.73 20.09 1.33 6.65 0.62 13.24 1.4 19.76 2.38 13.03 1.93 25.73 4.76 37.65 8.67 11.89 3.92 22.92 9.12 31.91 15.71 9.01 6.61 15.72 14.53 19.69 23.76l1.71 4.4 0.43 1.53-13.82 4.19zM792.62 877.07c-8.31-13.08-18.88-23.13-30.2-30.58-12.13 6.41-24.96 10.15-37.36 10.32l14.1 4.23-0.43 1.54-1.72 4.43c-3.99 9.28-10.73 17.24-19.77 23.87-9.02 6.62-20.08 11.83-31.99 15.75-11.94 3.92-24.65 6.75-37.69 8.68-6.52 0.98-13.12 1.76-19.77 2.38-6.66 0.6-13.36 1.03-20.1 1.33-13.47 0.61-27.08 0.59-40.71 0.19-13.64-0.41-27.31-1.27-40.99-2.46-6.84-0.6-13.67-1.29-20.52-2.06l-10.3-1.21-5.24-0.64-2.78-0.33-1.63-0.18-1.01-0.09-1.1-0.07-1.21-0.04v41.35c-0.19 0.01-0.38 0.01-0.56 0l-0.45-0.03 0.3 0.03 0.99 0.11 2.46 0.29 5.24 0.64 10.68 1.26c7.15 0.8 14.33 1.53 21.52 2.16 14.38 1.26 28.83 2.16 43.35 2.6 14.52 0.42 29.1 0.44 43.77-0.21 7.33-0.32 14.69-0.8 22.06-1.46 7.37-0.68 14.77-1.56 22.17-2.67 14.81-2.21 29.72-5.45 44.56-10.33 7.42-2.44 14.82-5.37 22.11-8.91 7.29-3.55 14.48-7.72 21.34-12.76 6.85-5.03 13.37-10.95 19.08-17.82 5.71-6.85 10.57-14.65 14.15-22.95 0.23-0.52 0.47-1.03 0.69-1.55l0.6-1.58 1.03-2.76 0.24-0.65 0.48-1.31 0.79-2.65 13.82 4.14z" fill="#217BB7" p-id="899"></path></svg>