<svg id="图层_1" data-name="图层 1" xmlns="http://www.w3.org/2000/svg" viewBox="0 0 1024 1024"><defs><style>.cls-1{fill:#1e8bca;}</style></defs><path class="cls-1" d="M45,514q0-52,15.56-87.33A160.27,160.27,0,0,1,92.3,380q20.08-20.67,44-30.66,31.83-13.47,73.4-13.47,75.25,0,120.43,46.68t45.17,129.84q0,82.46-44.82,129T210.64,687.94q-75.94,0-120.78-46.34T45,514Zm70.84-2.32q0,57.84,26.71,87.68t67.82,29.85q41.1,0,67.47-29.62t26.36-88.84q0-58.53-25.66-87.33t-68.17-28.8q-42.51,0-68.52,29.15T115.88,511.65Z"/><path class="cls-1" d="M430.82,682.13V344.42h68.75V624.76h171v57.37Z"/><path class="cls-1" d="M702.11,571.34l66.89-6.5q6,33.67,24.5,49.47t49.82,15.8q33.21,0,50.06-14.06t16.83-32.86q0-12.08-7.08-20.56t-24.74-14.75q-12.07-4.17-55-14.86-55.27-13.69-77.58-33.68-31.35-28.09-31.35-68.52a87.49,87.49,0,0,1,14.75-48.66q14.75-22.64,42.5-34.49t67-11.84q64.1,0,96.5,28.1t34,75l-68.75,3q-4.41-26.24-18.93-37.74T838,392.73q-30,0-46.92,12.31-10.92,7.9-10.91,21.14,0,12.07,10.22,20.67,13,10.92,63.17,22.76t74.21,24.51q24,12.66,37.63,34.6T979,583a100.32,100.32,0,0,1-16.25,54.81q-16.26,25.56-46,38t-74.09,12.43q-64.57,0-99.18-29.84T702.11,571.34Z"/></svg>