<svg id="图层_1" data-name="图层 1" xmlns="http://www.w3.org/2000/svg" viewBox="0 0 1024 1024"><defs><style>.cls-1{fill:#f7931e;}.cls-1,.cls-2,.cls-3{stroke:#000;}.cls-1,.cls-2,.cls-3,.cls-4{stroke-miterlimit:10;}.cls-2{fill:#0071bc;}.cls-3{fill:#662d91;}.cls-4{fill:none;stroke:#00a99d;stroke-width:80px;}.cls-5{fill:#00a99d;}.cls-6{fill:#29abe2;}</style></defs><rect class="cls-1" x="251.63" y="64.48" width="225.14" height="87.46"/><rect class="cls-2" x="251.63" y="156.55" width="225.14" height="87.46"/><rect class="cls-1" x="483.96" y="64.48" width="225.14" height="87.46"/><rect class="cls-2" x="483.96" y="156.55" width="225.14" height="87.46"/><rect class="cls-3" x="20.16" y="64.28" width="224.28" height="87.13"/><rect class="cls-2" x="20.16" y="155.99" width="224.28" height="87.13"/><rect class="cls-2" x="20.16" y="247.7" width="224.28" height="87.13"/><rect class="cls-2" x="20.16" y="339.42" width="224.28" height="87.13"/><rect class="cls-2" x="20.16" y="430.25" width="224.28" height="87.13"/><rect class="cls-1" x="714.95" y="64.48" width="225.14" height="87.46"/><rect class="cls-2" x="714.95" y="156.55" width="225.14" height="87.46"/><rect class="cls-2" x="20.16" y="520.74" width="224.28" height="87.13"/><rect class="cls-2" x="20.16" y="613.05" width="224.28" height="87.13"/><rect class="cls-2" x="20.16" y="703.54" width="224.28" height="87.13"/><rect class="cls-2" x="20.16" y="795.32" width="224.28" height="87.13"/><path class="cls-4" d="M665.31,295.2S681.22,605.66,458.8,670.61"/><path class="cls-5" d="M314.16,678.59c66-30.43,147-79.94,195.78-129.52L477.53,666l49.91,110.61C471.67,735.1,384.05,698.56,314.16,678.59Z"/><path class="cls-6" d="M711.56,915.53l-17.18,25.12-182.79-125,39-57.07q16.7-24.4,40.9-25.16t46.16,14.27q25,17.13,31.85,40.52t-6.61,43L639.12,866Zm-100.7-68.89,20.33-29.71q7.95-11.64,4.65-22.9t-15.76-19.77q-11.25-7.69-23.16-7.53t-22,15l-18.79,27.46Z"/><path class="cls-6" d="M797.27,790.25l-17.19,25.12-182.79-125,17.18-25.11Z"/><path class="cls-6" d="M854.89,706l-17.46,25.53-212.2-82.06,18.16-26.55L805.33,686.8,687.6,558.3l14.32-20.93Z"/><path class="cls-6" d="M930.9,600.93q-19,27.78-56.9,24.56t-78.07-30.71q-39.91-27.3-55.51-62.1t2.83-61.76q18.59-27.17,56.22-24.57t77.95,30.17q42.32,28.94,57.15,63.15T930.9,600.93Zm-26.37-18.34q9.29-13.58,1-33.05t-47-45.95q-31.46-21.52-54.65-26t-34.36,11.86q-22.08,32.27,46.09,78.9,33.07,22.62,55.77,26.08T904.53,582.59Z"/><path class="cls-6" d="M1016.58,469.64l-18.43,27L843.61,390.88,818.25,428,790,408.62l69.14-101.09,28.26,19.33-25.35,37.07Z"/></svg>