<?xml version="1.0" encoding="utf-8" standalone="no"?>
<!DOCTYPE svg PUBLIC "-//W3C//DTD SVG 1.1//EN"
  "http://www.w3.org/Graphics/SVG/1.1/DTD/svg11.dtd">
<svg xmlns:xlink="http://www.w3.org/1999/xlink" width="141.12pt" height="141.12pt" viewBox="0 0 141.12 141.12" xmlns="http://www.w3.org/2000/svg" version="1.1">
 <metadata>
  <rdf:RDF xmlns:dc="http://purl.org/dc/elements/1.1/" xmlns:cc="http://creativecommons.org/ns#" xmlns:rdf="http://www.w3.org/1999/02/22-rdf-syntax-ns#">
   <cc:Work>
    <dc:type rdf:resource="http://purl.org/dc/dcmitype/StillImage"/>
    <dc:date>2022-02-07T21:46:35.889350</dc:date>
    <dc:format>image/svg+xml</dc:format>
    <dc:creator>
     <cc:Agent>
      <dc:title>Matplotlib v3.5.0, https://matplotlib.org/</dc:title>
     </cc:Agent>
    </dc:creator>
   </cc:Work>
  </rdf:RDF>
 </metadata>
 <defs>
  <style type="text/css">*{stroke-linejoin: round; stroke-linecap: butt}</style>
 </defs>
 <g id="figure_1">
  <g id="patch_1">
   <path d="M 0 141.12 
L 141.12 141.12 
L 141.12 0 
L 0 0 
L 0 141.12 
z
" style="fill: none"/>
  </g>
  <g id="axes_1">
   <g id="patch_2">
    <path d="M 14.3 126.82 
L 130.32 126.82 
L 130.32 10.8 
L 14.3 10.8 
L 14.3 126.82 
z
" style="fill: none"/>
   </g>
   <g id="matplotlib.axis_1"/>
   <g id="matplotlib.axis_2"/>
   <g id="line2d_1">
    <path d="M 14.255003 90.180716 
L 14.565029 91.027306 
L 14.875055 92.506635 
L 15.185081 94.958933 
L 15.495107 99.407813 
L 15.701791 105.745177 
L 15.908475 115.618682 
L 16.115159 102.065995 
L 16.425185 95.792745 
L 16.838553 91.737155 
L 17.251922 89.518155 
L 17.66529 88.341999 
L 17.975316 87.988388 
L 18.182 87.985954 
L 18.388684 88.173897 
L 18.69871 88.847254 
L 19.008736 90.093926 
L 19.318762 92.168673 
L 19.628788 95.759003 
L 19.835472 100.162863 
L 19.938814 104.07105 
L 20.145498 113.050153 
L 20.352182 100.051848 
L 20.662208 93.843673 
L 21.075576 89.805221 
L 21.488944 87.588827 
L 21.902312 86.41091 
L 22.212338 86.054903 
L 22.419022 86.05074 
L 22.625706 86.237064 
L 22.935732 86.9087 
L 23.245759 88.155657 
L 23.555785 90.235691 
L 23.865811 93.847049 
L 24.072495 98.302183 
L 24.175837 102.292055 
L 24.279179 111.105845 
L 24.382521 110.42476 
L 24.589205 97.926449 
L 24.899231 91.779469 
L 25.312599 87.754852 
L 25.725967 85.537935 
L 26.139335 84.355139 
L 26.449361 83.994383 
L 26.656045 83.986917 
L 26.862729 84.170039 
L 27.172755 84.837571 
L 27.482781 86.082428 
L 27.792807 88.165402 
L 28.102833 91.795711 
L 28.309517 96.301871 
L 28.412859 100.376298 
L 28.516201 109.656857 
L 28.619543 107.701952 
L 28.826227 95.65712 
L 29.136254 89.567182 
L 29.549622 85.552635 
L 29.96299 83.331576 
L 30.376358 82.140262 
L 30.686384 81.771997 
L 30.893068 81.75937 
L 31.099752 81.937419 
L 31.409778 82.598016 
L 31.719804 83.837924 
L 32.02983 85.921014 
L 32.339856 89.567703 
L 32.54654 94.124354 
L 32.649882 98.286289 
L 32.753224 108.091949 
L 32.856566 104.837094 
L 33.06325 93.205264 
L 33.373276 87.167707 
L 33.786644 83.158686 
L 34.200012 80.929047 
L 34.61338 79.724719 
L 34.923407 79.345515 
L 35.130091 79.325409 
L 35.336775 79.496044 
L 35.646801 80.146152 
L 35.956827 81.377512 
L 36.266853 83.457118 
L 36.576879 87.116822 
L 36.783563 91.722939 
L 36.886905 95.975337 
L 36.990247 106.377607 
L 37.506957 86.05691 
L 37.920325 81.307075 
L 38.333693 78.728407 
L 38.747061 77.28251 
L 39.057087 76.745738 
L 39.367113 76.630247 
L 39.573797 76.790383 
L 39.883823 77.425295 
L 40.193849 78.643321 
L 40.503875 80.714614 
L 40.813902 84.382708 
L 41.020586 89.036455 
L 41.123928 93.382134 
L 41.22727 104.470395 
L 41.640638 85.020433 
L 42.054006 79.276655 
L 42.467374 76.291099 
L 42.880742 74.579797 
L 43.29411 73.737332 
L 43.604136 73.599806 
L 43.81082 73.745156 
L 44.120846 74.358312 
L 44.430872 75.55629 
L 44.740898 77.612445 
L 45.050924 81.282235 
L 45.257608 85.980417 
L 45.36095 90.421812 
L 45.464292 102.310512 
L 45.774318 84.185937 
L 46.084344 78.266048 
L 46.497713 74.229691 
L 46.911081 71.930177 
L 47.324449 70.64147 
L 47.634475 70.194516 
L 47.841159 70.128219 
L 48.047843 70.252468 
L 48.357869 70.83416 
L 48.667895 72.002098 
L 48.977921 74.032872 
L 49.287947 77.694112 
L 49.494631 82.43114 
L 49.597973 86.969804 
L 49.701315 99.810067 
L 50.011341 80.313244 
L 50.321367 74.410898 
L 50.734735 70.338668 
L 51.251445 67.570979 
L 51.664813 66.432343 
L 51.974839 66.079289 
L 52.181523 66.076061 
L 52.388208 66.269528 
L 52.698234 66.981505 
L 53.00826 68.348393 
L 53.318286 70.751365 
L 53.628312 75.398575 
L 53.834996 82.82966 
L 53.938338 96.82924 
L 54.145022 79.2893 
L 54.455048 71.346287 
L 54.868416 66.503241 
L 55.385126 63.248121 
L 55.798494 61.814744 
L 56.10852 61.253453 
L 56.418546 61.106695 
L 56.62523 61.251185 
L 56.935256 61.888677 
L 57.245282 63.181376 
L 57.555308 65.515245 
L 57.865334 70.121584 
L 58.072018 77.659595 
L 58.175361 93.120247 
L 58.382045 73.583865 
L 58.692071 65.65036 
L 59.105439 60.699875 
L 59.622149 57.276074 
L 60.138859 55.421612 
L 60.448885 54.878114 
L 60.758911 54.747999 
L 60.965595 54.911566 
L 61.275621 55.609701 
L 61.585647 57.051737 
L 61.895673 59.786767 
L 62.102357 63.16284 
L 62.309041 70.766887 
L 62.412383 88.162789 
L 62.619067 66.072263 
L 62.929093 58.061498 
L 63.342461 52.881808 
L 63.859171 49.119067 
L 64.375882 46.882305 
L 64.78925 45.910247 
L 65.099276 45.651425 
L 65.30596 45.733588 
L 65.512644 46.063022 
L 65.82267 47.185722 
L 66.132696 49.586499 
L 66.33938 52.747332 
L 66.546064 60.266091 
L 66.649406 80.431164 
L 66.85609 54.681303 
L 67.166116 46.290822 
L 67.682826 39.300532 
L 68.302878 34.051406 
L 69.026272 29.694521 
L 69.853008 25.983574 
L 70.783087 22.853424 
L 71.713165 20.533977 
L 72.539901 19.024192 
L 73.366637 17.967998 
L 74.090031 17.386385 
L 74.710083 17.130627 
L 75.330135 17.094225 
L 75.950188 17.276572 
L 76.57024 17.680725 
L 77.293634 18.44217 
L 78.017028 19.534544 
L 78.843764 21.22866 
L 79.6705 23.471318 
L 80.497236 26.392551 
L 81.323972 30.240264 
L 82.047367 34.799563 
L 82.564077 39.300532 
L 82.977445 44.524488 
L 83.287471 51.043507 
L 83.494155 60.823019 
L 83.597497 80.431164 
L 83.804181 55.465555 
L 84.114207 49.586499 
L 84.424233 47.185722 
L 84.734259 46.063022 
L 85.044285 45.664571 
L 85.250969 45.689954 
L 85.560995 46.088096 
L 85.974363 47.234407 
L 86.387731 49.119067 
L 86.801099 51.961417 
L 87.214467 56.455803 
L 87.524494 62.532429 
L 87.731178 72.248148 
L 87.83452 88.162789 
L 88.041204 65.965778 
L 88.35123 59.786767 
L 88.764598 56.46609 
L 89.177966 55.078276 
L 89.487992 54.747999 
L 89.694676 54.78762 
L 90.004702 55.195286 
L 90.314728 56.013047 
L 90.728096 57.81077 
L 91.141464 60.699875 
L 91.45149 64.096448 
L 91.761516 70.044306 
L 91.9682 79.898459 
L 92.071542 93.120247 
L 92.278226 72.932221 
L 92.588252 66.678032 
L 93.00162 63.181376 
L 93.414989 61.61398 
L 93.725015 61.153372 
L 93.931699 61.108805 
L 94.138383 61.253453 
L 94.448409 61.814744 
L 94.861777 63.248121 
L 95.275145 65.678676 
L 95.688513 69.814758 
L 95.998539 75.720656 
L 96.205223 85.783341 
L 96.308565 96.82924 
L 96.515249 78.194127 
L 96.825275 71.933607 
L 97.238643 68.348393 
L 97.652011 66.681903 
L 97.962037 66.147135 
L 98.168721 66.053985 
L 98.375405 66.150975 
L 98.685431 66.642834 
L 98.995457 67.570979 
L 99.408826 69.632424 
L 99.822194 73.145956 
L 100.13222 77.826147 
L 100.338904 83.925229 
L 100.545588 99.810067 
L 100.752272 82.43114 
L 101.062298 76.194621 
L 101.475666 72.561437 
L 101.889034 70.83416 
L 102.19906 70.252468 
L 102.405744 70.128219 
L 102.612428 70.194516 
L 102.922454 70.64147 
L 103.23248 71.526604 
L 103.645848 73.535328 
L 104.059216 77.007391 
L 104.369242 81.682152 
L 104.575926 87.85011 
L 104.78261 102.310512 
L 104.989294 85.980417 
L 105.299321 79.783655 
L 105.712689 76.124884 
L 106.126057 74.358312 
L 106.436083 73.745156 
L 106.746109 73.599204 
L 106.952793 73.737332 
L 107.262819 74.295429 
L 107.572845 75.311549 
L 107.986213 77.577648 
L 108.296239 80.338396 
L 108.606265 85.020433 
L 108.812949 91.268446 
L 109.019633 104.470395 
L 109.226317 89.036455 
L 109.536343 82.888407 
L 109.949711 79.217781 
L 110.363079 77.425295 
L 110.673105 76.790383 
L 110.983132 76.622258 
L 111.189816 76.745738 
L 111.499842 77.28251 
L 111.809868 78.278711 
L 112.223236 80.52267 
L 112.533262 83.274742 
L 112.843288 87.972601 
L 113.049972 94.309354 
L 113.256656 106.377607 
L 113.46334 91.722939 
L 113.773366 85.628969 
L 114.186734 81.95557 
L 114.600102 80.146152 
L 114.910128 79.496044 
L 115.220154 79.312149 
L 115.426838 79.425165 
L 115.736864 79.94676 
L 116.04689 80.929047 
L 116.460258 83.158686 
L 116.770285 85.907883 
L 117.080311 90.627744 
L 117.286995 97.060579 
L 117.493679 108.091949 
L 117.700363 94.124354 
L 118.010389 88.087772 
L 118.423757 84.417972 
L 118.837125 82.598016 
L 119.147151 81.937419 
L 119.457177 81.742367 
L 119.663861 81.847942 
L 119.973887 82.358823 
L 120.283913 83.331576 
L 120.697281 85.552635 
L 121.007307 88.30326 
L 121.317333 93.049876 
L 121.524017 99.585417 
L 121.730701 109.656857 
L 121.937385 96.301871 
L 122.247411 90.324753 
L 122.66078 86.663261 
L 123.074148 84.837571 
L 123.384174 84.170039 
L 123.6942 83.967333 
L 123.900884 84.067772 
L 124.21091 84.571351 
L 124.520936 85.537935 
L 124.934304 87.754852 
L 125.24433 90.510274 
L 125.554356 95.287509 
L 125.76104 101.932025 
L 125.967724 111.105845 
L 126.174408 98.302183 
L 126.484434 92.385849 
L 126.897802 88.736328 
L 127.31117 86.9087 
L 127.621196 86.237064 
L 127.931222 86.029505 
L 128.137906 86.126659 
L 128.447933 86.625687 
L 128.757959 87.588827 
L 129.171327 89.805221 
L 129.481353 92.568221 
L 129.791379 97.379387 
L 129.998063 104.139033 
L 130.101405 113.050153 
L 130.204747 112.466417 
L 130.411431 100.162863 
L 130.411431 100.162863 
" clip-path="url(#p6c27950c6a)" style="fill: none; stroke: #1f77b4; stroke-width: 1.5; stroke-linecap: square"/>
   </g>
   <g id="patch_3">
    <path d="M 14.3 126.82 
L 14.3 10.8 
" style="fill: none; stroke: #000000; stroke-width: 0.8; stroke-linejoin: miter; stroke-linecap: square"/>
   </g>
   <g id="patch_4">
    <path d="M 130.32 126.82 
L 130.32 10.8 
" style="fill: none; stroke: #000000; stroke-width: 0.8; stroke-linejoin: miter; stroke-linecap: square"/>
   </g>
   <g id="patch_5">
    <path d="M 14.3 126.82 
L 130.32 126.82 
" style="fill: none; stroke: #000000; stroke-width: 0.8; stroke-linejoin: miter; stroke-linecap: square"/>
   </g>
   <g id="patch_6">
    <path d="M 14.3 10.8 
L 130.32 10.8 
" style="fill: none; stroke: #000000; stroke-width: 0.8; stroke-linejoin: miter; stroke-linecap: square"/>
   </g>
  </g>
 </g>
 <defs>
  <clipPath id="p6c27950c6a">
   <rect x="14.3" y="10.8" width="116.02" height="116.02"/>
  </clipPath>
 </defs>
</svg>
