<?xml version="1.0" standalone="no"?><!DOCTYPE svg PUBLIC "-//W3C//DTD SVG 1.1//EN" "http://www.w3.org/Graphics/SVG/1.1/DTD/svg11.dtd"><svg t="1616858302517" class="icon" viewBox="0 0 1024 1024" version="1.1" xmlns="http://www.w3.org/2000/svg" p-id="12767" xmlns:xlink="http://www.w3.org/1999/xlink" width="200" height="200"><defs><style type="text/css"></style></defs><path d="M827.076923 0H196.923077a131.282051 131.282051 0 0 0-131.282051 131.282051v761.435898a131.282051 131.282051 0 0 0 131.282051 131.282051h212.676923a26.25641 26.25641 0 0 0 26.25641-26.25641 26.25641 26.25641 0 0 0-26.25641-26.256411H196.923077a78.769231 78.769231 0 0 1-78.769231-78.76923V131.282051a78.769231 78.769231 0 0 1 78.769231-78.76923h630.153846a78.769231 78.769231 0 0 1 78.769231 78.76923v341.333334a26.25641 26.25641 0 0 0 26.25641 26.25641 26.25641 26.25641 0 0 0 26.25641-26.25641V131.282051a131.282051 131.282051 0 0 0-131.282051-131.282051z" p-id="12768" fill="#1296db"></path><path d="M748.307692 1024a210.051282 210.051282 0 1 1 210.051282-210.051282 210.051282 210.051282 0 0 1-210.051282 210.051282z m0-378.092308a168.041026 168.041026 0 1 0 168.041026 168.041026 168.30359 168.30359 0 0 0-168.041026-168.041026z" p-id="12769" fill="#1296db"></path><path d="M708.923077 720.475897m21.005128 0l0 0q21.005128 0 21.005128 21.005129l0 115.528205q0 21.005128-21.005128 21.005128l0 0q-21.005128 0-21.005128-21.005128l0-115.528205q0-21.005128 21.005128-21.005129Z" p-id="12770" fill="#1296db"></path><path d="M840.205128 836.004103m0 21.005128l0 0q0 21.005128-21.005128 21.005128l-89.271795 0q-21.005128 0-21.005128-21.005128l0 0q0-21.005128 21.005128-21.005128l89.271795 0q21.005128 0 21.005128 21.005128Z" p-id="12771" fill="#1296db"></path><path d="M501.092375 337.654373m-18.566086-18.566086l0 0q-18.566086-18.566086 0-37.132172l148.528686-148.528686q18.566086-18.566086 37.132172 0l0 0q18.566086 18.566086 0 37.132172l-148.528686 148.528686q-18.566086 18.566086-37.132172 0Z" p-id="12772" fill="#1296db"></path><path d="M538.43472 300.498028m-18.566086 18.566085l0 0q-18.566086 18.566086-37.132171 0l-74.264343-74.264343q-18.566086-18.566086 0-37.132171l0 0q18.566086-18.566086 37.132171 0l74.264343 74.264343q18.566086 18.566086 0 37.132171Z" p-id="12773" fill="#1296db"></path><path d="M249.435897 431.655385m26.256411 0l525.128205 0q26.25641 0 26.25641 26.25641l0 0q0 26.25641-26.25641 26.25641l-525.128205 0q-26.25641 0-26.256411-26.25641l0 0q0-26.25641 26.256411-26.25641Z" p-id="12774" fill="#1296db"></path><path d="M249.435897 589.193846m26.256411 0l262.564102 0q26.25641 0 26.256411 26.25641l0 0q0 26.25641-26.256411 26.256411l-262.564102 0q-26.25641 0-26.256411-26.256411l0 0q0-26.25641 26.256411-26.25641Z" p-id="12775" fill="#1296db"></path><path d="M249.435897 746.732308m26.256411 0l131.282051 0q26.25641 0 26.25641 26.25641l0 0q0 26.25641-26.25641 26.25641l-131.282051 0q-26.25641 0-26.256411-26.25641l0 0q0-26.25641 26.256411-26.25641Z" p-id="12776" fill="#1296db"></path></svg>