<?xml version="1.0" standalone="no"?><!DOCTYPE svg PUBLIC "-//W3C//DTD SVG 1.1//EN" "http://www.w3.org/Graphics/SVG/1.1/DTD/svg11.dtd"><svg t="1613446565477" class="icon" viewBox="0 0 1024 1024" version="1.1" xmlns="http://www.w3.org/2000/svg" p-id="48213" xmlns:xlink="http://www.w3.org/1999/xlink" width="200" height="200"><defs><style type="text/css"></style></defs><path d="M970.264 172.236c-28.849 19.268-88.061 52.677-88.061 52.677C793.025 97.569 622.195 23.887 514.829 23.887c-224.211 0-346.443 130.156-439.489 258.06-5.614 9.417 15.469 13.641 27.364 22.283 17.647 12.789 37.537 27.751 49.259 33.701 26.844 13.615 27.028 24.112 33.79 13.996C234.479 278.891 315.815 156.31 502.89 156.31c79.687 0 205.263 66.635 259.466 141.506 0 0-61.797 32.47-91.675 51.724-16.612 10.707-14.065 24.881 8.869 37.702 70.46 39.334 222.193 121.743 281.22 157.132 34.406 20.621 37.583 0.896 37.589-20.986 0-64.342 0.14-248.421 0.643-328.32 0.144-24.609-6.023-38.052-28.738-22.832z m-50.194 546.83c-17.646-12.789-37.529-27.75-49.266-33.707-26.836-13.617-27.027-24.105-33.775-14.01-48.747 73.055-130.076 195.643-317.151 195.643-79.678 0-205.257-66.643-259.463-141.512 0 0 61.795-32.475 91.674-51.73 16.625-10.721 14.073-24.881-8.872-37.697-70.451-39.334-222.186-121.748-281.214-157.144-34.413-20.627-37.581-0.89-37.587 20.976 0 64.365-0.146 248.432-0.642 328.344-0.146 24.604 6.02 38.039 28.736 22.822 28.836-19.266 88.06-52.656 88.06-52.656 89.159 127.324 260.015 201.002 367.381 201.002 224.204 0 346.431-130.145 439.477-258.053 5.621-9.426-15.462-13.655-27.358-22.278z m0 0" p-id="48214" fill="#1296db"></path></svg>