<?xml version="1.0" encoding="utf-8" standalone="no"?>
<!DOCTYPE svg PUBLIC "-//W3C//DTD SVG 1.1//EN"
  "http://www.w3.org/Graphics/SVG/1.1/DTD/svg11.dtd">
<svg xmlns:xlink="http://www.w3.org/1999/xlink" width="141.732283pt" height="141.732283pt" viewBox="0 0 141.732283 141.732283" xmlns="http://www.w3.org/2000/svg" version="1.1">
 <metadata>
  <rdf:RDF xmlns:dc="http://purl.org/dc/elements/1.1/" xmlns:cc="http://creativecommons.org/ns#" xmlns:rdf="http://www.w3.org/1999/02/22-rdf-syntax-ns#">
   <cc:Work>
    <dc:type rdf:resource="http://purl.org/dc/dcmitype/StillImage"/>
    <dc:date>2022-03-20T22:10:42.652877</dc:date>
    <dc:format>image/svg+xml</dc:format>
    <dc:creator>
     <cc:Agent>
      <dc:title>Matplotlib v3.5.1, https://matplotlib.org/</dc:title>
     </cc:Agent>
    </dc:creator>
   </cc:Work>
  </rdf:RDF>
 </metadata>
 <defs>
  <style type="text/css">*{stroke-linejoin: round; stroke-linecap: butt}</style>
 </defs>
 <g id="figure_1">
  <g id="patch_1">
   <path d="M 0 141.732283 
L 141.732283 141.732283 
L 141.732283 0 
L 0 0 
z
" style="fill: #ffffff"/>
  </g>
  <g id="axes_1">
   <g id="patch_2">
    <path d="M 8.503937 132.094488 
L 137.19685 132.094488 
L 137.19685 5.385827 
L 8.503937 5.385827 
z
" style="fill: #ffffff"/>
   </g>
   <g id="PathCollection_1">
    <defs>
     <path id="m0c4b255e2e" d="M 0 3 
C 0.795609 3 1.55874 2.683901 2.12132 2.12132 
C 2.683901 1.55874 3 0.795609 3 0 
C 3 -0.795609 2.683901 -1.55874 2.12132 -2.12132 
C 1.55874 -2.683901 0.795609 -3 0 -3 
C -0.795609 -3 -1.55874 -2.683901 -2.12132 -2.12132 
C -2.683901 -1.55874 -3 -0.795609 -3 0 
C -3 0.795609 -2.683901 1.55874 -2.12132 2.12132 
C -1.55874 2.683901 -0.795609 3 0 3 
z
" style="stroke: #1f77b4; stroke-opacity: 0.8"/>
    </defs>
    <g clip-path="url(#p17e128d15c)">
     <use xlink:href="#m0c4b255e2e" x="-1" y="114.98595" style="fill: #1f77b4; fill-opacity: 0.8; stroke: #1f77b4; stroke-opacity: 0.8"/>
     <use xlink:href="#m0c4b255e2e" x="1.137289" y="138.397227" style="fill: #1f77b4; fill-opacity: 0.8; stroke: #1f77b4; stroke-opacity: 0.8"/>
     <use xlink:href="#m0c4b255e2e" x="4.242491" y="121.318328" style="fill: #1f77b4; fill-opacity: 0.8; stroke: #1f77b4; stroke-opacity: 0.8"/>
     <use xlink:href="#m0c4b255e2e" x="7.347693" y="103.342745" style="fill: #1f77b4; fill-opacity: 0.8; stroke: #1f77b4; stroke-opacity: 0.8"/>
     <use xlink:href="#m0c4b255e2e" x="10.452894" y="141.359914" style="fill: #1f77b4; fill-opacity: 0.8; stroke: #1f77b4; stroke-opacity: 0.8"/>
     <use xlink:href="#m0c4b255e2e" x="13.558096" y="178.51777" style="fill: #1f77b4; fill-opacity: 0.8; stroke: #1f77b4; stroke-opacity: 0.8"/>
     <use xlink:href="#m0c4b255e2e" x="16.663298" y="54.66215" style="fill: #1f77b4; fill-opacity: 0.8; stroke: #1f77b4; stroke-opacity: 0.8"/>
     <use xlink:href="#m0c4b255e2e" x="19.7685" y="49.99154" style="fill: #1f77b4; fill-opacity: 0.8; stroke: #1f77b4; stroke-opacity: 0.8"/>
     <use xlink:href="#m0c4b255e2e" x="22.873702" y="126.989493" style="fill: #1f77b4; fill-opacity: 0.8; stroke: #1f77b4; stroke-opacity: 0.8"/>
     <use xlink:href="#m0c4b255e2e" x="25.978903" y="80.763985" style="fill: #1f77b4; fill-opacity: 0.8; stroke: #1f77b4; stroke-opacity: 0.8"/>
     <use xlink:href="#m0c4b255e2e" x="29.084105" y="67.15501" style="fill: #1f77b4; fill-opacity: 0.8; stroke: #1f77b4; stroke-opacity: 0.8"/>
     <use xlink:href="#m0c4b255e2e" x="32.189307" y="148.828393" style="fill: #1f77b4; fill-opacity: 0.8; stroke: #1f77b4; stroke-opacity: 0.8"/>
     <use xlink:href="#m0c4b255e2e" x="35.294509" y="14.239653" style="fill: #1f77b4; fill-opacity: 0.8; stroke: #1f77b4; stroke-opacity: 0.8"/>
     <use xlink:href="#m0c4b255e2e" x="38.399711" y="21.114216" style="fill: #1f77b4; fill-opacity: 0.8; stroke: #1f77b4; stroke-opacity: 0.8"/>
     <use xlink:href="#m0c4b255e2e" x="41.504912" y="16.922297" style="fill: #1f77b4; fill-opacity: 0.8; stroke: #1f77b4; stroke-opacity: 0.8"/>
     <use xlink:href="#m0c4b255e2e" x="44.610114" y="124.22957" style="fill: #1f77b4; fill-opacity: 0.8; stroke: #1f77b4; stroke-opacity: 0.8"/>
     <use xlink:href="#m0c4b255e2e" x="47.715316" y="114.973404" style="fill: #1f77b4; fill-opacity: 0.8; stroke: #1f77b4; stroke-opacity: 0.8"/>
     <use xlink:href="#m0c4b255e2e" x="50.820518" y="15.209876" style="fill: #1f77b4; fill-opacity: 0.8; stroke: #1f77b4; stroke-opacity: 0.8"/>
     <use xlink:href="#m0c4b255e2e" x="53.92572" y="43.621032" style="fill: #1f77b4; fill-opacity: 0.8; stroke: #1f77b4; stroke-opacity: 0.8"/>
     <use xlink:href="#m0c4b255e2e" x="57.030921" y="32.133471" style="fill: #1f77b4; fill-opacity: 0.8; stroke: #1f77b4; stroke-opacity: 0.8"/>
     <use xlink:href="#m0c4b255e2e" x="60.136123" y="75.049457" style="fill: #1f77b4; fill-opacity: 0.8; stroke: #1f77b4; stroke-opacity: 0.8"/>
     <use xlink:href="#m0c4b255e2e" x="62.510783" y="-1" style="fill: #1f77b4; fill-opacity: 0.8; stroke: #1f77b4; stroke-opacity: 0.8"/>
     <use xlink:href="#m0c4b255e2e" x="63.670927" y="-1" style="fill: #1f77b4; fill-opacity: 0.8; stroke: #1f77b4; stroke-opacity: 0.8"/>
     <use xlink:href="#m0c4b255e2e" x="66.346527" y="144.711848" style="fill: #1f77b4; fill-opacity: 0.8; stroke: #1f77b4; stroke-opacity: 0.8"/>
     <use xlink:href="#m0c4b255e2e" x="69.451729" y="32.408327" style="fill: #1f77b4; fill-opacity: 0.8; stroke: #1f77b4; stroke-opacity: 0.8"/>
     <use xlink:href="#m0c4b255e2e" x="72.556931" y="42.459925" style="fill: #1f77b4; fill-opacity: 0.8; stroke: #1f77b4; stroke-opacity: 0.8"/>
     <use xlink:href="#m0c4b255e2e" x="75.662132" y="115.111686" style="fill: #1f77b4; fill-opacity: 0.8; stroke: #1f77b4; stroke-opacity: 0.8"/>
     <use xlink:href="#m0c4b255e2e" x="78.767334" y="26.270402" style="fill: #1f77b4; fill-opacity: 0.8; stroke: #1f77b4; stroke-opacity: 0.8"/>
     <use xlink:href="#m0c4b255e2e" x="81.872536" y="79.503778" style="fill: #1f77b4; fill-opacity: 0.8; stroke: #1f77b4; stroke-opacity: 0.8"/>
     <use xlink:href="#m0c4b255e2e" x="84.977738" y="35.296964" style="fill: #1f77b4; fill-opacity: 0.8; stroke: #1f77b4; stroke-opacity: 0.8"/>
     <use xlink:href="#m0c4b255e2e" x="88.08294" y="50.820781" style="fill: #1f77b4; fill-opacity: 0.8; stroke: #1f77b4; stroke-opacity: 0.8"/>
     <use xlink:href="#m0c4b255e2e" x="91.188141" y="95.142106" style="fill: #1f77b4; fill-opacity: 0.8; stroke: #1f77b4; stroke-opacity: 0.8"/>
     <use xlink:href="#m0c4b255e2e" x="94.293343" y="51.038432" style="fill: #1f77b4; fill-opacity: 0.8; stroke: #1f77b4; stroke-opacity: 0.8"/>
     <use xlink:href="#m0c4b255e2e" x="97.398545" y="71.673366" style="fill: #1f77b4; fill-opacity: 0.8; stroke: #1f77b4; stroke-opacity: 0.8"/>
     <use xlink:href="#m0c4b255e2e" x="100.503747" y="89.589044" style="fill: #1f77b4; fill-opacity: 0.8; stroke: #1f77b4; stroke-opacity: 0.8"/>
     <use xlink:href="#m0c4b255e2e" x="103.608949" y="16.067906" style="fill: #1f77b4; fill-opacity: 0.8; stroke: #1f77b4; stroke-opacity: 0.8"/>
     <use xlink:href="#m0c4b255e2e" x="106.71415" y="41.775918" style="fill: #1f77b4; fill-opacity: 0.8; stroke: #1f77b4; stroke-opacity: 0.8"/>
     <use xlink:href="#m0c4b255e2e" x="109.819352" y="12.481001" style="fill: #1f77b4; fill-opacity: 0.8; stroke: #1f77b4; stroke-opacity: 0.8"/>
     <use xlink:href="#m0c4b255e2e" x="112.924554" y="38.472503" style="fill: #1f77b4; fill-opacity: 0.8; stroke: #1f77b4; stroke-opacity: 0.8"/>
     <use xlink:href="#m0c4b255e2e" x="116.029756" y="44.656729" style="fill: #1f77b4; fill-opacity: 0.8; stroke: #1f77b4; stroke-opacity: 0.8"/>
     <use xlink:href="#m0c4b255e2e" x="119.134958" y="30.913194" style="fill: #1f77b4; fill-opacity: 0.8; stroke: #1f77b4; stroke-opacity: 0.8"/>
     <use xlink:href="#m0c4b255e2e" x="122.240159" y="58.329083" style="fill: #1f77b4; fill-opacity: 0.8; stroke: #1f77b4; stroke-opacity: 0.8"/>
     <use xlink:href="#m0c4b255e2e" x="125.345361" y="9.219885" style="fill: #1f77b4; fill-opacity: 0.8; stroke: #1f77b4; stroke-opacity: 0.8"/>
     <use xlink:href="#m0c4b255e2e" x="128.450563" y="37.2713" style="fill: #1f77b4; fill-opacity: 0.8; stroke: #1f77b4; stroke-opacity: 0.8"/>
     <use xlink:href="#m0c4b255e2e" x="131.555765" y="48.203392" style="fill: #1f77b4; fill-opacity: 0.8; stroke: #1f77b4; stroke-opacity: 0.8"/>
     <use xlink:href="#m0c4b255e2e" x="134.660967" y="82.978987" style="fill: #1f77b4; fill-opacity: 0.8; stroke: #1f77b4; stroke-opacity: 0.8"/>
     <use xlink:href="#m0c4b255e2e" x="137.766168" y="13.729682" style="fill: #1f77b4; fill-opacity: 0.8; stroke: #1f77b4; stroke-opacity: 0.8"/>
     <use xlink:href="#m0c4b255e2e" x="138.964982" y="-1" style="fill: #1f77b4; fill-opacity: 0.8; stroke: #1f77b4; stroke-opacity: 0.8"/>
    </g>
   </g>
   <g id="PolyCollection_1">
    <path d="M -11.283518 85.378687 
L -11.283518 132.808343 
L -9.7466 131.520895 
L -8.209682 130.312824 
L -6.672764 129.165901 
L -5.135846 128.018978 
L -3.598928 126.985598 
L -2.06201 125.958373 
L -0.525092 124.931149 
L 1.011826 123.903924 
L 2.548744 122.876699 
L 4.085662 121.754434 
L 5.62258 120.590172 
L 7.159499 119.422282 
L 8.696417 118.319988 
L 10.233335 117.148525 
L 11.770253 115.92019 
L 13.307171 114.749197 
L 14.844089 113.578205 
L 16.381007 112.339805 
L 17.917925 111.047554 
L 19.454843 109.78444 
L 20.991761 108.519531 
L 22.528679 107.370437 
L 24.065597 106.221343 
L 25.602515 105.0711 
L 27.139433 103.823703 
L 28.676351 102.779971 
L 30.21327 101.636668 
L 31.750188 100.548827 
L 33.287106 99.509678 
L 34.824024 98.396514 
L 36.360942 97.231946 
L 37.89786 96.099482 
L 39.434778 95.111627 
L 40.971696 94.036792 
L 42.508614 92.815482 
L 44.045532 91.636354 
L 45.58245 90.461738 
L 47.119368 89.313051 
L 48.656286 88.284351 
L 50.193204 87.083957 
L 51.730122 86.085209 
L 53.26704 84.985327 
L 54.803959 83.920795 
L 56.340877 82.809289 
L 57.877795 81.851909 
L 59.414713 80.824285 
L 60.951631 79.787 
L 62.488549 78.8304 
L 64.025467 77.876368 
L 65.562385 76.872056 
L 67.099303 75.930461 
L 68.636221 74.920407 
L 70.173139 74.051612 
L 71.710057 73.043377 
L 73.246975 71.963731 
L 74.783893 71.231169 
L 76.320811 70.291021 
L 77.85773 69.37407 
L 79.394648 68.410725 
L 80.931566 67.488278 
L 82.468484 66.56339 
L 84.005402 65.808925 
L 85.54232 64.912113 
L 87.079238 63.985571 
L 88.616156 63.173662 
L 90.153074 62.3413 
L 91.689992 61.557056 
L 93.22691 60.676432 
L 94.763828 59.756631 
L 96.300746 58.83683 
L 97.837664 57.923908 
L 99.374582 57.366587 
L 100.911501 56.586157 
L 102.448419 55.807198 
L 103.985337 54.96845 
L 105.522255 54.199889 
L 107.059173 53.490922 
L 108.596091 52.787265 
L 110.133009 52.202513 
L 111.669927 51.547107 
L 113.206845 50.918 
L 114.743763 50.355817 
L 116.280681 49.795499 
L 117.817599 48.983938 
L 119.354517 48.339392 
L 120.891435 47.696374 
L 122.428353 47.050004 
L 123.965272 46.320977 
L 125.50219 45.767197 
L 127.039108 45.169436 
L 128.576026 44.512825 
L 130.112944 43.839996 
L 131.649862 43.192505 
L 133.18678 42.544992 
L 134.723698 41.882735 
L 136.260616 41.255224 
L 137.797534 40.578863 
L 139.334452 39.818718 
L 140.87137 39.058573 
L 140.87137 4.915012 
L 140.87137 4.915012 
L 139.334452 6.195978 
L 137.797534 7.486241 
L 136.260616 8.777118 
L 134.723698 9.930783 
L 133.18678 11.179256 
L 131.649862 12.436085 
L 130.112944 13.752349 
L 128.576026 14.928016 
L 127.039108 16.050596 
L 125.50219 17.128194 
L 123.965272 18.205792 
L 122.428353 19.28339 
L 120.891435 20.36373 
L 119.354517 21.448362 
L 117.817599 22.751002 
L 116.280681 23.978986 
L 114.743763 24.893444 
L 113.206845 25.858578 
L 111.669927 26.952424 
L 110.133009 28.011172 
L 108.596091 29.002911 
L 107.059173 30.079735 
L 105.522255 31.157486 
L 103.985337 32.157679 
L 102.448419 33.109967 
L 100.911501 33.97278 
L 99.374582 34.889602 
L 97.837664 35.867977 
L 96.300746 36.848449 
L 94.763828 37.823901 
L 93.22691 38.754484 
L 91.689992 39.799082 
L 90.153074 40.71111 
L 88.616156 41.763157 
L 87.079238 42.742044 
L 85.54232 43.629813 
L 84.005402 44.504682 
L 82.468484 45.496453 
L 80.931566 46.271354 
L 79.394648 47.117572 
L 77.85773 47.996428 
L 76.320811 48.860941 
L 74.783893 49.769726 
L 73.246975 50.718384 
L 71.710057 51.591411 
L 70.173139 52.320945 
L 68.636221 53.216226 
L 67.099303 53.890675 
L 65.562385 54.756121 
L 64.025467 55.274047 
L 62.488549 55.91749 
L 60.951631 56.563317 
L 59.414713 57.389882 
L 57.877795 58.151359 
L 56.340877 58.887012 
L 54.803959 59.663768 
L 53.26704 60.255921 
L 51.730122 60.971153 
L 50.193204 61.775854 
L 48.656286 62.445033 
L 47.119368 63.151953 
L 45.58245 63.770474 
L 44.045532 64.39215 
L 42.508614 64.941423 
L 40.971696 65.631727 
L 39.434778 66.127049 
L 37.89786 66.738369 
L 36.360942 67.333746 
L 34.824024 68.094824 
L 33.287106 68.81789 
L 31.750188 69.383956 
L 30.21327 69.972853 
L 28.676351 70.542961 
L 27.139433 71.114311 
L 25.602515 71.760331 
L 24.065597 72.315073 
L 22.528679 72.846956 
L 20.991761 73.477517 
L 19.454843 73.98997 
L 17.917925 74.613296 
L 16.381007 75.255911 
L 14.844089 75.898642 
L 13.307171 76.541373 
L 11.770253 77.184104 
L 10.233335 77.775583 
L 8.696417 78.308298 
L 7.159499 78.838706 
L 5.62258 79.369114 
L 4.085662 79.899523 
L 2.548744 80.429931 
L 1.011826 80.96034 
L -0.525092 81.492754 
L -2.06201 82.064063 
L -3.598928 82.598516 
L -5.135846 83.132968 
L -6.672764 83.66742 
L -8.209682 84.297501 
L -9.7466 84.846009 
L -11.283518 85.378687 
z
" clip-path="url(#p17e128d15c)" style="fill: #ff7f0e; fill-opacity: 0.278431"/>
   </g>
   <g id="matplotlib.axis_1"/>
   <g id="matplotlib.axis_2"/>
   <g id="line2d_1">
    <path d="M -1 103.321179 
L -0.525092 103.050579 
L 1.011826 102.174855 
L 2.548744 101.29913 
L 4.085662 100.423405 
L 5.62258 99.54768 
L 7.159499 98.671955 
L 8.696417 97.79623 
L 10.233335 96.920506 
L 11.770253 96.044781 
L 13.307171 95.169056 
L 14.844089 94.293331 
L 16.381007 93.417606 
L 17.917925 92.541881 
L 19.454843 91.666156 
L 20.991761 90.790432 
L 22.528679 89.914707 
L 24.065597 89.038982 
L 25.602515 88.163257 
L 27.139433 87.287532 
L 28.676351 86.411807 
L 30.21327 85.536083 
L 31.750188 84.660358 
L 33.287106 83.784633 
L 34.824024 82.908908 
L 36.360942 82.033183 
L 37.89786 81.157458 
L 39.434778 80.281734 
L 40.971696 79.406009 
L 42.508614 78.530284 
L 44.045532 77.654559 
L 45.58245 76.778834 
L 47.119368 75.903109 
L 48.656286 75.027385 
L 50.193204 74.15166 
L 51.730122 73.275935 
L 53.26704 72.40021 
L 54.803959 71.524485 
L 56.340877 70.64876 
L 57.877795 69.773035 
L 59.414713 68.897311 
L 60.951631 68.021586 
L 62.488549 67.145861 
L 64.025467 66.270136 
L 65.562385 65.394411 
L 67.099303 64.518686 
L 68.636221 63.642962 
L 70.173139 62.767237 
L 71.710057 61.891512 
L 73.246975 61.015787 
L 74.783893 60.140062 
L 76.320811 59.264337 
L 77.85773 58.388613 
L 79.394648 57.512888 
L 80.931566 56.637163 
L 82.468484 55.761438 
L 84.005402 54.885713 
L 85.54232 54.009988 
L 87.079238 53.134263 
L 88.616156 52.258539 
L 90.153074 51.382814 
L 91.689992 50.507089 
L 93.22691 49.631364 
L 94.763828 48.755639 
L 96.300746 47.879914 
L 97.837664 47.00419 
L 99.374582 46.128465 
L 100.911501 45.25274 
L 102.448419 44.377015 
L 103.985337 43.50129 
L 105.522255 42.625565 
L 107.059173 41.749841 
L 108.596091 40.874116 
L 110.133009 39.998391 
L 111.669927 39.122666 
L 113.206845 38.246941 
L 114.743763 37.371216 
L 116.280681 36.495491 
L 117.817599 35.619767 
L 119.354517 34.744042 
L 120.891435 33.868317 
L 122.428353 32.992592 
L 123.965272 32.116867 
L 125.50219 31.241142 
L 127.039108 30.365418 
L 128.576026 29.489693 
L 130.112944 28.613968 
L 131.649862 27.738243 
L 133.18678 26.862518 
L 134.723698 25.986793 
L 136.260616 25.111069 
L 137.797534 24.235344 
L 139.334452 23.359619 
L 140.87137 22.483894 
" clip-path="url(#p17e128d15c)" style="fill: none; stroke: #ff7f0e; stroke-width: 3; stroke-linecap: square"/>
   </g>
   <g id="patch_3">
    <path d="M 8.503937 132.094488 
L 8.503937 5.385827 
" style="fill: none; stroke: #1f77b4; stroke-width: 2; stroke-linejoin: miter; stroke-linecap: square"/>
   </g>
   <g id="patch_4">
    <path d="M 137.19685 132.094488 
L 137.19685 5.385827 
" style="fill: none; stroke: #1f77b4; stroke-width: 2; stroke-linejoin: miter; stroke-linecap: square"/>
   </g>
   <g id="patch_5">
    <path d="M 8.503937 132.094488 
L 137.19685 132.094488 
" style="fill: none; stroke: #1f77b4; stroke-width: 2; stroke-linejoin: miter; stroke-linecap: square"/>
   </g>
   <g id="patch_6">
    <path d="M 8.503937 5.385827 
L 137.19685 5.385827 
" style="fill: none; stroke: #1f77b4; stroke-width: 2; stroke-linejoin: miter; stroke-linecap: square"/>
   </g>
  </g>
 </g>
 <defs>
  <clipPath id="p17e128d15c">
   <rect x="8.503937" y="5.385827" width="128.692913" height="126.708661"/>
  </clipPath>
 </defs>
</svg>
