<?xml version="1.0" standalone="no"?><!DOCTYPE svg PUBLIC "-//W3C//DTD SVG 1.1//EN" "http://www.w3.org/Graphics/SVG/1.1/DTD/svg11.dtd"><svg t="1613446006390" class="icon" viewBox="0 0 1163 1024" version="1.1" xmlns="http://www.w3.org/2000/svg" p-id="27655" xmlns:xlink="http://www.w3.org/1999/xlink" width="227.1484375" height="200"><defs><style type="text/css"></style></defs><path d="M1150.640562 773.653583v-0.452878L980.550405 600.379554a44.368362 44.368362 0 0 0-60.932733 2.387904 46.138705 46.138705 0 0 0-2.387905 61.948279l93.320403 94.843721H781.283899c-24.798525 0-44.889858 20.4207-44.889859 45.603485s20.091334 45.589761 44.889859 45.589761h229.266271l-93.320403 94.857444a46.303388 46.303388 0 0 0-11.966969 44.148785 45.452525 45.452525 0 0 0 31.646595 32.607246 44.615387 44.615387 0 0 0 43.613565-11.541538L1150.640562 837.962319a46.111258 46.111258 0 0 0 0-64.308736z m-426.913394 136.549707H181.398394c-59.999529 0-108.841781-52.328043-108.841781-116.650503V194.353462c0-63.128508 47.236592-114.441005 105.753974-116.266243 0 0.686179-0.315643 1.152781-0.315643 1.825237v383.478236c0 64.295013 48.828528 116.650503 108.841781 116.650503h497.507534c59.999529 0 108.841781-52.31432 108.841781-116.650503V79.912456c0-0.34309-0.219577-0.686179-0.219578-1.029269 55.113932 5.709013 98.521643 54.894354 98.521643 115.470275v314.73678h72.58406V194.353462C1063.962376 87.199682 982.581496 0 882.563982 0H181.398394C81.38088 0 0 87.199682 0 194.353462v599.364008c0 107.167503 81.394604 194.367185 181.398394 194.367185h542.328774a1.98992 1.98992 0 0 0 1.98992-1.98992V912.206934a1.98992 1.98992 0 0 0-1.98992-2.003644zM252.431689 77.730406h566.207818a2.044815 2.044815 0 0 1 1.98992 2.154603v383.505683c0 21.422522-16.276176 38.865203-36.271445 38.865203H286.726936c-20.008992 0-36.285168-17.442681-36.285168-38.865203V79.871286a2.031091 2.031091 0 0 1 1.989921-2.14088z m510.160682 358.734606c20.008992 0 36.271445-17.428958 36.271445-38.865203v-237.006375c0-21.436245-16.276176-38.878926-36.271445-38.878927s-36.271445 17.428958-36.271445 38.878927v236.992651c0 21.546034 16.276176 38.878926 36.271445 38.878927z" fill="#1296db" p-id="27656"></path></svg>