<?xml version="1.0" standalone="no"?><!DOCTYPE svg PUBLIC "-//W3C//DTD SVG 1.1//EN" "http://www.w3.org/Graphics/SVG/1.1/DTD/svg11.dtd"><svg t="1613445982184" class="icon" viewBox="0 0 1024 1024" version="1.1" xmlns="http://www.w3.org/2000/svg" p-id="26671" xmlns:xlink="http://www.w3.org/1999/xlink" width="200" height="200"><defs><style type="text/css"></style></defs><path d="M1010.666819 282.656439c-8.887231-21.32375-19.560781-38.217895-32.01131-50.659084l-186.666873-186.669208c-12.434184-12.434184-29.328329-23.105399-50.661419-31.999635C720.005801 4.443615 700.44502 0 682.670558 0L64.001605 0C46.229479 0 31.114648 6.21826 18.668789 18.664119c-12.445859 12.438854-18.661784 27.55135-18.661784 45.332816l0 896.00613c0 17.786137 6.215924 32.898632 18.661784 45.339822 12.445859 12.434184 27.56069 18.659449 45.332816 18.659449l896.003794 0c17.788472 0 32.898632-6.225265 45.339822-18.659449 12.434184-12.441189 18.650108-27.553685 18.650108-45.339822L1023.99533 341.334112C1023.99533 323.55031 1019.55405 303.996534 1010.666819 282.656439zM426.673477 106.658445c0-5.776934 2.113228-10.766953 6.337347-14.998078 4.21945-4.212445 9.221144-6.323337 14.998078-6.323337l128.005546 0c5.762923 0 10.762282 2.106222 14.984067 6.323337 4.23346 4.231125 6.344353 9.221144 6.344353 14.998078l0 213.335571c0 5.786274-2.124903 10.783298-6.344353 15.007418-4.221785 4.21011-9.221144 6.323337-14.984067 6.323337l-128.005546 0c-5.776934 0-10.780963-2.106222-14.998078-6.323337-4.22412-4.231125-6.337347-9.221144-6.337347-15.007418L426.673477 106.658445zM768.014594 938.67231 255.999416 938.67231 255.999416 682.665888l512.015178 0L768.014594 938.67231zM938.693325 938.67231l-85.351041 0-0.016345 0L853.325939 661.330463c0-17.786137-6.21826-32.889292-18.659449-45.339822-12.441189-12.441189-27.553685-18.666454-45.323476-18.666454L234.668661 597.324188c-17.779132 0-32.893962 6.225265-45.339822 18.666454-12.438854 12.441189-18.661784 27.553685-18.661784 45.339822l0 277.341847L85.33236 938.67231 85.33236 85.32769l85.33236 0 0 277.337176c0 17.781467 6.215924 32.886957 18.661784 45.332816 12.445859 12.438854 27.56069 18.664119 45.339822 18.664119l384.014302 0c17.769792 0 32.898632-6.225265 45.323476-18.664119 12.434184-12.438854 18.666454-27.55135 18.666454-45.332816L682.670558 85.32769c6.664256 0 15.324986 2.218305 26.003206 6.661921 10.675885 4.44128 18.227463 8.884896 22.671078 13.328511l187.346375 187.341705c4.44128 4.443615 8.887231 12.118951 13.328511 23.002657 4.457626 10.893046 6.671261 19.451033 6.671261 25.671628L938.69099 938.67231z" p-id="26672" fill="#1296db"></path></svg>