<?xml version="1.0" standalone="no"?><!DOCTYPE svg PUBLIC "-//W3C//DTD SVG 1.1//EN" "http://www.w3.org/Graphics/SVG/1.1/DTD/svg11.dtd"><svg t="1613446600406" class="icon" viewBox="0 0 1024 1024" version="1.1" xmlns="http://www.w3.org/2000/svg" p-id="50381" xmlns:xlink="http://www.w3.org/1999/xlink" width="200" height="200"><defs><style type="text/css"></style></defs><path d="M931.84 865.792H120.32V123.904c0-15.36-12.8-28.16-28.16-28.16s-28.16 12.8-28.16 28.16V921.6H931.84c15.36 0 28.16-12.8 28.16-28.16 0-14.848-12.8-27.648-28.16-27.648z" p-id="50382" fill="#1296db"></path><path d="M661.504 617.472c0 46.592 37.888 84.48 84.48 84.48s84.48-37.888 84.48-84.48-37.888-84.48-84.48-84.48c-46.592-0.512-84.48 37.376-84.48 84.48M596.48 419.84c41.472 0 75.264-33.792 75.264-75.264s-33.792-75.264-75.264-75.264-75.264 33.792-75.264 75.264S555.008 419.84 596.48 419.84z m177.664-139.264c41.472 0 75.264-33.792 75.264-75.264s-33.792-75.264-75.264-75.264-75.264 33.792-75.264 75.264 33.792 75.264 75.264 75.264zM838.144 476.16c41.472 0 75.264-33.792 75.264-75.264s-33.792-75.264-75.264-75.264S762.88 359.424 762.88 400.896 796.672 476.16 838.144 476.16zM153.088 673.792c0 36.352 29.696 66.048 66.048 66.048 36.352 0 66.048-29.696 66.048-66.048 0-36.352-29.696-66.048-66.048-66.048-36.352 0-66.048 29.696-66.048 66.048z m188.416-103.424c51.712 0 94.208-41.984 94.208-94.208 0-51.712-41.984-94.208-94.208-94.208S247.296 424.448 247.296 476.16c0 52.224 41.984 94.208 94.208 94.208z m18.944 178.688c0 36.352 29.696 66.048 66.048 66.048 36.352 0 66.048-29.696 66.048-66.048 0-36.352-29.696-66.048-66.048-66.048-36.864 0-66.048 29.696-66.048 66.048z m178.688-66.048c36.352 0 66.048-29.696 66.048-66.048 0-36.352-29.696-66.048-66.048-66.048-36.352 0-66.048 29.696-66.048 66.048 0 36.864 29.696 66.048 66.048 66.048z" p-id="50383" fill="#1296db"></path></svg>