<?xml version="1.0" encoding="utf-8" standalone="no"?>
<!DOCTYPE svg PUBLIC "-//W3C//DTD SVG 1.1//EN"
  "http://www.w3.org/Graphics/SVG/1.1/DTD/svg11.dtd">
<svg xmlns:xlink="http://www.w3.org/1999/xlink" width="141.732283pt" height="141.732283pt" viewBox="0 0 141.732283 141.732283" xmlns="http://www.w3.org/2000/svg" version="1.1">
 <metadata>
  <rdf:RDF xmlns:dc="http://purl.org/dc/elements/1.1/" xmlns:cc="http://creativecommons.org/ns#" xmlns:rdf="http://www.w3.org/1999/02/22-rdf-syntax-ns#">
   <cc:Work>
    <dc:type rdf:resource="http://purl.org/dc/dcmitype/StillImage"/>
    <dc:date>2022-03-20T21:45:41.233797</dc:date>
    <dc:format>image/svg+xml</dc:format>
    <dc:creator>
     <cc:Agent>
      <dc:title>Matplotlib v3.5.1, https://matplotlib.org/</dc:title>
     </cc:Agent>
    </dc:creator>
   </cc:Work>
  </rdf:RDF>
 </metadata>
 <defs>
  <style type="text/css">*{stroke-linejoin: round; stroke-linecap: butt}</style>
 </defs>
 <g id="figure_1">
  <g id="patch_1">
   <path d="M 0 141.732283 
L 141.732283 141.732283 
L 141.732283 0 
L 0 0 
z
" style="fill: #ffffff"/>
  </g>
  <g id="axes_1">
   <g id="patch_2">
    <path d="M 2.976378 139.181102 
L 135.496063 139.181102 
L 135.496063 7.370079 
L 2.976378 7.370079 
z
" style="fill: #ffffff"/>
   </g>
   <g id="PathCollection_1">
    <path d="M 107.016774 -140.738981 
C 109.492124 -140.738981 111.866424 -141.722448 113.616762 -143.472785 
C 115.367099 -145.223123 116.350566 -147.597423 116.350566 -150.072773 
C 116.350566 -152.548124 115.367099 -154.922424 113.616762 -156.672761 
C 111.866424 -158.423099 109.492124 -159.406566 107.016774 -159.406566 
C 104.541423 -159.406566 102.167123 -158.423099 100.416786 -156.672761 
C 98.666449 -154.922424 97.682981 -152.548124 97.682981 -150.072773 
C 97.682981 -147.597423 98.666449 -145.223123 100.416786 -143.472785 
C 102.167123 -141.722448 104.541423 -140.738981 107.016774 -140.738981 
z
" clip-path="url(#p1261830123)" style="fill: #800000; stroke: #800000"/>
    <path d="M -67.968657 -123.707622 
C -66.076262 -123.707622 -64.26112 -124.459479 -62.922994 -125.797604 
C -61.584868 -127.13573 -60.833012 -128.950872 -60.833012 -130.843268 
C -60.833012 -132.735663 -61.584868 -134.550805 -62.922994 -135.888931 
C -64.26112 -137.227057 -66.076262 -137.978913 -67.968657 -137.978913 
C -69.861053 -137.978913 -71.676195 -137.227057 -73.014321 -135.888931 
C -74.352446 -134.550805 -75.104303 -132.735663 -75.104303 -130.843268 
C -75.104303 -128.950872 -74.352446 -127.13573 -73.014321 -125.797604 
C -71.676195 -124.459479 -69.861053 -123.707622 -67.968657 -123.707622 
z
" clip-path="url(#p1261830123)" style="fill: #800000; stroke: #800000"/>
    <path d="M 198.540963 -52.171242 
C 200.951028 -52.171242 203.262708 -53.128771 204.966881 -54.832944 
C 206.671055 -56.537118 207.628584 -58.848797 207.628584 -61.258862 
C 207.628584 -63.668928 206.671055 -65.980607 204.966881 -67.684781 
C 203.262708 -69.388954 200.951028 -70.346483 198.540963 -70.346483 
C 196.130898 -70.346483 193.819218 -69.388954 192.115045 -67.684781 
C 190.410872 -65.980607 189.453343 -63.668928 189.453343 -61.258862 
C 189.453343 -58.848797 190.410872 -56.537118 192.115045 -54.832944 
C 193.819218 -53.128771 196.130898 -52.171242 198.540963 -52.171242 
z
" clip-path="url(#p1261830123)" style="fill: #800000; stroke: #800000"/>
    <path d="M -92.475802 222.503197 
C -90.491259 222.503197 -88.587731 221.714729 -87.184448 220.311446 
C -85.781164 218.908162 -84.992697 217.004634 -84.992697 215.020092 
C -84.992697 213.035549 -85.781164 211.132021 -87.184448 209.728737 
C -88.587731 208.325454 -90.491259 207.536987 -92.475802 207.536987 
C -94.460345 207.536987 -96.363873 208.325454 -97.767156 209.728737 
C -99.17044 211.132021 -99.958907 213.035549 -99.958907 215.020092 
C -99.958907 217.004634 -99.17044 218.908162 -97.767156 220.311446 
C -96.363873 221.714729 -94.460345 222.503197 -92.475802 222.503197 
z
" clip-path="url(#p1261830123)" style="fill: #800000; stroke: #800000"/>
    <path d="M -175.769758 60.768441 
C -172.22618 60.768441 -168.827261 59.360562 -166.321573 56.854874 
C -163.815886 54.349187 -162.408007 50.950268 -162.408007 47.40669 
C -162.408007 43.863112 -163.815886 40.464193 -166.321573 37.958505 
C -168.827261 35.452817 -172.22618 34.044939 -175.769758 34.044939 
C -179.313336 34.044939 -182.712255 35.452817 -185.217943 37.958505 
C -187.723631 40.464193 -189.131509 43.863112 -189.131509 47.40669 
C -189.131509 50.950268 -187.723631 54.349187 -185.217943 56.854874 
C -182.712255 59.360562 -179.313336 60.768441 -175.769758 60.768441 
z
" clip-path="url(#p1261830123)" style="fill: #800000; stroke: #800000"/>
    <path d="M 197.590074 23.423172 
C 199.303532 23.423172 200.947042 22.742407 202.15864 21.53081 
C 203.370238 20.319212 204.051002 18.675702 204.051002 16.962244 
C 204.051002 15.248786 203.370238 13.605276 202.15864 12.393679 
C 200.947042 11.182081 199.303532 10.501317 197.590074 10.501317 
C 195.876616 10.501317 194.233106 11.182081 193.021509 12.393679 
C 191.809911 13.605276 191.129147 15.248786 191.129147 16.962244 
C 191.129147 18.675702 191.809911 20.319212 193.021509 21.53081 
C 194.233106 22.742407 195.876616 23.423172 197.590074 23.423172 
z
" clip-path="url(#p1261830123)" style="fill: #800000; stroke: #800000"/>
    <path d="M -174.252265 128.825366 
C -172.492557 128.825366 -170.804686 128.126227 -169.560385 126.881925 
C -168.316083 125.637624 -167.616944 123.949752 -167.616944 122.190044 
C -167.616944 120.430337 -168.316083 118.742465 -169.560385 117.498164 
C -170.804686 116.253862 -172.492557 115.554723 -174.252265 115.554723 
C -176.011973 115.554723 -177.699845 116.253862 -178.944146 117.498164 
C -180.188447 118.742465 -180.887587 120.430337 -180.887587 122.190044 
C -180.887587 123.949752 -180.188447 125.637624 -178.944146 126.881925 
C -177.699845 128.126227 -176.011973 128.825366 -174.252265 128.825366 
z
" clip-path="url(#p1261830123)" style="fill: #800000; stroke: #800000"/>
    <path d="M -57.611328 -54.744698 
C -55.802764 -54.744698 -54.068031 -55.463248 -52.789184 -56.742096 
C -51.510336 -58.020943 -50.791787 -59.755676 -50.791787 -61.564239 
C -50.791787 -63.372803 -51.510336 -65.107536 -52.789184 -66.386383 
C -54.068031 -67.665231 -55.802764 -68.383781 -57.611328 -68.383781 
C -59.419891 -68.383781 -61.154624 -67.665231 -62.433471 -66.386383 
C -63.712319 -65.107536 -64.430869 -63.372803 -64.430869 -61.564239 
C -64.430869 -59.755676 -63.712319 -58.020943 -62.433471 -56.742096 
C -61.154624 -55.463248 -59.419891 -54.744698 -57.611328 -54.744698 
z
" clip-path="url(#p1261830123)" style="fill: #800000; stroke: #800000"/>
    <path d="M -104.776405 178.39689 
C -103.065289 178.39689 -101.424027 177.717057 -100.214085 176.507115 
C -99.004144 175.297174 -98.324311 173.655912 -98.324311 171.944796 
C -98.324311 170.233681 -99.004144 168.592418 -100.214085 167.382477 
C -101.424027 166.172536 -103.065289 165.492702 -104.776405 165.492702 
C -106.48752 165.492702 -108.128783 166.172536 -109.338724 167.382477 
C -110.548665 168.592418 -111.228498 170.233681 -111.228498 171.944796 
C -111.228498 173.655912 -110.548665 175.297174 -109.338724 176.507115 
C -108.128783 177.717057 -106.48752 178.39689 -104.776405 178.39689 
z
" clip-path="url(#p1261830123)" style="fill: #800000; stroke: #800000"/>
    <path d="M -153.413087 105.191216 
C -151.529319 105.191216 -149.722452 104.442787 -148.390427 103.110762 
C -147.058402 101.778738 -146.309973 99.971871 -146.309973 98.088103 
C -146.309973 96.204335 -147.058402 94.397468 -148.390427 93.065443 
C -149.722452 91.733418 -151.529319 90.984989 -153.413087 90.984989 
C -155.296855 90.984989 -157.103722 91.733418 -158.435747 93.065443 
C -159.767772 94.397468 -160.5162 96.204335 -160.5162 98.088103 
C -160.5162 99.971871 -159.767772 101.778738 -158.435747 103.110762 
C -157.103722 104.442787 -155.296855 105.191216 -153.413087 105.191216 
z
" clip-path="url(#p1261830123)" style="fill: #800000; stroke: #800000"/>
    <path d="M 153.089139 113.969783 
C 155.018661 113.969783 156.869414 113.203176 158.233792 111.838798 
C 159.59817 110.47442 160.364777 108.623666 160.364777 106.694144 
C 160.364777 104.764622 159.59817 102.913869 158.233792 101.549491 
C 156.869414 100.185113 155.018661 99.418506 153.089139 99.418506 
C 151.159617 99.418506 149.308864 100.185113 147.944486 101.549491 
C 146.580108 102.913869 145.8135 104.764622 145.8135 106.694144 
C 145.8135 108.623666 146.580108 110.47442 147.944486 111.838798 
C 149.308864 113.203176 151.159617 113.969783 153.089139 113.969783 
z
" clip-path="url(#p1261830123)" style="fill: #800000; stroke: #800000"/>
    <path d="M -101.489366 -10.936545 
C -99.603854 -10.936545 -97.795314 -11.685667 -96.462056 -13.018925 
C -95.128798 -14.352183 -94.379676 -16.160723 -94.379676 -18.046235 
C -94.379676 -19.931746 -95.128798 -21.740286 -96.462056 -23.073545 
C -97.795314 -24.406803 -99.603854 -25.155924 -101.489366 -25.155924 
C -103.374877 -25.155924 -105.183417 -24.406803 -106.516675 -23.073545 
C -107.849933 -21.740286 -108.599055 -19.931746 -108.599055 -18.046235 
C -108.599055 -16.160723 -107.849933 -14.352183 -106.516675 -13.018925 
C -105.183417 -11.685667 -103.374877 -10.936545 -101.489366 -10.936545 
z
" clip-path="url(#p1261830123)" style="fill: #800000; stroke: #800000"/>
    <path d="M -127.003885 126.700002 
C -124.299076 126.700002 -121.704684 125.62537 -119.792095 123.712781 
C -117.879506 121.800192 -116.804874 119.2058 -116.804874 116.500991 
C -116.804874 113.796182 -117.879506 111.20179 -119.792095 109.289201 
C -121.704684 107.376612 -124.299076 106.30198 -127.003885 106.30198 
C -129.708694 106.30198 -132.303086 107.376612 -134.215675 109.289201 
C -136.128264 111.20179 -137.202896 113.796182 -137.202896 116.500991 
C -137.202896 119.2058 -136.128264 121.800192 -134.215675 123.712781 
C -132.303086 125.62537 -129.708694 126.700002 -127.003885 126.700002 
z
" clip-path="url(#p1261830123)" style="fill: #800000; stroke: #800000"/>
    <path d="M 107.112755 160.977937 
C 108.873518 160.977937 110.562402 160.278379 111.807449 159.033332 
C 113.052497 157.788284 113.752055 156.0994 113.752055 154.338637 
C 113.752055 152.577874 113.052497 150.888991 111.807449 149.643943 
C 110.562402 148.398896 108.873518 147.699337 107.112755 147.699337 
C 105.351992 147.699337 103.663109 148.398896 102.418061 149.643943 
C 101.173014 150.888991 100.473455 152.577874 100.473455 154.338637 
C 100.473455 156.0994 101.173014 157.788284 102.418061 159.033332 
C 103.663109 160.278379 105.351992 160.977937 107.112755 160.977937 
z
" clip-path="url(#p1261830123)" style="fill: #800000; stroke: #800000"/>
    <path d="M 144.164863 32.136262 
C 146.320185 32.136262 148.38752 31.279943 149.911563 29.755901 
C 151.435605 28.231858 152.291924 26.164523 152.291924 24.009201 
C 152.291924 21.853879 151.435605 19.786544 149.911563 18.262501 
C 148.38752 16.738458 146.320185 15.88214 144.164863 15.88214 
C 142.009541 15.88214 139.942206 16.738458 138.418163 18.262501 
C 136.89412 19.786544 136.037802 21.853879 136.037802 24.009201 
C 136.037802 26.164523 136.89412 28.231858 138.418163 29.755901 
C 139.942206 31.279943 142.009541 32.136262 144.164863 32.136262 
z
" clip-path="url(#p1261830123)" style="fill: #800000; stroke: #800000"/>
    <path d="M 7.286411 176.164539 
C 9.732523 176.164539 12.078777 175.192689 13.808439 173.463027 
C 15.538102 171.733365 16.509952 169.38711 16.509952 166.940998 
C 16.509952 164.494887 15.538102 162.148632 13.808439 160.41897 
C 12.078777 158.689308 9.732523 157.717458 7.286411 157.717458 
C 4.840299 157.717458 2.494045 158.689308 0.764383 160.41897 
C -0.965279 162.148632 -1.93713 164.494887 -1.93713 166.940998 
C -1.93713 169.38711 -0.965279 171.733365 0.764383 173.463027 
C 2.494045 175.192689 4.840299 176.164539 7.286411 176.164539 
z
" clip-path="url(#p1261830123)" style="fill: #800000; stroke: #800000"/>
    <path d="M 14.93946 1.305651 
C 17.467005 1.305651 19.891367 0.301448 21.678611 -1.485796 
C 23.465855 -3.27304 24.470058 -5.697402 24.470058 -8.224947 
C 24.470058 -10.752491 23.465855 -13.176854 21.678611 -14.964097 
C 19.891367 -16.751341 17.467005 -17.755545 14.93946 -17.755545 
C 12.411916 -17.755545 9.987553 -16.751341 8.20031 -14.964097 
C 6.413066 -13.176854 5.408862 -10.752491 5.408862 -8.224947 
C 5.408862 -5.697402 6.413066 -3.27304 8.20031 -1.485796 
C 9.987553 0.301448 12.411916 1.305651 14.93946 1.305651 
z
" clip-path="url(#p1261830123)" style="fill: #800000; stroke: #800000"/>
    <path d="M -76.516055 2.836412 
C -72.754447 2.836412 -69.146397 1.34191 -66.486539 -1.317949 
C -63.82668 -3.977808 -62.332177 -7.585857 -62.332177 -11.347466 
C -62.332177 -15.109074 -63.82668 -18.717124 -66.486539 -21.376982 
C -69.146397 -24.036841 -72.754447 -25.531344 -76.516055 -25.531344 
C -80.277664 -25.531344 -83.885713 -24.036841 -86.545572 -21.376982 
C -89.205431 -18.717124 -90.699933 -15.109074 -90.699933 -11.347466 
C -90.699933 -7.585857 -89.205431 -3.977808 -86.545572 -1.317949 
C -83.885713 1.34191 -80.277664 2.836412 -76.516055 2.836412 
z
" clip-path="url(#p1261830123)" style="fill: #800000; stroke: #800000"/>
    <path d="M 48.06187 4.5273 
C 49.853842 4.5273 51.572661 3.815342 52.839776 2.548226 
C 54.106892 1.281111 54.81885 -0.437708 54.81885 -2.22968 
C 54.81885 -4.021653 54.106892 -5.740471 52.839776 -7.007587 
C 51.572661 -8.274703 49.853842 -8.986661 48.06187 -8.986661 
C 46.269898 -8.986661 44.551079 -8.274703 43.283963 -7.007587 
C 42.016847 -5.740471 41.304889 -4.021653 41.304889 -2.22968 
C 41.304889 -0.437708 42.016847 1.281111 43.283963 2.548226 
C 44.551079 3.815342 46.269898 4.5273 48.06187 4.5273 
z
" clip-path="url(#p1261830123)" style="fill: #800000; stroke: #800000"/>
    <path d="M -43.704556 -9.598424 
C -41.839311 -9.598424 -40.05021 -10.339494 -38.731283 -11.658421 
C -37.412355 -12.977349 -36.671285 -14.766449 -36.671285 -16.631694 
C -36.671285 -18.496939 -37.412355 -20.28604 -38.731283 -21.604967 
C -40.05021 -22.923895 -41.839311 -23.664965 -43.704556 -23.664965 
C -45.569801 -23.664965 -47.358901 -22.923895 -48.677829 -21.604967 
C -49.996756 -20.28604 -50.737826 -18.496939 -50.737826 -16.631694 
C -50.737826 -14.766449 -49.996756 -12.977349 -48.677829 -11.658421 
C -47.358901 -10.339494 -45.569801 -9.598424 -43.704556 -9.598424 
z
" clip-path="url(#p1261830123)" style="fill: #800000; stroke: #800000"/>
    <path d="M -78.737086 8.093799 
C -76.331506 8.093799 -74.024129 7.138052 -72.323127 5.43705 
C -70.622125 3.736048 -69.666378 1.42867 -69.666378 -0.97691 
C -69.666378 -3.38249 -70.622125 -5.689868 -72.323127 -7.390869 
C -74.024129 -9.091871 -76.331506 -10.047619 -78.737086 -10.047619 
C -81.142666 -10.047619 -83.450044 -9.091871 -85.151046 -7.390869 
C -86.852048 -5.689868 -87.807795 -3.38249 -87.807795 -0.97691 
C -87.807795 1.42867 -86.852048 3.736048 -85.151046 5.43705 
C -83.450044 7.138052 -81.142666 8.093799 -78.737086 8.093799 
z
" clip-path="url(#p1261830123)" style="fill: #800000; stroke: #800000"/>
    <path d="M 74.025847 15.99859 
C 76.836632 15.99859 79.532674 14.881853 81.520199 12.894328 
C 83.507724 10.906802 84.624461 8.210761 84.624461 5.399976 
C 84.624461 2.589191 83.507724 -0.10685 81.520199 -2.094376 
C 79.532674 -4.081901 76.836632 -5.198638 74.025847 -5.198638 
C 71.215062 -5.198638 68.519021 -4.081901 66.531496 -2.094376 
C 64.54397 -0.10685 63.427233 2.589191 63.427233 5.399976 
C 63.427233 8.210761 64.54397 10.906802 66.531496 12.894328 
C 68.519021 14.881853 71.215062 15.99859 74.025847 15.99859 
z
" clip-path="url(#p1261830123)" style="fill: #800000; stroke: #800000"/>
    <path d="M 116.395612 33.021432 
C 119.222177 33.021432 121.933353 31.898426 123.932036 29.899743 
C 125.930719 27.90106 127.053725 25.189884 127.053725 22.36332 
C 127.053725 19.536755 125.930719 16.825579 123.932036 14.826896 
C 121.933353 12.828213 119.222177 11.705207 116.395612 11.705207 
C 113.569048 11.705207 110.857872 12.828213 108.859189 14.826896 
C 106.860506 16.825579 105.7375 19.536755 105.7375 22.36332 
C 105.7375 25.189884 106.860506 27.90106 108.859189 29.899743 
C 110.857872 31.898426 113.569048 33.021432 116.395612 33.021432 
z
" clip-path="url(#p1261830123)" style="fill: #800000; stroke: #800000"/>
    <path d="M -42.072263 151.635878 
C -40.145094 151.635878 -38.296598 150.870206 -36.933883 149.507491 
C -35.571169 148.144777 -34.805497 146.296281 -34.805497 144.369112 
C -34.805497 142.441943 -35.571169 140.593446 -36.933883 139.230732 
C -38.296598 137.868018 -40.145094 137.102345 -42.072263 137.102345 
C -43.999432 137.102345 -45.847929 137.868018 -47.210643 139.230732 
C -48.573357 140.593446 -49.33903 142.441943 -49.33903 144.369112 
C -49.33903 146.296281 -48.573357 148.144777 -47.210643 149.507491 
C -45.847929 150.870206 -43.999432 151.635878 -42.072263 151.635878 
z
" clip-path="url(#p1261830123)" style="fill: #800000; stroke: #800000"/>
    <path d="M -90.785387 77.056007 
C -89.00437 77.056007 -87.296059 76.348401 -86.03669 75.089032 
C -84.777321 73.829663 -84.069715 72.121352 -84.069715 70.340335 
C -84.069715 68.559319 -84.777321 66.851008 -86.03669 65.591639 
C -87.296059 64.33227 -89.00437 63.624664 -90.785387 63.624664 
C -92.566404 63.624664 -94.274714 64.33227 -95.534083 65.591639 
C -96.793453 66.851008 -97.501058 68.559319 -97.501058 70.340335 
C -97.501058 72.121352 -96.793453 73.829663 -95.534083 75.089032 
C -94.274714 76.348401 -92.566404 77.056007 -90.785387 77.056007 
z
" clip-path="url(#p1261830123)" style="fill: #800000; stroke: #800000"/>
    <path d="M -47.674729 138.523147 
C -45.556054 138.523147 -43.52387 137.681389 -42.025741 136.18326 
C -40.527612 134.685131 -39.685854 132.652947 -39.685854 130.534272 
C -39.685854 128.415598 -40.527612 126.383414 -42.025741 124.885285 
C -43.52387 123.387156 -45.556054 122.545398 -47.674729 122.545398 
C -49.793403 122.545398 -51.825587 123.387156 -53.323716 124.885285 
C -54.821845 126.383414 -55.663603 128.415598 -55.663603 130.534272 
C -55.663603 132.652947 -54.821845 134.685131 -53.323716 136.18326 
C -51.825587 137.681389 -49.793403 138.523147 -47.674729 138.523147 
z
" clip-path="url(#p1261830123)" style="fill: #a40000; stroke: #a40000"/>
    <path d="M 115.579516 130.805634 
C 117.824385 130.805634 119.977613 129.913738 121.564975 128.326376 
C 123.152338 126.739013 124.044234 124.585786 124.044234 122.340916 
C 124.044234 120.096047 123.152338 117.942819 121.564975 116.355457 
C 119.977613 114.768095 117.824385 113.876199 115.579516 113.876199 
C 113.334647 113.876199 111.181419 114.768095 109.594057 116.355457 
C 108.006694 117.942819 107.114798 120.096047 107.114798 122.340916 
C 107.114798 124.585786 108.006694 126.739013 109.594057 128.326376 
C 111.181419 129.913738 113.334647 130.805634 115.579516 130.805634 
z
" clip-path="url(#p1261830123)" style="fill: #ad0000; stroke: #ad0000"/>
    <path d="M 122.80124 50.071643 
C 125.089028 50.071643 127.283422 49.162695 128.901132 47.544985 
C 130.518842 45.927275 131.427789 43.732881 131.427789 41.445093 
C 131.427789 39.157306 130.518842 36.962912 128.901132 35.345202 
C 127.283422 33.727492 125.089028 32.818544 122.80124 32.818544 
C 120.513453 32.818544 118.319059 33.727492 116.701349 35.345202 
C 115.083639 36.962912 114.174691 39.157306 114.174691 41.445093 
C 114.174691 43.732881 115.083639 45.927275 116.701349 47.544985 
C 118.319059 49.162695 120.513453 50.071643 122.80124 50.071643 
z
" clip-path="url(#p1261830123)" style="fill: #d10000; stroke: #d10000"/>
    <path d="M 15.762977 160.56182 
C 17.702391 160.56182 19.562632 159.791282 20.934005 158.41991 
C 22.305377 157.048537 23.075915 155.188296 23.075915 153.248882 
C 23.075915 151.309468 22.305377 149.449227 20.934005 148.077854 
C 19.562632 146.706481 17.702391 145.935944 15.762977 145.935944 
C 13.823563 145.935944 11.963322 146.706481 10.591949 148.077854 
C 9.220576 149.449227 8.450039 151.309468 8.450039 153.248882 
C 8.450039 155.188296 9.220576 157.048537 10.591949 158.41991 
C 11.963322 159.791282 13.823563 160.56182 15.762977 160.56182 
z
" clip-path="url(#p1261830123)" style="fill: #da0000; stroke: #da0000"/>
    <path d="M -32.621427 148.93227 
C -29.731033 148.93227 -26.958633 147.783905 -24.914815 145.740087 
C -22.870998 143.69627 -21.722632 140.92387 -21.722632 138.033476 
C -21.722632 135.143082 -22.870998 132.370682 -24.914815 130.326864 
C -26.958633 128.283047 -29.731033 127.134681 -32.621427 127.134681 
C -35.511821 127.134681 -38.284221 128.283047 -40.328038 130.326864 
C -42.371856 132.370682 -43.520221 135.143082 -43.520221 138.033476 
C -43.520221 140.92387 -42.371856 143.69627 -40.328038 145.740087 
C -38.284221 147.783905 -35.511821 148.93227 -32.621427 148.93227 
z
" clip-path="url(#p1261830123)" style="fill: #fa0f00; stroke: #fa0f00"/>
    <path d="M 103.333215 135.154705 
C 105.057454 135.154705 106.711304 134.469658 107.930526 133.250437 
C 109.149747 132.031215 109.834794 130.377365 109.834794 128.653126 
C 109.834794 126.928887 109.149747 125.275036 107.930526 124.055815 
C 106.711304 122.836594 105.057454 122.151546 103.333215 122.151546 
C 101.608976 122.151546 99.955125 122.836594 98.735904 124.055815 
C 97.516683 125.275036 96.831635 126.928887 96.831635 128.653126 
C 96.831635 130.377365 97.516683 132.031215 98.735904 133.250437 
C 99.955125 134.469658 101.608976 135.154705 103.333215 135.154705 
z
" clip-path="url(#p1261830123)" style="fill: #ff3f00; stroke: #ff3f00"/>
    <path d="M -60.701476 88.702961 
C -58.448178 88.702961 -56.286866 87.807716 -54.693543 86.214394 
C -53.100221 84.621071 -52.204976 82.459759 -52.204976 80.206461 
C -52.204976 77.953162 -53.100221 75.79185 -54.693543 74.198527 
C -56.286866 72.605205 -58.448178 71.70996 -60.701476 71.70996 
C -62.954775 71.70996 -65.116087 72.605205 -66.70941 74.198527 
C -68.302732 75.79185 -69.197977 77.953162 -69.197977 80.206461 
C -69.197977 82.459759 -68.302732 84.621071 -66.70941 86.214394 
C -65.116087 87.807716 -62.954775 88.702961 -60.701476 88.702961 
z
" clip-path="url(#p1261830123)" style="fill: #ffd000; stroke: #ffd000"/>
    <path d="M 72.620516 147.198728 
C 75.801465 147.198728 78.852558 145.934924 81.101829 143.685653 
C 83.351099 141.436383 84.614904 138.385289 84.614904 135.20434 
C 84.614904 132.023391 83.351099 128.972298 81.101829 126.723027 
C 78.852558 124.473757 75.801465 123.209952 72.620516 123.209952 
C 69.439567 123.209952 66.388473 124.473757 64.139203 126.723027 
C 61.889932 128.972298 60.626128 132.023391 60.626128 135.20434 
C 60.626128 138.385289 61.889932 141.436383 64.139203 143.685653 
C 66.388473 145.934924 69.439567 147.198728 72.620516 147.198728 
z
" clip-path="url(#p1261830123)" style="fill: #e4ff13; stroke: #e4ff13"/>
    <path d="M 35.819695 152.788186 
C 39.226299 152.788186 42.493836 151.434728 44.902668 149.025895 
C 47.311501 146.617062 48.664959 143.349526 48.664959 139.942922 
C 48.664959 136.536318 47.311501 133.268781 44.902668 130.859949 
C 42.493836 128.451116 39.226299 127.097658 35.819695 127.097658 
C 32.413091 127.097658 29.145554 128.451116 26.736722 130.859949 
C 24.327889 133.268781 22.974431 136.536318 22.974431 139.942922 
C 22.974431 143.349526 24.327889 146.617062 26.736722 149.025895 
C 29.145554 151.434728 32.413091 152.788186 35.819695 152.788186 
z
" clip-path="url(#p1261830123)" style="fill: #deff19; stroke: #deff19"/>
    <path d="M -10.86561 127.903662 
C -8.55489 127.903662 -6.338499 126.985603 -4.704573 125.351677 
C -3.070646 123.71775 -2.152587 121.50136 -2.152587 119.190639 
C -2.152587 116.879918 -3.070646 114.663527 -4.704573 113.029601 
C -6.338499 111.395675 -8.55489 110.477616 -10.86561 110.477616 
C -13.176331 110.477616 -15.392722 111.395675 -17.026648 113.029601 
C -18.660574 114.663527 -19.578633 116.879918 -19.578633 119.190639 
C -19.578633 121.50136 -18.660574 123.71775 -17.026648 125.351677 
C -15.392722 126.985603 -13.176331 127.903662 -10.86561 127.903662 
z
" clip-path="url(#p1261830123)" style="fill: #adff49; stroke: #adff49"/>
    <path d="M -60.272724 66.300784 
C -57.34186 66.300784 -54.530642 65.136339 -52.458208 63.063906 
C -50.385775 60.991472 -49.22133 58.180254 -49.22133 55.24939 
C -49.22133 52.318526 -50.385775 49.507308 -52.458208 47.434874 
C -54.530642 45.36244 -57.34186 44.197995 -60.272724 44.197995 
C -63.203588 44.197995 -66.014806 45.36244 -68.08724 47.434874 
C -70.159674 49.507308 -71.324119 52.318526 -71.324119 55.24939 
C -71.324119 58.180254 -70.159674 60.991472 -68.08724 63.063906 
C -66.014806 65.136339 -63.203588 66.300784 -60.272724 66.300784 
z
" clip-path="url(#p1261830123)" style="fill: #94ff63; stroke: #94ff63"/>
    <path d="M -31.797645 27.446128 
C -30.045094 27.446128 -28.364086 26.749832 -27.124845 25.510591 
C -25.885604 24.27135 -25.189308 22.590342 -25.189308 20.837791 
C -25.189308 19.085239 -25.885604 17.404232 -27.124845 16.164991 
C -28.364086 14.92575 -30.045094 14.229454 -31.797645 14.229454 
C -33.550197 14.229454 -35.231204 14.92575 -36.470445 16.164991 
C -37.709687 17.404232 -38.405983 19.085239 -38.405983 20.837791 
C -38.405983 22.590342 -37.709687 24.27135 -36.470445 25.510591 
C -35.231204 26.749832 -33.550197 27.446128 -31.797645 27.446128 
z
" clip-path="url(#p1261830123)" style="fill: #8dff6a; stroke: #8dff6a"/>
    <path d="M -44.144812 49.152193 
C -42.065077 49.152193 -40.070242 48.325906 -38.599647 46.855311 
C -37.129053 45.384716 -36.302765 43.389882 -36.302765 41.310146 
C -36.302765 39.230411 -37.129053 37.235577 -38.599647 35.764982 
C -40.070242 34.294387 -42.065077 33.4681 -44.144812 33.4681 
C -46.224547 33.4681 -48.219381 34.294387 -49.689976 35.764982 
C -51.160571 37.235577 -51.986859 39.230411 -51.986859 41.310146 
C -51.986859 43.389882 -51.160571 45.384716 -49.689976 46.855311 
C -48.219381 48.325906 -46.224547 49.152193 -44.144812 49.152193 
z
" clip-path="url(#p1261830123)" style="fill: #19ffde; stroke: #19ffde"/>
    <path d="M -43.14772 59.452558 
C -40.844405 59.452558 -38.635117 58.537441 -37.006428 56.908751 
C -35.377738 55.280062 -34.462621 53.070774 -34.462621 50.767459 
C -34.462621 48.464144 -35.377738 46.254856 -37.006428 44.626166 
C -38.635117 42.997477 -40.844405 42.08236 -43.14772 42.08236 
C -45.451035 42.08236 -47.660323 42.997477 -49.289013 44.626166 
C -50.917702 46.254856 -51.832819 48.464144 -51.832819 50.767459 
C -51.832819 53.070774 -50.917702 55.280062 -49.289013 56.908751 
C -47.660323 58.537441 -45.451035 59.452558 -43.14772 59.452558 
z
" clip-path="url(#p1261830123)" style="fill: #00e4f8; stroke: #00e4f8"/>
    <path d="M 81.671503 57.081748 
C 83.554553 57.081748 85.360731 56.333604 86.692249 55.002087 
C 88.023766 53.670569 88.77191 51.864391 88.77191 49.98134 
C 88.77191 48.09829 88.023766 46.292112 86.692249 44.960594 
C 85.360731 43.629077 83.554553 42.880933 81.671503 42.880933 
C 79.788452 42.880933 77.982274 43.629077 76.650756 44.960594 
C 75.319239 46.292112 74.571095 48.09829 74.571095 49.98134 
C 74.571095 51.864391 75.319239 53.670569 76.650756 55.002087 
C 77.982274 56.333604 79.788452 57.081748 81.671503 57.081748 
z
" clip-path="url(#p1261830123)" style="fill: #0098ff; stroke: #0098ff"/>
    <path d="M -27.005623 54.878723 
C -25.050271 54.878723 -23.174742 54.101853 -21.792099 52.71921 
C -20.409456 51.336568 -19.632587 49.461039 -19.632587 47.505687 
C -19.632587 45.550335 -20.409456 43.674806 -21.792099 42.292163 
C -23.174742 40.909521 -25.050271 40.132651 -27.005623 40.132651 
C -28.960974 40.132651 -30.836503 40.909521 -32.219146 42.292163 
C -33.601789 43.674806 -34.378658 45.550335 -34.378658 47.505687 
C -34.378658 49.461039 -33.601789 51.336568 -32.219146 52.71921 
C -30.836503 54.101853 -28.960974 54.878723 -27.005623 54.878723 
z
" clip-path="url(#p1261830123)" style="fill: #0094ff; stroke: #0094ff"/>
    <path d="M 90.503134 76.158446 
C 92.950725 76.158446 95.298399 75.186008 97.029107 73.4553 
C 98.759815 71.724591 99.732254 69.376918 99.732254 66.929326 
C 99.732254 64.481735 98.759815 62.134062 97.029107 60.403353 
C 95.298399 58.672645 92.950725 57.700207 90.503134 57.700207 
C 88.055543 57.700207 85.707869 58.672645 83.977161 60.403353 
C 82.246453 62.134062 81.274014 64.481735 81.274014 66.929326 
C 81.274014 69.376918 82.246453 71.724591 83.977161 73.4553 
C 85.707869 75.186008 88.055543 76.158446 90.503134 76.158446 
z
" clip-path="url(#p1261830123)" style="fill: #0088ff; stroke: #0088ff"/>
    <path d="M 49.374362 48.565898 
C 51.094455 48.565898 52.744329 47.882498 53.960619 46.666208 
C 55.176909 45.449919 55.860309 43.800044 55.860309 42.079951 
C 55.860309 40.359858 55.176909 38.709983 53.960619 37.493694 
C 52.744329 36.277404 51.094455 35.594004 49.374362 35.594004 
C 47.654268 35.594004 46.004394 36.277404 44.788104 37.493694 
C 43.571814 38.709983 42.888414 40.359858 42.888414 42.079951 
C 42.888414 43.800044 43.571814 45.449919 44.788104 46.666208 
C 46.004394 47.882498 47.654268 48.565898 49.374362 48.565898 
z
" clip-path="url(#p1261830123)" style="fill: #0084ff; stroke: #0084ff"/>
    <path d="M 4.481005 56.371338 
C 7.134443 56.371338 9.679561 55.317116 11.555825 53.440851 
C 13.43209 51.564587 14.486312 49.019469 14.486312 46.366031 
C 14.486312 43.712592 13.43209 41.167474 11.555825 39.29121 
C 9.679561 37.414945 7.134443 36.360723 4.481005 36.360723 
C 1.827566 36.360723 -0.717552 37.414945 -2.593816 39.29121 
C -4.47008 41.167474 -5.524303 43.712592 -5.524303 46.366031 
C -5.524303 49.019469 -4.47008 51.564587 -2.593816 53.440851 
C -0.717552 55.317116 1.827566 56.371338 4.481005 56.371338 
z
" clip-path="url(#p1261830123)" style="fill: #0075ff; stroke: #0075ff"/>
    <path d="M 83.42888 105.878881 
C 85.217229 105.878881 86.932573 105.168362 88.197127 103.903808 
C 89.46168 102.639255 90.172199 100.923911 90.172199 99.135562 
C 90.172199 97.347213 89.46168 95.631869 88.197127 94.367315 
C 86.932573 93.102762 85.217229 92.392243 83.42888 92.392243 
C 81.640531 92.392243 79.925187 93.102762 78.660634 94.367315 
C 77.39608 95.631869 76.685561 97.347213 76.685561 99.135562 
C 76.685561 100.923911 77.39608 102.639255 78.660634 103.903808 
C 79.925187 105.168362 81.640531 105.878881 83.42888 105.878881 
z
" clip-path="url(#p1261830123)" style="fill: #005dff; stroke: #005dff"/>
    <path d="M 12.981036 80.887319 
C 14.688923 80.887319 16.32709 80.208768 17.534748 79.001109 
C 18.742407 77.793451 19.420958 76.155284 19.420958 74.447397 
C 19.420958 72.73951 18.742407 71.101344 17.534748 69.893685 
C 16.32709 68.686027 14.688923 68.007476 12.981036 68.007476 
C 11.273149 68.007476 9.634983 68.686027 8.427324 69.893685 
C 7.219666 71.101344 6.541115 72.73951 6.541115 74.447397 
C 6.541115 76.155284 7.219666 77.793451 8.427324 79.001109 
C 9.634983 80.208768 11.273149 80.887319 12.981036 80.887319 
z
" clip-path="url(#p1261830123)" style="fill: #0020ff; stroke: #0020ff"/>
    <path d="M 57.590342 113.912593 
C 59.714561 113.912593 61.752062 113.068632 63.254111 111.566583 
C 64.75616 110.064534 65.600121 108.027032 65.600121 105.902814 
C 65.600121 103.778596 64.75616 101.741094 63.254111 100.239045 
C 61.752062 98.736996 59.714561 97.893035 57.590342 97.893035 
C 55.466124 97.893035 53.428623 98.736996 51.926574 100.239045 
C 50.424525 101.741094 49.580564 103.778596 49.580564 105.902814 
C 49.580564 108.027032 50.424525 110.064534 51.926574 111.566583 
C 53.428623 113.068632 55.466124 113.912593 57.590342 113.912593 
z
" clip-path="url(#p1261830123)" style="fill: #0000f6; stroke: #0000f6"/>
    <path d="M 47.46221 65.798883 
C 49.376059 65.798883 51.211779 65.038503 52.565074 63.685207 
C 53.918369 62.331912 54.678749 60.496193 54.678749 58.582344 
C 54.678749 56.668496 53.918369 54.832776 52.565074 53.479481 
C 51.211779 52.126186 49.376059 51.365806 47.46221 51.365806 
C 45.548362 51.365806 43.712642 52.126186 42.359347 53.479481 
C 41.006052 54.832776 40.245672 56.668496 40.245672 58.582344 
C 40.245672 60.496193 41.006052 62.331912 42.359347 63.685207 
C 43.712642 65.038503 45.548362 65.798883 47.46221 65.798883 
z
" clip-path="url(#p1261830123)" style="fill: #0000c8; stroke: #0000c8"/>
    <path d="M 47.434096 97.384462 
C 50.128095 97.384462 52.712118 96.314125 54.617063 94.40918 
C 56.522008 92.504235 57.592345 89.920212 57.592345 87.226213 
C 57.592345 84.532214 56.522008 81.948191 54.617063 80.043246 
C 52.712118 78.138301 50.128095 77.067964 47.434096 77.067964 
C 44.740097 77.067964 42.156074 78.138301 40.251129 80.043246 
C 38.346184 81.948191 37.275847 84.532214 37.275847 87.226213 
C 37.275847 89.920212 38.346184 92.504235 40.251129 94.40918 
C 42.156074 96.314125 44.740097 97.384462 47.434096 97.384462 
z
" clip-path="url(#p1261830123)" style="fill: #000080; stroke: #000080"/>
    <path d="M 62.958143 93.627319 
C 65.247117 93.627319 67.442649 92.7179 69.061198 91.099351 
C 70.679746 89.480802 71.589165 87.285271 71.589165 84.996297 
C 71.589165 82.707323 70.679746 80.511791 69.061198 78.893242 
C 67.442649 77.274694 65.247117 76.365275 62.958143 76.365275 
C 60.669169 76.365275 58.473638 77.274694 56.855089 78.893242 
C 55.23654 80.511791 54.327121 82.707323 54.327121 84.996297 
C 54.327121 87.285271 55.23654 89.480802 56.855089 91.099351 
C 58.473638 92.7179 60.669169 93.627319 62.958143 93.627319 
z
" clip-path="url(#p1261830123)" style="fill: #000080; stroke: #000080"/>
   </g>
   <g id="matplotlib.axis_1"/>
   <g id="matplotlib.axis_2"/>
   <g id="patch_3">
    <path d="M 2.976378 139.181102 
L 2.976378 7.370079 
" style="fill: none; stroke: #1f77b4; stroke-width: 2; stroke-linejoin: miter; stroke-linecap: square"/>
   </g>
   <g id="patch_4">
    <path d="M 135.496063 139.181102 
L 135.496063 7.370079 
" style="fill: none; stroke: #1f77b4; stroke-width: 2; stroke-linejoin: miter; stroke-linecap: square"/>
   </g>
   <g id="patch_5">
    <path d="M 2.976378 139.181102 
L 135.496063 139.181102 
" style="fill: none; stroke: #1f77b4; stroke-width: 2; stroke-linejoin: miter; stroke-linecap: square"/>
   </g>
   <g id="patch_6">
    <path d="M 2.976378 7.370079 
L 135.496063 7.370079 
" style="fill: none; stroke: #1f77b4; stroke-width: 2; stroke-linejoin: miter; stroke-linecap: square"/>
   </g>
  </g>
 </g>
 <defs>
  <clipPath id="p1261830123">
   <rect x="2.976378" y="7.370079" width="132.519685" height="131.811024"/>
  </clipPath>
 </defs>
</svg>
