<?xml version="1.0" standalone="no"?><!DOCTYPE svg PUBLIC "-//W3C//DTD SVG 1.1//EN" "http://www.w3.org/Graphics/SVG/1.1/DTD/svg11.dtd"><svg t="1644242281088" class="icon" viewBox="0 0 1024 1024" version="1.1" xmlns="http://www.w3.org/2000/svg" p-id="2244" xmlns:xlink="http://www.w3.org/1999/xlink" width="200" height="200"><defs><style type="text/css"></style></defs><path d="M512.008 204.095c-305.494 0-462.345 307.883-462.345 307.883s118.36 307.926 462.345 307.926c311.513 0 462.328-306.728 462.328-306.728S822.323 204.095 512.008 204.095z m0.7 500.33c-111.705 0-192.448-84.202-192.448-192.453 0-108.26 80.748-192.433 192.448-192.433 111.69 0 192.433 84.169 192.433 192.433 0 108.251-80.743 192.454-192.433 192.454z m0-307.926c-63.843 0.146-115.47 53.62-115.47 115.473 0 61.825 51.628 115.476 115.47 115.476 63.832 0 115.452-53.651 115.452-115.476 0.006-61.87-51.62-115.594-115.452-115.473z m0 0" p-id="2245" fill="#1296db"></path></svg>