<?xml version="1.0" standalone="no"?><!DOCTYPE svg PUBLIC "-//W3C//DTD SVG 1.1//EN" "http://www.w3.org/Graphics/SVG/1.1/DTD/svg11.dtd"><svg t="1618799067577" class="icon" viewBox="0 0 1024 1024" version="1.1" xmlns="http://www.w3.org/2000/svg" p-id="4975" xmlns:xlink="http://www.w3.org/1999/xlink" width="200" height="200"><defs><style type="text/css"></style></defs><path d="M667.61216 387.5584H86.89152C58.91072 387.5584 35.84 409.6512 35.84 436.64896v420.68992c0 26.99776 23.07072 48.59904 51.05152 48.59904h581.21216c27.9808 0 51.05152-22.08768 51.05152-48.59904V436.64896c-0.49152-26.99776-23.56224-49.09056-51.54304-49.09056z m3.10784 465.71008H83.29216V438.7584h586.94144v414.51008H670.72z" fill="#1296db" p-id="4976"></path><path d="M937.10848 118.06208H356.38784c-27.9808 0-51.05152 22.08768-51.05152 48.59904v269.98784h50.28352v-263.8848h581.27872v407.50592h-264.37632v56.17152h264.58624c27.9808 0 51.05152-22.08768 51.05152-48.59904V166.66112c0-26.50624-23.07072-48.59904-51.05152-48.59904z" fill="#1296db" p-id="4977"></path></svg>