<?xml version="1.0" standalone="no"?><!DOCTYPE svg PUBLIC "-//W3C//DTD SVG 1.1//EN" "http://www.w3.org/Graphics/SVG/1.1/DTD/svg11.dtd"><svg t="1613445634209" class="icon" viewBox="0 0 1024 1024" version="1.1" xmlns="http://www.w3.org/2000/svg" p-id="16086" xmlns:xlink="http://www.w3.org/1999/xlink" width="200" height="200"><defs><style type="text/css"></style></defs><path d="M896 636.992c75.2 49.28 128 104.384 128 134.912 0 74.88-249.6 235.904-416 235.904-70.208 0-155.2-26.688-230.08-64H64.448A64.512 64.512 0 0 1 0 880.448V63.36C0 28.352 28.8 0 64.448 0h767.104C867.2 0 896 29.312 896 63.36v573.632zM256 865.6c-39.168-33.088-64-66.56-64-93.696 0-34.176 24.832-70.208 64-103.616v-19.392H64v235.968h192v-19.2z m128.896-275.712C446.912 562.24 515.2 542.72 576 537.408V353.92H320v235.968h64.896zM640 537.6c63.744 6.4 131.136 30.528 191.36 61.632a513.28 513.28 0 0 0-16.832-9.28H832V353.92h-192V537.6zM576 59.008H320v235.968h256V59.008z m64 0v235.968h192V59.008h-192zM256 353.92H64v235.968h192V353.92zM256 59.008H64v235.968h192V59.008z m352 915.456c145.6 0 353.984-151.04 378.24-200.448-12.16-31.936-208.384-200.448-378.24-200.448-163.84 0-372.352 137.344-372.352 198.336 6.08 37.76 202.496 202.56 372.352 202.56z m0-344.192c84.032 0 156.032 61.12 156.032 141.632 0 80.448-72.064 141.568-156.032 141.568-89.984 0-156.032-66.624-156.032-141.568 0-80.512 72-141.632 156.032-141.632z m9.792 242.56c35.712 0 105.728-38.336 105.728-100.928 0-61.184-36.224-103.232-115.648-103.232-79.36 0-115.712 51.456-115.712 103.232 0 51.712 58.048 100.928 125.632 100.928z" p-id="16087" fill="#1296db"></path></svg>