<?xml version="1.0" encoding="utf-8" standalone="no"?>
<!DOCTYPE svg PUBLIC "-//W3C//DTD SVG 1.1//EN"
  "http://www.w3.org/Graphics/SVG/1.1/DTD/svg11.dtd">
<svg xmlns:xlink="http://www.w3.org/1999/xlink" width="141.732283pt" height="141.732283pt" viewBox="0 0 141.732283 141.732283" xmlns="http://www.w3.org/2000/svg" version="1.1">
 <metadata>
  <rdf:RDF xmlns:dc="http://purl.org/dc/elements/1.1/" xmlns:cc="http://creativecommons.org/ns#" xmlns:rdf="http://www.w3.org/1999/02/22-rdf-syntax-ns#">
   <cc:Work>
    <dc:type rdf:resource="http://purl.org/dc/dcmitype/StillImage"/>
    <dc:date>2022-03-20T22:07:05.827268</dc:date>
    <dc:format>image/svg+xml</dc:format>
    <dc:creator>
     <cc:Agent>
      <dc:title>Matplotlib v3.5.1, https://matplotlib.org/</dc:title>
     </cc:Agent>
    </dc:creator>
   </cc:Work>
  </rdf:RDF>
 </metadata>
 <defs>
  <style type="text/css">*{stroke-linejoin: round; stroke-linecap: butt}</style>
 </defs>
 <g id="figure_1">
  <g id="patch_1">
   <path d="M 0 141.732283 
L 141.732283 141.732283 
L 141.732283 0 
L 0 0 
z
" style="fill: #ffffff"/>
  </g>
  <g id="axes_1">
   <g id="patch_2">
    <path d="M 8.929134 134.929134 
L 137.19685 134.929134 
L 137.19685 5.385827 
L 8.929134 5.385827 
z
" style="fill: #ffffff"/>
   </g>
   <g id="patch_3">
    <path d="M 44.601871 119.601488 
L 44.601871 119.601488 
L 44.601871 119.601488 
L 44.601871 119.601488 
z
" clip-path="url(#p1884afd625)" style="fill: #3274a1; stroke: #3f3f3f; stroke-width: 0.75; stroke-linejoin: miter"/>
   </g>
   <g id="PolyCollection_1">
    <defs>
     <path id="m93948e7ecb" d="M 44.601871 -23.415109 
L 44.435339 -23.415109 
L 44.351214 -24.443015 
L 44.232656 -25.470921 
L 44.069536 -26.498826 
L 43.850439 -27.526732 
L 43.56316 -28.554637 
L 43.195461 -29.582543 
L 42.736039 -30.610449 
L 42.175655 -31.638354 
L 41.508266 -32.66626 
L 40.732021 -33.694165 
L 39.849912 -34.722071 
L 38.869972 -35.749977 
L 37.804885 -36.777882 
L 36.671066 -37.805788 
L 35.487283 -38.833694 
L 34.273068 -39.861599 
L 33.04717 -40.889505 
L 31.82634 -41.91741 
L 30.624656 -42.945316 
L 29.453529 -43.973222 
L 28.322348 -45.001127 
L 27.239617 -46.029033 
L 26.21432 -47.056938 
L 25.257192 -48.084844 
L 24.381594 -49.11275 
L 23.603749 -50.140655 
L 22.942235 -51.168561 
L 22.41675 -52.196466 
L 22.046324 -53.224372 
L 21.847241 -54.252278 
L 21.831004 -55.280183 
L 22.002669 -56.308089 
L 22.359804 -57.335994 
L 22.892242 -58.3639 
L 23.582663 -59.391806 
L 24.407901 -60.419711 
L 25.34078 -61.447617 
L 26.352198 -62.475522 
L 27.413173 -63.503428 
L 28.496582 -64.531334 
L 29.578417 -65.559239 
L 30.638474 -66.587145 
L 31.660535 -67.615051 
L 32.632151 -68.642956 
L 33.544227 -69.670862 
L 34.390581 -70.698767 
L 35.167597 -71.726673 
L 35.874036 -72.754579 
L 36.510927 -73.782484 
L 37.081479 -74.81039 
L 37.590872 -75.838295 
L 38.045859 -76.866201 
L 38.454181 -77.894107 
L 38.823847 -78.922012 
L 39.162412 -79.949918 
L 39.476392 -80.977823 
L 39.770917 -82.005729 
L 40.049687 -83.033635 
L 40.315181 -84.06154 
L 40.569059 -85.089446 
L 40.812598 -86.117351 
L 41.047078 -87.145257 
L 41.273992 -88.173163 
L 41.495073 -89.201068 
L 41.712131 -90.228974 
L 41.926763 -91.25688 
L 42.140007 -92.284785 
L 42.352011 -93.312691 
L 42.561792 -94.340596 
L 42.767108 -95.368502 
L 42.964489 -96.396408 
L 43.149418 -97.424313 
L 43.316658 -98.452219 
L 43.460712 -99.480124 
L 43.576386 -100.50803 
L 43.6594 -101.535936 
L 43.707012 -102.563841 
L 43.718565 -103.591747 
L 43.695891 -104.619652 
L 43.643499 -105.647558 
L 43.568457 -106.675464 
L 43.479973 -107.703369 
L 43.388645 -108.731275 
L 43.305476 -109.75918 
L 43.240753 -110.787086 
L 43.20295 -111.814992 
L 43.197819 -112.842897 
L 43.227822 -113.870803 
L 43.291984 -114.898708 
L 43.386194 -115.926614 
L 43.503893 -116.95452 
L 43.637024 -117.982425 
L 43.777069 -119.010331 
L 43.916021 -120.038237 
L 44.047155 -121.066142 
L 44.165496 -122.094048 
L 44.267993 -123.121953 
L 44.353416 -124.149859 
L 44.422052 -125.177765 
L 44.601871 -125.177765 
L 44.601871 -125.177765 
L 44.601871 -124.149859 
L 44.601871 -123.121953 
L 44.601871 -122.094048 
L 44.601871 -121.066142 
L 44.601871 -120.038237 
L 44.601871 -119.010331 
L 44.601871 -117.982425 
L 44.601871 -116.95452 
L 44.601871 -115.926614 
L 44.601871 -114.898708 
L 44.601871 -113.870803 
L 44.601871 -112.842897 
L 44.601871 -111.814992 
L 44.601871 -110.787086 
L 44.601871 -109.75918 
L 44.601871 -108.731275 
L 44.601871 -107.703369 
L 44.601871 -106.675464 
L 44.601871 -105.647558 
L 44.601871 -104.619652 
L 44.601871 -103.591747 
L 44.601871 -102.563841 
L 44.601871 -101.535936 
L 44.601871 -100.50803 
L 44.601871 -99.480124 
L 44.601871 -98.452219 
L 44.601871 -97.424313 
L 44.601871 -96.396408 
L 44.601871 -95.368502 
L 44.601871 -94.340596 
L 44.601871 -93.312691 
L 44.601871 -92.284785 
L 44.601871 -91.25688 
L 44.601871 -90.228974 
L 44.601871 -89.201068 
L 44.601871 -88.173163 
L 44.601871 -87.145257 
L 44.601871 -86.117351 
L 44.601871 -85.089446 
L 44.601871 -84.06154 
L 44.601871 -83.033635 
L 44.601871 -82.005729 
L 44.601871 -80.977823 
L 44.601871 -79.949918 
L 44.601871 -78.922012 
L 44.601871 -77.894107 
L 44.601871 -76.866201 
L 44.601871 -75.838295 
L 44.601871 -74.81039 
L 44.601871 -73.782484 
L 44.601871 -72.754579 
L 44.601871 -71.726673 
L 44.601871 -70.698767 
L 44.601871 -69.670862 
L 44.601871 -68.642956 
L 44.601871 -67.615051 
L 44.601871 -66.587145 
L 44.601871 -65.559239 
L 44.601871 -64.531334 
L 44.601871 -63.503428 
L 44.601871 -62.475522 
L 44.601871 -61.447617 
L 44.601871 -60.419711 
L 44.601871 -59.391806 
L 44.601871 -58.3639 
L 44.601871 -57.335994 
L 44.601871 -56.308089 
L 44.601871 -55.280183 
L 44.601871 -54.252278 
L 44.601871 -53.224372 
L 44.601871 -52.196466 
L 44.601871 -51.168561 
L 44.601871 -50.140655 
L 44.601871 -49.11275 
L 44.601871 -48.084844 
L 44.601871 -47.056938 
L 44.601871 -46.029033 
L 44.601871 -45.001127 
L 44.601871 -43.973222 
L 44.601871 -42.945316 
L 44.601871 -41.91741 
L 44.601871 -40.889505 
L 44.601871 -39.861599 
L 44.601871 -38.833694 
L 44.601871 -37.805788 
L 44.601871 -36.777882 
L 44.601871 -35.749977 
L 44.601871 -34.722071 
L 44.601871 -33.694165 
L 44.601871 -32.66626 
L 44.601871 -31.638354 
L 44.601871 -30.610449 
L 44.601871 -29.582543 
L 44.601871 -28.554637 
L 44.601871 -27.526732 
L 44.601871 -26.498826 
L 44.601871 -25.470921 
L 44.601871 -24.443015 
L 44.601871 -23.415109 
z
" style="stroke: #3f3f3f; stroke-width: 1.5"/>
    </defs>
    <g clip-path="url(#p1884afd625)">
     <use xlink:href="#m93948e7ecb" x="0" y="141.732283" style="fill: #3274a1; stroke: #3f3f3f; stroke-width: 1.5"/>
    </g>
   </g>
   <g id="patch_4">
    <path d="M 44.601871 119.601488 
L 44.601871 119.601488 
L 44.601871 119.601488 
L 44.601871 119.601488 
z
" clip-path="url(#p1884afd625)" style="fill: #e1812c; stroke: #3f3f3f; stroke-width: 0.75; stroke-linejoin: miter"/>
   </g>
   <g id="PolyCollection_2">
    <defs>
     <path id="md69a0170f9" d="M 44.705727 -11.51287 
L 44.601871 -11.51287 
L 44.601871 -12.748991 
L 44.601871 -13.985113 
L 44.601871 -15.221234 
L 44.601871 -16.457355 
L 44.601871 -17.693476 
L 44.601871 -18.929597 
L 44.601871 -20.165719 
L 44.601871 -21.40184 
L 44.601871 -22.637961 
L 44.601871 -23.874082 
L 44.601871 -25.110204 
L 44.601871 -26.346325 
L 44.601871 -27.582446 
L 44.601871 -28.818567 
L 44.601871 -30.054688 
L 44.601871 -31.29081 
L 44.601871 -32.526931 
L 44.601871 -33.763052 
L 44.601871 -34.999173 
L 44.601871 -36.235295 
L 44.601871 -37.471416 
L 44.601871 -38.707537 
L 44.601871 -39.943658 
L 44.601871 -41.179779 
L 44.601871 -42.415901 
L 44.601871 -43.652022 
L 44.601871 -44.888143 
L 44.601871 -46.124264 
L 44.601871 -47.360385 
L 44.601871 -48.596507 
L 44.601871 -49.832628 
L 44.601871 -51.068749 
L 44.601871 -52.30487 
L 44.601871 -53.540992 
L 44.601871 -54.777113 
L 44.601871 -56.013234 
L 44.601871 -57.249355 
L 44.601871 -58.485476 
L 44.601871 -59.721598 
L 44.601871 -60.957719 
L 44.601871 -62.19384 
L 44.601871 -63.429961 
L 44.601871 -64.666083 
L 44.601871 -65.902204 
L 44.601871 -67.138325 
L 44.601871 -68.374446 
L 44.601871 -69.610567 
L 44.601871 -70.846689 
L 44.601871 -72.08281 
L 44.601871 -73.318931 
L 44.601871 -74.555052 
L 44.601871 -75.791173 
L 44.601871 -77.027295 
L 44.601871 -78.263416 
L 44.601871 -79.499537 
L 44.601871 -80.735658 
L 44.601871 -81.97178 
L 44.601871 -83.207901 
L 44.601871 -84.444022 
L 44.601871 -85.680143 
L 44.601871 -86.916264 
L 44.601871 -88.152386 
L 44.601871 -89.388507 
L 44.601871 -90.624628 
L 44.601871 -91.860749 
L 44.601871 -93.09687 
L 44.601871 -94.332992 
L 44.601871 -95.569113 
L 44.601871 -96.805234 
L 44.601871 -98.041355 
L 44.601871 -99.277477 
L 44.601871 -100.513598 
L 44.601871 -101.749719 
L 44.601871 -102.98584 
L 44.601871 -104.221961 
L 44.601871 -105.458083 
L 44.601871 -106.694204 
L 44.601871 -107.930325 
L 44.601871 -109.166446 
L 44.601871 -110.402568 
L 44.601871 -111.638689 
L 44.601871 -112.87481 
L 44.601871 -114.110931 
L 44.601871 -115.347052 
L 44.601871 -116.583174 
L 44.601871 -117.819295 
L 44.601871 -119.055416 
L 44.601871 -120.291537 
L 44.601871 -121.527658 
L 44.601871 -122.76378 
L 44.601871 -123.999901 
L 44.601871 -125.236022 
L 44.601871 -126.472143 
L 44.601871 -127.708265 
L 44.601871 -128.944386 
L 44.601871 -130.180507 
L 44.601871 -131.416628 
L 44.601871 -132.652749 
L 44.601871 -133.888871 
L 44.677188 -133.888871 
L 44.677188 -133.888871 
L 44.703762 -132.652749 
L 44.736951 -131.416628 
L 44.777454 -130.180507 
L 44.825787 -128.944386 
L 44.882233 -127.708265 
L 44.946817 -126.472143 
L 45.019326 -125.236022 
L 45.099348 -123.999901 
L 45.186357 -122.76378 
L 45.279807 -121.527658 
L 45.379237 -120.291537 
L 45.484351 -119.055416 
L 45.595069 -117.819295 
L 45.711535 -116.583174 
L 45.834073 -115.347052 
L 45.963102 -114.110931 
L 46.099036 -112.87481 
L 46.242162 -111.638689 
L 46.39255 -110.402568 
L 46.549989 -109.166446 
L 46.71397 -107.930325 
L 46.883722 -106.694204 
L 47.058306 -105.458083 
L 47.23675 -104.221961 
L 47.418224 -102.98584 
L 47.602231 -101.749719 
L 47.788807 -100.513598 
L 47.978685 -99.277477 
L 48.173421 -98.041355 
L 48.37543 -96.805234 
L 48.587933 -95.569113 
L 48.814787 -94.332992 
L 49.060221 -93.09687 
L 49.328482 -91.860749 
L 49.623434 -90.624628 
L 49.948157 -89.388507 
L 50.304579 -88.152386 
L 50.693197 -86.916264 
L 51.112901 -85.680143 
L 51.560915 -84.444022 
L 52.032866 -83.207901 
L 52.522951 -81.97178 
L 53.024206 -80.735658 
L 53.528838 -79.499537 
L 54.028632 -78.263416 
L 54.515394 -77.027295 
L 54.98143 -75.791173 
L 55.420049 -74.555052 
L 55.826044 -73.318931 
L 56.196141 -72.08281 
L 56.529337 -70.846689 
L 56.827095 -69.610567 
L 57.093323 -68.374446 
L 57.334097 -67.138325 
L 57.557092 -65.902204 
L 57.770749 -64.666083 
L 57.983212 -63.429961 
L 58.201138 -62.19384 
L 58.428524 -60.957719 
L 58.665682 -59.721598 
L 58.908549 -58.485476 
L 59.148429 -57.249355 
L 59.372272 -56.013234 
L 59.563473 -54.777113 
L 59.703156 -53.540992 
L 59.771794 -52.30487 
L 59.750995 -51.068749 
L 59.625248 -49.832628 
L 59.383443 -48.596507 
L 59.019977 -47.360385 
L 58.535364 -46.124264 
L 57.93627 -44.888143 
L 57.23501 -43.652022 
L 56.448575 -42.415901 
L 55.59732 -41.179779 
L 54.703453 -39.943658 
L 53.789502 -38.707537 
L 52.876899 -37.471416 
L 51.984817 -36.235295 
L 51.129323 -34.999173 
L 50.322913 -33.763052 
L 49.574393 -32.526931 
L 48.889078 -31.29081 
L 48.269217 -30.054688 
L 47.714562 -28.818567 
L 47.222996 -27.582446 
L 46.791123 -26.346325 
L 46.414781 -25.110204 
L 46.089449 -23.874082 
L 45.810518 -22.637961 
L 45.573466 -21.40184 
L 45.373945 -20.165719 
L 45.207807 -18.929597 
L 45.07111 -17.693476 
L 44.960112 -16.457355 
L 44.871273 -15.221234 
L 44.801272 -13.985113 
L 44.747027 -12.748991 
L 44.705727 -11.51287 
z
" style="stroke: #3f3f3f; stroke-width: 1.5"/>
    </defs>
    <g clip-path="url(#p1884afd625)">
     <use xlink:href="#md69a0170f9" x="0" y="141.732283" style="fill: #e1812c; stroke: #3f3f3f; stroke-width: 1.5"/>
    </g>
   </g>
   <g id="PolyCollection_3">
    <defs>
     <path id="mc679a7a712" d="M 101.529038 -22.693047 
L 100.968545 -22.693047 
L 100.770846 -23.605088 
L 100.519173 -24.51713 
L 100.20434 -25.429171 
L 99.817289 -26.341212 
L 99.349624 -27.253253 
L 98.794212 -28.165294 
L 98.14582 -29.077335 
L 97.401732 -29.989377 
L 96.562294 -30.901418 
L 95.631335 -31.813459 
L 94.616418 -32.7255 
L 93.528877 -33.637541 
L 92.383633 -34.549582 
L 91.198774 -35.461624 
L 89.99493 -36.373665 
L 88.79446 -37.285706 
L 87.620531 -38.197747 
L 86.49612 -39.109788 
L 85.443032 -40.021829 
L 84.480988 -40.933871 
L 83.626858 -41.845912 
L 82.894077 -42.757953 
L 82.292293 -43.669994 
L 81.827252 -44.582035 
L 81.500924 -45.494077 
L 81.311821 -46.406118 
L 81.255483 -47.318159 
L 81.325039 -48.2302 
L 81.511808 -49.142241 
L 81.805842 -50.054282 
L 82.196391 -50.966324 
L 82.672246 -51.878365 
L 83.221961 -52.790406 
L 83.833974 -53.702447 
L 84.496666 -54.614488 
L 85.198408 -55.526529 
L 85.927628 -56.438571 
L 86.672956 -57.350612 
L 87.423427 -58.262653 
L 88.168777 -59.174694 
L 88.899756 -60.086735 
L 89.608462 -60.998776 
L 90.288611 -61.910818 
L 90.935726 -62.822859 
L 91.547194 -63.7349 
L 92.122192 -64.646941 
L 92.661474 -65.558982 
L 93.167053 -66.471023 
L 93.641805 -67.383065 
L 94.089042 -68.295106 
L 94.512097 -69.207147 
L 94.913962 -70.119188 
L 95.297 -71.031229 
L 95.662765 -71.94327 
L 96.011929 -72.855312 
L 96.344324 -73.767353 
L 96.659079 -74.679394 
L 96.954843 -75.591435 
L 97.23007 -76.503476 
L 97.483321 -77.415518 
L 97.713574 -78.327559 
L 97.920475 -79.2396 
L 98.104528 -80.151641 
L 98.267169 -81.063682 
L 98.410739 -81.975723 
L 98.538324 -82.887765 
L 98.653507 -83.799806 
L 98.760044 -84.711847 
L 98.861511 -85.623888 
L 98.960979 -86.535929 
L 99.060757 -87.44797 
L 99.162235 -88.360012 
L 99.265856 -89.272053 
L 99.371224 -90.184094 
L 99.477306 -91.096135 
L 99.582715 -92.008176 
L 99.686019 -92.920217 
L 99.786021 -93.832259 
L 99.881974 -94.7443 
L 99.973699 -95.656341 
L 100.061591 -96.568382 
L 100.146528 -97.480423 
L 100.229693 -98.392464 
L 100.312355 -99.304506 
L 100.395642 -100.216547 
L 100.480349 -101.128588 
L 100.566806 -102.040629 
L 100.654811 -102.95267 
L 100.743662 -103.864711 
L 100.832236 -104.776753 
L 100.919135 -105.688794 
L 101.002844 -106.600835 
L 101.081898 -107.512876 
L 101.155021 -108.424917 
L 101.221234 -109.336959 
L 101.27991 -110.249 
L 101.330795 -111.161041 
L 101.373981 -112.073082 
L 101.409855 -112.985123 
L 101.529038 -112.985123 
L 101.529038 -112.985123 
L 101.529038 -112.073082 
L 101.529038 -111.161041 
L 101.529038 -110.249 
L 101.529038 -109.336959 
L 101.529038 -108.424917 
L 101.529038 -107.512876 
L 101.529038 -106.600835 
L 101.529038 -105.688794 
L 101.529038 -104.776753 
L 101.529038 -103.864711 
L 101.529038 -102.95267 
L 101.529038 -102.040629 
L 101.529038 -101.128588 
L 101.529038 -100.216547 
L 101.529038 -99.304506 
L 101.529038 -98.392464 
L 101.529038 -97.480423 
L 101.529038 -96.568382 
L 101.529038 -95.656341 
L 101.529038 -94.7443 
L 101.529038 -93.832259 
L 101.529038 -92.920217 
L 101.529038 -92.008176 
L 101.529038 -91.096135 
L 101.529038 -90.184094 
L 101.529038 -89.272053 
L 101.529038 -88.360012 
L 101.529038 -87.44797 
L 101.529038 -86.535929 
L 101.529038 -85.623888 
L 101.529038 -84.711847 
L 101.529038 -83.799806 
L 101.529038 -82.887765 
L 101.529038 -81.975723 
L 101.529038 -81.063682 
L 101.529038 -80.151641 
L 101.529038 -79.2396 
L 101.529038 -78.327559 
L 101.529038 -77.415518 
L 101.529038 -76.503476 
L 101.529038 -75.591435 
L 101.529038 -74.679394 
L 101.529038 -73.767353 
L 101.529038 -72.855312 
L 101.529038 -71.94327 
L 101.529038 -71.031229 
L 101.529038 -70.119188 
L 101.529038 -69.207147 
L 101.529038 -68.295106 
L 101.529038 -67.383065 
L 101.529038 -66.471023 
L 101.529038 -65.558982 
L 101.529038 -64.646941 
L 101.529038 -63.7349 
L 101.529038 -62.822859 
L 101.529038 -61.910818 
L 101.529038 -60.998776 
L 101.529038 -60.086735 
L 101.529038 -59.174694 
L 101.529038 -58.262653 
L 101.529038 -57.350612 
L 101.529038 -56.438571 
L 101.529038 -55.526529 
L 101.529038 -54.614488 
L 101.529038 -53.702447 
L 101.529038 -52.790406 
L 101.529038 -51.878365 
L 101.529038 -50.966324 
L 101.529038 -50.054282 
L 101.529038 -49.142241 
L 101.529038 -48.2302 
L 101.529038 -47.318159 
L 101.529038 -46.406118 
L 101.529038 -45.494077 
L 101.529038 -44.582035 
L 101.529038 -43.669994 
L 101.529038 -42.757953 
L 101.529038 -41.845912 
L 101.529038 -40.933871 
L 101.529038 -40.021829 
L 101.529038 -39.109788 
L 101.529038 -38.197747 
L 101.529038 -37.285706 
L 101.529038 -36.373665 
L 101.529038 -35.461624 
L 101.529038 -34.549582 
L 101.529038 -33.637541 
L 101.529038 -32.7255 
L 101.529038 -31.813459 
L 101.529038 -30.901418 
L 101.529038 -29.989377 
L 101.529038 -29.077335 
L 101.529038 -28.165294 
L 101.529038 -27.253253 
L 101.529038 -26.341212 
L 101.529038 -25.429171 
L 101.529038 -24.51713 
L 101.529038 -23.605088 
L 101.529038 -22.693047 
z
" style="stroke: #3f3f3f; stroke-width: 1.5"/>
    </defs>
    <g clip-path="url(#p1884afd625)">
     <use xlink:href="#mc679a7a712" x="0" y="141.732283" style="fill: #3274a1; stroke: #3f3f3f; stroke-width: 1.5"/>
    </g>
   </g>
   <g id="PolyCollection_4">
    <defs>
     <path id="m293f2a4a64" d="M 102.002461 -22.452139 
L 101.529038 -22.452139 
L 101.529038 -23.42574 
L 101.529038 -24.399342 
L 101.529038 -25.372943 
L 101.529038 -26.346544 
L 101.529038 -27.320146 
L 101.529038 -28.293747 
L 101.529038 -29.267348 
L 101.529038 -30.24095 
L 101.529038 -31.214551 
L 101.529038 -32.188152 
L 101.529038 -33.161754 
L 101.529038 -34.135355 
L 101.529038 -35.108956 
L 101.529038 -36.082558 
L 101.529038 -37.056159 
L 101.529038 -38.02976 
L 101.529038 -39.003362 
L 101.529038 -39.976963 
L 101.529038 -40.950564 
L 101.529038 -41.924166 
L 101.529038 -42.897767 
L 101.529038 -43.871368 
L 101.529038 -44.84497 
L 101.529038 -45.818571 
L 101.529038 -46.792172 
L 101.529038 -47.765774 
L 101.529038 -48.739375 
L 101.529038 -49.712976 
L 101.529038 -50.686578 
L 101.529038 -51.660179 
L 101.529038 -52.63378 
L 101.529038 -53.607382 
L 101.529038 -54.580983 
L 101.529038 -55.554584 
L 101.529038 -56.528186 
L 101.529038 -57.501787 
L 101.529038 -58.475388 
L 101.529038 -59.44899 
L 101.529038 -60.422591 
L 101.529038 -61.396193 
L 101.529038 -62.369794 
L 101.529038 -63.343395 
L 101.529038 -64.316997 
L 101.529038 -65.290598 
L 101.529038 -66.264199 
L 101.529038 -67.237801 
L 101.529038 -68.211402 
L 101.529038 -69.185003 
L 101.529038 -70.158605 
L 101.529038 -71.132206 
L 101.529038 -72.105807 
L 101.529038 -73.079409 
L 101.529038 -74.05301 
L 101.529038 -75.026611 
L 101.529038 -76.000213 
L 101.529038 -76.973814 
L 101.529038 -77.947415 
L 101.529038 -78.921017 
L 101.529038 -79.894618 
L 101.529038 -80.868219 
L 101.529038 -81.841821 
L 101.529038 -82.815422 
L 101.529038 -83.789023 
L 101.529038 -84.762625 
L 101.529038 -85.736226 
L 101.529038 -86.709827 
L 101.529038 -87.683429 
L 101.529038 -88.65703 
L 101.529038 -89.630631 
L 101.529038 -90.604233 
L 101.529038 -91.577834 
L 101.529038 -92.551435 
L 101.529038 -93.525037 
L 101.529038 -94.498638 
L 101.529038 -95.472239 
L 101.529038 -96.445841 
L 101.529038 -97.419442 
L 101.529038 -98.393043 
L 101.529038 -99.366645 
L 101.529038 -100.340246 
L 101.529038 -101.313847 
L 101.529038 -102.287449 
L 101.529038 -103.26105 
L 101.529038 -104.234651 
L 101.529038 -105.208253 
L 101.529038 -106.181854 
L 101.529038 -107.155456 
L 101.529038 -108.129057 
L 101.529038 -109.102658 
L 101.529038 -110.07626 
L 101.529038 -111.049861 
L 101.529038 -112.023462 
L 101.529038 -112.997064 
L 101.529038 -113.970665 
L 101.529038 -114.944266 
L 101.529038 -115.917868 
L 101.529038 -116.891469 
L 101.529038 -117.86507 
L 101.529038 -118.838672 
L 101.72713 -118.838672 
L 101.72713 -118.838672 
L 101.780669 -117.86507 
L 101.843863 -116.891469 
L 101.917002 -115.917868 
L 101.999947 -114.944266 
L 102.092053 -113.970665 
L 102.192102 -112.997064 
L 102.298288 -112.023462 
L 102.408234 -111.049861 
L 102.519076 -110.07626 
L 102.627596 -109.102658 
L 102.730405 -108.129057 
L 102.824172 -107.155456 
L 102.90587 -106.181854 
L 102.973031 -105.208253 
L 103.023973 -104.234651 
L 103.057988 -103.26105 
L 103.07546 -102.287449 
L 103.077898 -101.313847 
L 103.067885 -100.340246 
L 103.048932 -99.366645 
L 103.025255 -98.393043 
L 103.001485 -97.419442 
L 102.982344 -96.445841 
L 102.972303 -95.472239 
L 102.975262 -94.498638 
L 102.994274 -93.525037 
L 103.031324 -92.551435 
L 103.087207 -91.577834 
L 103.161481 -90.604233 
L 103.252521 -89.630631 
L 103.357662 -88.65703 
L 103.473411 -87.683429 
L 103.595724 -86.709827 
L 103.720331 -85.736226 
L 103.843075 -84.762625 
L 103.960267 -83.789023 
L 104.069024 -82.815422 
L 104.167581 -81.841821 
L 104.255564 -80.868219 
L 104.334207 -79.894618 
L 104.406507 -78.921017 
L 104.477299 -77.947415 
L 104.553244 -76.973814 
L 104.642726 -76.000213 
L 104.755637 -75.026611 
L 104.903068 -74.05301 
L 105.096892 -73.079409 
L 105.349253 -72.105807 
L 105.671995 -71.132206 
L 106.076028 -70.158605 
L 106.570696 -69.185003 
L 107.163152 -68.211402 
L 107.857806 -67.237801 
L 108.655858 -66.264199 
L 109.554957 -65.290598 
L 110.549007 -64.316997 
L 111.628123 -63.343395 
L 112.778752 -62.369794 
L 113.983935 -61.396193 
L 115.223705 -60.422591 
L 116.475605 -59.44899 
L 117.715287 -58.475388 
L 118.917195 -57.501787 
L 120.055291 -56.528186 
L 121.10382 -55.554584 
L 122.038082 -54.580983 
L 122.835213 -53.607382 
L 123.474933 -52.63378 
L 123.940256 -51.660179 
L 124.218117 -50.686578 
L 124.299905 -49.712976 
L 124.181856 -48.739375 
L 123.865273 -47.765774 
L 123.356574 -46.792172 
L 122.667112 -45.818571 
L 121.812808 -44.84497 
L 120.813567 -43.871368 
L 119.692534 -42.897767 
L 118.475203 -41.924166 
L 117.188446 -40.950564 
L 115.859509 -39.976963 
L 114.515022 -39.003362 
L 113.180097 -38.02976 
L 111.877544 -37.056159 
L 110.62724 -36.082558 
L 109.44569 -35.108956 
L 108.34577 -34.135355 
L 107.33666 -33.161754 
L 106.423952 -32.188152 
L 105.609896 -31.214551 
L 104.893777 -30.24095 
L 104.272362 -29.267348 
L 103.7404 -28.293747 
L 103.291135 -27.320146 
L 102.916808 -26.346544 
L 102.609109 -25.372943 
L 102.359587 -24.399342 
L 102.159976 -23.42574 
L 102.002461 -22.452139 
z
" style="stroke: #3f3f3f; stroke-width: 1.5"/>
    </defs>
    <g clip-path="url(#p1884afd625)">
     <use xlink:href="#m293f2a4a64" x="0" y="141.732283" style="fill: #e1812c; stroke: #3f3f3f; stroke-width: 1.5"/>
    </g>
   </g>
   <g id="matplotlib.axis_1">
    <g id="xtick_1">
     <g id="line2d_1">
      <defs>
       <path id="m1019a7fbd3" d="M 0 0 
L 0 3.5 
" style="stroke: #000000; stroke-width: 1.5"/>
      </defs>
      <g>
       <use xlink:href="#m1019a7fbd3" x="44.601871" y="134.929134" style="stroke: #000000; stroke-width: 1.5"/>
      </g>
     </g>
     <g id="text_1">
      <text style="font: 10px 'serif'; text-anchor: middle" x="44.601871" y="148.872884" transform="rotate(-0, 44.601871, 148.872884)">Dinner</text>
     </g>
    </g>
    <g id="xtick_2">
     <g id="line2d_2">
      <g>
       <use xlink:href="#m1019a7fbd3" x="101.529038" y="134.929134" style="stroke: #000000; stroke-width: 1.5"/>
      </g>
     </g>
     <g id="text_2">
      <text style="font: 10px 'serif'; text-anchor: middle" x="101.529038" y="148.872884" transform="rotate(-0, 101.529038, 148.872884)">Lunch</text>
     </g>
    </g>
   </g>
   <g id="matplotlib.axis_2"/>
   <g id="line2d_3">
    <path d="M 44.601871 113.838677 
L 44.601871 43.483577 
" clip-path="url(#p1884afd625)" style="fill: none; stroke: #3f3f3f; stroke-width: 1.5; stroke-linecap: square"/>
   </g>
   <g id="line2d_4">
    <path d="M 44.601871 92.50032 
L 44.601871 72.142768 
" clip-path="url(#p1884afd625)" style="fill: none; stroke: #3f3f3f; stroke-width: 4.5; stroke-linecap: square"/>
   </g>
   <g id="line2d_5">
    <path d="M 101.529038 105.504188 
L 101.529038 63.662801 
" clip-path="url(#p1884afd625)" style="fill: none; stroke: #3f3f3f; stroke-width: 1.5; stroke-linecap: square"/>
   </g>
   <g id="line2d_6">
    <path d="M 101.529038 96.634715 
L 101.529038 82.936306 
" clip-path="url(#p1884afd625)" style="fill: none; stroke: #3f3f3f; stroke-width: 4.5; stroke-linecap: square"/>
   </g>
   <g id="patch_5">
    <path d="M 8.929134 134.929134 
L 8.929134 5.385827 
" style="fill: none; stroke: #1f77b4; stroke-width: 2; stroke-linejoin: miter; stroke-linecap: square"/>
   </g>
   <g id="patch_6">
    <path d="M 137.19685 134.929134 
L 137.19685 5.385827 
" style="fill: none; stroke: #1f77b4; stroke-width: 2; stroke-linejoin: miter; stroke-linecap: square"/>
   </g>
   <g id="patch_7">
    <path d="M 8.929134 134.929134 
L 137.19685 134.929134 
" style="fill: none; stroke: #1f77b4; stroke-width: 2; stroke-linejoin: miter; stroke-linecap: square"/>
   </g>
   <g id="patch_8">
    <path d="M 8.929134 5.385827 
L 137.19685 5.385827 
" style="fill: none; stroke: #1f77b4; stroke-width: 2; stroke-linejoin: miter; stroke-linecap: square"/>
   </g>
   <g id="PathCollection_1">
    <defs>
     <path id="m5aac638e96" d="M 0 1.5 
C 0.397805 1.5 0.77937 1.341951 1.06066 1.06066 
C 1.341951 0.77937 1.5 0.397805 1.5 0 
C 1.5 -0.397805 1.341951 -0.77937 1.06066 -1.06066 
C 0.77937 -1.341951 0.397805 -1.5 0 -1.5 
C -0.397805 -1.5 -0.77937 -1.341951 -1.06066 -1.06066 
C -1.341951 -0.77937 -1.5 -0.397805 -1.5 0 
C -1.5 0.397805 -1.341951 0.77937 -1.06066 1.06066 
C -0.77937 1.341951 -0.397805 1.5 0 1.5 
z
" style="stroke: #3f3f3f"/>
    </defs>
    <g clip-path="url(#p1884afd625)">
     <use xlink:href="#m5aac638e96" x="44.601871" y="85.080936" style="fill: #ffffff; stroke: #3f3f3f"/>
    </g>
   </g>
   <g id="PathCollection_2">
    <g clip-path="url(#p1884afd625)">
     <use xlink:href="#m5aac638e96" x="101.529038" y="89.632993" style="fill: #ffffff; stroke: #3f3f3f"/>
    </g>
   </g>
  </g>
 </g>
 <defs>
  <clipPath id="p1884afd625">
   <rect x="8.929134" y="5.385827" width="128.267717" height="129.543307"/>
  </clipPath>
 </defs>
</svg>
