<svg id="图层_1" data-name="图层 1" xmlns="http://www.w3.org/2000/svg" viewBox="0 0 1024 1024"><defs><style>.cls-1{fill:#1e8bca;}</style></defs><path class="cls-1" d="M69.1,351.23l49.25-5.82q8.31,58.39,54.44,58.39,22.86,0,36-11.94a38.44,38.44,0,0,0,13.09-29.6q0-10.39-4.57-17.66t-13.92-11.94Q194,328,158,317q-32.22-9.74-47.17-21.16a80.28,80.28,0,0,1-23.8-30,91.92,91.92,0,0,1-8.83-40q0-24.92,11.33-44.85a74.07,74.07,0,0,1,31.27-30.11q19.95-10.17,49.25-10.17,44.06,0,68.78,23.89T265.05,233l-50.49,2.7q-3.33-24.51-14.34-34.29t-31.38-9.76q-20.37,0-31.38,8.49t-11,21.13q0,12.44,10,20.93t45.94,18.67q38,11,54.94,23.18a78.92,78.92,0,0,1,25.86,31.37q8.93,19.21,8.93,46.64,0,39.69-24.42,66.69t-76.36,27Q79.48,455.75,69.1,351.23Z"/><path class="cls-1" d="M306.61,237.31h35.2v115.5q0,26.91,1.31,35.05,2.34,14.11,11.15,21.82t23.26,7.71q12.24,0,20-5.45a27.31,27.31,0,0,0,10.57-15.13q2.85-9.68,2.85-41.53v-118h35.2v112q0,42.9-4.58,62a52.76,52.76,0,0,1-20.66,31q-16.08,11.85-42.4,11.85-27.35,0-42.69-9.82a55.7,55.7,0,0,1-22.26-27.63q-6.91-17.82-6.91-65.68Z"/><path class="cls-1" d="M483.2,450.55V237.31h56.73q31.71,0,41.45,3.06,15.57,4.94,25.68,21.09t10.11,41.6q0,23.13-8.73,38.76t-21.82,22q-13.1,6.33-45.09,6.33H518.4v80.43Zm35.2-177.16V334h19.54q19.68,0,26.75-2.77a23.82,23.82,0,0,0,11.59-10q4.51-7.23,4.52-17.72,0-10.65-4.66-17.94t-11.52-9.76q-6.86-2.49-29-2.48Z"/><path class="cls-1" d="M646.26,450.55V237.31H776v36.08H681.46v47.27h87.86v35.93H681.46v57.89h97.75v36.07Z"/><path class="cls-1" d="M809.17,450.55V237.31H883.5q28.51,0,40.73,5.75T944.3,263q7.86,14.17,7.86,34,0,25-12,40.29t-34.11,19.2a88.34,88.34,0,0,1,18.76,17.82Q932.24,383.93,945,409l21.24,41.6H924.15l-25.55-46.4Q884.82,379,879.87,372.66t-10.48-8.73q-5.52-2.4-17.74-2.4h-7.28v89Zm35.2-123h26.19q24,0,30.54-2.11a19.51,19.51,0,0,0,10.62-8.51q4.06-6.4,4.07-17,0-10.19-4.07-16.36A20.73,20.73,0,0,0,900.67,275q-4.95-1.61-28.66-1.6H844.37Z"/><path class="cls-1" d="M194.67,840.14V538H245V788.6H370.47v51.54Z"/><path class="cls-1" d="M399,840.14V626.9H528.71V663H434.16v47.27H522v35.93H434.16v57.89h97.75v36.08Z"/><path class="cls-1" d="M601.15,840.14V663H549.22V626.9H688.13V663H636.35V840.14Z"/><path class="cls-1" d="M702.09,770.61l34.48-4.07q5.82,40.88,38.11,40.87,16,0,25.16-8.36A26.92,26.92,0,0,0,809,778.33a22.8,22.8,0,0,0-3.2-12.36,23.64,23.64,0,0,0-9.75-8.36q-6.54-3.27-31.71-11-22.54-6.81-33-14.81a56.25,56.25,0,0,1-16.65-21,64.26,64.26,0,0,1-6.19-28,62.34,62.34,0,0,1,7.93-31.39,51.83,51.83,0,0,1,21.89-21.08q14-7.12,34.48-7.12,30.83,0,48.14,16.73t18.33,47.85l-35.35,1.89q-2.32-17.16-10-24t-22-6.83q-14.25,0-22,5.94t-7.71,14.79a18.48,18.48,0,0,0,7,14.65q7,5.94,32.16,13.08,26.61,7.71,38.46,16.22a55.15,55.15,0,0,1,18.09,22q6.25,13.46,6.26,32.65,0,27.76-17.09,46.68t-53.46,18.91Q709.37,843.78,702.09,770.61Z"/></svg>