<?xml version="1.0" standalone="no"?><!DOCTYPE svg PUBLIC "-//W3C//DTD SVG 1.1//EN" "http://www.w3.org/Graphics/SVG/1.1/DTD/svg11.dtd"><svg t="1649430889034" class="icon" viewBox="0 0 1024 1024" version="1.1" xmlns="http://www.w3.org/2000/svg" p-id="5541" xmlns:xlink="http://www.w3.org/1999/xlink" width="200" height="200"><defs><style type="text/css"></style></defs><path d="M944 224v768H80V224h864m0-32H80a32 32 0 0 0-32 32v768a32 32 0 0 0 32 32h864a32 32 0 0 0 32-32V224a32 32 0 0 0-32-32z" fill="#1296db" p-id="5542"></path><path d="M80 512h864v32H80zM80 672h864v32H80zM80 832h864v32H80zM80 352h864v32H80z" fill="#1296db" p-id="5543"></path><path d="M304 224v768H272V224zM752 224v768h-32V224z" fill="#1296db" p-id="5544"></path><path d="M288 208m16 0l416 0q16 0 16 16l0 768q0 16-16 16l-416 0q-16 0-16-16l0-768q0-16 16-16Z" fill="#1296db" p-id="5545"></path><path d="M720 224v768H304V224h416m0-32H304a32 32 0 0 0-32 32v768a32 32 0 0 0 32 32h416a32 32 0 0 0 32-32V224a32 32 0 0 0-32-32z" fill="#1296db" p-id="5546"></path><path d="M720 80L624 0v160l96-80z" fill="#1296db" p-id="5547"></path><path d="M624 48m0 1.28l0 61.44q0 1.28-1.28 1.28l-61.44 0q-1.28 0-1.28-1.28l0-61.44q0-1.28 1.28-1.28l61.44 0q1.28 0 1.28 1.28Z" fill="#1296db" p-id="5548"></path><path d="M304 80L400 0v160L304 80z" fill="#1296db" p-id="5549"></path><path d="M464 48m0 1.28l0 61.44q0 1.28-1.28 1.28l-61.44 0q-1.28 0-1.28-1.28l0-61.44q0-1.28 1.28-1.28l61.44 0q1.28 0 1.28 1.28Z" fill="#1296db" p-id="5550"></path><path d="M528 224v768h-32V224z" fill="#1296db" p-id="5551"></path></svg>