<?xml version="1.0" encoding="utf-8" standalone="no"?>
<!DOCTYPE svg PUBLIC "-//W3C//DTD SVG 1.1//EN"
  "http://www.w3.org/Graphics/SVG/1.1/DTD/svg11.dtd">
<svg xmlns:xlink="http://www.w3.org/1999/xlink" width="141.12pt" height="141.12pt" viewBox="0 0 141.12 141.12" xmlns="http://www.w3.org/2000/svg" version="1.1">
 <metadata>
  <rdf:RDF xmlns:dc="http://purl.org/dc/elements/1.1/" xmlns:cc="http://creativecommons.org/ns#" xmlns:rdf="http://www.w3.org/1999/02/22-rdf-syntax-ns#">
   <cc:Work>
    <dc:type rdf:resource="http://purl.org/dc/dcmitype/StillImage"/>
    <dc:date>2023-01-01T20:50:06.611216</dc:date>
    <dc:format>image/svg+xml</dc:format>
    <dc:creator>
     <cc:Agent>
      <dc:title>Matplotlib v3.6.2, https://matplotlib.org/</dc:title>
     </cc:Agent>
    </dc:creator>
   </cc:Work>
  </rdf:RDF>
 </metadata>
 <defs>
  <style type="text/css">*{stroke-linejoin: round; stroke-linecap: butt}</style>
 </defs>
 <g id="figure_1">
  <g id="patch_1">
   <path d="M 0 141.12 
L 141.12 141.12 
L 141.12 0 
L 0 0 
L 0 141.12 
z
" style="fill: none"/>
  </g>
  <g id="axes_1">
   <g id="patch_2">
    <path d="M 14.3 126.82 
L 130.32 126.82 
L 130.32 10.8 
L 14.3 10.8 
L 14.3 126.82 
z
" style="fill: none"/>
   </g>
   <g id="PolyCollection_1">
    <defs>
     <path id="mc5b61617d0" d="M 16.918729 -54.685661 
L 16.918729 -20.413533 
L 19.222987 -20.413533 
L 21.527246 -20.413533 
L 23.831504 -20.413533 
L 26.135763 -20.413533 
L 28.440022 -20.413533 
L 30.74428 -20.413533 
L 33.048539 -20.413533 
L 35.352798 -20.413533 
L 37.657056 -20.413533 
L 39.961315 -20.413533 
L 42.265573 -20.413533 
L 44.569832 -20.413533 
L 46.874091 -20.413533 
L 49.178349 -20.413533 
L 51.482608 -20.413533 
L 53.786866 -20.413533 
L 56.091125 -20.413533 
L 58.395384 -20.413533 
L 60.699642 -20.413533 
L 63.003901 -20.413533 
L 65.308159 -20.413533 
L 67.612418 -20.413533 
L 69.916677 -20.413533 
L 72.220935 -20.413533 
L 74.525194 -20.413533 
L 76.829452 -20.413533 
L 79.133711 -20.413533 
L 81.43797 -20.413533 
L 83.742228 -20.413533 
L 86.046487 -20.413533 
L 88.350746 -20.413533 
L 90.655004 -20.413533 
L 92.959263 -20.413533 
L 95.263521 -20.413533 
L 97.56778 -20.413533 
L 99.872039 -20.413533 
L 102.176297 -20.413533 
L 104.480556 -20.413533 
L 106.784814 -20.413533 
L 109.089073 -20.413533 
L 111.393332 -20.413533 
L 113.69759 -20.413533 
L 116.001849 -20.413533 
L 118.306107 -20.413533 
L 120.610366 -20.413533 
L 122.914625 -20.413533 
L 125.218883 -20.413533 
L 127.523142 -20.413533 
L 129.8274 -20.413533 
L 129.8274 -26.805708 
L 129.8274 -26.805708 
L 127.523142 -23.412309 
L 125.218883 -20.838119 
L 122.914625 -24.257238 
L 120.610366 -27.637953 
L 118.306107 -30.946484 
L 116.001849 -34.149773 
L 113.69759 -37.215814 
L 111.393332 -40.113972 
L 109.089073 -42.81529 
L 106.784814 -45.292777 
L 104.480556 -47.521679 
L 102.176297 -49.479725 
L 99.872039 -51.147352 
L 97.56778 -52.507896 
L 95.263521 -53.547764 
L 92.959263 -54.256566 
L 90.655004 -54.627219 
L 88.350746 -54.65602 
L 86.046487 -54.342682 
L 83.742228 -53.690335 
L 81.43797 -52.705497 
L 79.133711 -51.398009 
L 76.829452 -49.780934 
L 74.525194 -47.870429 
L 72.220935 -45.685584 
L 69.916677 -43.24823 
L 67.612418 -40.582718 
L 65.308159 -37.715683 
L 63.003901 -34.67577 
L 60.699642 -31.493354 
L 58.395384 -28.200232 
L 56.091125 -24.829308 
L 53.786866 -21.414262 
L 51.482608 -22.837847 
L 49.178349 -26.238668 
L 46.874091 -29.581287 
L 44.569832 -32.832304 
L 42.265573 -35.959237 
L 39.961315 -38.930842 
L 37.657056 -41.717429 
L 35.352798 -44.291154 
L 33.048539 -46.626302 
L 30.74428 -48.69954 
L 28.440022 -50.490154 
L 26.135763 -51.980253 
L 23.831504 -53.154947 
L 21.527246 -54.0025 
L 19.222987 -54.514443 
L 16.918729 -54.685661 
z
" style="stroke: #1f77b4; stroke-opacity: 0.8"/>
    </defs>
    <g clip-path="url(#p87526953bd)">
     <use xlink:href="#mc5b61617d0" x="0" y="141.12" style="fill: #1f77b4; fill-opacity: 0.8; stroke: #1f77b4; stroke-opacity: 0.8"/>
    </g>
   </g>
   <g id="PolyCollection_2">
    <defs>
     <path id="mddbfe096e4" d="M 16.918729 -88.957788 
L 16.918729 -54.685661 
L 19.222987 -54.514443 
L 21.527246 -54.0025 
L 23.831504 -53.154947 
L 26.135763 -51.980253 
L 28.440022 -50.490154 
L 30.74428 -48.69954 
L 33.048539 -46.626302 
L 35.352798 -44.291154 
L 37.657056 -41.717429 
L 39.961315 -38.930842 
L 42.265573 -35.959237 
L 44.569832 -32.832304 
L 46.874091 -29.581287 
L 49.178349 -26.238668 
L 51.482608 -22.837847 
L 53.786866 -21.414262 
L 56.091125 -24.829308 
L 58.395384 -28.200232 
L 60.699642 -31.493354 
L 63.003901 -34.67577 
L 65.308159 -37.715683 
L 67.612418 -40.582718 
L 69.916677 -43.24823 
L 72.220935 -45.685584 
L 74.525194 -47.870429 
L 76.829452 -49.780934 
L 79.133711 -51.398009 
L 81.43797 -52.705497 
L 83.742228 -53.690335 
L 86.046487 -54.342682 
L 88.350746 -54.65602 
L 90.655004 -54.627219 
L 92.959263 -54.256566 
L 95.263521 -53.547764 
L 97.56778 -52.507896 
L 99.872039 -51.147352 
L 102.176297 -49.479725 
L 104.480556 -47.521679 
L 106.784814 -45.292777 
L 109.089073 -42.81529 
L 111.393332 -40.113972 
L 113.69759 -37.215814 
L 116.001849 -34.149773 
L 118.306107 -30.946484 
L 120.610366 -27.637953 
L 122.914625 -24.257238 
L 125.218883 -20.838119 
L 127.523142 -23.412309 
L 129.8274 -26.805708 
L 129.8274 -73.174484 
L 129.8274 -73.174484 
L 127.523142 -69.637667 
L 125.218883 -66.915438 
L 122.914625 -70.18191 
L 120.610366 -73.405386 
L 118.306107 -76.552101 
L 116.001849 -79.589013 
L 113.69759 -82.484133 
L 111.393332 -85.206844 
L 109.089073 -87.728206 
L 106.784814 -90.021245 
L 104.480556 -92.061226 
L 102.176297 -93.825898 
L 99.872039 -95.295715 
L 97.56778 -96.454035 
L 95.263521 -97.287285 
L 92.959263 -97.785094 
L 90.655004 -97.940402 
L 88.350746 -97.749527 
L 86.046487 -97.212203 
L 83.742228 -96.331583 
L 81.43797 -95.114208 
L 79.133711 -93.569942 
L 76.829452 -91.711872 
L 74.525194 -89.55618 
L 72.220935 -87.121978 
L 69.916677 -84.431124 
L 67.612418 -81.507994 
L 65.308159 -78.379248 
L 63.003901 -75.073558 
L 60.699642 -71.621325 
L 58.395384 -68.054373 
L 56.091125 -64.405634 
L 53.786866 -60.708816 
L 51.482608 -61.846699 
L 49.178349 -64.957917 
L 46.874091 -68.007061 
L 44.569832 -70.960761 
L 42.265573 -73.786563 
L 39.961315 -76.453256 
L 37.657056 -78.931177 
L 35.352798 -81.192516 
L 33.048539 -83.211587 
L 30.74428 -84.965091 
L 28.440022 -86.432343 
L 26.135763 -87.595486 
L 23.831504 -88.439663 
L 21.527246 -88.95317 
L 19.222987 -89.127572 
L 16.918729 -88.957788 
z
" style="stroke: #ff7f0e; stroke-opacity: 0.8"/>
    </defs>
    <g clip-path="url(#p87526953bd)">
     <use xlink:href="#mddbfe096e4" x="0" y="141.12" style="fill: #ff7f0e; fill-opacity: 0.8; stroke: #ff7f0e; stroke-opacity: 0.8"/>
    </g>
   </g>
   <g id="matplotlib.axis_1"/>
   <g id="matplotlib.axis_2"/>
   <g id="patch_3">
    <path d="M 14.3 126.82 
L 14.3 10.8 
" style="fill: none; stroke: #1f77b4; stroke-width: 5; stroke-linejoin: miter; stroke-linecap: square"/>
   </g>
   <g id="patch_4">
    <path d="M 130.32 126.82 
L 130.32 10.8 
" style="fill: none; stroke: #1f77b4; stroke-width: 5; stroke-linejoin: miter; stroke-linecap: square"/>
   </g>
   <g id="patch_5">
    <path d="M 14.3 126.82 
L 130.32 126.82 
" style="fill: none; stroke: #1f77b4; stroke-width: 5; stroke-linejoin: miter; stroke-linecap: square"/>
   </g>
   <g id="patch_6">
    <path d="M 14.3 10.8 
L 130.32 10.8 
" style="fill: none; stroke: #1f77b4; stroke-width: 5; stroke-linejoin: miter; stroke-linecap: square"/>
   </g>
  </g>
 </g>
 <defs>
  <clipPath id="p87526953bd">
   <rect x="14.3" y="10.8" width="116.02" height="116.02"/>
  </clipPath>
 </defs>
</svg>
