<?xml version="1.0" standalone="no"?><!DOCTYPE svg PUBLIC "-//W3C//DTD SVG 1.1//EN" "http://www.w3.org/Graphics/SVG/1.1/DTD/svg11.dtd"><svg t="1644235695265" class="icon" viewBox="0 0 1024 1024" version="1.1" xmlns="http://www.w3.org/2000/svg" p-id="39949" xmlns:xlink="http://www.w3.org/1999/xlink" width="200" height="200"><defs><style type="text/css"></style></defs><path d="M690 482l-201.8-76.9c-6.7 16.7-20 31.7-35 48.5-35 31.8-70 51.8-115.1 58.5v107c38.4 3.3 65 16.7 93.4 41.8 0 3.3 3.3 6.7 6.7 10l253.5-142c-3.3-10-6.7-20.1-6.7-35.1 1.7-1.7 1.7-5.1 5-11.8m203.5 100.3c-23.4 25.1-51.7 35.1-86.7 35.1-31.7 0-58.4-10-80.1-31.7l-253.5 152c3.3 10 3.3 25.1 3.3 35.1 0 45.1-13.3 80.2-45 110.3-31.7 31.8-65 45.1-110.1 45.1-41.7 0-80.1-13.4-110.1-45.1-28.4-31.7-45-65.2-45-110.3 0-41.8 16.7-80.2 45-110.3 16.7-16.7 38.4-28.4 58.4-35.1V512.1c-41.7-6.7-80.1-28.4-110.1-58.5C118 411.8 98 363.4 98 304.9c0-55.1 20-106.9 61.7-145.4 38.4-41.8 90.1-61.8 145.1-61.8 58.4 0 106.7 20.1 148.4 61.8 38.4 38.4 58.4 90.2 58.4 145.4v31.8l201.8 83.6c3.3-3.3 6.7-6.7 6.7-10 25-20.1 55-35.1 86.7-35.1 35 0 61.7 13.4 86.7 35.1 25 25.1 35 55.1 35 86.9 0 33.3-10 61.7-35 85.1" fill="#1296db" p-id="39950"></path></svg>