<?xml version="1.0" encoding="utf-8" standalone="no"?>
<!DOCTYPE svg PUBLIC "-//W3C//DTD SVG 1.1//EN"
  "http://www.w3.org/Graphics/SVG/1.1/DTD/svg11.dtd">
<svg xmlns:xlink="http://www.w3.org/1999/xlink" width="141.12pt" height="141.12pt" viewBox="0 0 141.12 141.12" xmlns="http://www.w3.org/2000/svg" version="1.1">
 <metadata>
  <rdf:RDF xmlns:dc="http://purl.org/dc/elements/1.1/" xmlns:cc="http://creativecommons.org/ns#" xmlns:rdf="http://www.w3.org/1999/02/22-rdf-syntax-ns#">
   <cc:Work>
    <dc:type rdf:resource="http://purl.org/dc/dcmitype/StillImage"/>
    <dc:date>2023-01-01T20:54:40.461237</dc:date>
    <dc:format>image/svg+xml</dc:format>
    <dc:creator>
     <cc:Agent>
      <dc:title>Matplotlib v3.6.2, https://matplotlib.org/</dc:title>
     </cc:Agent>
    </dc:creator>
   </cc:Work>
  </rdf:RDF>
 </metadata>
 <defs>
  <style type="text/css">*{stroke-linejoin: round; stroke-linecap: butt}</style>
 </defs>
 <g id="figure_1">
  <g id="patch_1">
   <path d="M 0 141.12 
L 141.12 141.12 
L 141.12 0 
L 0 0 
L 0 141.12 
z
" style="fill: none"/>
  </g>
  <g id="axes_1">
   <g id="patch_2">
    <path d="M 5.08032 132.51168 
L 135.19296 132.51168 
L 135.19296 4.51584 
L 5.08032 4.51584 
L 5.08032 132.51168 
z
" style="fill: none"/>
   </g>
   <g id="matplotlib.axis_1"/>
   <g id="matplotlib.axis_2"/>
   <g id="LineCollection_1">
    <path d="M 10.994531 55.418759 
L 10.994531 57.017165 
" clip-path="url(#pb83167e5ce)" style="fill: none; stroke: #1f77b4; stroke-width: 1.5"/>
    <path d="M 17.220016 55.418759 
L 17.220016 126.693687 
" clip-path="url(#pb83167e5ce)" style="fill: none; stroke: #1f77b4; stroke-width: 1.5"/>
    <path d="M 23.445501 55.418759 
L 23.445501 113.629016 
" clip-path="url(#pb83167e5ce)" style="fill: none; stroke: #1f77b4; stroke-width: 1.5"/>
    <path d="M 29.670986 55.418759 
L 29.670986 39.409741 
" clip-path="url(#pb83167e5ce)" style="fill: none; stroke: #1f77b4; stroke-width: 1.5"/>
    <path d="M 35.896472 55.418759 
L 35.896472 34.062898 
" clip-path="url(#pb83167e5ce)" style="fill: none; stroke: #1f77b4; stroke-width: 1.5"/>
    <path d="M 42.121957 55.418759 
L 42.121957 85.233424 
" clip-path="url(#pb83167e5ce)" style="fill: none; stroke: #1f77b4; stroke-width: 1.5"/>
    <path d="M 48.347442 55.418759 
L 48.347442 24.197845 
" clip-path="url(#pb83167e5ce)" style="fill: none; stroke: #1f77b4; stroke-width: 1.5"/>
    <path d="M 54.572927 55.418759 
L 54.572927 79.698058 
" clip-path="url(#pb83167e5ce)" style="fill: none; stroke: #1f77b4; stroke-width: 1.5"/>
    <path d="M 60.798412 55.418759 
L 60.798412 48.99054 
" clip-path="url(#pb83167e5ce)" style="fill: none; stroke: #1f77b4; stroke-width: 1.5"/>
    <path d="M 67.023897 55.418759 
L 67.023897 56.829001 
" clip-path="url(#pb83167e5ce)" style="fill: none; stroke: #1f77b4; stroke-width: 1.5"/>
    <path d="M 73.249383 55.418759 
L 73.249383 74.510883 
" clip-path="url(#pb83167e5ce)" style="fill: none; stroke: #1f77b4; stroke-width: 1.5"/>
    <path d="M 79.474868 55.418759 
L 79.474868 40.023667 
" clip-path="url(#pb83167e5ce)" style="fill: none; stroke: #1f77b4; stroke-width: 1.5"/>
    <path d="M 85.700353 55.418759 
L 85.700353 83.151452 
" clip-path="url(#pb83167e5ce)" style="fill: none; stroke: #1f77b4; stroke-width: 1.5"/>
    <path d="M 91.925838 55.418759 
L 91.925838 42.087651 
" clip-path="url(#pb83167e5ce)" style="fill: none; stroke: #1f77b4; stroke-width: 1.5"/>
    <path d="M 98.151323 55.418759 
L 98.151323 47.284085 
" clip-path="url(#pb83167e5ce)" style="fill: none; stroke: #1f77b4; stroke-width: 1.5"/>
    <path d="M 104.376808 55.418759 
L 104.376808 40.716003 
" clip-path="url(#pb83167e5ce)" style="fill: none; stroke: #1f77b4; stroke-width: 1.5"/>
    <path d="M 110.602294 55.418759 
L 110.602294 56.487813 
" clip-path="url(#pb83167e5ce)" style="fill: none; stroke: #1f77b4; stroke-width: 1.5"/>
    <path d="M 116.827779 55.418759 
L 116.827779 10.333833 
" clip-path="url(#pb83167e5ce)" style="fill: none; stroke: #1f77b4; stroke-width: 1.5"/>
    <path d="M 123.053264 55.418759 
L 123.053264 20.357707 
" clip-path="url(#pb83167e5ce)" style="fill: none; stroke: #1f77b4; stroke-width: 1.5"/>
    <path d="M 129.278749 55.418759 
L 129.278749 81.867225 
" clip-path="url(#pb83167e5ce)" style="fill: none; stroke: #1f77b4; stroke-width: 1.5"/>
   </g>
   <g id="line2d_1">
    <defs>
     <path id="mf01b95c077" d="M 0 3 
C 0.795609 3 1.55874 2.683901 2.12132 2.12132 
C 2.683901 1.55874 3 0.795609 3 0 
C 3 -0.795609 2.683901 -1.55874 2.12132 -2.12132 
C 1.55874 -2.683901 0.795609 -3 0 -3 
C -0.795609 -3 -1.55874 -2.683901 -2.12132 -2.12132 
C -2.683901 -1.55874 -3 -0.795609 -3 0 
C -3 0.795609 -2.683901 1.55874 -2.12132 2.12132 
C -1.55874 2.683901 -0.795609 3 0 3 
z
" style="stroke: #1f77b4"/>
    </defs>
    <g clip-path="url(#pb83167e5ce)">
     <use xlink:href="#mf01b95c077" x="10.994531" y="57.017165" style="fill: #1f77b4; stroke: #1f77b4"/>
     <use xlink:href="#mf01b95c077" x="17.220016" y="126.693687" style="fill: #1f77b4; stroke: #1f77b4"/>
     <use xlink:href="#mf01b95c077" x="23.445501" y="113.629016" style="fill: #1f77b4; stroke: #1f77b4"/>
     <use xlink:href="#mf01b95c077" x="29.670986" y="39.409741" style="fill: #1f77b4; stroke: #1f77b4"/>
     <use xlink:href="#mf01b95c077" x="35.896472" y="34.062898" style="fill: #1f77b4; stroke: #1f77b4"/>
     <use xlink:href="#mf01b95c077" x="42.121957" y="85.233424" style="fill: #1f77b4; stroke: #1f77b4"/>
     <use xlink:href="#mf01b95c077" x="48.347442" y="24.197845" style="fill: #1f77b4; stroke: #1f77b4"/>
     <use xlink:href="#mf01b95c077" x="54.572927" y="79.698058" style="fill: #1f77b4; stroke: #1f77b4"/>
     <use xlink:href="#mf01b95c077" x="60.798412" y="48.99054" style="fill: #1f77b4; stroke: #1f77b4"/>
     <use xlink:href="#mf01b95c077" x="67.023897" y="56.829001" style="fill: #1f77b4; stroke: #1f77b4"/>
     <use xlink:href="#mf01b95c077" x="73.249383" y="74.510883" style="fill: #1f77b4; stroke: #1f77b4"/>
     <use xlink:href="#mf01b95c077" x="79.474868" y="40.023667" style="fill: #1f77b4; stroke: #1f77b4"/>
     <use xlink:href="#mf01b95c077" x="85.700353" y="83.151452" style="fill: #1f77b4; stroke: #1f77b4"/>
     <use xlink:href="#mf01b95c077" x="91.925838" y="42.087651" style="fill: #1f77b4; stroke: #1f77b4"/>
     <use xlink:href="#mf01b95c077" x="98.151323" y="47.284085" style="fill: #1f77b4; stroke: #1f77b4"/>
     <use xlink:href="#mf01b95c077" x="104.376808" y="40.716003" style="fill: #1f77b4; stroke: #1f77b4"/>
     <use xlink:href="#mf01b95c077" x="110.602294" y="56.487813" style="fill: #1f77b4; stroke: #1f77b4"/>
     <use xlink:href="#mf01b95c077" x="116.827779" y="10.333833" style="fill: #1f77b4; stroke: #1f77b4"/>
     <use xlink:href="#mf01b95c077" x="123.053264" y="20.357707" style="fill: #1f77b4; stroke: #1f77b4"/>
     <use xlink:href="#mf01b95c077" x="129.278749" y="81.867225" style="fill: #1f77b4; stroke: #1f77b4"/>
    </g>
   </g>
   <g id="line2d_2">
    <path d="M 10.994531 55.418759 
L 129.278749 55.418759 
" clip-path="url(#pb83167e5ce)" style="fill: none; stroke: #d62728; stroke-width: 1.5; stroke-linecap: square"/>
   </g>
   <g id="patch_3">
    <path d="M 5.08032 132.51168 
L 5.08032 4.51584 
" style="fill: none; stroke: #1f77b4; stroke-width: 5; stroke-linejoin: miter; stroke-linecap: square"/>
   </g>
   <g id="patch_4">
    <path d="M 135.19296 132.51168 
L 135.19296 4.51584 
" style="fill: none; stroke: #1f77b4; stroke-width: 5; stroke-linejoin: miter; stroke-linecap: square"/>
   </g>
   <g id="patch_5">
    <path d="M 5.08032 132.51168 
L 135.19296 132.51168 
" style="fill: none; stroke: #1f77b4; stroke-width: 5; stroke-linejoin: miter; stroke-linecap: square"/>
   </g>
   <g id="patch_6">
    <path d="M 5.08032 4.51584 
L 135.19296 4.51584 
" style="fill: none; stroke: #1f77b4; stroke-width: 5; stroke-linejoin: miter; stroke-linecap: square"/>
   </g>
  </g>
 </g>
 <defs>
  <clipPath id="pb83167e5ce">
   <rect x="5.08032" y="4.51584" width="130.11264" height="127.99584"/>
  </clipPath>
 </defs>
</svg>
