<?xml version="1.0" standalone="no"?><!DOCTYPE svg PUBLIC "-//W3C//DTD SVG 1.1//EN" "http://www.w3.org/Graphics/SVG/1.1/DTD/svg11.dtd"><svg t="1618799961711" class="icon" viewBox="0 0 1024 1024" version="1.1" xmlns="http://www.w3.org/2000/svg" p-id="22321" xmlns:xlink="http://www.w3.org/1999/xlink" width="200" height="200"><defs><style type="text/css"></style></defs><path d="M908.4 211.9H115.6c-11 0-20-9-20-20s9-20 20-20h792.7c11 0 20 9 20 20s-8.9 20-19.9 20zM908.4 425.3H115.6c-11 0-20-9-20-20s9-20 20-20h792.7c11 0 20 9 20 20s-8.9 20-19.9 20zM908.4 638.7H115.6c-11 0-20-9-20-20s9-20 20-20h792.7c11 0 20 9 20 20s-8.9 20-19.9 20zM908.4 852.1H115.6c-11 0-20-9-20-20s9-20 20-20h792.7c11 0 20 9 20 20s-8.9 20-19.9 20z" p-id="22322" fill="#1296db"></path></svg>