<?xml version="1.0" standalone="no"?><!DOCTYPE svg PUBLIC "-//W3C//DTD SVG 1.1//EN" "http://www.w3.org/Graphics/SVG/1.1/DTD/svg11.dtd"><svg t="1618799298503" class="icon" viewBox="0 0 1024 1024" version="1.1" xmlns="http://www.w3.org/2000/svg" p-id="15947" xmlns:xlink="http://www.w3.org/1999/xlink" width="200" height="200"><defs><style type="text/css"></style></defs><path d="M512 42.666667C252.8 42.666667 29.12 253.173333 42.666667 512c18.453333 353.013333 429.546667 149.333333 466.666666 426.666667a47.04 47.04 0 0 0 51.573334 40.213333A469.333333 469.333333 0 0 0 512 42.666667zM375.413333 336.746667A58.666667 58.666667 0 1 1 405.333333 259.253333a58.666667 58.666667 0 0 1-29.92 77.493334z m283.52-81.706667a58.666667 58.666667 0 1 1-10.133333 82.346667 58.666667 58.666667 0 0 1 10.133333-82.346667z m-75.573333-7.786667a58.666667 58.666667 0 1 1-42.666667-71.146666 58.666667 58.666667 0 0 1 42.666667 71.146666z m86.08 561.92a72 72 0 1 1 72-72 72.053333 72.053333 0 0 1-72 72zM785.92 517.333333a58.666667 58.666667 0 1 1 58.666667-58.666666 58.666667 58.666667 0 0 1-58.666667 58.666666z" p-id="15948" fill="#1296db"></path></svg>