<?xml version="1.0" standalone="no"?><!DOCTYPE svg PUBLIC "-//W3C//DTD SVG 1.1//EN" "http://www.w3.org/Graphics/SVG/1.1/DTD/svg11.dtd"><svg t="1613446934299" class="icon" viewBox="0 0 1024 1024" version="1.1" xmlns="http://www.w3.org/2000/svg" p-id="93183" xmlns:xlink="http://www.w3.org/1999/xlink" width="200" height="200"><defs><style type="text/css"></style></defs><path d="M960 1024h-128a64 64 0 0 1-64-64v-128a64 64 0 0 1 64-64h128a64 64 0 0 1 64 64v128a64 64 0 0 1-64 64z m0-384h-128a64 64 0 0 1-64-64v-128A64 64 0 0 1 832 384h128a64 64 0 0 1 64 64v128a64 64 0 0 1-64 64z m0-384h-128A64 64 0 0 1 768 192v-128A64 64 0 0 1 832 0h128A64 64 0 0 1 1024 64v128A64 64 0 0 1 960 256z m-384 768h-128A64 64 0 0 1 384 960v-128a64 64 0 0 1 64-64h128a64 64 0 0 1 64 64v128a64 64 0 0 1-64 64z m0-384h-128A64 64 0 0 1 384 576v-128A64 64 0 0 1 448 384h128a64 64 0 0 1 64 64v128a64 64 0 0 1-64 64z m0-384h-128A64 64 0 0 1 384 192v-128A64 64 0 0 1 448 0h128A64 64 0 0 1 640 64v128A64 64 0 0 1 576 256z m-384 768h-128A64 64 0 0 1 0 960v-128A64 64 0 0 1 64 768h128A64 64 0 0 1 256 832v128A64 64 0 0 1 192 1024z m0-384h-128A64 64 0 0 1 0 576v-128A64 64 0 0 1 64 384h128A64 64 0 0 1 256 448v128A64 64 0 0 1 192 640z m0-384h-128A64 64 0 0 1 0 192v-128A64 64 0 0 1 64 0h128A64 64 0 0 1 256 64v128A64 64 0 0 1 192 256z" fill="#1296db" p-id="93184"></path></svg>