<svg id="图层_1" data-name="图层 1" xmlns="http://www.w3.org/2000/svg" viewBox="0 0 1024 1024"><defs><style>.cls-1{fill:#f7931e;}.cls-1,.cls-2,.cls-3{stroke:#000;}.cls-1,.cls-2,.cls-3,.cls-4{stroke-miterlimit:10;}.cls-2{fill:#0071bc;}.cls-3{fill:#662d91;}.cls-4{fill:none;stroke:#00a99d;stroke-width:80px;}.cls-5{fill:#00a99d;}.cls-6{font-size:184.41px;fill:#29abe2;font-family:MyriadPro-Regular, Myriad Pro;}.cls-7{letter-spacing:-0.02em;}.cls-8{letter-spacing:0em;}</style></defs><rect class="cls-1" x="11.63" y="64.51" width="244.4" height="94.95"/><rect class="cls-2" x="11.63" y="164.45" width="244.4" height="94.95"/><rect class="cls-1" x="263.84" y="64.51" width="244.4" height="94.95"/><rect class="cls-2" x="263.84" y="164.45" width="244.4" height="94.95"/><rect class="cls-3" x="767.53" y="64.2" width="243.47" height="94.58"/><rect class="cls-2" x="767.53" y="163.76" width="243.47" height="94.58"/><rect class="cls-2" x="767.53" y="263.33" width="243.47" height="94.58"/><rect class="cls-2" x="767.53" y="362.89" width="243.47" height="94.58"/><rect class="cls-2" x="767.53" y="461.5" width="243.47" height="94.58"/><rect class="cls-1" x="514.59" y="64.51" width="244.4" height="94.95"/><rect class="cls-2" x="514.59" y="164.45" width="244.4" height="94.95"/><rect class="cls-2" x="767.53" y="559.73" width="243.47" height="94.58"/><rect class="cls-2" x="767.53" y="659.93" width="243.47" height="94.58"/><rect class="cls-2" x="767.53" y="758.17" width="243.47" height="94.58"/><rect class="cls-2" x="767.53" y="857.81" width="243.47" height="94.58"/><path class="cls-4" d="M673.88,688.25s-343.3,32.22-412.4-224.08"/><path class="cls-5" d="M251.72,319.63c31,65.73,81.31,146.28,131.34,194.57L265.8,482.88,155.65,533.82C196.68,477.67,232.4,389.71,251.72,319.63Z"/><text class="cls-6" transform="translate(0 592.92) rotate(35.29)">UNPIV<tspan class="cls-7" x="485.74" y="0">O</tspan><tspan class="cls-8" x="608.2" y="0">T</tspan></text></svg>