<?xml version="1.0" encoding="utf-8" standalone="no"?>
<!DOCTYPE svg PUBLIC "-//W3C//DTD SVG 1.1//EN"
  "http://www.w3.org/Graphics/SVG/1.1/DTD/svg11.dtd">
<svg xmlns:xlink="http://www.w3.org/1999/xlink" width="141.732283pt" height="141.732283pt" viewBox="0 0 141.732283 141.732283" xmlns="http://www.w3.org/2000/svg" version="1.1">
 <metadata>
  <rdf:RDF xmlns:dc="http://purl.org/dc/elements/1.1/" xmlns:cc="http://creativecommons.org/ns#" xmlns:rdf="http://www.w3.org/1999/02/22-rdf-syntax-ns#">
   <cc:Work>
    <dc:type rdf:resource="http://purl.org/dc/dcmitype/StillImage"/>
    <dc:date>2022-03-20T21:57:45.791971</dc:date>
    <dc:format>image/svg+xml</dc:format>
    <dc:creator>
     <cc:Agent>
      <dc:title>Matplotlib v3.5.1, https://matplotlib.org/</dc:title>
     </cc:Agent>
    </dc:creator>
   </cc:Work>
  </rdf:RDF>
 </metadata>
 <defs>
  <style type="text/css">*{stroke-linejoin: round; stroke-linecap: butt}</style>
 </defs>
 <g id="figure_1">
  <g id="patch_1">
   <path d="M 0 141.732283 
L 141.732283 141.732283 
L 141.732283 0 
L 0 0 
z
" style="fill: #ffffff"/>
  </g>
  <g id="axes_1">
   <g id="patch_2">
    <path d="M 4.818898 134.929134 
L 137.19685 134.929134 
L 137.19685 5.385827 
L 4.818898 5.385827 
z
" style="fill: #ffffff"/>
   </g>
   <g id="PolyCollection_1">
    <path d="M 37.997215 115.510812 
L 23.789471 115.510812 
L 23.302937 114.736827 
L 22.812186 113.962842 
L 22.318897 113.188857 
L 21.824625 112.414872 
L 21.330799 111.640887 
L 20.838729 110.866902 
L 20.349624 110.092917 
L 19.864614 109.318932 
L 19.384776 108.544947 
L 18.911169 107.770962 
L 18.444859 106.996977 
L 17.986948 106.222992 
L 17.538592 105.449007 
L 17.101012 104.675022 
L 16.675495 103.901037 
L 16.263383 103.127052 
L 15.866053 102.353068 
L 15.484874 101.579083 
L 15.121174 100.805098 
L 14.776175 100.031113 
L 14.450946 99.257128 
L 14.146336 98.483143 
L 13.862918 97.709158 
L 13.600941 96.935173 
L 13.360291 96.161188 
L 13.140463 95.387203 
L 12.940554 94.613218 
L 12.759279 93.839233 
L 12.595006 93.065248 
L 12.445808 92.291263 
L 12.309544 91.517278 
L 12.183949 90.743293 
L 12.066745 89.969308 
L 11.955757 89.195323 
L 11.849027 88.421338 
L 11.744934 87.647354 
L 11.642294 86.873369 
L 11.540449 86.099384 
L 11.439332 85.325399 
L 11.3395 84.551414 
L 11.242142 83.777429 
L 11.149053 83.003444 
L 11.062574 82.229459 
L 10.9855 81.455474 
L 10.920967 80.681489 
L 10.872312 79.907504 
L 10.842922 79.133519 
L 10.836077 78.359534 
L 10.854793 77.585549 
L 10.901675 76.811564 
L 10.978792 76.037579 
L 11.087575 75.263594 
L 11.228745 74.489609 
L 11.402281 73.715624 
L 11.607417 72.94164 
L 11.842683 72.167655 
L 12.105979 71.39367 
L 12.394674 70.619685 
L 12.705737 69.8457 
L 13.035876 69.071715 
L 13.381696 68.29773 
L 13.739843 67.523745 
L 14.107154 66.74976 
L 14.480777 65.975775 
L 14.858279 65.20179 
L 15.237716 64.427805 
L 15.617679 63.65382 
L 15.997302 62.879835 
L 16.376239 62.10585 
L 16.754615 61.331865 
L 17.132948 60.55788 
L 17.512051 59.783895 
L 17.892925 59.00991 
L 18.276647 58.235926 
L 18.664257 57.461941 
L 19.056654 56.687956 
L 19.454509 55.913971 
L 19.858197 55.139986 
L 20.267748 54.366001 
L 20.682825 53.592016 
L 21.102723 52.818031 
L 21.526396 52.044046 
L 21.952492 51.270061 
L 22.379417 50.496076 
L 22.805399 49.722091 
L 23.228561 48.948106 
L 23.646999 48.174121 
L 24.058849 47.400136 
L 24.462353 46.626151 
L 24.855914 45.852166 
L 25.238131 45.078181 
L 25.607833 44.304196 
L 25.964087 43.530212 
L 26.306202 42.756227 
L 26.633715 41.982242 
L 26.946376 41.208257 
L 27.244116 40.434272 
L 27.527016 39.660287 
L 27.795281 38.886302 
L 33.991405 38.886302 
L 33.991405 38.886302 
L 34.259669 39.660287 
L 34.54257 40.434272 
L 34.84031 41.208257 
L 35.15297 41.982242 
L 35.480484 42.756227 
L 35.822599 43.530212 
L 36.178853 44.304196 
L 36.548555 45.078181 
L 36.930772 45.852166 
L 37.324332 46.626151 
L 37.727837 47.400136 
L 38.139687 48.174121 
L 38.558124 48.948106 
L 38.981287 49.722091 
L 39.407268 50.496076 
L 39.834194 51.270061 
L 40.26029 52.044046 
L 40.683963 52.818031 
L 41.103861 53.592016 
L 41.518938 54.366001 
L 41.928489 55.139986 
L 42.332177 55.913971 
L 42.730032 56.687956 
L 43.122429 57.461941 
L 43.510039 58.235926 
L 43.893761 59.00991 
L 44.274635 59.783895 
L 44.653738 60.55788 
L 45.03207 61.331865 
L 45.410447 62.10585 
L 45.789384 62.879835 
L 46.169007 63.65382 
L 46.548969 64.427805 
L 46.928407 65.20179 
L 47.305908 65.975775 
L 47.679532 66.74976 
L 48.046843 67.523745 
L 48.40499 68.29773 
L 48.75081 69.071715 
L 49.080949 69.8457 
L 49.392012 70.619685 
L 49.680707 71.39367 
L 49.944003 72.167655 
L 50.179269 72.94164 
L 50.384405 73.715624 
L 50.55794 74.489609 
L 50.699111 75.263594 
L 50.807894 76.037579 
L 50.885011 76.811564 
L 50.931893 77.585549 
L 50.950608 78.359534 
L 50.943764 79.133519 
L 50.914374 79.907504 
L 50.865719 80.681489 
L 50.801186 81.455474 
L 50.724112 82.229459 
L 50.637632 83.003444 
L 50.544544 83.777429 
L 50.447186 84.551414 
L 50.347354 85.325399 
L 50.246236 86.099384 
L 50.144392 86.873369 
L 50.041752 87.647354 
L 49.937659 88.421338 
L 49.830929 89.195323 
L 49.71994 89.969308 
L 49.602737 90.743293 
L 49.477142 91.517278 
L 49.340878 92.291263 
L 49.191679 93.065248 
L 49.027406 93.839233 
L 48.846132 94.613218 
L 48.646223 95.387203 
L 48.426394 96.161188 
L 48.185744 96.935173 
L 47.923768 97.709158 
L 47.64035 98.483143 
L 47.335739 99.257128 
L 47.01051 100.031113 
L 46.665512 100.805098 
L 46.301812 101.579083 
L 45.920633 102.353068 
L 45.523302 103.127052 
L 45.111191 103.901037 
L 44.685674 104.675022 
L 44.248094 105.449007 
L 43.799737 106.222992 
L 43.341827 106.996977 
L 42.875517 107.770962 
L 42.40191 108.544947 
L 41.922072 109.318932 
L 41.437061 110.092917 
L 40.947957 110.866902 
L 40.455887 111.640887 
L 39.962061 112.414872 
L 39.467789 113.188857 
L 38.9745 113.962842 
L 38.483749 114.736827 
L 37.997215 115.510812 
z
" clip-path="url(#pdbd4f6b340)" style="fill: #1f77b4; fill-opacity: 0.3"/>
   </g>
   <g id="PolyCollection_2">
    <path d="M 115.646929 129.040802 
L 106.597882 129.040802 
L 106.162585 127.85124 
L 105.713482 126.661678 
L 105.252409 125.472116 
L 104.781091 124.282554 
L 104.301094 123.092991 
L 103.813798 121.903429 
L 103.320396 120.713867 
L 102.821916 119.524305 
L 102.319268 118.334743 
L 101.813315 117.145181 
L 101.304954 115.955619 
L 100.795203 114.766057 
L 100.285293 113.576495 
L 99.776736 112.386933 
L 99.271375 111.197371 
L 98.771403 110.007809 
L 98.279335 108.818247 
L 97.79795 107.628685 
L 97.330183 106.439123 
L 96.878988 105.249561 
L 96.447172 104.059999 
L 96.037219 102.870437 
L 95.651115 101.680875 
L 95.29019 100.491313 
L 94.955 99.301751 
L 94.64525 98.112188 
L 94.359778 96.922626 
L 94.096608 95.733064 
L 93.853056 94.543502 
L 93.625909 93.35394 
L 93.41165 92.164378 
L 93.206713 90.974816 
L 93.007767 89.785254 
L 92.811997 88.595692 
L 92.617356 87.40613 
L 92.422791 86.216568 
L 92.2284 85.027006 
L 92.035531 83.837444 
L 91.846798 82.647882 
L 91.666016 81.45832 
L 91.498062 80.268758 
L 91.348667 79.079196 
L 91.224146 77.889634 
L 91.13109 76.700072 
L 91.076037 75.51051 
L 91.06514 74.320947 
L 91.103848 73.131385 
L 91.196633 71.941823 
L 91.346765 70.752261 
L 91.556144 69.562699 
L 91.825221 68.373137 
L 92.152976 67.183575 
L 92.536982 65.994013 
L 92.973527 64.804451 
L 93.457794 63.614889 
L 93.984087 62.425327 
L 94.546078 61.235765 
L 95.137068 60.046203 
L 95.750246 58.856641 
L 96.378927 57.667079 
L 97.016762 56.477517 
L 97.657916 55.287955 
L 98.297194 54.098393 
L 98.930132 52.908831 
L 99.553034 51.719269 
L 100.162971 50.529707 
L 100.757751 49.340144 
L 101.335841 48.150582 
L 101.896286 46.96102 
L 102.438591 45.771458 
L 102.962614 44.581896 
L 103.468443 43.392334 
L 103.956285 42.202772 
L 104.426366 41.01321 
L 104.878839 39.823648 
L 105.313724 38.634086 
L 105.73086 37.444524 
L 106.129889 36.254962 
L 106.510254 35.0654 
L 106.871233 33.875838 
L 107.211983 32.686276 
L 107.53161 31.496714 
L 107.829245 30.307152 
L 108.104132 29.11759 
L 108.355708 27.928028 
L 108.583693 26.738466 
L 108.788146 25.548903 
L 108.969523 24.359341 
L 109.128702 23.169779 
L 109.266981 21.980217 
L 109.386061 20.790655 
L 109.487989 19.601093 
L 109.57509 18.411531 
L 109.649877 17.221969 
L 109.714946 16.032407 
L 109.772868 14.842845 
L 109.826086 13.653283 
L 109.876816 12.463721 
L 109.926966 11.274159 
L 112.317845 11.274159 
L 112.317845 11.274159 
L 112.367995 12.463721 
L 112.418725 13.653283 
L 112.471943 14.842845 
L 112.529864 16.032407 
L 112.594933 17.221969 
L 112.66972 18.411531 
L 112.756822 19.601093 
L 112.85875 20.790655 
L 112.977829 21.980217 
L 113.116109 23.169779 
L 113.275287 24.359341 
L 113.456665 25.548903 
L 113.661118 26.738466 
L 113.889102 27.928028 
L 114.140679 29.11759 
L 114.415565 30.307152 
L 114.7132 31.496714 
L 115.032827 32.686276 
L 115.373577 33.875838 
L 115.734556 35.0654 
L 116.114921 36.254962 
L 116.51395 37.444524 
L 116.931087 38.634086 
L 117.365972 39.823648 
L 117.818445 41.01321 
L 118.288525 42.202772 
L 118.776368 43.392334 
L 119.282197 44.581896 
L 119.80622 45.771458 
L 120.348525 46.96102 
L 120.908969 48.150582 
L 121.48706 49.340144 
L 122.081839 50.529707 
L 122.691777 51.719269 
L 123.314678 52.908831 
L 123.947616 54.098393 
L 124.586895 55.287955 
L 125.228049 56.477517 
L 125.865884 57.667079 
L 126.494564 58.856641 
L 127.107742 60.046203 
L 127.698732 61.235765 
L 128.260723 62.425327 
L 128.787017 63.614889 
L 129.271284 64.804451 
L 129.707828 65.994013 
L 130.091834 67.183575 
L 130.419589 68.373137 
L 130.688666 69.562699 
L 130.898046 70.752261 
L 131.048177 71.941823 
L 131.140963 73.131385 
L 131.179671 74.320947 
L 131.168773 75.51051 
L 131.11372 76.700072 
L 131.020664 77.889634 
L 130.896143 79.079196 
L 130.746748 80.268758 
L 130.578794 81.45832 
L 130.398012 82.647882 
L 130.209279 83.837444 
L 130.016411 85.027006 
L 129.82202 86.216568 
L 129.627454 87.40613 
L 129.432813 88.595692 
L 129.237043 89.785254 
L 129.038098 90.974816 
L 128.833161 92.164378 
L 128.618901 93.35394 
L 128.391755 94.543502 
L 128.148202 95.733064 
L 127.885032 96.922626 
L 127.599561 98.112188 
L 127.28981 99.301751 
L 126.95462 100.491313 
L 126.593695 101.680875 
L 126.207591 102.870437 
L 125.797638 104.059999 
L 125.365822 105.249561 
L 124.914627 106.439123 
L 124.446861 107.628685 
L 123.965476 108.818247 
L 123.473408 110.007809 
L 122.973435 111.197371 
L 122.468074 112.386933 
L 121.959517 113.576495 
L 121.449607 114.766057 
L 120.939857 115.955619 
L 120.431495 117.145181 
L 119.925542 118.334743 
L 119.422895 119.524305 
L 118.924414 120.713867 
L 118.431012 121.903429 
L 117.943716 123.092991 
L 117.463719 124.282554 
L 116.992401 125.472116 
L 116.531329 126.661678 
L 116.082225 127.85124 
L 115.646929 129.040802 
z
" clip-path="url(#pdbd4f6b340)" style="fill: #1f77b4; fill-opacity: 0.3"/>
   </g>
   <g id="matplotlib.axis_1">
    <g id="xtick_1">
     <g id="line2d_1">
      <defs>
       <path id="m8f6417aeb1" d="M 0 0 
L 0 3.5 
" style="stroke: #000000; stroke-width: 0.8"/>
      </defs>
      <g>
       <use xlink:href="#m8f6417aeb1" x="30.893343" y="134.929134" style="stroke: #000000; stroke-width: 0.8"/>
      </g>
     </g>
     <g id="text_1">
      <text style="font: 10px 'serif'; text-anchor: middle" x="30.893343" y="148.872884" transform="rotate(-0, 30.893343, 148.872884)">newCol4</text>
     </g>
    </g>
    <g id="xtick_2">
     <g id="line2d_2">
      <g>
       <use xlink:href="#m8f6417aeb1" x="111.122405" y="134.929134" style="stroke: #000000; stroke-width: 0.8"/>
      </g>
     </g>
     <g id="text_2">
      <text style="font: 10px 'serif'; text-anchor: middle" x="111.122405" y="148.872884" transform="rotate(-0, 111.122405, 148.872884)">newCol1</text>
     </g>
    </g>
   </g>
   <g id="matplotlib.axis_2">
    <g id="ytick_1">
     <g id="line2d_3">
      <defs>
       <path id="m2a5c8d1c63" d="M 0 0 
L -3.5 0 
" style="stroke: #000000; stroke-width: 1.5"/>
      </defs>
      <g>
       <use xlink:href="#m2a5c8d1c63" x="4.818898" y="133.113982" style="stroke: #000000; stroke-width: 1.5"/>
      </g>
     </g>
     <g id="text_3">
      <text style="font: 10px 'serif'; text-anchor: end" x="-2.181102" y="136.585857" transform="rotate(-0, -2.181102, 136.585857)">−2</text>
     </g>
    </g>
    <g id="ytick_2">
     <g id="line2d_4">
      <g>
       <use xlink:href="#m2a5c8d1c63" x="4.818898" y="108.540182" style="stroke: #000000; stroke-width: 1.5"/>
      </g>
     </g>
     <g id="text_4">
      <text style="font: 10px 'serif'; text-anchor: end" x="-2.181102" y="112.012057" transform="rotate(-0, -2.181102, 112.012057)">−1</text>
     </g>
    </g>
    <g id="ytick_3">
     <g id="line2d_5">
      <g>
       <use xlink:href="#m2a5c8d1c63" x="4.818898" y="83.966382" style="stroke: #000000; stroke-width: 1.5"/>
      </g>
     </g>
     <g id="text_5">
      <text style="font: 10px 'serif'; text-anchor: end" x="-2.181102" y="87.438257" transform="rotate(-0, -2.181102, 87.438257)">0</text>
     </g>
    </g>
    <g id="ytick_4">
     <g id="line2d_6">
      <g>
       <use xlink:href="#m2a5c8d1c63" x="4.818898" y="59.392582" style="stroke: #000000; stroke-width: 1.5"/>
      </g>
     </g>
     <g id="text_6">
      <text style="font: 10px 'serif'; text-anchor: end" x="-2.181102" y="62.864457" transform="rotate(-0, -2.181102, 62.864457)">1</text>
     </g>
    </g>
    <g id="ytick_5">
     <g id="line2d_7">
      <g>
       <use xlink:href="#m2a5c8d1c63" x="4.818898" y="34.818783" style="stroke: #000000; stroke-width: 1.5"/>
      </g>
     </g>
     <g id="text_7">
      <text style="font: 10px 'serif'; text-anchor: end" x="-2.181102" y="38.290658" transform="rotate(-0, -2.181102, 38.290658)">2</text>
     </g>
    </g>
    <g id="ytick_6">
     <g id="line2d_8">
      <g>
       <use xlink:href="#m2a5c8d1c63" x="4.818898" y="10.244983" style="stroke: #000000; stroke-width: 1.5"/>
      </g>
     </g>
     <g id="text_8">
      <text style="font: 10px 'serif'; text-anchor: end" x="-2.181102" y="13.716858" transform="rotate(-0, -2.181102, 13.716858)">3</text>
     </g>
    </g>
   </g>
   <g id="LineCollection_1">
    <path d="M 20.86471 81.370401 
L 40.921976 81.370401 
" clip-path="url(#pdbd4f6b340)" style="fill: none; stroke: #1f77b4; stroke-width: 1.5"/>
    <path d="M 101.093772 80.128197 
L 121.151038 80.128197 
" clip-path="url(#pdbd4f6b340)" style="fill: none; stroke: #1f77b4; stroke-width: 1.5"/>
   </g>
   <g id="LineCollection_2">
    <path d="M 20.86471 38.886302 
L 40.921976 38.886302 
" clip-path="url(#pdbd4f6b340)" style="fill: none; stroke: #1f77b4; stroke-width: 1.5"/>
    <path d="M 101.093772 11.274159 
L 121.151038 11.274159 
" clip-path="url(#pdbd4f6b340)" style="fill: none; stroke: #1f77b4; stroke-width: 1.5"/>
   </g>
   <g id="LineCollection_3">
    <path d="M 20.86471 115.510812 
L 40.921976 115.510812 
" clip-path="url(#pdbd4f6b340)" style="fill: none; stroke: #1f77b4; stroke-width: 1.5"/>
    <path d="M 101.093772 129.040802 
L 121.151038 129.040802 
" clip-path="url(#pdbd4f6b340)" style="fill: none; stroke: #1f77b4; stroke-width: 1.5"/>
   </g>
   <g id="LineCollection_4">
    <path d="M 30.893343 115.510812 
L 30.893343 38.886302 
" clip-path="url(#pdbd4f6b340)" style="fill: none; stroke: #1f77b4; stroke-width: 1.5"/>
    <path d="M 111.122405 129.040802 
L 111.122405 11.274159 
" clip-path="url(#pdbd4f6b340)" style="fill: none; stroke: #1f77b4; stroke-width: 1.5"/>
   </g>
   <g id="patch_3">
    <path d="M 4.818898 134.929134 
L 4.818898 5.385827 
" style="fill: none; stroke: #1f77b4; stroke-width: 2; stroke-linejoin: miter; stroke-linecap: square"/>
   </g>
   <g id="patch_4">
    <path d="M 137.19685 134.929134 
L 137.19685 5.385827 
" style="fill: none; stroke: #1f77b4; stroke-width: 2; stroke-linejoin: miter; stroke-linecap: square"/>
   </g>
   <g id="patch_5">
    <path d="M 4.818898 134.929134 
L 137.19685 134.929134 
" style="fill: none; stroke: #1f77b4; stroke-width: 2; stroke-linejoin: miter; stroke-linecap: square"/>
   </g>
   <g id="patch_6">
    <path d="M 4.818898 5.385827 
L 137.19685 5.385827 
" style="fill: none; stroke: #1f77b4; stroke-width: 2; stroke-linejoin: miter; stroke-linecap: square"/>
   </g>
  </g>
 </g>
 <defs>
  <clipPath id="pdbd4f6b340">
   <rect x="4.818898" y="5.385827" width="132.377953" height="129.543307"/>
  </clipPath>
 </defs>
</svg>
