<?xml version="1.0" encoding="utf-8" standalone="no"?>
<!DOCTYPE svg PUBLIC "-//W3C//DTD SVG 1.1//EN"
  "http://www.w3.org/Graphics/SVG/1.1/DTD/svg11.dtd">
<svg xmlns:xlink="http://www.w3.org/1999/xlink" width="141.12pt" height="141.12pt" viewBox="0 0 141.12 141.12" xmlns="http://www.w3.org/2000/svg" version="1.1">
 <metadata>
  <rdf:RDF xmlns:dc="http://purl.org/dc/elements/1.1/" xmlns:cc="http://creativecommons.org/ns#" xmlns:rdf="http://www.w3.org/1999/02/22-rdf-syntax-ns#">
   <cc:Work>
    <dc:type rdf:resource="http://purl.org/dc/dcmitype/StillImage"/>
    <dc:date>2023-01-01T21:28:49.289351</dc:date>
    <dc:format>image/svg+xml</dc:format>
    <dc:creator>
     <cc:Agent>
      <dc:title>Matplotlib v3.6.2, https://matplotlib.org/</dc:title>
     </cc:Agent>
    </dc:creator>
   </cc:Work>
  </rdf:RDF>
 </metadata>
 <defs>
  <style type="text/css">*{stroke-linejoin: round; stroke-linecap: butt}</style>
 </defs>
 <g id="figure_1">
  <g id="patch_1">
   <path d="M 0 141.12 
L 141.12 141.12 
L 141.12 0 
L 0 0 
L 0 141.12 
z
" style="fill: none"/>
  </g>
  <g id="patch_2">
   <path d="M 1.4112 138.01536 
L 139.42656 138.01536 
L 139.42656 0 
L 1.4112 0 
L 1.4112 138.01536 
z
" style="fill: none"/>
  </g>
  <g id="pane3d_1">
   <g id="patch_3">
    <path d="M 11.246605 100.663087 
L 62.011997 61.068871 
L 61.523883 7.73692 
L 8.100982 44.863313 
" style="fill: #f2f2f2; opacity: 0.5; stroke: #f2f2f2; stroke-linejoin: miter"/>
   </g>
  </g>
  <g id="pane3d_2">
   <g id="patch_4">
    <path d="M 62.011997 61.068871 
L 131.847945 87.818555 
L 134.839816 32.78819 
L 61.523883 7.73692 
" style="fill: #e6e6e6; opacity: 0.5; stroke: #e6e6e6; stroke-linejoin: miter"/>
   </g>
  </g>
  <g id="pane3d_3">
   <g id="patch_5">
    <path d="M 11.246605 100.663087 
L 84.035724 132.023427 
L 131.847945 87.818555 
L 62.011997 61.068871 
" style="fill: #ececec; opacity: 0.5; stroke: #ececec; stroke-linejoin: miter"/>
   </g>
  </g>
  <g id="axis3d_1">
   <g id="line2d_1">
    <path d="M 11.246605 100.663087 
L 84.035724 132.023427 
" style="fill: none; stroke: #000000; stroke-width: 0.8; stroke-linecap: square"/>
   </g>
   <g id="Line3DCollection_1">
    <path d="M 12.622897 101.256047 
L 63.338132 61.576828 
L 62.912576 8.211422 
" style="fill: none; stroke: #b0b0b0; stroke-width: 0.8"/>
    <path d="M 39.114127 112.669483 
L 88.821128 71.337734 
L 89.624139 17.338477 
" style="fill: none; stroke: #b0b0b0; stroke-width: 0.8"/>
    <path d="M 66.765375 124.582699 
L 115.333518 81.492935 
L 117.468231 26.852505 
" style="fill: none; stroke: #b0b0b0; stroke-width: 0.8"/>
   </g>
   <g id="xtick_1">
    <g id="line2d_2">
     <path d="M 13.06099 100.913286 
L 11.745018 101.942893 
" style="fill: none; stroke: #000000; stroke-width: 0.8; stroke-linecap: square"/>
    </g>
   </g>
   <g id="xtick_2">
    <g id="line2d_3">
     <path d="M 39.54419 112.311883 
L 38.252303 113.386096 
" style="fill: none; stroke: #000000; stroke-width: 0.8; stroke-linecap: square"/>
    </g>
   </g>
   <g id="xtick_3">
    <g id="line2d_4">
     <path d="M 67.186276 124.209274 
L 65.921871 125.331056 
" style="fill: none; stroke: #000000; stroke-width: 0.8; stroke-linecap: square"/>
    </g>
   </g>
  </g>
  <g id="axis3d_2">
   <g id="line2d_5">
    <path d="M 131.847945 87.818555 
L 84.035724 132.023427 
" style="fill: none; stroke: #000000; stroke-width: 0.8; stroke-linecap: square"/>
   </g>
   <g id="Line3DCollection_2">
    <path d="M 9.257805 44.059375 
L 12.341773 99.808916 
L 85.071609 131.065698 
" style="fill: none; stroke: #b0b0b0; stroke-width: 0.8"/>
    <path d="M 22.841137 34.619602 
L 25.214729 89.768718 
L 97.233049 119.821818 
" style="fill: none; stroke: #b0b0b0; stroke-width: 0.8"/>
    <path d="M 35.895659 25.547326 
L 37.610143 80.100976 
L 108.917839 109.018625 
" style="fill: none; stroke: #b0b0b0; stroke-width: 0.8"/>
    <path d="M 48.451662 16.821497 
L 49.554105 70.785342 
L 120.153463 98.630708 
" style="fill: none; stroke: #b0b0b0; stroke-width: 0.8"/>
    <path d="M 60.537168 8.422641 
L 61.070837 61.802924 
L 130.965333 88.634575 
" style="fill: none; stroke: #b0b0b0; stroke-width: 0.8"/>
   </g>
   <g id="xtick_4">
    <g id="line2d_6">
     <path d="M 84.455828 130.801056 
L 86.304912 131.595729 
" style="fill: none; stroke: #000000; stroke-width: 0.8; stroke-linecap: square"/>
    </g>
   </g>
   <g id="xtick_5">
    <g id="line2d_7">
     <path d="M 96.623963 119.567648 
L 98.452907 120.330862 
" style="fill: none; stroke: #000000; stroke-width: 0.8; stroke-linecap: square"/>
    </g>
   </g>
   <g id="xtick_6">
    <g id="line2d_8">
     <path d="M 108.315402 108.774316 
L 110.124348 109.507905 
" style="fill: none; stroke: #000000; stroke-width: 0.8; stroke-linecap: square"/>
    </g>
   </g>
   <g id="xtick_7">
    <g id="line2d_9">
     <path d="M 119.557619 98.395699 
L 121.346739 99.101353 
" style="fill: none; stroke: #000000; stroke-width: 0.8; stroke-linecap: square"/>
    </g>
   </g>
   <g id="xtick_8">
    <g id="line2d_10">
     <path d="M 130.376017 88.408344 
L 132.145505 89.087629 
" style="fill: none; stroke: #000000; stroke-width: 0.8; stroke-linecap: square"/>
    </g>
   </g>
  </g>
  <g id="axis3d_3">
   <g id="line2d_11">
    <path d="M 131.847945 87.818555 
L 134.839816 32.78819 
" style="fill: none; stroke: #000000; stroke-width: 0.8; stroke-linecap: square"/>
   </g>
   <g id="Line3DCollection_3">
    <path d="M 132.187702 81.569305 
L 61.95644 54.998605 
L 10.889781 94.333443 
" style="fill: none; stroke: #b0b0b0; stroke-width: 0.8"/>
    <path d="M 133.184023 63.243669 
L 61.793709 37.218379 
L 9.842832 75.76175 
" style="fill: none; stroke: #b0b0b0; stroke-width: 0.8"/>
    <path d="M 134.214047 44.298137 
L 61.625767 18.868854 
L 8.759556 56.545665 
" style="fill: none; stroke: #b0b0b0; stroke-width: 0.8"/>
   </g>
   <g id="xtick_9">
    <g id="line2d_12">
     <path d="M 131.595421 81.345227 
L 133.373817 82.01805 
" style="fill: none; stroke: #000000; stroke-width: 0.8; stroke-linecap: square"/>
    </g>
   </g>
   <g id="xtick_10">
    <g id="line2d_13">
     <path d="M 132.581454 63.024002 
L 134.390769 63.683587 
" style="fill: none; stroke: #000000; stroke-width: 0.8; stroke-linecap: square"/>
    </g>
   </g>
   <g id="xtick_11">
    <g id="line2d_14">
     <path d="M 133.600826 44.083312 
L 135.442153 44.728369 
" style="fill: none; stroke: #000000; stroke-width: 0.8; stroke-linecap: square"/>
    </g>
   </g>
  </g>
  <g id="axes_1">
   <g id="Line3DCollection_4">
    <path d="M 11.335036 56.352267 
L 16.767565 52.470615 
L 22.114231 48.650449 
L 27.377053 44.890327 
L 32.557985 41.188851 
L 37.658923 37.544667 
L 42.681704 33.956462 
L 47.628109 30.422961 
L 52.499864 26.942929 
L 57.298645 23.515167 
L 62.026079 20.13851 
" clip-path="url(#p44e27ea6fb)" style="fill: none; stroke: #1f77b4; stroke-width: 1.5"/>
    <path d="M 12.955357 57.049219 
L 18.381873 53.159969 
L 23.722494 49.332541 
L 28.97924 45.565488 
L 34.154069 41.857407 
L 39.248878 38.206937 
L 44.265506 34.61276 
L 49.205734 31.073597 
L 54.071292 27.588205 
L 58.863857 24.155378 
L 63.585056 20.773947 
" clip-path="url(#p44e27ea6fb)" style="fill: none; stroke: #1f77b4; stroke-width: 1.5"/>
    <path d="M 14.582253 57.7966 
L 20.002544 53.901551 
L 25.336897 50.06873 
L 30.587337 46.296687 
L 35.755822 42.584014 
L 40.844249 38.929349 
L 45.85446 35.331369 
L 50.788238 31.788789 
L 55.647312 28.300363 
L 60.433361 24.864879 
L 65.148012 21.481162 
" clip-path="url(#p44e27ea6fb)" style="fill: none; stroke: #1f77b4; stroke-width: 1.5"/>
    <path d="M 16.217099 58.625813 
L 21.630825 54.727597 
L 26.95856 50.892113 
L 32.202329 47.117912 
L 37.36409 43.403588 
L 42.445743 39.747779 
L 47.449128 36.14916 
L 52.37603 32.606446 
L 57.228177 29.118388 
L 62.007248 25.683773 
L 66.714871 22.301418 
" clip-path="url(#p44e27ea6fb)" style="fill: none; stroke: #1f77b4; stroke-width: 1.5"/>
    <path d="M 17.861708 59.581064 
L 23.268335 55.683087 
L 28.588904 51.848467 
L 33.825436 48.075766 
L 38.979894 44.363586 
L 44.054174 40.710573 
L 49.050118 37.115409 
L 53.969507 33.576815 
L 58.814071 30.093546 
L 63.585486 26.66439 
L 68.285379 23.288165 
" clip-path="url(#p44e27ea6fb)" style="fill: none; stroke: #1f77b4; stroke-width: 1.5"/>
    <path d="M 19.518253 60.719616 
L 24.916962 56.825547 
L 30.229533 52.995579 
L 35.457988 49.228299 
L 40.604287 45.522333 
L 45.670326 41.876349 
L 50.657943 38.289051 
L 55.568919 34.759178 
L 60.40498 31.285504 
L 65.167799 27.86683 
L 69.858999 24.501986 
" clip-path="url(#p44e27ea6fb)" style="fill: none; stroke: #1f77b4; stroke-width: 1.5"/>
    <path d="M 21.189034 62.108815 
L 26.578619 58.221301 
L 31.88199 54.398692 
L 37.101168 50.639623 
L 42.238112 46.942769 
L 47.294716 43.306848 
L 52.272815 39.730611 
L 57.174184 36.212843 
L 62.000545 32.752357 
L 66.753565 29.347995 
L 71.434863 25.998618 
" clip-path="url(#p44e27ea6fb)" style="fill: none; stroke: #1f77b4; stroke-width: 1.5"/>
    <path d="M 22.876088 63.818948 
L 28.254857 59.93727 
L 33.547375 56.121194 
L 38.755663 52.369447 
L 43.881679 48.680796 
L 48.927314 45.054051 
L 53.894398 41.488056 
L 58.784703 37.981683 
L 63.59994 34.533833 
L 68.341771 31.143428 
L 73.011802 27.809406 
" clip-path="url(#p44e27ea6fb)" style="fill: none; stroke: #1f77b4; stroke-width: 1.5"/>
    <path d="M 24.580697 65.912287 
L 29.946401 62.028849 
L 35.225918 58.211293 
L 40.421274 54.4585 
L 45.534428 50.769398 
L 50.56727 47.142958 
L 55.521625 43.578184 
L 60.399256 40.074114 
L 65.201868 36.629804 
L 69.931108 33.244331 
L 74.58857 29.91678 
" clip-path="url(#p44e27ea6fb)" style="fill: none; stroke: #1f77b4; stroke-width: 1.5"/>
    <path d="M 26.302924 68.430568 
L 31.652741 64.526542 
L 36.916636 60.687765 
L 42.096648 56.913364 
L 47.19474 53.202525 
L 52.212805 49.554482 
L 57.152666 45.96851 
L 62.016078 42.443917 
L 66.804733 38.980031 
L 71.520265 35.576195 
L 76.164247 32.231756 
" clip-path="url(#p44e27ea6fb)" style="fill: none; stroke: #1f77b4; stroke-width: 1.5"/>
    <path d="M 28.041361 71.384977 
L 33.371964 67.425997 
L 38.617244 63.530033 
L 43.779263 59.696587 
L 48.860001 55.925237 
L 53.86136 52.215624 
L 58.785162 48.567444 
L 63.633159 44.980429 
L 68.40703 41.454341 
L 73.108388 37.988953 
L 77.738781 34.584038 
" clip-path="url(#p44e27ea6fb)" style="fill: none; stroke: #1f77b4; stroke-width: 1.5"/>
    <path d="M 29.793233 74.753115 
L 35.100951 70.686478 
L 40.324435 66.678206 
L 45.465787 62.728331 
L 50.527019 58.836995 
L 55.510051 55.004432 
L 60.416715 51.23095 
L 65.24876 47.516915 
L 70.007853 43.862729 
L 74.695586 40.268818 
L 79.313473 36.735603 
" clip-path="url(#p44e27ea6fb)" style="fill: none; stroke: #1f77b4; stroke-width: 1.5"/>
    <path d="M 31.554882 78.485409 
L 36.835958 74.240551 
L 42.034528 70.046133 
L 47.152759 65.902899 
L 52.192713 61.811753 
L 57.156345 57.773734 
L 62.045508 53.789996 
L 66.861955 49.861779 
L 71.607346 45.990387 
L 76.283244 42.177161 
L 80.891128 38.423453 
" clip-path="url(#p44e27ea6fb)" style="fill: none; stroke: #1f77b4; stroke-width: 1.5"/>
    <path d="M 33.322453 82.51896 
L 38.573372 78.012658 
L 43.744258 73.544886 
L 48.837374 69.117279 
L 53.854856 64.731703 
L 58.798713 60.390225 
L 63.670835 56.095084 
L 68.472992 51.84866 
L 73.206836 47.653434 
L 77.873909 43.511961 
L 82.475648 39.426829 
" clip-path="url(#p44e27ea6fb)" style="fill: none; stroke: #1f77b4; stroke-width: 1.5"/>
    <path d="M 35.092476 86.791576 
L 40.310337 81.938352 
L 45.451406 77.10741 
L 50.51807 72.301423 
L 55.512566 67.523385 
L 60.436986 62.776587 
L 65.293271 58.064569 
L 70.083221 53.391087 
L 74.808495 48.760066 
L 79.470616 44.175555 
L 84.070975 39.641682 
" clip-path="url(#p44e27ea6fb)" style="fill: none; stroke: #1f77b4; stroke-width: 1.5"/>
    <path d="M 36.861992 91.245797 
L 42.0449 85.972387 
L 47.15492 80.700928 
L 52.194594 75.4352 
L 57.166289 70.179431 
L 62.072198 64.938251 
L 66.914339 59.716652 
L 71.694559 54.519938 
L 76.414535 49.353671 
L 81.07578 44.223618 
L 85.679647 39.13569 
" clip-path="url(#p44e27ea6fb)" style="fill: none; stroke: #1f77b4; stroke-width: 1.5"/>
    <path d="M 38.628091 95.815015 
L 43.775539 90.076009 
L 48.85443 84.315588 
L 53.867484 78.538624 
L 58.81722 72.750573 
L 63.705952 66.957428 
L 68.535794 61.165671 
L 73.308655 55.382215 
L 78.026247 49.614345 
L 82.690084 43.869652 
L 87.301489 38.155965 
" clip-path="url(#p44e27ea6fb)" style="fill: none; stroke: #1f77b4; stroke-width: 1.5"/>
    <path d="M 40.387062 100.392026 
L 45.500271 94.182548 
L 50.549335 87.927143 
L 55.537159 81.631666 
L 60.466422 75.302702 
L 65.339573 68.947513 
L 70.158827 62.573984 
L 74.926172 56.190571 
L 79.643363 49.806225 
L 84.311927 43.430321 
L 88.933168 37.072585 
" clip-path="url(#p44e27ea6fb)" style="fill: none; stroke: #1f77b4; stroke-width: 1.5"/>
    <path d="M 42.133655 104.791874 
L 47.215842 98.153207 
L 52.237969 91.445475 
L 57.203113 84.675343 
L 62.114106 77.850337 
L 66.973523 70.978798 
L 71.783683 64.069826 
L 76.546649 57.13322 
L 81.264223 50.179403 
L 85.937951 43.219347 
L 90.569126 36.264482 
" clip-path="url(#p44e27ea6fb)" style="fill: none; stroke: #1f77b4; stroke-width: 1.5"/>
    <path d="M 43.861085 108.72938 
L 48.917584 101.74522 
L 53.917387 94.672892 
L 58.863711 87.519661 
L 63.759512 80.293764 
L 68.607467 73.004367 
L 73.409981 65.661513 
L 78.169177 58.276053 
L 82.886895 50.859575 
L 87.564699 43.424321 
L 92.203871 35.983095 
" clip-path="url(#p44e27ea6fb)" style="fill: none; stroke: #1f77b4; stroke-width: 1.5"/>
    <path d="M 45.562102 111.831369 
L 50.600272 104.615382 
L 55.584085 97.298331 
L 60.516847 89.887863 
L 65.401591 82.392679 
L 70.241059 74.822485 
L 75.037707 67.187944 
L 79.793692 59.500605 
L 84.510876 51.772836 
L 89.190823 44.017732 
L 93.834805 36.249024 
" clip-path="url(#p44e27ea6fb)" style="fill: none; stroke: #1f77b4; stroke-width: 1.5"/>
    <path d="M 47.230973 113.692208 
L 52.259836 106.3705 
L 57.235484 98.942211 
L 62.161255 91.415156 
L 67.040205 83.798236 
L 71.875094 76.101394 
L 76.668388 68.335563 
L 81.422247 60.512605 
L 86.138528 52.645228 
L 90.818786 44.746907 
L 95.464271 36.831784 
" clip-path="url(#p44e27ea6fb)" style="fill: none; stroke: #1f77b4; stroke-width: 1.5"/>
    <path d="M 48.865721 113.963447 
L 53.895288 106.657004 
L 58.87157 99.245831 
L 63.797877 91.737681 
L 68.677237 84.141381 
L 73.512383 76.466789 
L 78.305752 68.724749 
L 83.059481 60.927015 
L 87.775401 53.086188 
L 92.455043 45.21562 
L 97.099636 37.329323 
" clip-path="url(#p44e27ea6fb)" style="fill: none; stroke: #1f77b4; stroke-width: 1.5"/>
    <path d="M 50.469721 112.452719 
L 55.51005 105.264156 
L 60.495925 97.979072 
L 65.43058 90.604904 
L 70.316971 83.150116 
L 75.15777 75.624157 
L 79.955361 68.037402 
L 84.711834 60.401096 
L 89.428986 52.727275 
L 94.108322 45.028682 
L 98.751058 37.318678 
" clip-path="url(#p44e27ea6fb)" style="fill: none; stroke: #1f77b4; stroke-width: 1.5"/>
    <path d="M 52.05197 109.200391 
L 57.112054 102.207152 
L 62.115618 95.130357 
L 67.065785 87.976875 
L 71.965415 80.754519 
L 76.817098 73.472002 
L 81.623149 66.138884 
L 86.385608 58.765513 
L 91.106237 51.362953 
L 95.786525 43.942904 
L 100.427689 36.517614 
" clip-path="url(#p44e27ea6fb)" style="fill: none; stroke: #1f77b4; stroke-width: 1.5"/>
    <path d="M 53.625776 104.506789 
L 58.71244 97.760462 
L 63.739864 90.946576 
L 68.711044 84.071193 
L 73.628733 77.141213 
L 78.49543 70.164335 
L 83.313382 63.149004 
L 88.084583 56.104355 
L 92.810772 49.040149 
L 97.493436 41.966695 
L 102.133816 34.894778 
" clip-path="url(#p44e27ea6fb)" style="fill: none; stroke: #1f77b4; stroke-width: 1.5"/>
    <path d="M 55.206178 98.895964 
L 60.32321 92.425734 
L 65.377877 85.905434 
L 70.373045 79.340132 
L 75.311357 72.735622 
L 80.195226 66.098381 
L 85.02684 59.435525 
L 89.808156 52.754759 
L 94.540904 46.064318 
L 99.22659 39.372901 
L 103.866499 32.689606 
" clip-path="url(#p44e27ea6fb)" style="fill: none; stroke: #1f77b4; stroke-width: 1.5"/>
    <path d="M 56.806834 93.020496 
L 61.954576 86.838227 
L 67.036648 80.623666 
L 72.05579 74.380782 
L 77.014542 68.114153 
L 81.915241 61.828929 
L 86.760024 55.530792 
L 91.550826 49.225915 
L 96.289383 42.920912 
L 100.977232 36.622783 
L 105.61572 30.338855 
" clip-path="url(#p44e27ea6fb)" style="fill: none; stroke: #1f77b4; stroke-width: 1.5"/>
    <path d="M 58.437352 87.531356 
L 63.612874 81.636252 
L 68.719428 75.726065 
L 73.759638 69.803646 
L 78.735952 63.872346 
L 83.650642 57.935985 
L 88.505805 51.998819 
L 93.303363 46.065506 
L 98.045066 40.141065 
L 102.732495 34.230829 
L 107.367063 28.340408 
" clip-path="url(#p44e27ea6fb)" style="fill: none; stroke: #1f77b4; stroke-width: 1.5"/>
    <path d="M 60.101843 82.950521 
L 65.29968 77.332333 
L 70.425407 71.71511 
L 75.481543 66.100652 
L 80.470457 60.491163 
L 85.394366 54.889221 
L 90.255335 49.29776 
L 95.055279 43.720034 
L 99.795967 38.159593 
L 104.479023 32.620245 
L 109.105928 27.106025 
" clip-path="url(#p44e27ea6fb)" style="fill: none; stroke: #1f77b4; stroke-width: 1.5"/>
    <path d="M 61.79908 79.584539 
L 67.012342 74.22533 
L 72.150616 68.881582 
L 77.216333 63.554173 
L 82.211794 58.2443 
L 87.139167 52.953457 
L 92.000492 47.683422 
L 96.797681 42.436231 
L 101.532518 37.214155 
L 106.206667 32.019681 
L 110.821671 26.855482 
" clip-path="url(#p44e27ea6fb)" style="fill: none; stroke: #1f77b4; stroke-width: 1.5"/>
    <path d="M 63.523981 77.501757 
L 68.745544 72.37697 
L 73.889583 67.280341 
L 78.958455 62.211987 
L 83.954402 57.172272 
L 88.879551 52.161799 
L 93.735921 47.181391 
L 98.525418 42.23208 
L 103.249841 37.315087 
L 107.910885 32.431809 
L 112.510142 27.583798 
" clip-path="url(#p44e27ea6fb)" style="fill: none; stroke: #1f77b4; stroke-width: 1.5"/>
    <path d="M 65.269723 76.571155 
L 70.493221 71.650826 
L 75.637044 66.769428 
L 80.703485 61.926484 
L 85.694739 57.121709 
L 90.6129 52.355005 
L 95.459965 47.626451 
L 100.237835 42.936291 
L 104.94832 38.284923 
L 109.593135 33.672886 
L 114.17391 29.100851 
" clip-path="url(#p44e27ea6fb)" style="fill: none; stroke: #1f77b4; stroke-width: 1.5"/>
    <path d="M 67.029688 76.539326 
L 72.250121 71.789927 
L 77.389121 67.088297 
L 82.448934 62.433519 
L 87.431714 57.824828 
L 92.339528 53.261604 
L 97.174356 48.74337 
L 101.938091 44.26978 
L 106.632548 39.840612 
L 111.259457 35.455764 
L 115.820474 31.115239 
" clip-path="url(#p44e27ea6fb)" style="fill: none; stroke: #1f77b4; stroke-width: 1.5"/>
    <path d="M 68.798711 77.114316 
L 74.012635 72.501154 
L 79.143748 67.942765 
L 84.194259 63.437921 
L 89.166292 58.985515 
L 94.06189 54.584558 
L 98.883019 50.234174 
L 103.631565 45.933594 
L 108.309343 41.682152 
L 112.918095 37.479278 
L 117.459491 33.324493 
" clip-path="url(#p44e27ea6fb)" style="fill: none; stroke: #1f77b4; stroke-width: 1.5"/>
    <path d="M 70.573506 78.03137 
L 75.778897 73.521115 
L 80.900442 69.070992 
L 85.940321 64.679561 
L 90.900636 60.345484 
L 95.783413 56.067518 
L 100.590604 51.844515 
L 105.324092 47.675413 
L 109.985689 43.559237 
L 114.577142 39.495094 
L 119.100132 35.482166 
" clip-path="url(#p44e27ea6fb)" style="fill: none; stroke: #1f77b4; stroke-width: 1.5"/>
    <path d="M 72.352466 79.089387 
L 77.548393 74.652202 
L 82.659729 70.27911 
L 87.688635 65.968533 
L 92.637196 61.718982 
L 97.507426 57.529048 
L 102.301269 53.3974 
L 107.020601 49.322783 
L 111.667234 45.304014 
L 116.242917 41.339983 
L 120.749336 37.429642 
" clip-path="url(#p44e27ea6fb)" style="fill: none; stroke: #1f77b4; stroke-width: 1.5"/>
    <path d="M 74.13515 80.15972 
L 79.321396 75.77063 
L 84.422541 71.44847 
L 89.440732 67.191577 
L 94.378044 62.998363 
L 99.236482 58.867314 
L 104.017984 54.796982 
L 108.724422 50.785987 
L 113.357607 46.833012 
L 117.919288 42.936803 
L 122.411156 39.096165 
" clip-path="url(#p44e27ea6fb)" style="fill: none; stroke: #1f77b4; stroke-width: 1.5"/>
    <path d="M 75.921737 81.176268 
L 81.098473 76.815665 
L 86.189774 72.523973 
L 91.19778 68.299477 
L 96.124561 64.140529 
L 100.972114 60.045546 
L 105.742376 56.013008 
L 110.437215 52.041456 
L 115.058441 48.129488 
L 119.607805 44.27576 
L 124.087 40.47898 
" clip-path="url(#p44e27ea6fb)" style="fill: none; stroke: #1f77b4; stroke-width: 1.5"/>
    <path d="M 77.712621 82.117225 
L 82.880159 77.770627 
L 87.962058 73.494308 
L 92.960454 69.286516 
L 97.877411 65.145566 
L 102.714927 61.069834 
L 107.474934 57.057753 
L 112.159302 53.107814 
L 116.769839 49.218564 
L 121.308296 45.3886 
L 125.776368 41.616573 
" clip-path="url(#p44e27ea6fb)" style="fill: none; stroke: #1f77b4; stroke-width: 1.5"/>
    <path d="M 79.50817 82.986501 
L 84.666824 78.643827 
L 89.739721 74.372376 
L 94.728997 70.170377 
L 99.636715 66.036117 
L 104.464872 61.967945 
L 109.215399 57.964267 
L 113.890166 54.023541 
L 118.490981 50.144281 
L 123.019598 46.32505 
L 127.47771 42.564459 
" clip-path="url(#p44e27ea6fb)" style="fill: none; stroke: #1f77b4; stroke-width: 1.5"/>
    <path d="M 81.30864 83.799234 
L 86.458653 79.45385 
L 91.52285 75.180362 
L 96.503367 70.976982 
L 101.402267 66.841981 
L 106.221547 62.773689 
L 110.963139 58.770492 
L 115.628913 54.830829 
L 120.220679 50.95319 
L 124.74019 47.136116 
L 129.189144 43.378195 
" clip-path="url(#p44e27ea6fb)" style="fill: none; stroke: #1f77b4; stroke-width: 1.5"/>
    <path d="M 83.114168 84.572618 
L 88.255698 80.220387 
L 93.311389 75.940559 
L 98.283377 71.731332 
L 103.173726 67.590964 
L 107.984436 63.517771 
L 112.717439 59.510124 
L 117.374605 55.566449 
L 121.957747 51.68522 
L 126.468618 47.864962 
L 130.908917 44.104247 
" clip-path="url(#p44e27ea6fb)" style="fill: none; stroke: #1f77b4; stroke-width: 1.5"/>
    <path d="M 84.018848 84.949295 
L 89.156171 80.592643 
L 94.207652 76.308607 
L 99.175428 72.09538 
L 104.061564 67.951214 
L 108.868059 63.874419 
L 113.596847 59.863361 
L 118.249799 55.916458 
L 122.828728 52.032179 
L 127.335387 48.209043 
L 131.771477 44.445615 
" clip-path="url(#p44e27ea6fb)" style="fill: none; stroke: #1f77b4; stroke-width: 1.5"/>
    <path d="M 11.335036 56.352267 
L 15.126238 58.062006 
L 17.586839 59.410824 
L 19.518253 60.719616 
L 21.189034 62.108815 
L 22.876088 63.818948 
L 24.580697 65.912287 
L 26.302924 68.430568 
L 28.041361 71.384977 
L 30.086268 75.351495 
L 32.438158 80.468552 
L 35.092476 86.791576 
L 38.628091 95.815015 
L 42.711959 106.172715 
L 44.431362 109.876329 
L 45.562102 111.831369 
L 46.400791 112.94124 
L 47.230973 113.692208 
L 47.779633 113.972849 
L 48.324508 114.065748 
L 48.865721 113.963447 
L 49.40347 113.661179 
L 49.938023 113.157145 
L 50.734623 112.026688 
L 51.526214 110.464703 
L 52.576774 107.774029 
L 53.888316 103.618667 
L 56.270333 94.966671 
L 58.16328 88.394882 
L 59.543216 84.352647 
L 60.664141 81.685409 
L 61.79908 79.584539 
L 62.658483 78.387057 
L 63.523981 77.501757 
L 64.394684 76.906426 
L 65.269723 76.571155 
L 66.148294 76.461139 
L 67.029688 76.539326 
L 68.208271 76.872662 
L 69.685521 77.544366 
L 72.055713 78.909581 
L 76.518201 81.498494 
L 79.807902 83.12541 
L 84.018848 84.949295 
L 84.018848 84.949295 
" clip-path="url(#p44e27ea6fb)" style="fill: none; stroke: #1f77b4; stroke-width: 1.5"/>
    <path d="M 16.767565 52.470615 
L 20.544386 54.165566 
L 22.994698 55.512548 
L 24.916962 56.825547 
L 26.578619 58.221301 
L 28.254857 59.93727 
L 29.946401 62.028849 
L 31.652741 64.526542 
L 33.371964 67.425997 
L 35.389805 71.260489 
L 37.994162 76.735433 
L 41.467073 84.617897 
L 48.635146 101.186403 
L 50.041791 103.76297 
L 51.156159 105.34359 
L 51.98494 106.171645 
L 52.807595 106.643479 
L 53.352703 106.741702 
L 53.895288 106.657004 
L 54.435535 106.383795 
L 54.973689 105.919374 
L 55.777665 104.86602 
L 56.578826 103.39939 
L 57.645095 100.858565 
L 58.979869 96.916862 
L 61.135814 89.622132 
L 63.334495 82.452402 
L 64.734335 78.643792 
L 65.867921 76.155888 
L 67.012342 74.22533 
L 67.876758 73.148501 
L 68.745544 72.37697 
L 69.617934 71.887887 
L 70.493221 71.650826 
L 71.370787 71.6306 
L 72.543554 71.876487 
L 73.718591 72.354762 
L 75.484294 73.338999 
L 82.582873 77.617561 
L 85.860797 79.189604 
L 89.156171 80.592643 
L 89.156171 80.592643 
" clip-path="url(#p44e27ea6fb)" style="fill: none; stroke: #1f77b4; stroke-width: 1.5"/>
    <path d="M 22.114231 48.650449 
L 25.606635 50.19883 
L 28.044394 51.511558 
L 29.955312 52.788417 
L 31.605704 54.144263 
L 33.268889 55.809593 
L 34.945272 57.836165 
L 36.634086 60.248543 
L 38.617244 63.530033 
L 40.894321 67.781022 
L 44.313668 74.727641 
L 54.196143 95.16206 
L 55.584085 97.298331 
L 56.686787 98.527067 
L 57.509179 99.094264 
L 58.055306 99.280181 
L 58.599847 99.300386 
L 59.142958 99.147148 
L 59.684843 98.81537 
L 60.495925 97.979072 
L 61.305806 96.743108 
L 62.115618 95.130357 
L 63.197348 92.464001 
L 64.556637 88.496457 
L 69.002223 74.985218 
L 70.139606 72.306722 
L 71.285935 70.142399 
L 72.150616 68.881582 
L 73.018731 67.93199 
L 73.889583 67.280341 
L 74.762535 66.903137 
L 75.637044 66.769428 
L 76.512677 66.843648 
L 77.681412 67.201257 
L 79.143748 67.942765 
L 81.48654 69.472173 
L 85.60016 72.177271 
L 88.257957 73.646512 
L 91.52285 75.180362 
L 94.207652 76.308607 
L 94.207652 76.308607 
" clip-path="url(#p44e27ea6fb)" style="fill: none; stroke: #1f77b4; stroke-width: 1.5"/>
    <path d="M 27.377053 44.890327 
L 30.855993 46.426206 
L 33.283417 47.737915 
L 35.185186 49.019985 
L 36.826529 50.383747 
L 38.479123 52.056949 
L 40.142943 54.084584 
L 41.816835 56.479836 
L 43.779263 59.696587 
L 46.309417 64.304644 
L 57.480309 85.169206 
L 59.41568 88.378843 
L 60.791529 90.211232 
L 61.614088 91.023189 
L 62.434499 91.56135 
L 63.253024 91.783054 
L 63.797877 91.737681 
L 64.342272 91.528819 
L 65.158486 90.89956 
L 65.975002 89.889682 
L 66.792757 88.512696 
L 67.886696 86.160208 
L 69.262918 82.558216 
L 74.331828 68.453387 
L 75.481543 66.100652 
L 76.636992 64.266917 
L 77.506318 63.248772 
L 78.377242 62.531434 
L 79.249185 62.097192 
L 80.121682 61.91913 
L 80.994401 61.963965 
L 82.158041 62.306656 
L 83.321582 62.891198 
L 85.06711 64.042797 
L 90.904561 68.123454 
L 93.549314 69.591377 
L 96.799649 71.105723 
L 99.175428 72.09538 
L 99.175428 72.09538 
" clip-path="url(#p44e27ea6fb)" style="fill: none; stroke: #1f77b4; stroke-width: 1.5"/>
    <path d="M 32.557985 41.188851 
L 36.023388 42.713028 
L 38.440389 44.024562 
L 40.332917 45.312725 
L 41.965131 46.685293 
L 43.607086 48.367266 
L 45.258388 50.396631 
L 46.917597 52.774787 
L 49.137804 56.400645 
L 57.716846 71.042388 
L 63.759512 80.293764 
L 65.128168 82.080748 
L 66.22127 83.206047 
L 67.040205 83.798236 
L 67.858704 84.12328 
L 68.677237 84.141381 
L 69.223241 83.967641 
L 70.043251 83.414015 
L 70.865165 82.503841 
L 71.689796 81.246634 
L 72.794876 79.078361 
L 74.187326 75.734202 
L 79.31297 62.631321 
L 80.470457 60.491163 
L 81.630965 58.860112 
L 82.502266 57.986148 
L 83.37366 57.405332 
L 84.244675 57.099208 
L 85.114995 57.040231 
L 85.984464 57.19463 
L 87.142431 57.668057 
L 88.588246 58.565021 
L 90.900636 60.345484 
L 94.378044 62.998363 
L 96.708125 64.489949 
L 99.343056 65.894387 
L 102.582605 67.346135 
L 104.061564 67.951214 
L 104.061564 67.951214 
" clip-path="url(#p44e27ea6fb)" style="fill: none; stroke: #1f77b4; stroke-width: 1.5"/>
    <path d="M 37.658923 37.544667 
L 41.110719 39.057934 
L 43.24904 40.207651 
L 45.13071 41.461339 
L 46.752325 42.797014 
L 48.382236 44.43416 
L 50.019892 46.408803 
L 51.938263 49.132576 
L 54.136209 52.675402 
L 59.072028 60.804877 
L 61.254878 63.881821 
L 63.978207 67.288258 
L 70.51332 75.083278 
L 71.602633 75.941873 
L 72.420293 76.3421 
L 73.23909 76.483696 
L 74.059662 76.330008 
L 74.88273 75.855796 
L 75.709046 75.05015 
L 76.539337 73.918376 
L 77.653656 71.942795 
L 79.059624 68.867966 
L 84.231333 56.808513 
L 85.394366 54.889221 
L 86.267035 53.775145 
L 87.139167 52.953457 
L 88.010148 52.420883 
L 88.879551 52.161799 
L 89.747148 52.150695 
L 90.6129 52.355005 
L 91.764612 52.898804 
L 93.201037 53.888576 
L 95.496402 55.817969 
L 98.659454 58.438296 
L 100.972114 60.045546 
L 103.297465 61.381564 
L 106.221547 62.773689 
L 108.868059 63.874419 
L 108.868059 63.874419 
" clip-path="url(#p44e27ea6fb)" style="fill: none; stroke: #1f77b4; stroke-width: 1.5"/>
    <path d="M 42.681704 33.956462 
L 46.119825 35.459599 
L 48.248796 36.610205 
L 50.12122 37.870959 
L 51.733748 39.21691 
L 53.353174 40.865248 
L 54.978688 42.845338 
L 56.880657 45.552426 
L 59.601191 49.901565 
L 62.587666 54.592425 
L 64.482334 57.123149 
L 66.103861 58.925044 
L 67.995174 60.695386 
L 72.596676 64.859619 
L 75.30921 67.415583 
L 76.396272 68.186744 
L 77.213186 68.567834 
L 78.032173 68.727754 
L 78.853958 68.626648 
L 79.679315 68.235382 
L 80.509005 67.538751 
L 81.343706 66.537644 
L 82.465314 64.762548 
L 83.882039 61.96753 
L 89.089004 50.98876 
L 90.255335 49.29776 
L 91.128877 48.347933 
L 92.000492 47.683422 
L 92.869615 47.300053 
L 93.735921 47.181391 
L 94.599326 47.301231 
L 95.459965 47.626451 
L 96.603751 48.315198 
L 98.029113 49.459517 
L 104.879167 55.427892 
L 106.896512 56.726719 
L 109.215399 57.964267 
L 112.424628 59.390277 
L 113.596847 59.863361 
L 113.596847 59.863361 
" clip-path="url(#p44e27ea6fb)" style="fill: none; stroke: #1f77b4; stroke-width: 1.5"/>
    <path d="M 47.628109 30.422961 
L 50.788238 31.788789 
L 52.90654 32.910134 
L 54.768466 34.13764 
L 56.370843 35.448772 
L 57.978848 37.056262 
L 59.591575 38.988874 
L 61.477009 41.628666 
L 64.71047 46.68323 
L 66.861955 49.861779 
L 68.472992 51.84866 
L 69.814825 53.165136 
L 71.157206 54.182579 
L 72.770251 55.111761 
L 76.546649 57.13322 
L 78.439767 58.480518 
L 80.87871 60.222146 
L 81.966731 60.736314 
L 82.785743 60.915515 
L 83.608249 60.869191 
L 84.435106 60.564129 
L 85.267118 59.980629 
L 86.104951 59.114957 
L 87.231866 57.547394 
L 88.656549 55.04157 
L 93.595666 45.608518 
L 94.763751 44.041015 
L 95.637482 43.168664 
L 96.508215 42.573006 
L 97.375346 42.253459 
L 98.238562 42.196571 
L 99.097835 42.378339 
L 99.953399 42.766999 
L 101.089178 43.543526 
L 102.503042 44.801568 
L 108.724422 50.785987 
L 110.72359 52.231417 
L 112.735322 53.42767 
L 115.338615 54.702148 
L 118.249799 55.916458 
L 118.249799 55.916458 
" clip-path="url(#p44e27ea6fb)" style="fill: none; stroke: #1f77b4; stroke-width: 1.5"/>
    <path d="M 52.499864 26.942929 
L 55.647312 28.300363 
L 57.756245 29.423142 
L 59.608911 30.658592 
L 61.20222 31.981416 
L 62.799835 33.602578 
L 64.400684 35.544672 
L 66.270441 38.174976 
L 71.607346 45.990387 
L 72.940168 47.413944 
L 74.007245 48.277029 
L 75.075813 48.891314 
L 76.146485 49.284183 
L 77.488362 49.548935 
L 80.993909 50.097059 
L 82.345883 50.598814 
L 83.969326 51.4559 
L 86.410511 52.759723 
L 87.50164 53.059629 
L 88.324357 53.070098 
L 89.151906 52.854198 
L 89.985168 52.387538 
L 90.82484 51.661567 
L 91.955062 50.30778 
L 93.097481 48.578016 
L 95.122187 45.008408 
L 97.167093 41.454625 
L 98.337519 39.746161 
L 99.504938 38.421463 
L 100.376763 37.724263 
L 101.244363 37.296657 
L 102.107181 37.137116 
L 102.965001 37.231327 
L 103.817937 37.554521 
L 104.94832 38.284923 
L 106.352555 39.553717 
L 108.588591 41.998163 
L 111.386435 45.026901 
L 113.357607 46.833012 
L 115.342955 48.324341 
L 117.342526 49.542923 
L 119.931854 50.824672 
L 122.828728 52.032179 
L 122.828728 52.032179 
" clip-path="url(#p44e27ea6fb)" style="fill: none; stroke: #1f77b4; stroke-width: 1.5"/>
    <path d="M 57.298645 23.515167 
L 60.433361 24.864879 
L 62.532852 25.989794 
L 64.376163 27.234071 
L 65.960305 28.569593 
L 67.547441 30.205659 
L 69.136385 32.158614 
L 71.255464 35.176962 
L 74.960107 40.618957 
L 76.283244 42.177161 
L 77.343165 43.139611 
L 78.40533 43.808422 
L 79.470616 44.175555 
L 80.539698 44.265718 
L 81.612898 44.135939 
L 83.77066 43.565437 
L 85.395713 43.248881 
L 86.48025 43.237889 
L 87.564699 43.424321 
L 88.919794 43.90015 
L 91.90818 45.114509 
L 93.003804 45.242571 
L 93.831224 45.118467 
L 94.664655 44.77192 
L 95.504863 44.189376 
L 96.636388 43.054748 
L 97.780637 41.566534 
L 99.808776 38.447793 
L 101.855155 35.351928 
L 103.02452 33.899186 
L 104.189033 32.821883 
L 105.057355 32.303166 
L 105.920308 32.04685 
L 106.777387 32.050461 
L 107.628482 32.29881 
L 108.473851 32.766352 
L 109.593135 33.672886 
L 110.982503 35.134152 
L 113.747118 38.500485 
L 115.964625 41.04861 
L 117.919288 42.936803 
L 119.607805 44.27576 
L 121.592801 45.555496 
L 123.878829 46.743314 
L 127.046287 48.095522 
L 127.335387 48.209043 
L 127.335387 48.209043 
" clip-path="url(#p44e27ea6fb)" style="fill: none; stroke: #1f77b4; stroke-width: 1.5"/>
    <path d="M 62.026079 20.13851 
L 65.148012 21.481162 
L 67.237988 22.608908 
L 69.071846 23.8629 
L 70.646718 25.212145 
L 72.223278 26.864398 
L 73.800279 28.829701 
L 75.901726 31.837754 
L 79.050911 36.402226 
L 80.364686 37.927696 
L 81.418332 38.842176 
L 82.475648 39.426829 
L 83.271751 39.632997 
L 84.070975 39.641682 
L 84.873579 39.467219 
L 85.949092 38.996338 
L 87.572884 37.971744 
L 89.75099 36.613904 
L 90.841789 36.177231 
L 91.931663 35.989283 
L 93.019796 36.056633 
L 94.377851 36.425646 
L 97.099636 37.329323 
L 98.198168 37.400555 
L 99.028552 37.244369 
L 99.865611 36.880202 
L 100.709979 36.300918 
L 101.847443 35.215203 
L 103.28648 33.465136 
L 106.783993 28.938785 
L 107.948712 27.82859 
L 108.817508 27.24656 
L 109.680763 26.908926 
L 110.537584 26.82647 
L 111.387526 26.995765 
L 112.23059 27.400742 
L 113.34473 28.260686 
L 114.449282 29.410519 
L 116.093902 31.477528 
L 120.19834 36.80985 
L 121.85568 38.573154 
L 123.526829 40.047746 
L 125.211825 41.261324 
L 127.193401 42.417213 
L 129.761552 43.628004 
L 131.771477 44.445615 
L 131.771477 44.445615 
" clip-path="url(#p44e27ea6fb)" style="fill: none; stroke: #1f77b4; stroke-width: 1.5"/>
   </g>
  </g>
 </g>
 <defs>
  <clipPath id="p44e27ea6fb">
   <rect x="1.4112" y="0" width="138.01536" height="138.01536"/>
  </clipPath>
 </defs>
</svg>
